<?xml version="1.0" standalone="no"?>
<!DOCTYPE svg PUBLIC "-//W3C//DTD SVG 1.1//EN" "http://www.w3.org/Graphics/SVG/1.1/DTD/svg11.dtd" >
<svg xmlns="http://www.w3.org/2000/svg">
<metadata>
This is a custom SVG webfont generated by Font Squirrel.
Copyright   : Copyright c 2001 by Bigelow  Holmes Inc Instructions copyright c 2001 by URW
Designer    : Kris Holmes and Charles Bigelow
Foundry     : Bigelow  Holmes Inc
Foundry URL : httpwwwurwppde
</metadata>
<defs>
<font id="LuxiSerifRegular" horiz-adv-x="1024" vert-adv-y="2048" >
<font-face units-per-em="2048" ascent="1638" descent="-410" />
<missing-glyph horiz-adv-x="512" />
<glyph horiz-adv-x="0" vert-adv-y="0" />
<glyph horiz-adv-x="512" vert-adv-y="2465" />
<glyph unicode=" " horiz-adv-x="512" vert-adv-y="2465" />
<glyph unicode="!" horiz-adv-x="682" vert-adv-y="2465" d="M242 0v197h197v-197h-197zM242 1184v296h197v-296l-67 -789h-62z" />
<glyph unicode="&#x22;" horiz-adv-x="836" vert-adv-y="2465" d="M146 1579h197l-67 -493h-62zM491 1579h198l-68 -493h-62z" />
<glyph unicode="#" vert-adv-y="2465" d="M0 456l19 99h213l92 370h-231l19 99h237l114 456h103l-115 -456h264l114 456h103l-114 -456h206l-18 -99h-213l-92 -370h230l-18 -99h-237l-114 -456h-103l114 456h-263l-115 -456h-102l114 456h-207zM334 555h264l92 370h-263z" />
<glyph unicode="$" vert-adv-y="2465" d="M80 86v247h111l1 -18q2 -36 3 -62v-6q0 -81 72 -131q73 -51 189 -51l39 1v607q-192 112 -271 202q-95 106 -95 255q0 141 84 230q62 65 166 100q38 12 116 27v117h61l1 -119q171 -8 356 -77v-230h-111l-1 19l-2 23q0 5 -1 18q-1 15 -1 20v4q0 64 -49 104q-61 51 -172 51 h-19v-580l24 -15l29 -19l22 -14l30 -19q164 -105 212 -167q57 -73 57 -191q0 -184 -132 -302q-90 -81 -242 -113v-120h-62v123q-212 0 -415 86zM301 1167q0 -155 194 -288v531q-81 -13 -130 -67q-64 -70 -64 -176zM557 78q91 32 136 84q66 75 66 195q0 149 -156 250l-46 30 v-559z" />
<glyph unicode="%" horiz-adv-x="1706" vert-adv-y="2465" d="M120 1110q0 163 88 266q88 104 227 104q138 0 226 -103t88 -267q0 -165 -89 -267q-89 -103 -230 -103q-121 0 -204 84q-106 107 -106 286zM195 -37l1190 1554h124l-1189 -1554h-125zM268 1111q0 -309 165 -309q168 0 168 314q0 303 -167 303q-166 0 -166 -308zM956 370 q0 163 88 266q88 104 226 104q139 0 227 -104q88 -103 88 -266q0 -165 -89 -267q-89 -103 -230 -103q-122 0 -204 84q-106 108 -106 286zM1104 370q0 -309 165 -309q168 0 168 313q0 305 -167 305q-166 0 -166 -309z" />
<glyph unicode="&#x26;" horiz-adv-x="1593" vert-adv-y="2465" d="M99 437q0 195 139 319q84 74 244 132q-124 170 -124 305q0 146 102 235q102 90 276 90q172 0 270 -79q99 -78 99 -215q0 -158 -134 -261q-81 -62 -235 -112l55 -74l141 -193l145 -195l75 -103q90 131 90 317l-2 57q-1 59 -65 59q-12 0 -50 3l-34 2l-19 1v61h469v-61 l-21 -1l-80 -4q-42 -2 -49 -22q-7 -18 -7 -57q0 -169 -186 -405l5 -5l6 -7q10 -10 16 -17l3 -3l12 -12q12 -14 29 -31q32 -34 52 -51q47 -38 103 -41l91 -6l13 -1v-62h-376l-94 103q-225 -140 -440 -140q-224 0 -372 134q-147 134 -147 340zM297 494q0 -188 117 -303 q117 -116 309 -116q156 0 290 80q-238 277 -500 680q-96 -48 -145 -111q-71 -91 -71 -230zM555 1254q0 -138 147 -358q98 65 146 132q72 97 72 222q0 200 -178 200q-86 0 -136 -54q-51 -53 -51 -142z" />
<glyph unicode="'" horiz-adv-x="369" vert-adv-y="2465" d="M61 1579h247l-93 -543h-61z" />
<glyph unicode="(" horiz-adv-x="682" vert-adv-y="2465" d="M116 643q0 340 170 628q112 191 293 308v-62q-139 -162 -197 -322q-69 -192 -69 -553q0 -376 76 -572q58 -151 190 -304v-62q-195 127 -311 334q-152 274 -152 605z" />
<glyph unicode=")" horiz-adv-x="682" vert-adv-y="2465" d="M104 -234q140 162 196 322q69 192 69 551q0 377 -76 575q-57 149 -189 303v62q195 -127 311 -334q152 -274 152 -605q0 -341 -170 -628q-112 -190 -293 -308v62z" />
<glyph unicode="*" vert-adv-y="2465" d="M120 1142l46 140l282 -130q-24 -27 -24 -55v-3v-4q1 -5 1 -9zM224 821l211 228q22 -36 60 -44l-151 -271zM438 1480h148l-37 -308q-23 9 -37 9t-36 -9zM530 1005q40 10 59 44l212 -228l-120 -87zM577 1152l282 130l46 -140l-305 -61q1 4 1 9v4v3q0 29 -24 55z" />
<glyph unicode="+" horiz-adv-x="1155" vert-adv-y="2465" d="M84 543v99h444v444h99v-444h444v-99h-444v-444h-99v444h-444z" />
<glyph unicode="," horiz-adv-x="512" vert-adv-y="2465" d="M133 0v247h247v-215q0 -139 -17 -183q-22 -65 -93 -119q-60 -47 -137 -51v62q99 8 99 194v65h-99z" />
<glyph unicode="-" horiz-adv-x="682" vert-adv-y="2465" d="M82 543v123h518v-123h-518z" />
<glyph unicode="." horiz-adv-x="512" vert-adv-y="2465" d="M133 0v247h247v-247h-247z" />
<glyph unicode="/" horiz-adv-x="569" vert-adv-y="2465" d="M-30 -296l526 1777h104l-526 -1777h-104z" />
<glyph unicode="0" vert-adv-y="2465" d="M56 741q0 342 128 558q128 218 328 218t328 -217q129 -218 129 -557q0 -346 -128 -563t-335 -217q-174 0 -295 175q-155 225 -155 603zM265 743q0 -718 254 -718q240 0 240 730q0 261 -47 478q-24 110 -89 175q-47 48 -111 48q-247 0 -247 -713z" />
<glyph unicode="1" vert-adv-y="2465" d="M130 0v62l117 1q49 1 110 11q27 6 35 18q22 37 22 167v918l-6 101q-4 71 -41 71q-29 0 -138 -20l-99 -18v62l481 120v-1234l6 -99q5 -71 49 -85q35 -12 112 -12l117 -1v-62h-765z" />
<glyph unicode="2" vert-adv-y="2465" d="M68 0v99q35 154 110 255q68 93 222 245l63 63q142 143 186 231q48 96 48 236q0 321 -253 321q-98 0 -172 -50q-32 -21 -42 -42q-24 -52 -29 -176l-1 -25h-99v270q189 91 379 91q426 0 426 -381q0 -138 -65 -224q-50 -66 -180 -184l-100 -91l-64 -58q-159 -143 -211 -237 q-42 -75 -57 -170h671v-173h-832z" />
<glyph unicode="3" vert-adv-y="2465" d="M93 10v261h98l1 -22l3 -67q3 -69 66 -110t161 -41q128 0 203 97q75 98 75 260q0 177 -94 274t-268 97h-110v61h66q375 0 375 335q0 295 -251 295q-84 0 -148 -31q-35 -17 -48 -56q-10 -32 -18 -114l-2 -15h-98v226q167 57 324 57q206 0 322 -90q116 -91 116 -251 q0 -158 -113 -262q-67 -62 -198 -114q113 -31 171 -66q184 -110 184 -330q0 -201 -132 -321t-361 -120q-163 0 -324 47z" />
<glyph unicode="4" vert-adv-y="2465" d="M25 419v99l667 987h111v-937h172v-149h-172v-160l6 -99q4 -66 25 -76q18 -11 67 -16l43 -5l19 -1v-62h-518v62l18 1l79 5q63 5 76 56q12 42 12 135v160h-605zM136 568h494v731z" />
<glyph unicode="5" vert-adv-y="2465" d="M130 -3v250h99l1 -24l2 -76q3 -122 174 -122q135 0 213 109q78 110 78 287q0 399 -505 399h-37v660h721v-172h-660v-414h92q284 0 441 -125q158 -125 158 -349q0 -210 -143 -333q-143 -124 -380 -124q-114 0 -254 34z" />
<glyph unicode="6" vert-adv-y="2465" d="M49 700q0 378 148 598t411 220q164 0 296 -66v-225h-99l-1 21q-5 111 -50 157q-44 45 -143 45q-187 0 -282 -238q-67 -169 -70 -455q52 86 111 130q85 63 205 63q180 0 296 -129t116 -333q0 -224 -134 -374q-133 -151 -331 -151q-219 0 -346 198q-127 197 -127 539z M265 542q0 -190 68 -332q86 -179 218 -179q108 0 171 117q64 117 64 315q0 417 -261 417q-112 0 -186 -95q-74 -94 -74 -243z" />
<glyph unicode="7" vert-adv-y="2465" d="M108 1295v185h888v-129q-250 -341 -406 -703q-156 -363 -174 -648h-234q86 469 549 1095l148 200h-771z" />
<glyph unicode="8" vert-adv-y="2465" d="M40 364q0 177 112 300q66 71 190 133q-120 84 -169 152q-59 80 -59 199q0 169 109 269q108 101 294 101q181 0 290 -88t109 -234q0 -134 -105 -244q-64 -66 -184 -136l50 -29q166 -96 234 -188q66 -89 66 -216q0 -179 -137 -299q-137 -121 -340 -121q-199 0 -329 113 q-131 112 -131 288zM237 388q0 -163 78 -260q77 -97 205 -97q110 0 185 85q75 84 75 205t-80 202q-63 65 -199 155l-115 76q-149 -147 -149 -366zM286 1219q0 -112 58 -177q48 -54 166 -146l59 -46q174 136 174 337q0 117 -68 190q-67 73 -170 73q-98 0 -158 -64 q-61 -63 -61 -167z" />
<glyph unicode="9" vert-adv-y="2465" d="M37 993q0 223 134 374t331 151q219 0 346 -198q127 -199 127 -541q0 -377 -148 -596q-148 -220 -411 -220q-165 0 -296 66v224h99l1 -21q5 -112 50 -157q43 -44 142 -44q188 0 282 238q67 170 70 454q-51 -86 -110 -130q-86 -63 -205 -63q-180 0 -296 129 q-116 130 -116 334zM237 1018q0 -418 262 -418q111 0 185 95q75 96 75 245q0 188 -68 331q-85 179 -219 179q-108 0 -171 -117q-64 -118 -64 -315z" />
<glyph unicode=":" horiz-adv-x="569" vert-adv-y="2465" d="M161 0v247h247v-247h-247zM161 839v247h247v-247h-247z" />
<glyph unicode=";" horiz-adv-x="569" vert-adv-y="2465" d="M161 0v247h247v-215q0 -139 -17 -183q-22 -65 -93 -119q-60 -47 -137 -51v62q99 8 99 194v65h-99zM161 839v247h247v-247h-247z" />
<glyph unicode="&#x3c;" horiz-adv-x="1155" vert-adv-y="2465" d="M84 592l987 494v-111l-764 -382v-2l764 -382v-110z" />
<glyph unicode="=" horiz-adv-x="1155" vert-adv-y="2465" d="M84 358v98h987v-98h-987zM84 728v99h987v-99h-987z" />
<glyph unicode="&#x3e;" horiz-adv-x="1155" vert-adv-y="2465" d="M84 99v110l764 382v2l-764 383v110l987 -494z" />
<glyph unicode="?" horiz-adv-x="909" vert-adv-y="2465" d="M51 1177v274q197 66 362 66q197 0 318 -90q120 -89 120 -233q0 -165 -210 -326q-46 -36 -64 -53l-37 -34q-72 -66 -72 -249v-137h-197v18q0 204 142 345l40 40q188 188 188 386q0 125 -72 198q-71 74 -198 74q-210 0 -216 -151l-4 -107l-1 -21h-99zM271 0v197h197v-197 h-197z" />
<glyph unicode="@" horiz-adv-x="1886" vert-adv-y="2465" d="M140 580q0 333 246 615q282 322 694 322q287 0 477 -180q190 -179 190 -448q0 -238 -150 -416q-149 -178 -350 -178q-174 0 -174 140q0 40 9 72l24 86l9 42h-21q-94 -155 -172 -231q-110 -108 -219 -108q-179 0 -179 233q0 237 166 441q166 203 361 203q42 0 82 -11 l81 -22q2 -1 6 -2l4 -1l5 -1l12 -3h95l-116 -573q-11 -54 -11 -97q0 -93 102 -93q139 0 256 167q118 168 118 364q0 235 -176 395q-177 160 -434 160q-335 0 -604 -267t-269 -597q0 -249 170 -408t429 -159q155 0 328 75l22 -56q-182 -81 -349 -81q-285 0 -473 174 q-189 173 -189 443zM669 581q0 -162 91 -162q76 0 166 100q85 96 198 300l42 211q-85 43 -177 43q-139 0 -229 -142q-91 -142 -91 -350z" />
<glyph unicode="A" horiz-adv-x="1479" vert-adv-y="2465" d="M0 0v62l22 1q64 4 80 24q15 16 37 67l46 105l521 1240h70l519 -1247l50 -103q40 -82 112 -86l22 -1v-62h-489v62h18q103 0 103 44q0 54 -42 153l-83 197h-634l-85 -197q-17 -39 -22 -54l-22 -70q-6 -19 -6 -33q0 -40 92 -40h16v-62h-325zM385 537h565l-281 674z" />
<glyph unicode="B" horiz-adv-x="1366" vert-adv-y="2465" d="M47 0v62l19 1l67 5q76 6 86 47q13 62 13 144v962q0 59 -7 112q-6 39 -14 51q-18 26 -78 29l-67 4l-19 2v61h658q227 0 311 -43q168 -86 168 -287q0 -155 -93 -251q-66 -69 -178 -104q-41 -13 -125 -28q180 -25 278 -80q179 -101 179 -316q0 -169 -115 -268 q-120 -103 -454 -103h-629zM439 259l3 -87q3 -75 51 -90q44 -14 144 -14q389 0 389 300q0 223 -169 302q-131 61 -418 64v-475zM439 802h111q225 0 321 75q97 75 97 252q0 183 -115 238q-96 46 -314 46h-100v-611z" />
<glyph unicode="C" horiz-adv-x="1366" vert-adv-y="2465" d="M80 745q0 360 188 566q187 206 521 206q207 0 455 -74v-283h-124l-1 20q0 5 -1 32v11v10v6q0 87 -69 142q-86 69 -243 69q-233 0 -366 -189q-132 -188 -132 -511q0 -325 154 -507q153 -181 418 -181q177 0 389 113v-96q-209 -116 -460 -116q-337 0 -533 210t-196 572z " />
<glyph unicode="D" horiz-adv-x="1479" vert-adv-y="2465" d="M41 0v62l19 1l67 5q76 6 86 47q13 62 13 144v962q0 59 -7 112q-6 39 -14 51q-18 26 -78 29l-67 4l-19 2v61h424l71 1l72 3l72 1h16q298 0 480 -150q223 -183 223 -563q0 -358 -191 -565t-521 -207h-646zM436 259l4 -78q4 -71 58 -94q46 -19 140 -19q256 0 394 175 q139 176 139 500q0 355 -150 513q-150 157 -489 157h-96v-1154z" />
<glyph unicode="E" horiz-adv-x="1251" vert-adv-y="2465" d="M43 0v62l19 1l67 5q76 6 86 47q13 62 13 144v962q0 59 -7 112q-6 39 -14 51q-18 26 -78 29l-67 4l-19 2v61h1103v-259h-111l-1 19l-5 84q-1 55 -19 66q-17 9 -54 9l-103 1h-415v-592l363 1l63 2q53 1 61 16q8 13 8 45q0 12 2 41l1 18h81v-326h-81l-1 18q-6 87 -30 94 q-25 11 -104 11h-363v-469q0 -136 40 -154q36 -19 130 -19h250q147 0 185 14q40 13 43 62l4 91l1 18h111v-271h-1159z" />
<glyph unicode="F" horiz-adv-x="1139" vert-adv-y="2465" d="M43 0v62l19 1l67 5q76 6 86 47q13 62 13 144v962q0 59 -7 112q-6 39 -14 51q-18 26 -78 29l-67 4l-19 2v61h1015v-259h-111l-1 19l-5 84q-1 56 -19 66q-17 9 -54 9l-103 1h-327v-601h287l63 2q51 1 60 14q7 12 9 42l1 21l2 25l1 18h80v-327h-80l-1 19q-6 88 -31 95 q-26 10 -104 10h-287v-459q0 -136 29 -164q24 -27 84 -27h2l76 -5l19 -1v-62h-605z" />
<glyph unicode="G" horiz-adv-x="1479" vert-adv-y="2465" d="M85 745q0 367 190 570q189 203 540 203q232 0 467 -77v-269h-111l-1 20q-2 25 -2 50v7q0 84 -74 136q-93 65 -269 65q-250 0 -381 -187q-131 -186 -131 -530q0 -347 162 -519q158 -167 389 -167q84 0 212 33v291v11q0 107 -18 145q-15 30 -81 35l-68 6l-18 1v61h567v-61 l-18 -1l-56 -6q-67 -6 -79 -27q-11 -19 -14 -65l-6 -99v-335q-291 -73 -480 -73q-330 0 -525 212q-195 211 -195 570z" />
<glyph unicode="H" horiz-adv-x="1479" vert-adv-y="2465" d="M41 0v62l19 1l68 5q64 5 81 38t17 153v962q0 59 -7 112q-6 39 -14 51q-19 25 -77 29l-68 4l-19 2v61h580v-61l-19 -2l-68 -4q-75 -5 -85 -47q-13 -64 -13 -145v-409h607v409q0 59 -7 112q-6 39 -14 51q-19 25 -77 29l-68 4l-19 2v61h580v-61l-18 -2l-68 -4 q-75 -5 -85 -47q-14 -57 -14 -135v-10v-962q0 -56 8 -112q7 -51 32 -65q21 -11 59 -14l68 -5l18 -1v-62h-580v62l19 1l68 5q75 6 85 47q13 62 13 144v467h-607v-467q0 -59 7 -112q6 -38 14 -50q19 -25 77 -29l68 -5l19 -1v-62h-580z" />
<glyph unicode="I" horiz-adv-x="682" vert-adv-y="2465" d="M51 0v62l19 1l67 5q76 6 86 47q13 62 13 144v962q0 59 -7 112q-6 39 -14 51q-18 26 -78 29l-67 4l-19 2v61h580v-61l-19 -2l-68 -4q-75 -5 -85 -47q-13 -64 -13 -145v-962q0 -59 7 -112q6 -38 14 -50q19 -25 77 -29l68 -5l19 -1v-62h-580z" />
<glyph unicode="J" horiz-adv-x="797" vert-adv-y="2465" d="M0 -46h117l2 -24q8 -90 28 -115q24 -30 87 -30q99 0 119 91q18 79 18 272v1073v12q0 109 -17 144q-15 32 -81 36l-68 4l-19 2v61h580v-61l-19 -2l-67 -4q-68 -5 -79 -27q-11 -20 -14 -66l-6 -99v-951q0 -305 -99 -426q-116 -141 -323 -141q-62 0 -159 21v230z" />
<glyph unicode="K" horiz-adv-x="1479" vert-adv-y="2465" d="M56 0v62l19 1l67 5q76 6 86 47q13 62 13 144v962q0 59 -7 112q-6 39 -14 51q-18 26 -78 29l-67 4l-19 2v61h580v-61l-19 -2l-68 -4q-75 -5 -85 -47q-13 -64 -13 -145v-467l448 467q51 54 84 101q35 49 53 65q10 10 10 15q0 14 -56 15l-89 2h-18v61h456v-61l-17 -2l-61 -1 q-54 0 -101 -39q-45 -36 -164 -157l-378 -385l518 -577l104 -108q63 -66 94 -74q31 -9 108 -13l21 -1v-62h-605v62h18q124 0 124 24q0 34 -124 176l-425 486v-489l5 -99q2 -70 28 -81q26 -10 109 -16l18 -1v-62h-555z" />
<glyph unicode="L" horiz-adv-x="1251" vert-adv-y="2465" d="M56 0v62l19 1l67 5q76 6 86 47q13 62 13 144v962q0 59 -7 112q-6 39 -14 51q-18 26 -78 29l-67 4l-19 2v61h580v-61l-19 -2l-68 -4q-75 -5 -85 -47q-13 -64 -13 -145v-962q0 -151 27 -158q31 -15 145 -15h236q142 0 187 17q46 18 48 72l2 101l2 20h105v-296h-1147z" />
<glyph unicode="M" horiz-adv-x="1821" vert-adv-y="2465" d="M48 0v62l19 1l68 5q64 5 81 38t17 153l1 962v11q0 105 -18 145q-15 32 -81 36l-68 4l-19 2v61h413l473 -1091l466 1091h373v-61l-19 -2l-68 -4q-68 -5 -79 -27q-10 -20 -13 -66l-6 -99v-962l6 -99q4 -67 26 -78q19 -11 66 -14l68 -5l19 -1v-62h-564v62l18 1l67 5 q67 5 78 27q11 19 14 65l6 99v1017l-491 -1158h-73l-485 1113v-972q0 -56 8 -112q7 -51 32 -65q21 -11 59 -14l68 -5l18 -1v-62h-480z" />
<glyph unicode="N" horiz-adv-x="1479" vert-adv-y="2465" d="M43 0v62l19 1l68 5q64 5 81.5 38.5t17.5 152.5v962v11q0 106 -18 145q-15 32 -81 36l-68 4l-19 2v61h333l783 -1149v890l-6 99q-4 67 -26 79q-20 11 -66 14l-68 4l-19 2v61h461v-61l-18 -2l-68 -4q-68 -4 -79 -27q-11 -20 -14 -66l-6 -99v-1241h-70l-858 1240v-961v-11 q0 -106 18 -144q15 -32 81 -36l68 -5l19 -1v-62h-465z" />
<glyph unicode="O" horiz-adv-x="1479" vert-adv-y="2465" d="M80 740q0 360 177 568q178 209 482 209q305 0 482 -208t177 -567q0 -365 -178 -572q-177 -207 -491 -207q-268 0 -437 170q-212 214 -212 607zM308 741q0 -328 114 -519t312 -191q184 0 296 151q140 189 140 561q0 331 -115 518q-116 189 -316 189q-201 0 -316 -189 t-115 -520z" />
<glyph unicode="P" horiz-adv-x="1139" vert-adv-y="2465" d="M31 0v62l19 1l67 5q76 6 86 47q13 62 13 144v962q0 59 -7 112q-6 39 -14 51q-18 26 -78 29l-67 4l-19 2v61h431l146 5l68 2h23q145 0 248 -60q161 -94 161 -332q0 -478 -630 -478h-54v-358v-11q0 -106 18 -144q15 -32 81 -36l68 -5l43 -1v-62h-603zM424 685h66 q396 0 396 406q0 174 -76 248q-75 74 -251 74h-135v-728z" />
<glyph unicode="Q" horiz-adv-x="1479" vert-adv-y="2465" d="M80 740q0 359 177 568t482 209q306 0 483 -209q176 -208 176 -568q0 -327 -151 -536q-102 -142 -273 -203q237 -137 737 -175l-248 -124q-252 74 -537 249l-41 25q-76 -13 -146 -13q-305 0 -482 208q-177 209 -177 569zM308 748q0 -306 95 -492q115 -225 337 -225 q201 0 316 189q114 189 114 520q0 333 -114 521q-116 189 -316 189t-316 -188t-116 -514z" />
<glyph unicode="R" horiz-adv-x="1366" vert-adv-y="2465" d="M31 0v62l19 1l67 5q76 6 86 47q13 62 13 144v962q0 59 -7 112q-6 39 -14 51q-18 26 -78 29l-67 4l-19 2v61h356l98 2l82 3l80 2h24q164 0 277 -64q158 -91 158 -311q0 -188 -113 -301q-67 -66 -193 -114l290 -436l93 -129q43 -61 108 -66l42 -3l21 -1v-62h-353l-404 651 h-171v-392l5 -99q2 -70 28 -81q26 -10 109 -16l18 -1v-62h-555zM426 719h74q390 0 390 375q0 172 -73 246q-73 73 -249 73h-142v-694z" />
<glyph unicode="S" horiz-adv-x="1139" vert-adv-y="2465" d="M119 30v285h105l1 -18q2 -40 3 -69v-6q0 -75 69 -123q89 -62 245 -62q293 0 293 282q0 118 -45 179q-44 60 -188 138l-132 71q-340 183 -340 422q0 169 125 279q124 109 326 109q160 0 381 -63v-263h-111l-1 17q-3 40 -4 73v6q0 77 -49 116q-58 47 -201 47 q-264 0 -264 -254q0 -103 44 -163q43 -60 168 -127l132 -71q215 -116 292 -209q77 -92 77 -234q0 -186 -139 -308q-138 -121 -370 -121t-417 67z" />
<glyph unicode="T" horiz-adv-x="1251" vert-adv-y="2465" d="M31 1209v271h1190v-271h-105l-1 21q-1 23 -2 57v16v7q0 57 -15 71t-67 14l-103 5h-197v-1141q0 -56 8 -112q7 -51 32 -65q21 -11 59 -14l68 -5l43 -1v-62h-629v62l43 1l68 5q75 6 85 47q13 62 13 144v1141h-196l-103 -5q-64 -1 -74 -24q-8 -19 -8 -70v-14l-1 -17 q0 -34 -1 -40l-2 -21h-105z" />
<glyph unicode="U" horiz-adv-x="1479" vert-adv-y="2465" d="M19 1419v61h583v-61l-18 -2l-68 -4q-68 -5 -79 -27q-11 -19 -14 -66l-6 -99v-633q0 -228 12 -298q12 -71 61 -134q97 -125 289 -125q199 0 308 129q56 67 69 159q11 78 11 225v677v11q0 105 -18 145q-15 32 -81 36l-68 4l-18 2v61h474v-61l-19 -2l-68 -4q-75 -5 -85 -47 q-13 -64 -13 -145v-620q0 -207 -23 -302q-24 -98 -92 -179q-133 -157 -406 -157q-546 0 -546 591v667q0 59 -7 112q-6 39 -14 51q-18 26 -78 29l-67 4z" />
<glyph unicode="V" horiz-adv-x="1479" vert-adv-y="2465" d="M0 1419v61h543v-61h-21q-155 0 -155 -39q0 -14 34 -97l27 -67l400 -932l382 933l20 51q32 81 32 108q0 39 -69 41l-76 2h-22v61h384v-61l-22 -2q-63 -4 -80 -21q-18 -16 -36 -61l-47 -118l-502 -1236h-68l-531 1235l-56 126q-24 56 -46 64q-23 8 -70 11z" />
<glyph unicode="W" horiz-adv-x="1933" vert-adv-y="2465" d="M0 1419v61h536v-61h-20l-54 -2q-94 -3 -94 -54q0 -40 29 -148l233 -861l360 1108h70l322 -1139l276 891q43 138 43 169q0 32 -88 34l-68 2h-19v61h407v-61l-17 -2l-60 -2q-60 -2 -79 -63l-43 -137l-382 -1234h-67l-322 1139l-370 -1139h-69l-336 1234q-33 121 -35 132 q-15 69 -73 69l-58 1z" />
<glyph unicode="X" horiz-adv-x="1479" vert-adv-y="2465" d="M12 0v62l14 1l43 3q63 6 118 78l91 117l355 468l-331 493l-80 111q-55 78 -115 82l-50 2l-21 2v61h583v-61h-18l-70 -1q-75 -1 -75 -32q0 -16 45 -76q8 -10 35 -52l24 -35l241 -364l290 364q109 137 109 168q0 23 -62 26l-49 2h-19v61h371v-61l-24 -2q-92 -6 -153 -91 l-80 -103l-329 -409l365 -553l87 -124q44 -66 87 -71l53 -3l19 -1v-62h-567v62h17l61 1q87 1 87 36q0 23 -41 82l-55 79l-277 416l-315 -415l-18 -24l-16 -21l-11 -14l-10 -13q-56 -74 -56 -94q0 -31 80 -32l60 -1h21v-62h-414z" />
<glyph unicode="Y" horiz-adv-x="1479" vert-adv-y="2465" d="M0 1419v61h573v-61h-19l-71 -2q-74 -2 -74 -37q0 -29 48 -99l45 -66l314 -467l315 466q95 140 95 175q0 25 -83 28l-56 2h-18v61h409v-61l-19 -2q-1 0 -6 1q-3 -3 -6 -3l-21 1h-5q-70 0 -124 -83q-2 -4 -9 -14q-6 -9 -13 -18l-58 -86l-380 -559v-397v-12q0 -109 17 -143 q15 -32 81 -36l68 -5l19 -1v-62h-580v62l18 1l68 5q75 6 85 47q14 60 14 144v397l-375 559l-59 88q-69 105 -116 112l-58 2z" />
<glyph unicode="Z" horiz-adv-x="1251" vert-adv-y="2465" d="M92 0v80l795 1320h-451l-109 -4q-64 -1 -75 -19q-10 -17 -10 -55l-3 -113l-2 -25h-111v296h996v-67l-791 -1320h448l166 6q63 1 67 66l4 100l1 19h112v-284h-1037z" />
<glyph unicode="[" horiz-adv-x="682" vert-adv-y="2465" d="M185 -296v1875h404v-62h-231v-1751h231v-62h-404z" />
<glyph unicode="\" horiz-adv-x="569" vert-adv-y="2465" d="M-30 1481h104l526 -1777h-104z" />
<glyph unicode="]" horiz-adv-x="682" vert-adv-y="2465" d="M93 -234h232v1751h-232v62h404v-1875h-404v62z" />
<glyph unicode="^" horiz-adv-x="960" vert-adv-y="2465" d="M36 592l444 888l444 -888h-127l-317 632l-318 -632h-126z" />
<glyph unicode="_" vert-adv-y="2465" d="M0 0h1024v-123h-1024v123z" />
<glyph unicode="`" horiz-adv-x="682" vert-adv-y="2465" d="M91 1604h259l241 -321h-93z" />
<glyph unicode="a" horiz-adv-x="909" vert-adv-y="2465" d="M75 273q0 369 468 369h41v135q0 163 -26 209q-26 48 -113 48q-84 0 -118 -38t-34 -133v-18h-136v174q148 91 316 91q166 0 237 -74t71 -251v-484q0 -145 13 -191q13 -45 53 -45q16 0 51 9l6 -74q-76 -25 -112 -25q-124 0 -163 174q-116 -174 -285 -174q-123 0 -196 80 q-73 81 -73 218zM288 312q0 -219 143 -219q72 0 153 78v409h-46q-250 0 -250 -268z" />
<glyph unicode="b" vert-adv-y="2465" d="M0 1517v62h318v-672q59 92 114 137q80 66 178 66q160 0 253 -142t93 -393q0 -282 -121 -441t-332 -159q-74 0 -185 25l-197 -12v1332l-2 99q0 68 -25 82q-22 12 -75 15zM318 77q81 -23 131 -23q136 0 215 127t79 355q0 447 -201 447q-93 0 -224 -146v-760z" />
<glyph unicode="c" horiz-adv-x="909" vert-adv-y="2465" d="M68 550q0 250 134 405t355 155q132 0 291 -49v-259h-124v18q0 223 -167 223q-123 0 -198 -129q-75 -128 -75 -337q0 -238 93 -371t255 -133q78 0 216 50v-86q-152 -62 -280 -62q-218 0 -359 162q-141 161 -141 413z" />
<glyph unicode="d" vert-adv-y="2465" d="M68 510q0 283 121 441q121 159 334 159q74 0 183 -24v234l-2 99q-1 69 -25 82q-22 12 -75 15l-19 1v62h318v-1320l2 -99q0 -68 25 -82q23 -12 76 -15l18 -1v-62h-318v179q-58 -92 -114 -138q-80 -66 -178 -66q-160 0 -253 143q-93 142 -93 392zM281 550q0 -447 201 -447 q94 0 224 145v760q-80 24 -130 24q-137 0 -216 -127t-79 -355z" />
<glyph unicode="e" horiz-adv-x="909" vert-adv-y="2465" d="M68 536q0 260 117 417q116 157 311 157q181 0 267 -122q85 -122 85 -383v-19h-564q3 -144 18 -218q60 -293 298 -293q122 0 248 75v-101q-166 -74 -306 -74q-220 0 -347 149t-127 412zM284 648h354l1 44v38q0 149 -28 227q-31 86 -125 86q-104 0 -161 -142 q-39 -98 -41 -253z" />
<glyph unicode="f" horiz-adv-x="682" vert-adv-y="2465" d="M37 999v87h139v52q0 263 69 364q69 102 244 102q128 0 230 -74v-235h-111l-1 19q-2 39 -3 66v5q0 155 -108 155q-120 0 -122 -183l-1 -100v-171h223v-81h-223v-746l2 -99q1 -72 33 -85q26 -12 92 -12l44 -1v-62h-489v62l19 1q77 5 89 29q11 20 11 68l2 99v740h-139z" />
<glyph unicode="g" vert-adv-y="2465" d="M53 -183q0 132 205 225q-113 54 -113 140q0 84 155 185l26 17q-95 48 -143 113q-69 92 -69 235q0 176 95 277q94 101 253 101q77 0 178 -40l351 28l-51 -120l-238 42q128 -131 128 -289q0 -162 -102 -275q-102 -114 -247 -114q-44 0 -87 18q-76 -62 -76 -117 q0 -48 51 -60q41 -10 130 -10h62q196 0 284 -59t88 -187q0 -152 -138 -249q-137 -97 -349 -97q-177 0 -285 65t-108 171zM248 -144q0 -94 65 -151q66 -57 167 -57q109 0 185 68q76 67 76 161q0 148 -200 148h-231q-62 -63 -62 -169zM312 731q0 -321 160 -321q161 0 161 315 q0 318 -161 318q-160 0 -160 -312z" />
<glyph unicode="h" vert-adv-y="2465" d="M37 0v62l19 1q73 4 86 26q13 19 14 71l2 99v1061l-2 99q0 68 -25 82q-22 12 -75 15l-19 1v62h319v-672q64 92 124 137q86 66 187 66q124 0 177 -78t53 -267v-506l2 -99q0 -68 25 -82q22 -12 76 -15l18 -1v-62h-439v62l19 1q77 5 89 29q11 20 11 68l2 99v475l-3 77 q-3 89 -25 126q-25 44 -80 44q-115 0 -236 -141v-581l1 -99q1 -69 26 -82q22 -12 75 -15l19 -1v-62h-440z" />
<glyph unicode="i" horiz-adv-x="569" vert-adv-y="2465" d="M47 0v62l19 1q108 7 114 24q11 19 11 73l2 99v568l-2 98q-1 74 -22 82q-20 11 -103 16l-19 1v62h343v-827l2 -99q1 -74 22 -82q21 -10 103 -15l19 -1v-62h-489zM193 1283v197h197v-197h-197z" />
<glyph unicode="j" horiz-adv-x="569" vert-adv-y="2465" d="M-78 -136h99l1 -18q4 -114 25 -152q25 -46 86 -46q129 0 129 167v103v909l-2 98q0 68 -25 82q-21 12 -76 16l-18 1v62h318v-1074q0 -431 -332 -431q-76 0 -205 39v244zM262 1283v197h197v-197h-197z" />
<glyph unicode="k" vert-adv-y="2465" d="M31 0v62l19 1q73 4 86 26q13 19 14 71l2 99v1061l-2 99q0 68 -25 82q-22 12 -75 15l-19 1v62h318v-996h47l190 242l78 100l40 54q13 17 13 26q0 17 -34 17h-5h-5h-6l-6 1q-10 0 -21 1h-8h-1h-22v62h337v-62l-18 -1q-88 -5 -109 -25q-23 -18 -62 -70l-71 -93l-147 -195 l272 -387q85 -121 119 -155q34 -32 75 -35l19 -1v-62h-255l-373 534h-47v-275l2 -99q1 -69 25 -82q22 -12 76 -15l18 -1v-62h-439z" />
<glyph unicode="l" horiz-adv-x="569" vert-adv-y="2465" d="M47 0v62l19 1q108 7 114 24q11 19 11 73l2 99v1061l-2 99q-1 74 -22 82q-21 10 -103 15l-19 1v62h343v-1320l2 -99q1 -74 22 -82q21 -10 103 -15l19 -1v-62h-489z" />
<glyph unicode="m" horiz-adv-x="1593" vert-adv-y="2465" d="M37 0v62l19 1q73 4 86 26q13 19 14 71l2 99v568l-2 98q0 68 -25 82q-20 12 -75 16l-19 1v62h318v-179q65 92 125 137q86 66 187 66q97 0 159 -54q54 -47 83 -152q63 93 124 139q87 67 193 67q130 0 183 -77q54 -77 54 -268v-506l2 -99q1 -69 25 -82q22 -12 76 -15l18 -1 v-62h-439v62l19 1q73 4 87 26q12 20 13 71l2 99v475l-2 77q-2 83 -24 122q-28 48 -89 48q-120 0 -242 -141v-581l2 -99q0 -69 25 -82q22 -12 76 -15l18 -1v-62h-439v62l19 1q73 5 86 26q13 20 14 71l2 99v475l-2 77q-2 84 -25 123q-27 47 -87 47q-121 0 -243 -141v-581 l2 -99q1 -69 25 -82q22 -12 76 -15l18 -1v-62h-439z" />
<glyph unicode="n" vert-adv-y="2465" d="M37 0v62l19 1q73 4 86 26q13 19 14 71l2 99v568l-2 98q0 68 -25 82q-20 12 -75 16l-19 1v62h319v-179q64 92 124 137q86 66 187 66q124 0 177 -78t53 -267v-506l2 -99q0 -68 25 -82q22 -12 76 -15l18 -1v-62h-439v62l19 1q77 5 89 29q11 20 11 68l2 99v475l-3 77 q-3 89 -25 126q-25 44 -80 44q-115 0 -236 -141v-581l1 -99q1 -69 26 -82q22 -12 75 -15l19 -1v-62h-440z" />
<glyph unicode="o" vert-adv-y="2465" d="M62 543q0 262 121 414q122 153 329 153t328 -153q122 -152 122 -413q0 -265 -122 -417q-121 -152 -334 -152q-182 0 -297 124q-147 158 -147 444zM278 538q0 -495 239 -495q90 0 150 104q80 139 80 398q0 227 -64 363q-63 135 -171 135t-171 -135q-63 -136 -63 -370z" />
<glyph unicode="p" vert-adv-y="2465" d="M0 -333l19 1q73 4 86 26q13 19 14 71l2 99v963l-2 98q0 68 -25 82q-20 12 -75 16l-19 1v62h318v-179q58 91 114 137q80 66 178 66q160 0 253 -142t93 -393q0 -282 -121 -441t-332 -159q-74 0 -185 25v-136l2 -99q1 -69 25 -82q22 -12 76 -15l18 -1v-62h-439v62zM318 77 q81 -23 131 -23q136 0 215 127t79 355q0 447 -201 447q-93 0 -224 -146v-760z" />
<glyph unicode="q" vert-adv-y="2465" d="M68 510q0 283 121 441q121 159 334 159q74 0 183 -24h197v-1222l2 -99q0 -68 25 -82q22 -12 76 -15l18 -1v-62h-439v62l19 1q73 5 86 26q13 20 14 71l2 99v315q-58 -92 -114 -138q-80 -66 -178 -66q-160 0 -253 143q-93 142 -93 392zM281 551q0 -448 201 -448 q94 0 224 145v760q-80 24 -130 24q-137 0 -216 -127q-79 -128 -79 -354z" />
<glyph unicode="r" horiz-adv-x="682" vert-adv-y="2465" d="M31 0v62l19 1q73 4 86 26q13 19 14 71l2 99v568l-2 98q0 68 -25 82q-20 12 -75 16l-19 1v62h318v-179q109 203 260 203q31 0 61 -11v-297h-92l-2 18l-1 7q0 6 -1 18q0 7 -1 17q-4 77 -56 77q-82 0 -168 -125v-555l2 -99q1 -69 25 -82q22 -12 76 -15l18 -1v-62h-439z" />
<glyph unicode="s" horiz-adv-x="797" vert-adv-y="2465" d="M95 56v251h99l1 -18l3 -71q7 -175 176 -175q162 0 162 189q0 93 -38 136q-31 37 -108 88l-58 39q-143 96 -187 158t-44 166q0 291 310 291q125 0 245 -61v-235h-98v18q0 211 -132 211q-140 0 -140 -162q0 -120 92 -180l86 -56l56 -38q132 -89 172 -149q41 -60 41 -164 q0 -153 -89 -236q-90 -83 -249 -83q-139 0 -300 81z" />
<glyph unicode="t" horiz-adv-x="569" vert-adv-y="2465" d="M25 999v87h111v197l198 49v-246h224v-87h-224v-686v-87q0 -171 104 -171q39 0 95 31v-80q-78 -31 -144 -31q-138 0 -196 81q-57 81 -57 283v660h-111z" />
<glyph unicode="u" vert-adv-y="2465" d="M12 1024v62h319v-734l2 -78q2 -86 24 -124q26 -45 82 -45q115 0 236 140v582l-2 98q-1 69 -25 82q-21 12 -75 16l-19 1v62h318v-827l2 -99q0 -68 25 -82q23 -12 75 -15l19 -1v-62h-318v179q-64 -92 -124 -138q-85 -66 -187 -66q-124 0 -178 78q-53 78 -53 268v506l-2 98 q0 68 -25 82q-20 12 -75 16z" />
<glyph unicode="v" vert-adv-y="2465" d="M0 1024v62h438v-62h-20l-29 -1q-78 -3 -78 -41q0 -18 30 -91l30 -73l220 -546l204 545l26 67q31 80 31 98q0 42 -94 42h-22v62h288v-62l-17 -1q-61 -5 -95 -92l-45 -114l-314 -829h-60l-337 832q-80 199 -138 203z" />
<glyph unicode="w" horiz-adv-x="1479" vert-adv-y="2465" d="M0 1024v62h445v-62h-21q-102 0 -102 -47q0 -34 32 -150l139 -504l264 757h66l275 -796l161 543l17 58l19 69q5 17 5 25q0 42 -76 44l-29 1h-22v62h306l-1 -62l-22 -1q-70 -4 -104 -115l-25 -81l-258 -839h-55l-287 813l-284 -813h-61l-230 839q-34 123 -57 158t-76 38z " />
<glyph unicode="x" vert-adv-y="2465" d="M0 1024v62h492v-62h-20l-41 -2q-68 -3 -68 -33q0 -11 14 -34l2 -4q7 -10 17 -29l8 -13q16 -31 50 -85l122 -197l117 192l51 90q39 69 39 84q0 29 -54 30l-37 1h-23v62h318v-62l-20 -1q-66 -5 -96 -45q-29 -35 -103 -154l-155 -254l192 -312q74 -121 111 -157 q36 -34 92 -38l16 -1v-62h-494v62h18l46 1q74 1 74 28q0 10 -18 35q-11 16 -30 53q-18 34 -45 78l-134 212l-149 -212q-32 -45 -45 -71l-30 -56q-14 -26 -14 -36q0 -29 75 -31l38 -1h23v-62h-333v62l16 1q64 5 113 75l83 118l188 267l-187 301q-92 147 -116 171t-85 28z" />
<glyph unicode="y" vert-adv-y="2465" d="M0 1024v62h437v-62h-19l-29 -1q-79 -3 -79 -41q0 -21 30 -91l31 -73l220 -546l203 545l26 67q31 80 31 98q0 42 -93 42h-22v62h288v-62l-17 -1q-62 -4 -96 -92l-44 -114l-456 -1212h-249l325 395l-331 820q-80 200 -139 203z" />
<glyph unicode="z" horiz-adv-x="909" vert-adv-y="2465" d="M62 0v62l528 956h-194l-96 -1q-82 0 -93 -26q-9 -17 -9 -57v-8v-13v-13q-1 -25 -1 -31l-2 -21h-105v238h729v-62l-525 -950h242l121 5q82 1 83 72v75l1 24h105v-250h-784z" />
<glyph unicode="{" horiz-adv-x="983" vert-adv-y="2465" d="M148 611v61h78q181 0 181 168q0 42 -14 113l-10 50l-18 97q-19 102 -19 168q0 135 100 223t255 88h60v-62h-60q-195 0 -195 -168q0 -36 7 -63l12 -47l14 -70q18 -90 18 -179q0 -155 -81 -250q-48 -55 -139 -98q98 -47 148 -110q72 -93 72 -241q0 -89 -18 -177l-14 -69 l-12 -47q-7 -27 -7 -67q0 -165 195 -165h60v-62h-60q-155 0 -255 88t-100 225q0 64 19 166l18 97l10 50q14 71 14 113q0 168 -181 168h-78z" />
<glyph unicode="|" horiz-adv-x="410" vert-adv-y="2465" d="M156 -296v1875h99v-1875h-99z" />
<glyph unicode="}" horiz-adv-x="983" vert-adv-y="2465" d="M222 -234h60q196 0 196 166q0 34 -8 66l-12 47l-13 69q-18 95 -18 179q0 155 81 250q48 55 139 99q-98 46 -148 110q-72 92 -72 240q0 81 18 177l13 70l12 47q8 32 8 66q0 165 -196 165h-60v62h61q155 0 255 -88t100 -225q0 -57 -20 -166l-18 -97l-10 -50 q-14 -69 -14 -113q0 -168 182 -168h77v-61h-77q-182 0 -182 -167q0 -45 14 -114l10 -50l18 -97q20 -109 20 -167q0 -136 -100 -224t-255 -88h-61v62z" />
<glyph unicode="~" horiz-adv-x="1108" vert-adv-y="2465" d="M60 444q10 139 55 212q66 107 209 107q123 0 258 -115l40 -34q106 -90 191 -90q86 0 137 81q34 54 35 135h62q-10 -140 -55 -212q-66 -107 -209 -107q-123 0 -258 115l-40 34q-107 91 -191 91q-86 0 -137 -81q-34 -54 -35 -136h-62z" />
<glyph vert-adv-y="2465" d="M0 580l26 62h96q-3 56 -3 91q0 26 2 76q1 28 2 42h-123l26 62h104q25 157 54 238q131 366 485 366q155 0 298 -74v-259h-99l-1 55q-4 211 -188 211q-169 0 -264 -180q-68 -128 -90 -357h529l-26 -62h-508q-4 -65 -4 -118q0 -9 1 -41q1 -28 2 -50h422l-25 -62h-392 q80 -518 395 -518q117 0 238 76v-93q-123 -82 -283 -82q-253 0 -402 211q-105 149 -143 406h-129z" />
<glyph unicode="&#xa0;" horiz-adv-x="512" vert-adv-y="2465" />
<glyph unicode="&#xa1;" horiz-adv-x="682" vert-adv-y="2465" d="M242 -99l68 790h62l67 -790v-296h-197v296zM242 888v198h197v-198h-197z" />
<glyph unicode="&#xa2;" vert-adv-y="2465" d="M123 751q0 260 137 403q80 84 195 122q48 16 143 32v172h62v-167q160 -14 302 -61v-253h-111l-1 19l-2 25q0 10 -1 20l-1 11v17q-2 78 -40 110q-40 33 -146 41v-969q32 -3 49 -3q91 0 253 61v-97q-137 -53 -302 -63v-171h-62v176q-196 22 -316 146q-159 162 -159 429z M333 733q0 -236 96 -351q42 -50 94 -75q25 -12 75 -27v963q-63 -18 -94 -38q-171 -112 -171 -472z" />
<glyph unicode="&#xa3;" vert-adv-y="2465" d="M74 0v148q124 33 167 115q43 81 43 284v193h-173v62h173v222q0 481 369 481q133 0 272 -70v-214h-98l-2 19l-3 74q-5 130 -159 130q-116 0 -152 -81q-30 -69 -30 -225v-336h235v-62h-235v-154q0 -280 -282 -438h726v-148h-851z" />
<glyph unicode="&#xa4;" vert-adv-y="2465" d="M130 476l131 131q-64 88 -64 189q0 102 64 189l-131 131l62 62l130 -131q93 63 190 63t189 -63l131 131l61 -62l-131 -131q64 -88 64 -189t-64 -189l131 -131l-61 -62l-131 131q-91 -63 -189 -63q-97 0 -190 63l-130 -131zM296 799q0 -83 50 -143q64 -76 166 -76 q91 0 153 63q62 62 62 153t-63 153q-63 63 -152 63q-90 0 -153 -62q-63 -63 -63 -151z" />
<glyph unicode="&#xa5;" vert-adv-y="2465" d="M0 1417v63h502v-61q-9 0 -24 -1h-11h-12q-79 0 -79 -42q0 -27 23 -85l174 -437l195 458q19 45 19 73q0 36 -53 33h-8l-6 -1h-11h-9l-35 2v61h359v-63q-91 -8 -127 -57q-36 -46 -93 -181l-193 -451h309v-62h-309v-210h309v-61h-309v-136q0 -57 8 -112q7 -51 32 -65 q22 -11 59 -14l68 -5l18 -1v-62h-567v62l18 1l68 5q75 6 85 47q14 60 14 144v136h-309v61h309v210h-309v62h309l-195 454q-67 156 -116 196q-41 35 -103 39z" />
<glyph unicode="&#xa6;" horiz-adv-x="410" vert-adv-y="2465" d="M156 -296v740h99v-740h-99zM156 839v740h99v-740h-99z" />
<glyph unicode="&#xa7;" vert-adv-y="2465" d="M75 -37h99l1 -19l3 -48q4 -66 98 -111q92 -45 222 -45t210 68q80 67 80 173q0 86 -64 132q-53 37 -168 85l-107 45q-200 84 -282 163q-81 79 -81 189q0 151 171 294q-75 42 -113 90q-55 71 -55 171q0 168 129 267q130 100 352 100q165 0 344 -56v-227h-98l-2 18l-2 61 q-2 63 -77 103q-74 40 -184 40q-129 0 -209 -70q-79 -69 -79 -180q0 -78 45 -125q46 -50 160 -97l107 -44q226 -93 298 -162q70 -68 70 -189q0 -152 -161 -298q81 -47 121 -97q59 -73 59 -171q0 -160 -124 -252t-348 -92q-187 0 -415 63v221zM253 685q0 -113 84 -171 q73 -50 252 -126l139 -59q65 93 65 181q0 124 -141 187l-209 94l-139 61q-51 -93 -51 -167z" />
<glyph unicode="&#xa8;" horiz-adv-x="682" vert-adv-y="2465" d="M57 1283v173h173v-173h-173zM452 1283v173h173v-173h-173z" />
<glyph unicode="&#xa9;" horiz-adv-x="1556" vert-adv-y="2465" d="M87 740q0 287 203 489t489 202q284 0 487 -202t203 -488q0 -289 -204 -490q-203 -202 -495 -202q-251 0 -439 164q-244 213 -244 527zM149 740q0 -257 184 -443q183 -186 440 -186q237 0 411 148q223 191 223 483q0 260 -185 443q-185 184 -444 184q-260 0 -444 -184 q-185 -184 -185 -445zM365 741q0 203 112 315t319 112q120 0 261 -36v-168h-82v10q0 75 -41 107t-135 32q-254 0 -254 -368q0 -364 289 -364q102 0 237 61v-78q-132 -51 -271 -51q-206 0 -320 113q-115 113 -115 315z" />
<glyph unicode="&#xaa;" horiz-adv-x="565" vert-adv-y="2465" d="M25 1007q0 215 292 215h46v61q0 105 -22 143q-23 39 -84 39q-96 0 -96 -109v-18h-102v124q98 55 217 55q125 0 174 -51q49 -50 49 -183v-259q0 -105 40 -105q8 0 22 3v-56q-49 -36 -95 -36q-74 0 -103 95q-81 -95 -170 -95q-168 0 -168 177zM173 1018q0 -103 76 -103 q51 0 114 74v182h-37q-153 0 -153 -153z" />
<glyph unicode="&#xab;" vert-adv-y="2465" d="M74 543l423 432l50 -39l-274 -393l274 -392l-50 -40zM465 543l423 432l50 -39l-274 -393l274 -392l-50 -40z" />
<glyph unicode="&#xac;" horiz-adv-x="1155" vert-adv-y="2465" d="M84 691v99h938v-99v-395h-99v395h-839z" />
<glyph unicode="&#xad;" horiz-adv-x="682" vert-adv-y="2465" d="M82 543v123h518v-123h-518z" />
<glyph unicode="&#xae;" horiz-adv-x="1556" vert-adv-y="2465" d="M87 740q0 287 203 489t489 202q284 0 487 -202t203 -488q0 -289 -204 -490q-203 -202 -495 -202q-251 0 -439 164q-244 213 -244 527zM149 740q0 -257 184 -443q183 -186 440 -186q237 0 411 148q223 191 223 483q0 260 -185 443q-185 184 -444 184q-260 0 -444 -184 q-185 -184 -185 -445zM455 327v52l27 2q43 4 44 51l3 54v496l-3 54q-1 46 -44 51l-27 3v51h223l51 1l49 2l49 1q100 2 166 -36q87 -50 87 -172q0 -162 -157 -231l159 -221l44 -56q29 -38 53 -45v-57h-192l-226 356h-69v-197l2 -54q1 -38 13 -44q14 -6 52 -9v-52h-304z M692 738h30q187 0 187 188q0 161 -156 161h-61v-349z" />
<glyph unicode="&#xaf;" vert-adv-y="2465" d="M99 1480v124h827v-124h-827z" />
<glyph unicode="&#xb0;" horiz-adv-x="819" vert-adv-y="2465" d="M114 1221q0 123 87 209q88 87 209 87t209 -87q87 -86 87 -208q0 -124 -87 -210q-88 -87 -213 -87q-106 0 -187 70q-105 92 -105 226zM200 1221q0 -85 62 -147q61 -62 147 -62q79 0 137 50q74 63 74 160q0 87 -62 148t-148 61q-87 0 -148 -61q-62 -62 -62 -149z" />
<glyph unicode="&#xb1;" horiz-adv-x="1155" vert-adv-y="2465" d="M84 0v99h987v-99h-987zM84 691v99h444v394h99v-394h444v-99h-444v-395h-99v395h-444z" />
<glyph unicode="&#xb2;" horiz-adv-x="614" vert-adv-y="2465" d="M86 759v50q41 116 152 217l41 38q147 136 147 258q0 155 -137 155q-61 0 -126 -49v-90h-59v136q110 44 209 44q109 0 176 -56t67 -143q0 -72 -53 -134q-30 -37 -99 -85l-34 -23l-50 -37q-112 -83 -122 -176h356v-105h-468z" />
<glyph unicode="&#xb3;" horiz-adv-x="614" vert-adv-y="2465" d="M86 766v135h59v-10l1 -10v-9q1 -7 1 -11v-3q0 -79 120 -79q148 0 148 172q0 182 -205 182h-56v39h38q204 0 204 162q0 145 -131 145q-106 0 -110 -64l-3 -45l-1 -8h-60v125q101 30 193 30q235 0 235 -173q0 -129 -160 -186q107 -28 149 -85q35 -47 35 -114 q0 -101 -72 -159q-71 -59 -200 -59q-98 0 -185 25z" />
<glyph unicode="&#xb4;" horiz-adv-x="682" vert-adv-y="2465" d="M91 1283l241 321h259l-407 -321h-93z" />
<glyph unicode="&#xb5;" vert-adv-y="2465" d="M12 1024v62h319v-734l2 -78q2 -86 24 -124q26 -45 82 -45q115 0 236 140v582l-2 98q-1 69 -25 82q-21 12 -75 16l-19 1v62h318v-827l2 -99q0 -68 25 -82q22 -12 75 -15l19 -1v-62h-318v179q-142 -204 -307 -204q-16 0 -37 3v-274h-198v617v506l-2 98q0 68 -25 82 q-20 12 -75 16z" />
<glyph unicode="&#xb6;" horiz-adv-x="928" vert-adv-y="2465" d="M15 1159q0 203 135 281q83 49 210 47l71 -1l105 -4l117 -2h152v-1776h-74v1678h-173v-1678h-74v1036q-193 4 -313 94q-156 117 -156 325z" />
<glyph unicode="&#xb7;" horiz-adv-x="512" vert-adv-y="2465" d="M133 491v247h247v-247h-247z" />
<glyph unicode="&#xb8;" horiz-adv-x="682" vert-adv-y="2465" d="M168 -343q62 -16 101 -16q107 0 107 82q0 98 -187 102l95 175h79l-66 -119q97 -8 144 -33q73 -37 73 -114q0 -70 -58 -118q-57 -48 -144 -48q-68 0 -144 21v68z" />
<glyph unicode="&#xb9;" horiz-adv-x="614" vert-adv-y="2465" d="M136 772v38l34 1l45 4q43 3 50 25q7 20 7 69v435l-3 51q-2 36 -21 36q-14 0 -69 -10l-43 -8v40l259 64v-608q0 -61 10 -78q9 -15 48 -17l44 -3l34 -1v-38h-395z" />
<glyph unicode="&#xba;" horiz-adv-x="635" vert-adv-y="2465" d="M25 1174q0 157 80 250q79 93 213 93q133 0 213 -93t80 -250q0 -159 -80 -251q-81 -93 -217 -93q-117 0 -193 76q-96 96 -96 268zM182 1174q0 -291 140 -291q131 0 131 285q0 297 -135 297q-136 0 -136 -291z" />
<glyph unicode="&#xbb;" vert-adv-y="2465" d="M86 149l273 394l-273 391l50 41l423 -432l-423 -432zM477 149l273 394l-273 391l50 41l423 -432l-423 -432z" />
<glyph unicode="&#xbc;" horiz-adv-x="1536" vert-adv-y="2465" d="M173 -37l1088 1554h86l-1088 -1554h-86zM173 772v38l34 1l45 4q43 3 50 25q7 19 7 69v435l-3 51q-2 36 -21 36q-16 0 -69 -10l-43 -8v40l259 64v-608q0 -61 10 -78q9 -15 48 -17l44 -3l34 -1v-38h-395zM813 205v66l368 480h90v-457h93v-89h-93v-68l3 -49q2 -36 23 -43 q16 -6 51 -6h10v-39h-293v39h10q50 0 64 9t16 40l3 49v68h-345zM878 294h280v364z" />
<glyph unicode="&#xbd;" horiz-adv-x="1536" vert-adv-y="2465" d="M173 -37l1088 1554h86l-1088 -1554h-86zM173 772v38l34 1l45 4q43 3 50 25q7 19 7 69v435l-3 51q-2 36 -21 36q-16 0 -69 -10l-43 -8v40l259 64v-608q0 -61 10 -78q9 -15 48 -17l44 -3l34 -1v-38h-395zM918 0v49q41 116 152 218l41 38q147 136 147 257q0 156 -137 156 q-60 0 -126 -49v-90h-59v136q109 43 209 43q108 0 176 -56q67 -56 67 -142q0 -108 -131 -204l-55 -38l-50 -37q-112 -82 -122 -176h356v-105h-468z" />
<glyph unicode="&#xbe;" horiz-adv-x="1536" vert-adv-y="2465" d="M173 -37l1088 1554h86l-1088 -1554h-86zM173 766v135h59v-10l1 -10v-9q1 -7 1 -11v-3q0 -79 119 -79q149 0 149 172q0 182 -205 182h-56v39h38q204 0 204 162q0 145 -131 145q-106 0 -110 -64l-3 -45l-1 -8h-60v125q95 30 193 30q235 0 235 -173q0 -130 -160 -186 q184 -48 184 -199q0 -101 -72 -159q-72 -59 -200 -59q-98 0 -185 25zM813 205v66l368 480h90v-457h93v-89h-93v-68l3 -49q2 -36 23 -43q16 -6 51 -6h10v-39h-293v39h10q51 0 64 9q14 8 16 40l3 49v68h-345zM878 294h280v364z" />
<glyph unicode="&#xbf;" horiz-adv-x="909" vert-adv-y="2465" d="M51 286q0 110 88 214q42 50 122 113q44 34 64 53l36 34q72 67 72 248v138h198v-19q0 -203 -143 -345l-40 -39q-187 -183 -187 -386q0 -125 72 -198q71 -74 198 -74q208 0 215 151l5 106l1 21h99v-273q-193 -67 -363 -67q-197 0 -317 90q-120 89 -120 233zM433 1283v197 h198v-197h-198z" />
<glyph unicode="&#xc0;" horiz-adv-x="1479" vert-adv-y="2465" d="M0 0v62l22 1q64 4 80 24q15 16 37 67l46 105l521 1240h70l519 -1247l50 -103q40 -82 112 -86l22 -1v-62h-489v62h18q103 0 103 44q0 54 -42 153l-83 197h-634l-85 -197q-17 -39 -22 -54l-22 -70q-6 -19 -6 -33q0 -40 92 -40h16v-62h-325zM374 1925h259l241 -321h-93z M385 537h565l-281 674z" />
<glyph unicode="&#xc1;" horiz-adv-x="1479" vert-adv-y="2465" d="M0 0v62l22 1q64 4 80 24q15 16 37 67l46 105l521 1240h70l519 -1247l50 -103q40 -82 112 -86l22 -1v-62h-489v62h18q103 0 103 44q0 54 -42 153l-83 197h-634l-85 -197q-17 -39 -22 -54l-22 -70q-6 -19 -6 -33q0 -40 92 -40h16v-62h-325zM385 537h565l-281 674zM613 1604 l241 321h259l-407 -321h-93z" />
<glyph unicode="&#xc2;" horiz-adv-x="1479" vert-adv-y="2465" d="M0 0v62l22 1q64 4 80 24q15 16 37 67l46 105l521 1240h70l519 -1247l50 -103q40 -82 112 -86l22 -1v-62h-489v62h18q103 0 103 44q0 54 -42 153l-83 197h-634l-85 -197q-17 -39 -22 -54l-22 -70q-6 -19 -6 -33q0 -40 92 -40h16v-62h-325zM385 537h565l-281 674zM389 1604 l241 321h222l240 -321h-86l-265 222l-266 -222h-86z" />
<glyph unicode="&#xc3;" horiz-adv-x="1479" vert-adv-y="2465" d="M0 0v62l22 1q64 4 80 24q15 16 37 67l46 105l521 1240h70l519 -1247l50 -103q40 -82 112 -86l22 -1v-62h-489v62h18q103 0 103 44q0 54 -42 153l-83 197h-634l-85 -197q-17 -39 -22 -54l-22 -70q-6 -19 -6 -33q0 -40 92 -40h16v-62h-325zM385 537h565l-281 674zM408 1604 q27 140 96 193q54 42 131 42q65 0 118 -38l35 -25q52 -37 106 -37q95 0 118 99h62q-28 -139 -96 -192q-54 -42 -131 -42q-63 0 -118 38l-35 24q-55 38 -106 38q-89 0 -118 -100h-62z" />
<glyph unicode="&#xc4;" horiz-adv-x="1479" vert-adv-y="2465" d="M0 0v62l22 1q64 4 80 24q15 16 37 67l46 105l521 1240h70l519 -1247l50 -103q40 -82 112 -86l22 -1v-62h-489v62h18q103 0 103 44q0 54 -42 153l-83 197h-634l-85 -197q-17 -39 -22 -54l-22 -70q-6 -19 -6 -33q0 -40 92 -40h16v-62h-325zM385 537h565l-281 674zM457 1604 v173h173v-173h-173zM852 1604v173h173v-173h-173z" />
<glyph unicode="&#xc5;" horiz-adv-x="1479" vert-adv-y="2465" d="M0 0v62l22 1q64 4 80 24q15 16 37 67l46 105l521 1240h70l519 -1247l50 -103q40 -82 112 -86l22 -1v-62h-489v62h18q103 0 103 44q0 54 -42 153l-83 197h-634l-85 -197q-17 -39 -22 -54l-22 -70q-6 -19 -6 -33q0 -40 92 -40h16v-62h-325zM385 537h565l-281 674zM514 1707 q0 95 66 161t161 66q94 0 160 -66q67 -66 67 -160q0 -96 -67 -162q-66 -66 -162 -66q-83 0 -145 54q-80 69 -80 173zM582 1708q0 -66 46 -113t111 -47q61 0 105 37q56 48 56 123q0 66 -47 112t-112 46q-66 0 -113 -47q-46 -46 -46 -111z" />
<glyph unicode="&#xc6;" horiz-adv-x="1821" vert-adv-y="2465" d="M0 0v62l17 1q61 5 111 88l66 107l744 1222h778v-259h-111l-1 19l-6 84q-1 56 -18 66q-17 9 -55 9l-103 1h-271v-592h228l63 3q48 1 58 12q7 10 10 36l1 7l-1 7q2 5 2 10v14l1 16l2 18h92v-326h-92l-2 18q-7 85 -31 94q-25 11 -103 11h-228v-469q1 -136 40 -154 q36 -19 130 -19h106l141 6q83 1 88 70l3 91l1 18h111v-271h-1015v62l18 1l68 5q68 5 79 27q11 20 14 65l6 99v197h-538l-122 -198l-46 -79l-6 -12l-17 -29l-7 -13q-1 -3 -3 -5q-10 -15 -10 -29q0 -26 73 -26h4q5 0 19 -1h18l22 -1l23 -1v-62h-351zM455 537h486v801z" />
<glyph unicode="&#xc7;" horiz-adv-x="1366" vert-adv-y="2465" d="M80 745q0 360 188 566q187 206 521 206q207 0 455 -74v-283h-124l-1 20q0 5 -1 32v11v10v6q0 87 -69 142q-86 69 -243 69q-234 0 -366 -189t-132 -511q0 -325 154 -507q153 -181 418 -181q177 0 389 113v-96q-211 -116 -460 -116q-337 0 -533 210t-196 572zM619 -343 q62 -16 101 -16q107 0 107 82q0 98 -187 102l95 175h79l-66 -119q217 -19 217 -147q0 -70 -58 -118q-57 -48 -144 -48q-68 0 -144 21v68z" />
<glyph unicode="&#xc8;" horiz-adv-x="1251" vert-adv-y="2465" d="M43 0v62l19 1l67 5q76 6 86 47q13 62 13 144v962q0 59 -7 112q-6 39 -14 51q-18 26 -78 29l-67 4l-19 2v61h1103v-259h-111l-1 19l-5 84q-1 55 -19 66q-17 9 -54 9l-103 1h-415v-592l363 1l63 2q53 1 61 16q8 13 8 45q0 12 2 41l1 18h81v-326h-81l-1 18q-6 87 -30 94 q-25 11 -104 11h-363v-469q0 -136 40 -154q36 -19 130 -19h250q147 0 185 14q40 13 43 62l4 91l1 18h111v-271h-1159zM292 1925h259l241 -321h-93z" />
<glyph unicode="&#xc9;" horiz-adv-x="1251" vert-adv-y="2465" d="M43 0v62l19 1l67 5q76 6 86 47q13 62 13 144v962q0 59 -7 112q-6 39 -14 51q-18 26 -78 29l-67 4l-19 2v61h1103v-259h-111l-1 19l-5 84q-1 55 -19 66q-17 9 -54 9l-103 1h-415v-592l363 1l63 2q53 1 61 16q8 13 8 45q0 12 2 41l1 18h81v-326h-81l-1 18q-6 87 -30 94 q-25 11 -104 11h-363v-469q0 -136 40 -154q36 -19 130 -19h250q147 0 185 14q40 13 43 62l4 91l1 18h111v-271h-1159zM413 1604l241 321h259l-407 -321h-93z" />
<glyph unicode="&#xca;" horiz-adv-x="1251" vert-adv-y="2465" d="M43 0v62l19 1l67 5q76 6 86 47q13 62 13 144v962q0 59 -7 112q-6 39 -14 51q-18 26 -78 29l-67 4l-19 2v61h1103v-259h-111l-1 19l-5 84q-1 55 -19 66q-17 9 -54 9l-103 1h-415v-592l363 1l63 2q53 1 61 16q8 13 8 45q0 12 2 41l1 18h81v-326h-81l-1 18q-6 87 -30 94 q-25 11 -104 11h-363v-469q0 -136 40 -154q36 -19 130 -19h250q147 0 185 14q40 13 43 62l4 91l1 18h111v-271h-1159zM265 1604l241 321h222l240 -321h-86l-265 222l-266 -222h-86z" />
<glyph unicode="&#xcb;" horiz-adv-x="1251" vert-adv-y="2465" d="M43 0v62l19 1l67 5q76 6 86 47q13 62 13 144v962q0 59 -7 112q-6 39 -14 51q-18 26 -78 29l-67 4l-19 2v61h1103v-259h-111l-1 19l-5 84q-1 55 -19 66q-17 9 -54 9l-103 1h-415v-592l363 1l63 2q53 1 61 16q8 13 8 45q0 12 2 41l1 18h81v-326h-81l-1 18q-6 87 -30 94 q-25 11 -104 11h-363v-469q0 -136 40 -154q36 -19 130 -19h250q147 0 185 14q40 13 43 62l4 91l1 18h111v-271h-1159zM326 1604v173h173v-173h-173zM721 1604v173h173v-173h-173z" />
<glyph unicode="&#xcc;" horiz-adv-x="682" vert-adv-y="2465" d="M39 1925h259l241 -321h-93zM51 0v62l19 1l67 5q76 6 86 47q13 62 13 144v962q0 59 -7 112q-6 39 -14 51q-18 26 -78 29l-67 4l-19 2v61h580v-61l-19 -2l-68 -4q-75 -5 -85 -47q-13 -64 -13 -145v-962q0 -59 7 -112q6 -38 14 -50q19 -25 77 -29l68 -5l19 -1v-62h-580z" />
<glyph unicode="&#xcd;" horiz-adv-x="682" vert-adv-y="2465" d="M51 0v62l19 1l67 5q76 6 86 47q13 62 13 144v962q0 59 -7 112q-6 39 -14 51q-18 26 -78 29l-67 4l-19 2v61h580v-61l-19 -2l-68 -4q-75 -5 -85 -47q-13 -64 -13 -145v-962q0 -59 7 -112q6 -38 14 -50q19 -25 77 -29l68 -5l19 -1v-62h-580zM137 1604l241 321h259 l-407 -321h-93z" />
<glyph unicode="&#xce;" horiz-adv-x="682" vert-adv-y="2465" d="M-11 1604l241 321h222l240 -321h-86l-265 222l-266 -222h-86zM51 0v62l19 1l67 5q76 6 86 47q13 62 13 144v962q0 59 -7 112q-6 39 -14 51q-18 26 -78 29l-67 4l-19 2v61h580v-61l-19 -2l-68 -4q-75 -5 -85 -47q-13 -64 -13 -145v-962q0 -59 7 -112q6 -38 14 -50 q19 -25 77 -29l68 -5l19 -1v-62h-580z" />
<glyph unicode="&#xcf;" horiz-adv-x="682" vert-adv-y="2465" d="M51 0v62l19 1l67 5q76 6 86 47q13 62 13 144v962q0 59 -7 112q-6 39 -14 51q-18 26 -78 29l-67 4l-19 2v61h580v-61l-19 -2l-68 -4q-75 -5 -85 -47q-13 -64 -13 -145v-962q0 -59 7 -112q6 -38 14 -50q19 -25 77 -29l68 -5l19 -1v-62h-580zM57 1604v173h173v-173h-173z M452 1604v173h173v-173h-173z" />
<glyph unicode="&#xd0;" horiz-adv-x="1479" vert-adv-y="2465" d="M41 0v62l19 1l67 5q76 6 86 47q13 62 13 144v457h-185v67h185v438q0 59 -7 112q-6 39 -14 51q-18 26 -78 29l-67 4l-19 2v61h424l71 1l72 3l72 1q309 4 496 -150q223 -184 223 -563q0 -358 -191 -565t-521 -207h-646zM436 259l4 -78q4 -71 58 -94q46 -19 140 -19 q256 0 394 175q139 176 139 500q0 355 -150 513q-150 157 -489 157h-96v-630h345v-67h-345v-457z" />
<glyph unicode="&#xd1;" horiz-adv-x="1479" vert-adv-y="2465" d="M43 0v62l19 1l68 5q64 5 81.5 38.5t17.5 152.5v962q1 115 -18 156q-15 32 -81 36l-68 4l-19 2v61h333l783 -1149v890l-6 99q-4 67 -26 79q-20 11 -66 14l-68 4l-19 2v61h461v-61l-18 -2l-68 -4q-68 -4 -79 -27q-11 -20 -14 -66l-6 -99v-1241h-70l-858 1240v-961 q-1 -115 18 -155q15 -32 81 -36l68 -5l19 -1v-62h-465zM425 1604q27 140 96 193q53 42 131 42q65 0 118 -38l35 -25q52 -37 106 -37q96 0 118 99h62q-28 -139 -96 -192q-54 -42 -131 -42q-63 0 -118 38l-35 24q-55 38 -107 38q-88 0 -117 -100h-62z" />
<glyph unicode="&#xd2;" horiz-adv-x="1479" vert-adv-y="2465" d="M80 740q0 360 177 568q178 209 482 209q305 0 482 -208t177 -567q0 -365 -178 -572q-177 -207 -491 -207q-268 0 -437 170q-212 214 -212 607zM308 741q0 -328 114 -519t312 -191q184 0 296 151q140 189 140 561q0 331 -115 518q-116 189 -316 189q-201 0 -316 -189 t-115 -520zM393 1925h259l241 -321h-93z" />
<glyph unicode="&#xd3;" horiz-adv-x="1479" vert-adv-y="2465" d="M80 740q0 360 177 568q178 209 482 209q305 0 482 -208t177 -567q0 -365 -178 -572q-177 -207 -491 -207q-268 0 -437 170q-212 214 -212 607zM308 741q0 -328 114 -519t312 -191q184 0 296 151q140 189 140 561q0 331 -115 518q-116 189 -316 189q-201 0 -316 -189 t-115 -520zM585 1604l241 321h259l-407 -321h-93z" />
<glyph unicode="&#xd4;" horiz-adv-x="1479" vert-adv-y="2465" d="M80 740q0 360 177 568q178 209 482 209q305 0 482 -208t177 -567q0 -365 -178 -572q-177 -207 -491 -207q-268 0 -437 170q-212 214 -212 607zM308 741q0 -328 114 -519t312 -191q184 0 296 151q140 189 140 561q0 331 -115 518q-116 189 -316 189q-201 0 -316 -189 t-115 -520zM388 1604l241 321h222l240 -321h-86l-265 222l-266 -222h-86z" />
<glyph unicode="&#xd5;" horiz-adv-x="1479" vert-adv-y="2465" d="M80 740q0 360 177 568q178 209 482 209q305 0 482 -208t177 -567q0 -365 -178 -572q-177 -207 -491 -207q-268 0 -437 170q-212 214 -212 607zM308 741q0 -328 114 -519t312 -191q184 0 296 151q140 189 140 561q0 331 -115 518q-116 189 -316 189q-201 0 -316 -189 t-115 -520zM406 1604q27 139 96 193q53 42 131 42q65 0 118 -38l35 -25q52 -37 106 -37q96 0 118 99h62q-28 -139 -96 -192q-54 -42 -131 -42q-63 0 -118 38l-35 24q-55 38 -107 38q-88 0 -117 -100h-62z" />
<glyph unicode="&#xd6;" horiz-adv-x="1479" vert-adv-y="2465" d="M80 740q0 360 177 568q178 209 482 209q305 0 482 -208t177 -567q0 -365 -178 -572q-177 -207 -491 -207q-268 0 -437 170q-212 214 -212 607zM308 741q0 -328 114 -519t312 -191q184 0 296 151q140 189 140 561q0 331 -115 518q-116 189 -316 189q-201 0 -316 -189 t-115 -520zM455 1604v173h173v-173h-173zM850 1604v173h173v-173h-173z" />
<glyph unicode="&#xd7;" horiz-adv-x="1155" vert-adv-y="2465" d="M84 169l423 423l-423 424l69 70l424 -424l424 424l70 -70l-424 -424l424 -423l-70 -70l-424 424l-423 -424z" />
<glyph unicode="&#xd8;" horiz-adv-x="1479" vert-adv-y="2465" d="M80 -37l173 218q-77 101 -116 206q-57 155 -57 354q0 360 177 568t482 208q255 0 439 -165l131 165h89l-172 -219q77 -100 115 -204q57 -156 57 -355q0 -359 -177 -567q-177 -209 -482 -209q-254 0 -434 161l-126 -161h-99zM308 744q0 -239 63 -412l703 888 q-57 103 -120 154q-92 76 -216 76q-200 0 -315 -189t-115 -517zM407 254q56 -100 119 -150q91 -73 213 -73q201 0 316 189t115 518q0 235 -63 409z" />
<glyph unicode="&#xd9;" horiz-adv-x="1479" vert-adv-y="2465" d="M19 1419v61h583v-61l-18 -2l-68 -4q-68 -5 -79 -27q-11 -19 -14 -66l-6 -99v-633q0 -228 12 -298q12 -71 61 -134q97 -125 289 -125q199 0 308 129q56 67 69 159q11 78 11 225v677q1 114 -18 156q-15 32 -81 36l-68 4l-18 2v61h474v-61l-19 -2l-68 -4q-75 -5 -85 -47 q-13 -64 -13 -145v-620q0 -207 -23 -302q-24 -98 -92 -179q-133 -157 -406 -157q-546 0 -546 591v667q0 59 -7 112q-6 39 -14 51q-18 26 -78 29l-67 4zM434 1925h259l241 -321h-93z" />
<glyph unicode="&#xda;" horiz-adv-x="1479" vert-adv-y="2465" d="M19 1419v61h583v-61l-18 -2l-68 -4q-68 -5 -79 -27q-11 -19 -14 -66l-6 -99v-633q0 -228 12 -298q12 -71 61 -134q97 -125 289 -125q199 0 308 129q56 67 69 159q11 78 11 225v677q1 114 -18 156q-15 32 -81 36l-68 4l-18 2v61h474v-61l-19 -2l-68 -4q-75 -5 -85 -47 q-13 -64 -13 -145v-620q0 -207 -23 -302q-24 -98 -92 -179q-133 -157 -406 -157q-546 0 -546 591v667q0 59 -7 112q-6 39 -14 51q-18 26 -78 29l-67 4zM650 1604l241 321h259l-407 -321h-93z" />
<glyph unicode="&#xdb;" horiz-adv-x="1479" vert-adv-y="2465" d="M19 1419v61h583v-61l-18 -2l-68 -4q-68 -5 -79 -27q-11 -19 -14 -66l-6 -99v-633q0 -228 12 -298q12 -71 61 -134q97 -125 289 -125q199 0 308 129q56 67 69 159q11 78 11 225v677q1 114 -18 156q-15 32 -81 36l-68 4l-18 2v61h474v-61l-19 -2l-68 -4q-75 -5 -85 -47 q-13 -64 -13 -145v-620q0 -207 -23 -302q-24 -98 -92 -179q-133 -157 -406 -157q-546 0 -546 591v667q0 59 -7 112q-6 39 -14 51q-18 26 -78 29l-67 4zM440 1604l241 321h222l240 -321h-86l-265 222l-266 -222h-86z" />
<glyph unicode="&#xdc;" horiz-adv-x="1479" vert-adv-y="2465" d="M19 1419v61h583v-61l-18 -2l-68 -4q-68 -5 -79 -27q-11 -19 -14 -66l-6 -99v-633q0 -228 12 -298q12 -71 61 -134q97 -125 289 -125q199 0 308 129q56 67 69 159q11 78 11 225v677q1 114 -18 156q-15 32 -81 36l-68 4l-18 2v61h474v-61l-19 -2l-68 -4q-75 -5 -85 -47 q-13 -64 -13 -145v-620q0 -207 -23 -302q-24 -98 -92 -179q-133 -157 -406 -157q-546 0 -546 591v667q0 59 -7 112q-6 39 -14 51q-18 26 -78 29l-67 4zM508 1604v173h173v-173h-173zM903 1604v173h173v-173h-173z" />
<glyph unicode="&#xdd;" horiz-adv-x="1479" vert-adv-y="2465" d="M0 1419v61h573v-61h-19l-71 -2q-74 -2 -74 -37q0 -29 48 -99l45 -66l314 -467l315 466q95 140 95 175q0 25 -83 28l-56 2h-18v61h409v-61l-19 -2q-1 0 -6 1q-3 -3 -6 -3l-21 1q-73 3 -129 -83q-2 -4 -9 -14q-6 -9 -13 -18l-58 -86l-380 -559v-397q-1 -119 17 -155 q15 -32 81 -36l68 -5l19 -1v-62h-580v62l18 1l68 5q75 6 85 47q14 60 14 144v397l-375 559l-59 88q-69 105 -116 112l-58 2zM649 1604l241 321h259l-407 -321h-93z" />
<glyph unicode="&#xde;" horiz-adv-x="1139" vert-adv-y="2465" d="M43 0v62l19 1l67 5q76 6 86 47q13 62 13 144v962q0 59 -7 112q-6 39 -14 51q-18 26 -78 29l-67 4l-19 2v61h580v-61l-19 -2l-68 -4q-75 -5 -85 -47q-13 -64 -13 -145v-43l105 1q257 2 387 -75q147 -88 147 -313q0 -476 -634 -476h-5v-56q0 -59 7 -112q6 -38 14 -50 q19 -25 77 -29l68 -5l19 -1v-62h-580zM438 382h17q192 0 296 107t104 302q0 168 -86 244q-86 75 -275 75h-56v-728z" />
<glyph unicode="&#xdf;" vert-adv-y="2465" d="M27 0v62l18 1q75 4 87 26q13 19 14 71l2 99v853q0 271 78 381q79 111 271 111q152 0 240 -68q89 -67 89 -178q0 -106 -133 -250l-37 -40l-33 -34q-44 -45 -44 -95q0 -57 63 -127l59 -66l102 -116q123 -140 156 -200q34 -63 34 -148q0 -128 -85 -218q-85 -89 -207 -89 q-56 0 -171 29v224h87l1 -18l4 -71q6 -103 90 -103q53 0 87 48q34 49 34 120q0 109 -121 247l-115 131q-146 167 -146 253q0 76 84 182l27 34q79 100 79 253q0 238 -151 238q-99 0 -125 -97q-20 -74 -20 -229v-957l5 -100q1 -63 20 -79q19 -14 68 -17l18 -1v-62h-429z" />
<glyph unicode="&#xe0;" horiz-adv-x="909" vert-adv-y="2465" d="M75 273q0 369 468 369h41v135q0 163 -26 209q-26 48 -113 48q-84 0 -118 -38t-34 -133v-18h-136v174q148 91 316 91q166 0 237 -74t71 -251v-484q0 -145 13 -191q13 -45 53 -45q16 0 51 9l6 -74q-76 -25 -112 -25q-124 0 -163 174q-116 -174 -285 -174q-123 0 -196 80 q-73 81 -73 218zM288 312q0 -219 143 -219q72 0 153 78v409h-46q-250 0 -250 -268zM166 1604h259l241 -321h-93z" />
<glyph unicode="&#xe1;" horiz-adv-x="909" vert-adv-y="2465" d="M75 273q0 369 468 369h41v135q0 163 -26 209q-26 48 -113 48q-84 0 -118 -38t-34 -133v-18h-136v174q148 91 316 91q166 0 237 -74t71 -251v-484q0 -145 13 -191q13 -45 53 -45q16 0 51 9l6 -74q-76 -25 -112 -25q-124 0 -163 174q-116 -174 -285 -174q-123 0 -196 80 q-73 81 -73 218zM288 312q0 -219 143 -219q72 0 153 78v409h-46q-250 0 -250 -268zM283 1283l241 321h259l-407 -321h-93z" />
<glyph unicode="&#xe2;" horiz-adv-x="909" vert-adv-y="2465" d="M75 273q0 369 468 369h41v135q0 163 -26 209q-26 48 -113 48q-84 0 -118 -38t-34 -133v-18h-136v174q148 91 316 91q166 0 237 -74t71 -251v-484q0 -145 13 -191q13 -45 53 -45q16 0 51 9l6 -74q-76 -25 -112 -25q-124 0 -163 174q-116 -174 -285 -174q-123 0 -196 80 q-73 81 -73 218zM288 312q0 -219 143 -219q72 0 153 78v409h-46q-250 0 -250 -268zM123 1283l241 321h222l240 -321h-86l-265 222l-266 -222h-86z" />
<glyph unicode="&#xe3;" horiz-adv-x="909" vert-adv-y="2465" d="M75 273q0 369 468 369h41v135q0 163 -26 209q-26 48 -113 48q-84 0 -118 -38t-34 -133v-18h-136v174q148 91 316 91q166 0 237 -74t71 -251v-484q0 -145 13 -191q13 -45 53 -45q16 0 51 9l6 -74q-76 -25 -112 -25q-124 0 -163 174q-116 -174 -285 -174q-123 0 -196 80 q-73 81 -73 218zM288 312q0 -219 143 -219q72 0 153 78v409h-46q-250 0 -250 -268zM127 1283q27 140 96 193q54 42 131 42q65 0 118 -38l35 -25q52 -37 106 -37q96 0 118 99h62q-28 -139 -96 -192q-54 -42 -131 -42q-63 0 -118 38l-35 24q-55 38 -107 38q-87 0 -117 -100 h-62z" />
<glyph unicode="&#xe4;" horiz-adv-x="909" vert-adv-y="2465" d="M75 273q0 369 468 369h41v135q0 163 -26 209q-26 48 -113 48q-84 0 -118 -38t-34 -133v-18h-136v174q148 91 316 91q166 0 237 -74t71 -251v-484q0 -145 13 -191q13 -45 53 -45q16 0 51 9l6 -74q-76 -25 -112 -25q-124 0 -163 174q-116 -174 -285 -174q-123 0 -196 80 q-73 81 -73 218zM288 312q0 -219 143 -219q72 0 153 78v409h-46q-250 0 -250 -268zM191 1283v173h173v-173h-173zM586 1283v173h173v-173h-173z" />
<glyph unicode="&#xe5;" horiz-adv-x="909" vert-adv-y="2465" d="M75 273q0 369 468 369h41v135q0 163 -26 209q-26 48 -113 48q-84 0 -118 -38t-34 -133v-18h-136v174q148 91 316 91q166 0 237 -74t71 -251v-484q0 -145 13 -191q13 -45 53 -45q16 0 51 9l6 -74q-76 -25 -112 -25q-124 0 -163 174q-116 -174 -285 -174q-123 0 -196 80 q-73 81 -73 218zM248 1510q0 95 66 161q67 66 161 66t160 -66q67 -66 67 -160q0 -96 -67 -162q-66 -66 -162 -66q-83 0 -145 54q-80 69 -80 173zM288 312q0 -219 143 -219q72 0 153 78v409h-46q-250 0 -250 -268zM316 1511q0 -66 46 -113q47 -47 111 -47q61 0 105 37 q56 48 56 123q0 66 -46 112q-47 46 -113 46t-112 -46q-47 -47 -47 -112z" />
<glyph unicode="&#xe6;" horiz-adv-x="1366" vert-adv-y="2465" d="M75 273q0 369 467 369h41v135q0 162 -25 209q-25 48 -113 48q-84 0 -119 -38q-34 -38 -34 -133v-18h-136v174q148 91 313 91q174 0 263 -101q116 102 243 102q329 0 329 -506v-19h-523q4 -238 57 -353q72 -158 229 -158q92 0 237 75v-101q-146 -74 -275 -74 q-139 0 -249 76q-65 45 -131 130q-67 -110 -124 -154q-68 -52 -178 -52q-126 0 -199 80q-73 81 -73 218zM288 312q0 -219 143 -219q71 0 152 78v409h-45q-250 0 -250 -268zM781 648h314v44q0 198 -28 274q-29 77 -104 77q-99 0 -145 -118q-34 -88 -37 -277z" />
<glyph unicode="&#xe7;" horiz-adv-x="909" vert-adv-y="2465" d="M68 550q0 250 134 405t355 155q132 0 291 -49v-259h-124v18q0 223 -167 223q-123 0 -198 -129q-75 -128 -75 -337q0 -238 93 -371t255 -133q78 0 216 50v-86q-152 -62 -280 -62q-218 0 -359 162q-141 161 -141 413zM366 -343q62 -16 101 -16q107 0 107 82q0 98 -187 102 l95 175h79l-66 -119q97 -8 144 -33q73 -37 73 -114q0 -70 -58 -118q-57 -48 -144 -48q-68 0 -144 21v68z" />
<glyph unicode="&#xe8;" horiz-adv-x="909" vert-adv-y="2465" d="M68 536q0 260 117 417q116 157 311 157q181 0 267 -122q85 -122 85 -383v-19h-564q3 -144 18 -218q60 -293 298 -293q122 0 248 75v-101q-166 -74 -306 -74q-220 0 -347 149t-127 412zM284 648h354l1 44v38q0 149 -28 227q-31 86 -125 86q-104 0 -161 -142 q-39 -98 -41 -253zM185 1604h259l241 -321h-93z" />
<glyph unicode="&#xe9;" horiz-adv-x="909" vert-adv-y="2465" d="M68 536q0 260 117 417q116 157 311 157q181 0 267 -122q85 -122 85 -383v-19h-564q3 -144 18 -218q60 -293 298 -293q122 0 248 75v-101q-166 -74 -306 -74q-220 0 -347 149t-127 412zM284 648h354l1 44v38q0 149 -28 227q-31 86 -125 86q-104 0 -161 -142 q-39 -98 -41 -253zM302 1283l241 321h259l-407 -321h-93z" />
<glyph unicode="&#xea;" horiz-adv-x="909" vert-adv-y="2465" d="M68 536q0 260 117 417q116 157 311 157q181 0 267 -122q85 -122 85 -383v-19h-564q3 -144 18 -218q60 -293 298 -293q122 0 248 75v-101q-166 -74 -306 -74q-220 0 -347 149t-127 412zM284 648h354l1 44v38q0 149 -28 227q-31 86 -125 86q-104 0 -161 -142 q-39 -98 -41 -253zM142 1283l241 321h222l240 -321h-86l-265 222l-266 -222h-86z" />
<glyph unicode="&#xeb;" horiz-adv-x="909" vert-adv-y="2465" d="M68 536q0 260 117 417q116 157 311 157q181 0 267 -122q85 -122 85 -383v-19h-564q3 -144 18 -218q60 -293 298 -293q122 0 248 75v-101q-166 -74 -306 -74q-220 0 -347 149t-127 412zM284 648h354l1 44v38q0 149 -28 227q-31 86 -125 86q-104 0 -161 -142 q-39 -98 -41 -253zM210 1283v173h173v-173h-173zM605 1283v173h173v-173h-173z" />
<glyph unicode="&#xec;" horiz-adv-x="569" vert-adv-y="2465" d="M46 0v62l19 1q108 7 114 24q11 19 11 73l2 99v568l-2 98q-1 74 -22 82q-20 11 -103 16l-19 1v62h343v-827l2 -99q1 -74 22 -82q21 -10 103 -15l19 -1v-62h-489zM7 1604h259l241 -321h-93z" />
<glyph unicode="&#xed;" horiz-adv-x="569" vert-adv-y="2465" d="M47 0v62l19 1q108 7 114 24q11 19 11 73l2 99v568l-2 98q-1 74 -22 82q-20 11 -103 16l-19 1v62h343v-827l2 -99q1 -74 22 -82q21 -10 103 -15l19 -1v-62h-489zM76 1283l241 321h259l-407 -321h-93z" />
<glyph unicode="&#xee;" horiz-adv-x="569" vert-adv-y="2465" d="M46 0v62l19 1q108 7 114 24q11 19 11 73l2 99v568l-2 98q-1 74 -22 82q-20 11 -103 16l-19 1v62h343v-827l2 -99q1 -74 22 -82q21 -10 103 -15l19 -1v-62h-489zM-61 1283l241 321h222l240 -321h-86l-265 222l-266 -222h-86z" />
<glyph unicode="&#xef;" horiz-adv-x="569" vert-adv-y="2465" d="M7 1283v173h173v-173h-173zM46 0v62l19 1q108 7 114 24q10 19 11 73l2 99v568l-2 98q-1 74 -22 82q-19 11 -103 16l-19 1v62h343v-827l2 -99q1 -74 23 -82q23 -10 102 -15l19 -1v-62h-489zM402 1283v173h173v-173h-173z" />
<glyph unicode="&#xf0;" vert-adv-y="2465" d="M17 1507v72q248 0 462 -135l210 141l35 -50l-197 -131q119 -87 184 -156q251 -269 251 -662q0 -288 -119 -449q-118 -162 -332 -162q-204 0 -327 152q-122 152 -122 404q0 250 122 402q123 153 319 153q39 0 94 -8q-67 106 -198 239l-292 -198l-36 53l279 185 q-157 135 -333 150zM277 531q0 -220 65 -354q64 -134 170 -134q105 0 169 133q65 134 65 349q0 204 -53 334q-65 159 -182 159q-105 0 -169 -134q-65 -134 -65 -353z" />
<glyph unicode="&#xf1;" vert-adv-y="2465" d="M37 0v62l19 1q73 4 86 26q13 19 14 71l2 99v568l-2 98q0 68 -25 82q-20 12 -75 16l-19 1v62h319v-179q64 92 124 137q86 66 187 66q124 0 177 -78t53 -267v-506l2 -99q0 -68 25 -82q22 -12 76 -15l18 -1v-62h-439v62l19 1q77 5 89 29q11 20 11 68l2 99v475l-3 77 q-3 89 -25 126q-25 44 -80 44q-115 0 -236 -141v-581l1 -99q1 -69 26 -82q22 -12 75 -15l19 -1v-62h-440zM183 1283q27 140 96 193q54 42 131 42q65 0 118 -38l35 -25q52 -37 106 -37q96 0 118 99h62q-28 -139 -96 -192q-54 -42 -131 -42q-63 0 -118 38l-35 24 q-55 38 -107 38q-87 0 -117 -100h-62z" />
<glyph unicode="&#xf2;" vert-adv-y="2465" d="M62 543q0 262 121 414q122 153 329 153t328 -153q122 -152 122 -413q0 -265 -122 -417q-121 -152 -334 -152q-182 0 -297 124q-147 158 -147 444zM278 538q0 -495 239 -495q90 0 150 104q80 139 80 398q0 227 -64 363q-63 135 -171 135t-171 -135q-63 -136 -63 -370z M179 1604h259l241 -321h-93z" />
<glyph unicode="&#xf3;" vert-adv-y="2465" d="M62 543q0 262 121 414q122 153 329 153t328 -153q122 -152 122 -413q0 -265 -122 -417q-121 -152 -334 -152q-182 0 -297 124q-147 158 -147 444zM278 538q0 -495 239 -495q90 0 150 104q80 139 80 398q0 227 -64 363q-63 135 -171 135t-171 -135q-63 -136 -63 -370z M346 1283l241 321h259l-407 -321h-93z" />
<glyph unicode="&#xf4;" vert-adv-y="2465" d="M62 543q0 262 121 414q122 153 329 153t328 -153q122 -152 122 -413q0 -265 -122 -417q-121 -152 -334 -152q-182 0 -297 124q-147 158 -147 444zM278 538q0 -495 239 -495q90 0 150 104q80 139 80 398q0 227 -64 363q-63 135 -171 135t-171 -135q-63 -136 -63 -370z M161 1283l241 321h222l240 -321h-86l-265 222l-266 -222h-86z" />
<glyph unicode="&#xf5;" vert-adv-y="2465" d="M62 543q0 262 121 414q122 153 329 153t328 -153q122 -152 122 -413q0 -265 -122 -417q-121 -152 -334 -152q-182 0 -297 124q-147 158 -147 444zM278 538q0 -495 239 -495q90 0 150 104q80 139 80 398q0 227 -64 363q-63 135 -171 135t-171 -135q-63 -136 -63 -370z M179 1283q27 140 96 193q54 42 131 42q65 0 118 -38l35 -25q52 -37 106 -37q96 0 118 99h62q-28 -139 -96 -192q-54 -42 -131 -42q-63 0 -118 38l-35 24q-55 38 -107 38q-87 0 -117 -100h-62z" />
<glyph unicode="&#xf6;" vert-adv-y="2465" d="M62 543q0 262 121 414q122 153 329 153t328 -153q122 -152 122 -413q0 -265 -122 -417q-121 -152 -334 -152q-182 0 -297 124q-147 158 -147 444zM278 538q0 -495 239 -495q90 0 150 104q80 139 80 398q0 227 -64 363q-63 135 -171 135t-171 -135q-63 -136 -63 -370z M229 1283v173h173v-173h-173zM624 1283v173h173v-173h-173z" />
<glyph unicode="&#xf7;" horiz-adv-x="1155" vert-adv-y="2465" d="M84 543v99h987v-99h-987zM479 99v197h197v-197h-197zM479 888v198h197v-198h-197z" />
<glyph unicode="&#xf8;" vert-adv-y="2465" d="M62 -25l115 163q-115 172 -115 406q0 260 121 413t328 153q166 0 284 -102l72 102h96l-116 -162q116 -172 116 -408q0 -259 -122 -412q-121 -153 -328 -153q-166 0 -283 102l-72 -102h-96zM278 547q0 -108 23 -235l397 561q-60 170 -185 170q-109 0 -172 -136 q-63 -135 -63 -360zM326 213q60 -170 186 -170q109 0 172 136t63 362q0 103 -23 232z" />
<glyph unicode="&#xf9;" vert-adv-y="2465" d="M12 1024v62h319v-734l2 -78q2 -86 24 -124q26 -45 82 -45q115 0 236 140v582l-2 98q-1 69 -25 82q-21 12 -75 16l-19 1v62h318v-827l2 -99q0 -68 25 -82q23 -12 75 -15l19 -1v-62h-318v179q-64 -92 -124 -138q-85 -66 -187 -66q-124 0 -178 78q-53 78 -53 268v506l-2 98 q0 68 -25 82q-20 12 -75 16zM169 1604h259l241 -321h-93z" />
<glyph unicode="&#xfa;" vert-adv-y="2465" d="M12 1024v62h319v-734l2 -78q2 -86 24 -124q26 -45 82 -45q115 0 236 140v582l-2 98q-1 69 -25 82q-21 12 -75 16l-19 1v62h318v-827l2 -99q0 -68 25 -82q23 -12 75 -15l19 -1v-62h-318v179q-64 -92 -124 -138q-85 -66 -187 -66q-124 0 -178 78q-53 78 -53 268v506l-2 98 q0 68 -25 82q-20 12 -75 16zM287 1283l241 321h259l-407 -321h-93z" />
<glyph unicode="&#xfb;" vert-adv-y="2465" d="M12 1024v62h319v-734l2 -78q2 -86 24 -124q26 -45 82 -45q115 0 236 140v582l-2 98q-1 69 -25 82q-21 12 -75 16l-19 1v62h318v-827l2 -99q0 -68 25 -82q23 -12 75 -15l19 -1v-62h-318v179q-64 -92 -124 -138q-85 -66 -187 -66q-124 0 -178 78q-53 78 -53 268v506l-2 98 q0 68 -25 82q-20 12 -75 16zM133 1283l241 321h222l240 -321h-86l-265 222l-266 -222h-86z" />
<glyph unicode="&#xfc;" vert-adv-y="2465" d="M12 1024v62h319v-734l2 -78q2 -86 24 -124q26 -45 82 -45q115 0 236 140v582l-2 98q-1 69 -25 82q-21 12 -75 16l-19 1v62h318v-827l2 -99q0 -68 25 -82q23 -12 75 -15l19 -1v-62h-318v179q-64 -92 -124 -138q-85 -66 -187 -66q-124 0 -178 78q-53 78 -53 268v506l-2 98 q0 68 -25 82q-20 12 -75 16zM219 1283v173h173v-173h-173zM614 1283v173h173v-173h-173z" />
<glyph unicode="&#xfd;" vert-adv-y="2465" d="M0 1024v62h437v-62h-19l-29 -1q-79 -3 -79 -41q0 -21 30 -91l31 -73l220 -546l203 545l26 67q31 80 31 98q0 42 -93 42h-22v62h288v-62l-17 -1q-62 -4 -96 -92l-44 -114l-456 -1212h-249l325 395l-331 820q-80 200 -139 203zM400 1283l241 321h259l-407 -321h-93z" />
<glyph unicode="&#xfe;" vert-adv-y="2465" d="M0 -333l19 1q73 4 86 26q13 20 14 72l2 98l-2 1562q0 63 -26 75q-22 12 -74 15l-19 1v62h318v-672q58 92 114 137q80 66 178 66q159 0 253 -142q93 -142 93 -393q0 -282 -121 -441t-332 -159q-74 0 -185 25v-136l2 -99q1 -69 25 -82q22 -12 76 -15l18 -1v-62h-439v62z M318 77q81 -23 131 -23q136 0 215 127t79 355q0 447 -201 447q-93 0 -224 -146v-760z" />
<glyph unicode="&#xff;" vert-adv-y="2465" d="M0 1024v62h437v-62h-19l-29 -1q-79 -3 -79 -41q0 -21 30 -91l31 -73l220 -546l203 545l26 67q31 80 31 98q0 42 -93 42h-22v62h288v-62l-17 -1q-62 -4 -96 -92l-44 -114l-456 -1212h-249l325 395l-331 820q-80 200 -139 203zM307 1283v173h173v-173h-173zM702 1283v173 h173v-173h-173z" />
<glyph unicode="&#x100;" horiz-adv-x="1479" vert-adv-y="2465" d="M0 0v62l22 1q64 4 80 24q15 16 37 67l46 105l521 1240h70l519 -1247l50 -103q40 -82 112 -86l22 -1v-62h-489v62h18q103 0 103 44q0 54 -42 153l-83 197h-634l-85 -197q-17 -39 -22 -54l-22 -70q-6 -19 -6 -33q0 -40 92 -40h16v-62h-325zM385 537h565l-281 674zM420 1604 v123h642v-123h-642z" />
<glyph unicode="&#x101;" horiz-adv-x="909" vert-adv-y="2465" d="M75 273q0 369 468 369h41v135q0 163 -26 209q-26 48 -113 48q-84 0 -118 -38t-34 -133v-18h-136v174q148 91 316 91q166 0 237 -74t71 -251v-484q0 -145 13 -191q13 -45 53 -45q16 0 51 9l6 -74q-76 -25 -112 -25q-124 0 -163 174q-116 -174 -285 -174q-123 0 -196 80 q-73 81 -73 218zM288 312q0 -219 143 -219q72 0 153 78v409h-46q-250 0 -250 -268zM140 1283v123h642v-123h-642z" />
<glyph unicode="&#x102;" horiz-adv-x="1479" vert-adv-y="2465" d="M0 0v62l22 1q64 4 80 24q15 16 37 67l46 105l521 1240h70l519 -1247l50 -103q40 -82 112 -86l22 -1v-62h-489v62h18q103 0 103 44q0 54 -42 153l-83 197h-634l-85 -197q-17 -39 -22 -54l-22 -70q-6 -19 -6 -33q0 -40 92 -40h16v-62h-325zM385 537h565l-281 674zM408 1925 h65q27 -90 87 -132q68 -47 181 -47q126 0 196 59q48 40 73 120h64q-19 -135 -91 -216q-94 -105 -242 -105q-154 0 -249 115q-65 78 -84 206z" />
<glyph unicode="&#x103;" horiz-adv-x="909" vert-adv-y="2465" d="M75 273q0 369 468 369h41v135q0 163 -26 209q-26 48 -113 48q-84 0 -118 -38t-34 -133v-18h-136v174q148 91 316 91q166 0 237 -74t71 -251v-484q0 -145 13 -191q13 -45 53 -45q16 0 51 9l6 -74q-76 -25 -112 -25q-124 0 -163 174q-116 -174 -285 -174q-123 0 -196 80 q-73 81 -73 218zM288 312q0 -219 143 -219q72 0 153 78v409h-46q-250 0 -250 -268zM141 1604h65q27 -90 87 -132q68 -47 181 -47q126 0 196 59q49 40 73 120h64q-19 -135 -91 -216q-94 -105 -242 -105q-154 0 -249 115q-65 78 -84 206z" />
<glyph unicode="&#x104;" horiz-adv-x="1479" vert-adv-y="2465" d="M0 0v62l22 1q64 4 80 24q15 16 37 67l46 105l521 1240h70l519 -1247l50 -103q40 -82 112 -86l22 -1v-62h-489v62h18q103 0 103 44q0 54 -42 153l-83 197h-634l-85 -197q-17 -39 -22 -54l-22 -70q-6 -19 -6 -33q0 -40 92 -40h16v-62h-325zM385 537h565l-281 674z M1085 -211q0 121 158 211h107q-129 -81 -129 -182q0 -107 133 -107q51 0 100 16v-68q-71 -29 -149 -29q-220 0 -220 159z" />
<glyph unicode="&#x105;" horiz-adv-x="909" vert-adv-y="2465" d="M75 273q0 369 468 369h41v135q0 163 -26 209q-26 48 -113 48q-84 0 -118 -38t-34 -133v-18h-136v174q148 91 316 91q166 0 237 -74t71 -251v-484q0 -145 13 -191q13 -45 53 -45q16 0 51 9l6 -74q-76 -25 -112 -25q-124 0 -163 174q-116 -174 -285 -174q-123 0 -196 80 q-73 81 -73 218zM288 312q0 -219 143 -219q72 0 153 78v409h-46q-250 0 -250 -268zM548 -211q0 122 158 211h107q-129 -80 -129 -182q0 -107 133 -107q51 0 100 16v-68q-71 -29 -149 -29q-220 0 -220 159z" />
<glyph unicode="&#x106;" horiz-adv-x="1366" vert-adv-y="2465" d="M80 745q0 360 188 566q187 206 521 206q207 0 455 -74v-283h-124l-1 20q0 5 -1 32v11v10v6q0 87 -69 142q-86 69 -243 69q-233 0 -366 -189q-132 -188 -132 -511q0 -325 154 -507q153 -181 418 -181q177 0 389 113v-96q-209 -116 -460 -116q-337 0 -533 210t-196 572z M703 1604l241 321h259l-407 -321h-93z" />
<glyph unicode="&#x107;" horiz-adv-x="909" vert-adv-y="2465" d="M68 550q0 250 134 405t355 155q132 0 291 -49v-259h-124v18q0 223 -167 223q-123 0 -198 -129q-75 -128 -75 -337q0 -238 93 -371t255 -133q78 0 216 50v-86q-152 -62 -280 -62q-218 0 -359 162q-141 161 -141 413zM407 1283l241 321h259l-407 -321h-93z" />
<glyph unicode="&#x108;" horiz-adv-x="1366" vert-adv-y="2465" d="M80 745q0 360 188 566q187 206 521 206q207 0 455 -74v-283h-124l-1 20q0 5 -1 32v11v10v6q0 87 -69 142q-86 69 -243 69q-233 0 -366 -189q-132 -188 -132 -511q0 -325 154 -507q153 -181 418 -181q177 0 389 113v-96q-209 -116 -460 -116q-337 0 -533 210t-196 572z M443 1604l241 321h222l240 -321h-86l-265 222l-266 -222h-86z" />
<glyph unicode="&#x109;" horiz-adv-x="909" vert-adv-y="2465" d="M68 550q0 250 134 405t355 155q132 0 291 -49v-259h-124v18q0 223 -167 223q-123 0 -198 -129q-75 -128 -75 -337q0 -238 93 -371t255 -133q78 0 216 50v-86q-152 -62 -280 -62q-218 0 -359 162q-141 161 -141 413zM206 1283l241 321h222l240 -321h-86l-265 222 l-266 -222h-86z" />
<glyph unicode="&#x10a;" horiz-adv-x="1366" vert-adv-y="2465" d="M80 745q0 360 188 566q187 206 521 206q207 0 455 -74v-283h-124l-1 20q0 5 -1 32v11v10v6q0 87 -69 142q-86 69 -243 69q-233 0 -366 -189q-132 -188 -132 -511q0 -325 154 -507q153 -181 418 -181q177 0 389 113v-96q-209 -116 -460 -116q-337 0 -533 210t-196 572z M696 1604v197h197v-197h-197z" />
<glyph unicode="&#x10b;" horiz-adv-x="909" vert-adv-y="2465" d="M68 550q0 250 134 405t355 155q132 0 291 -49v-259h-124v18q0 223 -167 223q-123 0 -198 -129q-75 -128 -75 -337q0 -238 93 -371t255 -133q78 0 216 50v-86q-152 -62 -280 -62q-218 0 -359 162q-141 161 -141 413zM463 1283v197h197v-197h-197z" />
<glyph unicode="&#x10c;" horiz-adv-x="1366" vert-adv-y="2465" d="M80 745q0 360 188 566q187 206 521 206q207 0 455 -74v-283h-124l-1 20q0 5 -1 32v11v10v6q0 87 -69 142q-86 69 -243 69q-233 0 -366 -189q-132 -188 -132 -511q0 -325 154 -507q153 -181 418 -181q177 0 389 113v-96q-209 -116 -460 -116q-337 0 -533 210t-196 572z M443 1925h86l266 -222l265 222h86l-240 -321h-222z" />
<glyph unicode="&#x10d;" horiz-adv-x="909" vert-adv-y="2465" d="M68 550q0 250 134 405t355 155q132 0 291 -49v-259h-124v18q0 223 -167 223q-123 0 -198 -129q-75 -128 -75 -337q0 -238 93 -371t255 -133q78 0 216 50v-86q-152 -62 -280 -62q-218 0 -359 162q-141 161 -141 413zM206 1604h86l266 -222l265 222h86l-240 -321h-222z" />
<glyph unicode="&#x10e;" horiz-adv-x="1479" vert-adv-y="2465" d="M41 0v62l19 1l67 5q76 6 86 47q13 62 13 144v962q0 59 -7 112q-6 39 -14 51q-18 26 -78 29l-67 4l-19 2v61h424l71 1l72 3l72 1q309 4 496 -150q223 -183 223 -563q0 -358 -191 -565t-521 -207h-646zM343 1925h86l266 -222l265 222h86l-240 -321h-222zM436 259l4 -78 q4 -71 58 -94q46 -19 140 -19q256 0 394 175q139 176 139 500q0 355 -150 513q-150 157 -489 157h-96v-1154z" />
<glyph unicode="&#x10f;" horiz-adv-x="1324" vert-adv-y="2465" d="M68 510q0 283 121 441q121 159 334 159q74 0 183 -24v234l-2 99q-1 69 -25 82q-22 12 -75 15l-19 1v62h318v-1320l2 -99q0 -68 25 -82q23 -12 76 -15l18 -1v-62h-318v179q-58 -92 -114 -138q-80 -66 -178 -66q-160 0 -253 143q-93 142 -93 392zM281 550q0 -447 201 -447 q94 0 224 145v760q-80 24 -130 24q-137 0 -216 -127t-79 -355zM1101 1125v50q79 6 79 155v52h-79v197h197v-171q0 -163 -62 -228q-48 -49 -135 -55z" />
<glyph unicode="&#x110;" horiz-adv-x="1479" vert-adv-y="2465" d="M41 0v62l19 1l67 5q76 6 86 47q13 62 13 144v457h-185v67h185v438q0 59 -7 112q-6 39 -14 51q-18 26 -78 29l-67 4l-19 2v61h424l71 1l72 3l72 1q309 4 496 -150q223 -184 223 -563q0 -358 -191 -565t-521 -207h-646zM436 259l4 -78q4 -71 58 -94q46 -19 140 -19 q256 0 394 175q139 176 139 500q0 355 -150 513q-150 157 -489 157h-96v-630h345v-67h-345v-457z" />
<glyph unicode="&#x111;" vert-adv-y="2465" d="M68 510q0 283 121 441q121 159 334 159q74 0 183 -24v160h-296v62h296v12l-2 99q-1 69 -25 82q-22 12 -75 15l-19 1v62h318v-271h121v-62h-121v-987l2 -99q0 -68 25 -82q23 -12 76 -15l18 -1v-62h-318v179q-58 -92 -114 -138q-80 -66 -178 -66q-160 0 -253 143 q-93 142 -93 392zM281 550q0 -447 201 -447q94 0 224 145v760q-80 24 -130 24q-137 0 -216 -127t-79 -355z" />
<glyph unicode="&#x112;" horiz-adv-x="1251" vert-adv-y="2465" d="M43 0v62l19 1l67 5q76 6 86 47q13 62 13 144v962q0 59 -7 112q-6 39 -14 51q-18 26 -78 29l-67 4l-19 2v61h1103v-259h-111l-1 19l-5 84q-1 55 -19 66q-17 9 -54 9l-103 1h-415v-592l363 1l63 2q53 1 61 16q8 13 8 45q0 12 2 41l1 18h81v-326h-81l-1 18q-6 87 -30 94 q-25 11 -104 11h-363v-469q0 -136 40 -154q36 -19 130 -19h250q147 0 185 14q40 13 43 62l4 91l1 18h111v-271h-1159zM339 1604v123h642v-123h-642z" />
<glyph unicode="&#x113;" horiz-adv-x="909" vert-adv-y="2465" d="M68 536q0 260 117 417q116 157 311 157q181 0 267 -122q85 -122 85 -383v-19h-564q3 -144 18 -218q60 -293 298 -293q122 0 248 75v-101q-166 -74 -306 -74q-220 0 -347 149t-127 412zM284 648h354l1 44v38q0 149 -28 227q-31 86 -125 86q-104 0 -161 -142 q-39 -98 -41 -253zM173 1283v123h642v-123h-642z" />
<glyph unicode="&#x114;" horiz-adv-x="1251" vert-adv-y="2465" d="M43 0v62l19 1l67 5q76 6 86 47q13 62 13 144v962q0 59 -7 112q-6 39 -14 51q-18 26 -78 29l-67 4l-19 2v61h1103v-259h-111l-1 19l-5 84q-1 55 -19 66q-17 9 -54 9l-103 1h-415v-592l363 1l63 2q53 1 61 16q8 13 8 45q0 12 2 41l1 18h81v-326h-81l-1 18q-6 87 -30 94 q-25 11 -104 11h-363v-469q0 -136 40 -154q36 -19 130 -19h250q147 0 185 14q40 13 43 62l4 91l1 18h111v-271h-1159zM315 1925h65q27 -90 87 -132q68 -47 181 -47q126 0 196 59q49 40 73 120h64q-19 -135 -91 -216q-94 -105 -242 -105q-154 0 -249 115q-65 78 -84 206z" />
<glyph unicode="&#x115;" horiz-adv-x="909" vert-adv-y="2465" d="M68 536q0 260 117 417q116 157 311 157q181 0 267 -122q85 -122 85 -383v-19h-564q3 -144 18 -218q60 -293 298 -293q122 0 248 75v-101q-166 -74 -306 -74q-220 0 -347 149t-127 412zM160 1604h65q27 -90 87 -132q68 -47 181 -47q126 0 196 59q48 39 73 120h64 q-19 -135 -91 -216q-95 -105 -242 -105q-153 0 -249 115q-65 77 -84 206zM284 648h354l1 44q4 177 -28 265q-31 86 -125 86q-104 0 -161 -142q-39 -98 -41 -253z" />
<glyph unicode="&#x116;" horiz-adv-x="1251" vert-adv-y="2465" d="M43 0v62l19 1l67 5q76 6 86 47q13 62 13 144v962q0 59 -7 112q-6 39 -14 51q-18 26 -78 29l-67 4l-19 2v61h1103v-259h-111l-1 19l-5 84q-1 55 -19 66q-17 9 -54 9l-103 1h-415v-592l363 1l63 2q53 1 61 16q8 13 8 45q0 12 2 41l1 18h81v-326h-81l-1 18q-6 87 -30 94 q-25 11 -104 11h-363v-469q0 -136 40 -154q36 -19 130 -19h250q147 0 185 14q40 13 43 62l4 91l1 18h111v-271h-1159zM536 1604v197h197v-197h-197z" />
<glyph unicode="&#x117;" horiz-adv-x="909" vert-adv-y="2465" d="M68 536q0 260 117 417q116 157 311 157q181 0 267 -122q85 -122 85 -383v-19h-564q3 -144 18 -218q60 -293 298 -293q122 0 248 75v-101q-166 -74 -306 -74q-220 0 -347 149t-127 412zM284 648h354l1 44v38q0 149 -28 227q-31 86 -125 86q-104 0 -161 -142 q-39 -98 -41 -253zM395 1283v197h197v-197h-197z" />
<glyph unicode="&#x118;" horiz-adv-x="1251" vert-adv-y="2465" d="M43 0v62l19 1l67 5q76 6 86 47q13 62 13 144v962q0 59 -7 112q-6 39 -14 51q-18 26 -78 29l-67 4l-19 2v61h1103v-259h-111l-1 19l-5 84q-1 55 -19 66q-17 9 -54 9l-103 1h-415v-592l363 1l63 2q53 1 61 17q8 13 8 44q0 12 2 41l1 18h81v-326h-81l-1 18q-6 87 -30 94 q-25 11 -104 11h-363v-469q0 -136 40 -154q36 -19 130 -19h250q147 0 185 14q40 13 43 62l4 91l1 18h111v-271h-1159zM771 -211q0 122 158 211h107q-129 -80 -129 -182q0 -107 133 -107q51 0 100 16v-68q-71 -29 -149 -29q-220 0 -220 159z" />
<glyph unicode="&#x119;" horiz-adv-x="909" vert-adv-y="2465" d="M68 536q0 260 117 417q116 157 311 157q181 0 267 -122q85 -122 85 -383v-19h-564q3 -144 18 -218q60 -293 298 -293q122 0 248 75v-101q-166 -74 -306 -74q-220 0 -347 149t-127 412zM284 648h354l1 44v38q0 149 -28 227q-31 86 -125 86q-104 0 -161 -142 q-39 -98 -41 -253zM437 -211q0 122 158 211h107q-129 -80 -129 -182q0 -107 133 -107q51 0 100 16v-68q-71 -29 -149 -29q-220 0 -220 159z" />
<glyph unicode="&#x11a;" horiz-adv-x="1251" vert-adv-y="2465" d="M43 0v62l19 1l67 5q76 6 86 47q13 62 13 144v962q0 59 -7 112q-6 39 -14 51q-18 26 -78 29l-67 4l-19 2v61h1103v-259h-111l-1 19l-5 84q-1 55 -19 66q-17 9 -54 9l-103 1h-415v-592l363 1l63 2q53 1 61 16q8 13 8 45q0 12 2 41l1 18h81v-326h-81l-1 18q-6 87 -30 94 q-25 11 -104 11h-363v-469q0 -136 40 -154q36 -19 130 -19h250q147 0 185 14q40 13 43 62l4 91l1 18h111v-271h-1159zM321 1925h86l266 -222l265 222h86l-240 -321h-222z" />
<glyph unicode="&#x11b;" horiz-adv-x="909" vert-adv-y="2465" d="M68 536q0 260 117 417q116 157 311 157q181 0 267 -122q85 -122 85 -383v-19h-564q3 -144 18 -218q60 -293 298 -293q122 0 248 75v-101q-166 -74 -306 -74q-220 0 -347 149t-127 412zM284 648h354l1 44v38q0 149 -28 227q-31 86 -125 86q-104 0 -161 -142 q-39 -98 -41 -253zM142 1604h86l266 -222l265 222h86l-240 -321h-222z" />
<glyph unicode="&#x11c;" horiz-adv-x="1479" vert-adv-y="2465" d="M85 745q0 367 190 570q189 203 540 203q232 0 467 -77v-269h-111l-1 20q-2 25 -2 50v7q0 84 -74 136q-93 65 -269 65q-250 0 -381 -187q-131 -186 -131 -530q0 -347 162 -519q158 -167 389 -167q84 0 212 33v291q1 116 -18 156q-15 30 -81 35l-68 6l-18 1v61h567v-61 l-18 -1l-56 -6q-67 -6 -79 -27q-11 -19 -14 -65l-6 -99v-335q-291 -73 -480 -73q-330 0 -525 212q-195 211 -195 570zM469 1604l241 321h222l240 -321h-86l-265 222l-266 -222h-86z" />
<glyph unicode="&#x11d;" vert-adv-y="2465" d="M53 -183q0 132 205 225q-113 54 -113 140q0 84 155 185l26 17q-95 48 -143 113q-69 92 -69 235q0 176 95 277q94 101 253 101q77 0 178 -40l351 28l-51 -120l-238 42q128 -131 128 -289q0 -162 -102 -275q-102 -114 -247 -114q-44 0 -87 18q-76 -62 -76 -117 q0 -48 51 -60q41 -10 130 -10h62q196 0 284 -59t88 -187q0 -152 -138 -249q-137 -97 -349 -97q-177 0 -285 65t-108 171zM141 1283l241 321h222l240 -321h-86l-265 222l-266 -222h-86zM248 -144q0 -94 65 -151q66 -57 167 -57q109 0 185 68q76 67 76 161q0 148 -200 148 h-231q-62 -63 -62 -169zM312 731q0 -321 160 -321q161 0 161 315q0 318 -161 318q-160 0 -160 -312z" />
<glyph unicode="&#x11e;" horiz-adv-x="1479" vert-adv-y="2465" d="M85 745q0 367 190 570q189 203 540 203q232 0 467 -77v-269h-111l-1 20q-2 25 -2 50v7q0 84 -74 136q-93 65 -269 65q-250 0 -381 -187q-131 -186 -131 -530q0 -347 162 -519q158 -167 389 -167q84 0 212 33v291q1 116 -18 156q-15 30 -81 35l-68 6l-18 1v61h567v-61 l-18 -1l-56 -6q-67 -6 -79 -27q-11 -19 -14 -65l-6 -99v-335q-291 -73 -480 -73q-330 0 -525 212q-195 211 -195 570zM488 1925h65q27 -90 87 -132q68 -47 181 -47q126 0 196 59q49 40 73 120h64q-19 -135 -91 -216q-94 -105 -242 -105q-154 0 -249 115q-65 77 -84 206z" />
<glyph unicode="&#x11f;" vert-adv-y="2465" d="M53 -183q0 132 205 225q-113 54 -113 140q0 84 155 185l26 17q-95 48 -143 113q-69 92 -69 235q0 176 95 277q94 101 253 101q77 0 178 -40l351 28l-51 -120l-238 42q128 -131 128 -289q0 -162 -102 -275q-102 -114 -247 -114q-44 0 -87 18q-76 -62 -76 -117 q0 -48 51 -60q41 -10 130 -10h62q196 0 284 -59t88 -187q0 -152 -138 -249q-137 -97 -349 -97q-177 0 -285 65t-108 171zM248 -144q0 -94 65 -151q66 -57 167 -57q109 0 185 68q76 67 76 161q0 148 -200 148h-231q-62 -63 -62 -169zM312 731q0 -321 160 -321q161 0 161 315 q0 318 -161 318q-160 0 -160 -312zM135 1604h65q27 -90 87 -132q68 -47 181 -47q126 0 196 59q49 40 73 120h64q-19 -135 -91 -216q-94 -105 -242 -105q-154 0 -249 115q-65 78 -84 206z" />
<glyph unicode="&#x120;" horiz-adv-x="1479" vert-adv-y="2465" d="M85 745q0 367 190 570q189 203 540 203q232 0 467 -77v-269h-111l-1 20q-2 25 -2 50v7q0 84 -74 136q-93 65 -269 65q-250 0 -381 -187q-131 -186 -131 -530q0 -347 162 -519q158 -167 389 -167q84 0 212 33v291q1 116 -18 156q-15 30 -81 35l-68 6l-18 1v61h567v-61 l-18 -1l-56 -6q-67 -6 -79 -27q-11 -19 -14 -65l-6 -99v-335q-291 -73 -480 -73q-330 0 -525 212q-195 211 -195 570zM722 1604v197h197v-197h-197z" />
<glyph unicode="&#x121;" vert-adv-y="2465" d="M53 -183q0 132 205 225q-113 54 -113 140q0 84 155 185l26 17q-95 48 -143 113q-69 92 -69 235q0 176 95 277q94 101 253 101q77 0 178 -40l351 28l-51 -120l-238 42q128 -131 128 -289q0 -162 -102 -275q-102 -114 -247 -114q-44 0 -87 18q-76 -62 -76 -117 q0 -48 51 -60q41 -10 130 -10h62q196 0 284 -59t88 -187q0 -152 -138 -249q-137 -97 -349 -97q-177 0 -285 65t-108 171zM248 -144q0 -94 65 -151q66 -57 167 -57q109 0 185 68q76 67 76 161q0 148 -200 148h-231q-62 -63 -62 -169zM312 731q0 -321 160 -321q161 0 161 315 q0 318 -161 318q-160 0 -160 -312zM369 1283v197h197v-197h-197z" />
<glyph unicode="&#x122;" horiz-adv-x="1479" vert-adv-y="2465" d="M85 745q0 367 190 570q189 203 540 203q232 0 467 -77v-269h-111l-1 20q-2 25 -2 50v7q0 84 -74 136q-93 65 -269 65q-250 0 -381 -187q-131 -186 -131 -530q0 -347 162 -519q158 -167 389 -167q84 0 212 33v291q1 115 -18 156q-16 30 -81 35l-68 6l-18 1v61h567v-61 l-18 -1l-56 -6q-67 -6 -79 -27q-11 -19 -14 -65l-6 -99v-335q-291 -73 -480 -73q-330 0 -525 212q-195 211 -195 570zM614 -349q49 -10 104 -10q103 0 103 80q0 89 -158 104v64q135 -3 200 -32q93 -42 93 -137q0 -152 -217 -152q-60 0 -125 11v72z" />
<glyph unicode="&#x123;" vert-adv-y="2465" d="M53 -183q0 132 205 225q-113 54 -113 140q0 84 155 185l26 17q-95 48 -143 113q-69 92 -69 235q0 176 95 277q94 101 253 101q77 0 178 -40l351 28l-51 -120l-238 42q128 -131 128 -289q0 -162 -102 -275q-102 -114 -247 -114q-44 0 -87 18q-76 -62 -76 -117 q0 -48 51 -60q41 -10 130 -10h62q196 0 284 -59t88 -187q0 -152 -138 -249q-137 -97 -349 -97q-177 0 -285 65t-108 171zM248 -144q0 -94 65 -151q66 -57 167 -57q109 0 185 68q76 67 76 161q0 148 -200 148h-231q-62 -63 -62 -169zM312 731q0 -321 160 -321q161 0 161 315 q0 318 -161 318q-160 0 -160 -312zM369 1283v172q0 161 62 227q47 50 135 55v-49q-79 -7 -79 -156v-52h79v-197h-197z" />
<glyph unicode="&#x124;" horiz-adv-x="1479" vert-adv-y="2465" d="M41 0v62l19 1l68 5q64 5 81 38t17 153v962q0 59 -7 112q-6 39 -14 51q-19 25 -77 29l-68 4l-19 2v61h580v-61l-19 -2l-68 -4q-75 -5 -85 -47q-13 -64 -13 -145v-409h607v409q0 59 -7 112q-6 39 -14 51q-19 25 -77 29l-68 4l-19 2v61h580v-61l-18 -2l-68 -4 q-75 -5 -85 -47q-15 -61 -14 -145v-962q0 -56 8 -112q7 -51 32 -65q21 -11 59 -14l68 -5l18 -1v-62h-580v62l19 1l68 5q75 6 85 47q13 62 13 144v467h-607v-467q0 -59 7 -112q6 -38 14 -50q19 -25 77 -29l68 -5l19 -1v-62h-580zM388 1604l241 321h222l240 -321h-86l-265 222 l-266 -222h-86z" />
<glyph unicode="&#x125;" vert-adv-y="2465" d="M37 0v62l19 1q73 4 86 26q13 19 14 71l2 99v1061l-2 99q0 68 -25 82q-22 12 -75 15l-19 1v62h319v-672q64 92 124 137q86 66 187 66q124 0 177 -78t53 -267v-506l2 -99q0 -68 25 -82q22 -12 76 -15l18 -1v-62h-439v62l19 1q77 5 89 29q11 20 11 68l2 99v475l-3 77 q-3 89 -25 126q-25 44 -80 44q-115 0 -236 -141v-581l1 -99q1 -69 26 -82q22 -12 75 -15l19 -1v-62h-440zM171 1678l241 321h222l240 -321h-86l-265 222l-266 -222h-86z" />
<glyph unicode="&#x126;" horiz-adv-x="1479" vert-adv-y="2465" d="M41 0v62l19 1l68 5q64 5 81 38t17 153v827h-185v74h185v61q0 59 -7 112q-6 39 -14 51q-19 25 -77 29l-68 4l-19 2v61h580v-61l-19 -2l-68 -4q-75 -5 -85 -47q-13 -64 -13 -145v-61h607v61q0 59 -7 112q-6 39 -14 51q-19 25 -77 29l-68 4l-19 2v61h580v-61l-18 -2l-68 -4 q-75 -5 -85 -47q-15 -61 -14 -145v-61h185v-74h-185v-827q0 -56 8 -112q7 -51 32 -65q21 -11 59 -14l68 -5l18 -1v-62h-580v62l19 1l68 5q75 6 85 47q13 62 13 144v467h-607v-467q0 -59 7 -112q6 -38 14 -50q19 -25 77 -29l68 -5l19 -1v-62h-580zM436 812h607v274h-607v-274 z" />
<glyph unicode="&#x127;" vert-adv-y="2465" d="M37 0v62l19 1q73 4 86 26q13 19 14 71l2 99v987h-121v62h121v12l-2 99q0 68 -25 82q-22 12 -75 15l-19 1v62h319v-271h310v-62h-310v-339q64 92 124 137q86 66 187 66q124 0 177 -78t53 -267v-506l2 -99q0 -68 25 -82q22 -12 76 -15l18 -1v-62h-439v62l19 1q77 5 89 29 q11 20 11 68l2 99v475l-3 77q-3 89 -25 126q-25 44 -80 44q-115 0 -236 -141v-581l1 -99q1 -69 26 -82q22 -12 75 -15l19 -1v-62h-440z" />
<glyph unicode="&#x128;" horiz-adv-x="682" vert-adv-y="2465" d="M8 1604q27 140 96 193q54 42 131 42q65 0 118 -38l35 -25q52 -37 106 -37q95 0 118 99h62q-28 -139 -96 -192q-54 -42 -131 -42q-63 0 -118 38l-35 24q-55 38 -107 38q-88 0 -117 -100h-62zM51 0v62l19 1l67 5q76 6 86 47q13 62 13 144v962q0 59 -7 112q-6 39 -14 51 q-18 26 -78 29l-67 4l-19 2v61h580v-61l-19 -2l-68 -4q-75 -5 -85 -47q-13 -64 -13 -145v-962q0 -59 7 -112q6 -38 14 -50q19 -25 77 -29l68 -5l19 -1v-62h-580z" />
<glyph unicode="&#x129;" horiz-adv-x="569" vert-adv-y="2465" d="M-55 1283q27 140 96 193q54 42 131 42q65 0 118 -38l35 -25q52 -37 106 -37q96 0 118 99h62q-28 -139 -96 -192q-54 -42 -131 -42q-63 0 -118 38l-35 24q-55 38 -107 38q-88 0 -117 -100h-62zM46 0v62l19 1q108 7 114 24q10 19 11 73l2 99v568l-2 98q-1 74 -22 82 q-19 11 -103 16l-19 1v62h343v-827l2 -99q1 -74 23 -82q23 -10 102 -15l19 -1v-62h-489z" />
<glyph unicode="&#x12a;" horiz-adv-x="682" vert-adv-y="2465" d="M20 1604v123h642v-123h-642zM51 0v62l19 1l67 5q76 6 86 47q13 62 13 144v962q0 59 -7 112q-6 39 -14 51q-18 26 -78 29l-67 4l-19 2v61h580v-61l-19 -2l-68 -4q-75 -5 -85 -47q-13 -64 -13 -145v-962q0 -59 7 -112q6 -38 14 -50q19 -25 77 -29l68 -5l19 -1v-62h-580z " />
<glyph unicode="&#x12b;" horiz-adv-x="569" vert-adv-y="2465" d="M46 0v62l19 1q108 7 114 24q11 19 11 73l2 99v568l-2 98q-1 74 -22 82q-20 11 -103 16l-19 1v62h343v-827l2 -99q1 -74 22 -82q21 -10 103 -15l19 -1v-62h-489zM-40 1283v123h642v-123h-642z" />
<glyph unicode="&#x12c;" horiz-adv-x="682" vert-adv-y="2465" d="M8 1925h65q27 -90 87 -132q68 -47 181 -47q126 0 196 59q49 40 73 120h64q-19 -135 -91 -216q-94 -105 -242 -105q-154 0 -249 115q-65 78 -84 206zM51 0v62l19 1l67 5q76 6 86 47q13 62 13 144v962q0 59 -7 112q-6 39 -14 51q-18 26 -78 29l-67 4l-19 2v61h580v-61 l-19 -2l-68 -4q-75 -5 -85 -47q-13 -64 -13 -145v-962q0 -59 7 -112q6 -38 14 -50q19 -25 77 -29l68 -5l19 -1v-62h-580z" />
<glyph unicode="&#x12d;" horiz-adv-x="569" vert-adv-y="2465" d="M-42 1604h65q27 -90 87 -132q68 -47 181 -47q126 0 196 59q49 40 73 120h64q-19 -135 -91 -216q-94 -105 -242 -105q-154 0 -249 115q-65 78 -84 206zM46 0v62l19 1q108 7 114 24q10 19 11 73l2 99v568l-2 98q-1 74 -22 82q-19 11 -103 16l-19 1v62h343v-827l2 -99 q1 -75 23 -82q23 -10 102 -15l19 -1v-62h-489z" />
<glyph unicode="&#x12e;" horiz-adv-x="682" vert-adv-y="2465" d="M51 0v62l19 1l67 5q76 6 86 47q13 62 13 144v962q0 59 -7 112q-6 39 -14 51q-18 26 -78 29l-67 4l-19 2v61h580v-61l-19 -2l-68 -4q-75 -5 -85 -47q-13 -64 -13 -145v-962q0 -59 7 -112q6 -38 14 -50q19 -25 77 -29l68 -5l19 -1v-62h-580zM212 -211q0 122 158 211h107 q-129 -80 -129 -182q0 -107 133 -107q51 0 100 16v-68q-71 -29 -149 -29q-220 0 -220 159z" />
<glyph unicode="&#x12f;" horiz-adv-x="569" vert-adv-y="2465" d="M47 0v62l19 1q108 7 114 24q11 19 11 73l2 99v568l-2 98q-1 74 -22 82q-20 11 -103 16l-19 1v62h343v-827l2 -99q1 -74 22 -82q21 -10 103 -15l19 -1v-62h-489zM193 1283v197h197v-197h-197zM117 -211q0 122 158 211h107q-129 -80 -129 -182q0 -107 133 -107q51 0 100 16 v-68q-71 -29 -149 -29q-220 0 -220 159z" />
<glyph unicode="&#x130;" horiz-adv-x="682" vert-adv-y="2465" d="M51 0v62l19 1l67 5q76 6 86 47q13 62 13 144v962q0 59 -7 112q-6 39 -14 51q-18 26 -78 29l-67 4l-19 2v61h580v-61l-19 -2l-68 -4q-75 -5 -85 -47q-13 -64 -13 -145v-962q0 -59 7 -112q6 -38 14 -50q19 -25 77 -29l68 -5l19 -1v-62h-580zM242 1604v197h197v-197h-197z " />
<glyph unicode="&#x131;" horiz-adv-x="569" vert-adv-y="2465" d="M47 0v62l19 1q108 7 114 24q11 19 11 73l2 99v568l-2 98q-1 74 -22 82q-20 11 -103 16l-19 1v62h343v-827l2 -99q1 -74 22 -82q21 -10 103 -15l19 -1v-62h-489z" />
<glyph unicode="&#x132;" horiz-adv-x="1451" vert-adv-y="2465" d="M51 0v62l19 1l67 5q76 6 86 47q13 62 13 144v962q0 59 -7 112q-6 39 -14 51q-18 26 -78 29l-67 4l-19 2v61h580v-61l-19 -2l-68 -4q-75 -5 -85 -47q-13 -64 -13 -145v-962q0 -59 7 -112q6 -38 14 -50q19 -25 77 -29l68 -5l19 -1v-62h-580zM654 -46h117l2 -24 q8 -90 28 -115q24 -30 87 -30q99 0 119 91q18 79 18 272v1073v12q0 109 -17 144q-15 32 -81 36l-68 4l-19 2v61h580v-61l-19 -2l-67 -4q-68 -5 -79 -27q-11 -20 -14 -66l-6 -99v-951q0 -305 -99 -426q-116 -141 -323 -141q-62 0 -159 21v230z" />
<glyph unicode="&#x133;" horiz-adv-x="1131" vert-adv-y="2465" d="M47 0v62l19 1q108 7 114 24q11 19 11 73l2 99v568l-2 98q-1 74 -22 82q-20 11 -103 16l-19 1v62h343v-827l2 -99q1 -74 22 -82q21 -10 103 -15l19 -1v-62h-489zM193 1283v197h197v-197h-197zM484 -136h99l1 -18q4 -114 25 -152q25 -46 86 -46q129 0 129 167v103v909 l-2 98q0 68 -25 82q-21 12 -76 16l-18 1v62h318v-1074q0 -431 -332 -431q-76 0 -205 39v244zM824 1283v197h197v-197h-197z" />
<glyph unicode="&#x134;" horiz-adv-x="797" vert-adv-y="2465" d="M0 -46h117l2 -24q8 -90 28 -115q24 -30 87 -30q99 0 119 91q18 79 18 272v1073q1 119 -17 156q-15 32 -81 36l-68 4l-19 2v61h580v-61l-19 -2l-67 -4q-68 -5 -79 -27q-11 -20 -14 -66l-6 -99v-951q0 -305 -99 -426q-116 -141 -323 -141q-62 0 -159 21v230zM124 1604 l241 321h222l240 -321h-86l-265 222l-266 -222h-86z" />
<glyph unicode="&#x135;" horiz-adv-x="569" vert-adv-y="2465" d="M-78 -136h99l1 -18q4 -114 25 -152q25 -46 86 -46q129 0 129 167v103v909l-2 98q0 68 -25 82q-21 12 -76 16l-18 1v62h318v-1074q0 -431 -332 -431q-76 0 -205 39v244zM-47 1283l241 321h222l240 -321h-86l-265 222l-265 -222h-87z" />
<glyph unicode="&#x136;" horiz-adv-x="1479" vert-adv-y="2465" d="M56 0v62l19 1l67 5q76 6 86 47q13 62 13 144v962q0 59 -7 112q-6 39 -14 51q-18 26 -78 29l-67 4l-19 2v61h580v-61l-19 -2l-68 -4q-75 -5 -85 -47q-13 -64 -13 -145v-467l448 467q51 53 84 101q35 49 53 65q10 10 10 15q0 14 -56 15l-89 2h-18v61h456v-61l-17 -2l-61 -1 q-54 0 -101 -39q-45 -36 -164 -157l-378 -385l518 -577l104 -108q63 -66 94 -74q31 -9 108 -13l21 -1v-62h-605v62h18q124 0 124 24q0 34 -124 176l-425 486v-489l5 -99q2 -70 28 -81q26 -10 109 -16l18 -1v-62h-555zM562 -349q49 -10 104 -10q103 0 103 80q0 89 -158 104 v64q134 -3 200 -32q93 -42 93 -137q0 -152 -217 -152q-59 0 -125 11v72z" />
<glyph unicode="&#x137;" vert-adv-y="2465" d="M31 0v62l19 1q73 4 86 26q13 19 14 71l2 99v1061l-2 99q0 68 -25 82q-22 12 -75 15l-19 1v62h318v-996h47l190 242l78 100l40 54q13 17 13 26q0 17 -34 17h-5h-5h-6l-6 1q-10 0 -21 1h-8h-1h-22v62h337v-62l-18 -1q-88 -5 -109 -25q-23 -18 -62 -70l-71 -93l-147 -195 l272 -387q85 -121 119 -155q34 -32 75 -35l19 -1v-62h-255l-373 534h-47v-275l2 -99q1 -69 25 -82q22 -12 76 -15l18 -1v-62h-439zM446 -349q49 -10 104 -10q103 0 103 80q0 89 -158 104v64q134 -3 200 -32q93 -42 93 -137q0 -152 -217 -152q-59 0 -125 11v72z" />
<glyph unicode="&#x138;" vert-adv-y="2465" d="M37 0v62l19 1q73 4 86 26q13 19 14 71l2 99v568l-2 98q0 68 -25 82q-20 12 -75 16l-19 1v62h318v-503h47l190 242l78 100l40 54q13 17 13 26q0 17 -34 17h-5h-5h-6l-6 1q-10 0 -21 1h-8h-1h-22v62h337v-62l-18 -1q-88 -5 -109 -25q-23 -18 -62 -70l-71 -93l-147 -195 l272 -387q132 -189 194 -191h13v-62h-249l-373 534h-47v-275l2 -99q1 -69 25 -82q22 -12 76 -15l18 -1v-62h-439z" />
<glyph unicode="&#x139;" horiz-adv-x="1251" vert-adv-y="2465" d="M56 0v62l19 1l67 5q76 6 86 47q13 62 13 144v962q0 59 -7 112q-6 39 -14 51q-18 26 -78 29l-67 4l-19 2v61h580v-61l-19 -2l-68 -4q-75 -5 -85 -47q-13 -64 -13 -145v-962q0 -151 27 -158q31 -15 145 -15h236q142 0 187 17q46 18 48 72l2 101l2 20h105v-296h-1147z M309 1604l241 321h259l-407 -321h-93z" />
<glyph unicode="&#x13a;" horiz-adv-x="569" vert-adv-y="2465" d="M47 0v62l19 1q108 7 114 24q11 19 11 73l2 99v1061l-2 99q-1 74 -22 82q-21 10 -103 15l-19 1v62h343v-1320l2 -99q1 -74 22 -82q21 -10 103 -15l19 -1v-62h-489zM76 1678l241 321h259l-407 -321h-93z" />
<glyph unicode="&#x13b;" horiz-adv-x="1251" vert-adv-y="2465" d="M56 0v62l19 1l67 5q76 6 86 47q13 62 13 144v962q0 59 -7 112q-6 39 -14 51q-18 26 -78 29l-67 4l-19 2v61h580v-61l-19 -2l-68 -4q-75 -5 -85 -47q-13 -64 -13 -145v-962q0 -151 27 -158q31 -15 145 -15h236q142 0 187 17q46 18 48 72l2 101l2 20h105v-296h-1147z M451 -349q49 -10 104 -10q103 0 103 80q0 89 -158 104v64q134 -3 200 -32q93 -42 93 -137q0 -152 -217 -152q-59 0 -125 11v72z" />
<glyph unicode="&#x13c;" horiz-adv-x="569" vert-adv-y="2465" d="M47 0v62l19 1q108 7 114 24q11 19 11 73l2 99v1061l-2 99q-1 74 -22 82q-21 10 -103 15l-19 1v62h343v-1320l2 -99q1 -74 22 -82q21 -10 103 -15l19 -1v-62h-489zM144 -349q49 -10 104 -10q103 0 103 80q0 89 -158 104v64q134 -3 200 -32q93 -42 93 -137 q0 -152 -217 -152q-59 0 -125 11v72z" />
<glyph unicode="&#x13d;" horiz-adv-x="1251" vert-adv-y="2465" d="M56 0v62l19 1l67 5q76 6 86 47q13 62 13 144v962q0 59 -7 112q-6 39 -14 51q-18 26 -78 29l-67 4l-19 2v61h580v-61l-19 -2l-68 -4q-75 -5 -85 -47q-13 -64 -13 -145v-962q0 -151 27 -158q31 -15 145 -15h236q142 0 187 17q46 18 48 72l2 101l2 20h105v-296h-1147z M809 1026v50q79 6 79 155v52h-79v197h197v-171q0 -163 -62 -228q-47 -49 -135 -55z" />
<glyph unicode="&#x13e;" horiz-adv-x="832" vert-adv-y="2465" d="M47 0v62l19 1q108 7 114 24q11 19 11 73l2 99v1061l-2 99q-1 74 -22 82q-21 10 -103 15l-19 1v62h343v-1320l2 -99q1 -74 22 -82q21 -10 103 -15l19 -1v-62h-489zM588 1125v50q79 6 79 155v52h-79v197h197v-171q0 -163 -62 -228q-48 -49 -135 -55z" />
<glyph unicode="&#x13f;" horiz-adv-x="1251" vert-adv-y="2465" d="M56 0v62l19 1l67 5q76 6 86 47q13 62 13 144v962q0 59 -7 112q-6 39 -14 51q-18 26 -78 29l-67 4l-19 2v61h580v-61l-19 -2l-68 -4q-75 -5 -85 -47q-13 -64 -13 -145v-962q0 -151 27 -158q31 -15 145 -15h236q142 0 187 17q46 18 48 72l2 101l2 20h105v-296h-1147z M870 642v197h197v-197h-197z" />
<glyph unicode="&#x140;" horiz-adv-x="704" vert-adv-y="2465" d="M47 0v62l19 1q108 7 114 24q11 19 11 73l2 99v1061l-2 99q-1 74 -22 82q-21 10 -103 15l-19 1v62h343v-1320l2 -99q1 -74 22 -82q21 -10 103 -15l19 -1v-62h-489zM545 691v197h197v-197h-197z" />
<glyph unicode="&#x141;" horiz-adv-x="1251" vert-adv-y="2465" d="M56 0v62l19 1l67 5q76 6 86 47q13 62 13 144v489l-185 -107v85l185 107v388q0 59 -7 112q-6 39 -14 51q-18 26 -78 29l-67 4l-19 2v61h580v-61l-19 -2l-68 -4q-75 -5 -85 -47q-13 -64 -13 -145v-267l271 156v-85l-271 -156v-610q0 -151 27 -158q31 -15 145 -15h236 q142 0 187 17q46 18 48 72l2 101l2 20h105v-296h-1147z" />
<glyph unicode="&#x142;" horiz-adv-x="569" vert-adv-y="2465" d="M47 0v62l19 1q108 7 114 24q11 19 11 73l2 99v524l-146 -84v85l146 84v452l-2 99q-1 74 -22 82q-21 10 -103 15l-19 1v62h343v-597l146 84v-85l-146 -84v-638l2 -99q1 -74 22 -82q21 -10 103 -15l19 -1v-62h-489z" />
<glyph unicode="&#x143;" horiz-adv-x="1479" vert-adv-y="2465" d="M43 0v62l19 1l68 5q64 5 81.5 38.5t17.5 152.5v962q1 115 -18 156q-15 32 -81 36l-68 4l-19 2v61h333l783 -1149v890l-6 99q-4 67 -26 79q-20 11 -66 14l-68 4l-19 2v61h461v-61l-18 -2l-68 -4q-68 -4 -79 -27q-11 -20 -14 -66l-6 -99v-1241h-70l-858 1240v-961 q-1 -115 18 -155q15 -32 81 -36l68 -5l19 -1v-62h-465zM646 1604l241 321h259l-407 -321h-93z" />
<glyph unicode="&#x144;" vert-adv-y="2465" d="M37 0v62l19 1q73 4 86 26q13 19 14 71l2 99v568l-2 98q0 68 -25 82q-20 12 -75 16l-19 1v62h319v-179q64 92 124 137q86 66 187 66q124 0 177 -78t53 -267v-506l2 -99q0 -68 25 -82q22 -12 76 -15l18 -1v-62h-439v62l19 1q77 5 89 29q11 20 11 68l2 99v475l-3 77 q-3 89 -25 126q-25 44 -80 44q-115 0 -236 -141v-581l1 -99q1 -69 26 -82q22 -12 75 -15l19 -1v-62h-440zM362 1283l241 321h259l-407 -321h-93z" />
<glyph unicode="&#x145;" horiz-adv-x="1479" vert-adv-y="2465" d="M43 0v62l19 1l68 5q64 5 81.5 38.5t17.5 152.5v962q1 114 -18 156q-15 32 -81 36l-68 4l-19 2v61h333l783 -1149v890l-6 99q-3 64 -23 77q-18 13 -69 16l-68 4l-19 2v61h461v-61l-18 -2l-68 -4q-68 -5 -79 -27q-11 -19 -14 -66l-6 -99v-1241h-70l-858 1240v-961 q-1 -115 18 -155q15 -32 81 -36l68 -5l19 -1v-62h-465zM582 -349q49 -10 104 -10q103 0 103 80q0 89 -158 104v64q134 -3 200 -32q93 -42 93 -137q0 -152 -217 -152q-60 0 -125 11v72z" />
<glyph unicode="&#x146;" vert-adv-y="2465" d="M37 0v62l19 1q73 4 86 26q13 19 14 71l2 99v568l-2 98q0 68 -25 82q-20 12 -75 16l-19 1v62h319v-179q64 92 124 137q86 66 187 66q124 0 177 -78t53 -267v-506l2 -99q0 -68 25 -82q22 -12 76 -15l18 -1v-62h-439v62l19 1q77 5 89 29q11 20 11 68l2 99v475l-3 77 q-3 89 -25 126q-25 44 -80 44q-115 0 -236 -141v-581l1 -99q1 -69 26 -82q22 -12 75 -15l19 -1v-62h-440zM403 -349q49 -10 104 -10q103 0 103 80q0 89 -158 104v64q134 -3 200 -32q93 -42 93 -137q0 -152 -217 -152q-59 0 -125 11v72z" />
<glyph unicode="&#x147;" horiz-adv-x="1479" vert-adv-y="2465" d="M43 0v62l19 1l68 5q64 5 81.5 38.5t17.5 152.5v962q1 115 -18 156q-15 32 -81 36l-68 4l-19 2v61h333l783 -1149v890l-6 99q-4 67 -26 79q-20 11 -66 14l-68 4l-19 2v61h461v-61l-18 -2l-68 -4q-68 -4 -79 -27q-11 -20 -14 -66l-6 -99v-1241h-70l-858 1240v-961 q-1 -115 18 -155q15 -32 81 -36l68 -5l19 -1v-62h-465zM370 1925h86l266 -222l265 222h86l-240 -321h-222z" />
<glyph unicode="&#x148;" vert-adv-y="2465" d="M37 0v62l19 1q73 4 86 26q13 19 14 71l2 99v568l-2 98q0 68 -25 82q-20 12 -75 16l-19 1v62h319v-179q64 92 124 137q86 66 187 66q124 0 177 -78t53 -267v-506l2 -99q0 -68 25 -82q22 -12 76 -15l18 -1v-62h-439v62l19 1q77 5 89 29q11 20 11 68l2 99v475l-3 77 q-3 89 -25 126q-25 44 -80 44q-115 0 -236 -141v-581l1 -99q1 -69 26 -82q22 -12 75 -15l19 -1v-62h-440zM152 1604h86l266 -222l265 222h86l-240 -321h-222z" />
<glyph unicode="&#x149;" horiz-adv-x="1237" vert-adv-y="2465" d="M25 1125v50q79 6 79 155v52h-79v197h197v-171q0 -163 -62 -228q-47 -49 -135 -55zM249 0v62l19 1q73 5 86 26q13 20 14 71l2 99v568l-2 98q-1 69 -25 82q-21 12 -75 16l-19 1v62h319v-179q64 91 124 137q85 66 187 66q124 0 177 -78t53 -267v-506l2 -99q1 -69 25 -82 q22 -12 76 -15l18 -1v-62h-439v62l19 1q73 5 87 26q12 20 13 71l2 99v475l-3 77q-3 89 -25 126q-25 44 -80 44q-115 0 -236 -141v-581l1 -99q1 -69 26 -82q22 -12 75 -15l19 -1v-62h-440z" />
<glyph unicode="&#x14a;" horiz-adv-x="1479" vert-adv-y="2465" d="M43 0v62l19 1l68 5q64 5 81.5 38.5t17.5 152.5v962q1 114 -18 156q-15 32 -81 36l-68 4l-19 2v61h333l783 -1149v890l-6 99q-4 64 -23 77q-18 13 -69 16l-68 4l-19 2v61h461v-61l-18 -2l-68 -4q-68 -5 -79 -27q-11 -19 -14 -66l-6 -99v-1221q0 -134 -79 -215t-215 -81 q-92 0 -214 26v244h111l1 -21q0 -6 2 -25q1 -12 1 -19l1 -16v-12q0 -103 125 -103q169 0 169 212v10l-830 1220v-961q-1 -115 18 -155q15 -32 81 -36l68 -5l19 -1v-62h-465z" />
<glyph unicode="&#x14b;" vert-adv-y="2465" d="M37 0v62l19 1q73 4 86 26q13 19 14 71l2 99v568l-2 98q0 68 -25 82q-21 12 -75 16l-19 1v62h319v-179q64 92 124 137q86 66 187 66q124 0 177 -78t53 -267v-753q0 -431 -361 -431q-98 0 -225 39v244h111l1 -18q5 -123 28 -160q27 -44 99 -44q150 0 150 173v103v816l-3 77 q-3 89 -25 126q-25 44 -80 44q-116 0 -236 -141v-581l1 -99q1 -69 26 -82q22 -12 75 -15l19 -1v-62h-440z" />
<glyph unicode="&#x14c;" horiz-adv-x="1479" vert-adv-y="2465" d="M80 740q0 360 177 568q178 209 482 209q305 0 482 -208t177 -567q0 -365 -178 -572q-177 -207 -491 -207q-268 0 -437 170q-212 214 -212 607zM308 741q0 -328 114 -519t312 -191q184 0 296 151q140 189 140 561q0 331 -115 518q-116 189 -316 189q-201 0 -316 -189 t-115 -520zM418 1604v123h642v-123h-642z" />
<glyph unicode="&#x14d;" vert-adv-y="2465" d="M62 543q0 262 121 414q122 153 329 153t328 -153q122 -152 122 -413q0 -265 -122 -417q-121 -152 -334 -152q-182 0 -297 124q-147 158 -147 444zM278 538q0 -495 239 -495q90 0 150 104q80 139 80 398q0 227 -64 363q-63 135 -171 135t-171 -135q-63 -136 -63 -370z M191 1283v123h642v-123h-642z" />
<glyph unicode="&#x14e;" horiz-adv-x="1479" vert-adv-y="2465" d="M80 740q0 360 177 568q178 209 482 209q305 0 482 -208t177 -567q0 -365 -178 -572q-177 -207 -491 -207q-268 0 -437 170q-212 214 -212 607zM308 741q0 -328 114 -519t312 -191q184 0 296 151q140 189 140 561q0 331 -115 518q-116 189 -316 189q-201 0 -316 -189 t-115 -520zM406 1925h65q27 -90 87 -132q68 -47 181 -47q126 0 196 59q49 40 73 120h64q-19 -135 -91 -216q-94 -105 -242 -105q-154 0 -249 115q-65 77 -84 206z" />
<glyph unicode="&#x14f;" vert-adv-y="2465" d="M62 543q0 262 121 414q122 153 329 153t328 -153q122 -152 122 -413q0 -265 -122 -417q-121 -152 -334 -152q-182 0 -297 124q-147 158 -147 444zM179 1604h65q27 -90 87 -132q68 -47 181 -47q126 0 196 59q48 39 73 120h64q-19 -135 -91 -216q-95 -105 -242 -105 q-153 0 -249 115q-65 77 -84 206zM278 538q0 -495 239 -495q90 0 150 104q80 139 80 398q0 227 -64 363q-63 135 -171 135t-171 -135q-63 -136 -63 -370z" />
<glyph unicode="&#x150;" horiz-adv-x="1479" vert-adv-y="2465" d="M80 740q0 360 177 568q178 209 482 209q305 0 482 -208t177 -567q0 -365 -178 -572q-177 -207 -491 -207q-268 0 -437 170q-212 214 -212 607zM308 741q0 -328 114 -519t312 -191q184 0 296 151q140 189 140 561q0 331 -115 518q-116 189 -316 189q-201 0 -316 -189 t-115 -520zM492 1604l214 321h169l-321 -321h-62zM801 1604l213 321h169l-321 -321h-61z" />
<glyph unicode="&#x151;" vert-adv-y="2465" d="M62 543q0 262 121 414q122 153 329 153t328 -153q122 -152 122 -413q0 -265 -122 -417q-121 -152 -334 -152q-182 0 -297 124q-147 158 -147 444zM278 538q0 -495 239 -495q90 0 150 104q80 139 80 398q0 227 -64 363q-63 135 -171 135t-171 -135q-63 -136 -63 -370z M253 1283l214 321h169l-321 -321h-62zM562 1283l213 321h169l-321 -321h-61z" />
<glyph unicode="&#x152;" horiz-adv-x="1821" vert-adv-y="2465" d="M80 741q0 350 166 563q165 213 432 213q164 0 295 -109v72h742v-259h-111l-1 19l-2 34q-3 37 -3 47v3q0 54 -17 65q-15 10 -56 10l-103 1h-224v-592l184 1l63 2q50 1 59 14q8 11 10 42v2v2l1 10q0 4 1 14q1 16 1 18l1 18h92v-326h-92l-1 18q-6 88 -31 94q-25 11 -104 11 h-184v-469q0 -137 40 -154q36 -19 131 -19h97l101 6q83 5 88 70l3 72l2 19h111v-253h-798v73q-69 -58 -117 -79q-28 -13 -70 -20q-65 -11 -105 -11q-52 0 -157 25q-145 35 -243 146q-201 229 -201 607zM303 740q0 -320 107 -514q106 -195 284 -195q170 0 230 163 q49 133 49 416v260q0 320 -63 450q-62 130 -216 130q-178 0 -284 -195q-107 -195 -107 -515z" />
<glyph unicode="&#x153;" horiz-adv-x="1479" vert-adv-y="2465" d="M62 543q0 248 121 408q120 159 308 159q123 0 207 -68q49 -39 92 -115q116 182 281 182q163 0 254 -132q92 -132 92 -374v-18h-513q5 -240 56 -355q71 -156 224 -156q100 0 233 72v-100q-149 -71 -273 -71q-136 0 -237 79q-60 46 -117 134q-72 -117 -126 -161 q-64 -52 -169 -52q-191 0 -312 159q-121 158 -121 409zM273 532q0 -494 230 -494q126 0 162 159q27 120 27 353q0 273 -43 384q-43 113 -149 113q-227 0 -227 -515zM905 648h302v44q0 357 -143 357q-91 0 -129 -130q-28 -92 -30 -271z" />
<glyph unicode="&#x154;" horiz-adv-x="1366" vert-adv-y="2465" d="M31 0v62l19 1l67 5q76 6 86 47q13 62 13 144v962q0 59 -7 112q-6 39 -14 51q-18 26 -78 29l-67 4l-19 2v61h356l98 2l82 3l80 2q180 5 301 -64q158 -91 158 -311q0 -188 -113 -301q-67 -66 -193 -114l290 -436l93 -129q43 -61 108 -66l42 -3l21 -1v-62h-353l-404 651 h-171v-392l5 -99q2 -70 28 -81q26 -10 109 -16l18 -1v-62h-555zM426 719h74q390 0 390 375q0 172 -73 246q-73 73 -249 73h-142v-694zM463 1604l241 321h259l-407 -321h-93z" />
<glyph unicode="&#x155;" horiz-adv-x="682" vert-adv-y="2465" d="M31 0v62l19 1q73 4 86 26q13 19 14 71l2 99v568l-2 98q0 68 -25 82q-20 12 -75 16l-19 1v62h318v-179q109 203 260 203q31 0 61 -11v-297h-92l-2 18l-1 7q0 6 -1 18q0 7 -1 17q-4 77 -56 77q-82 0 -168 -125v-555l2 -99q1 -69 25 -82q22 -12 76 -15l18 -1v-62h-439z M171 1283l241 321h259l-407 -321h-93z" />
<glyph unicode="&#x156;" horiz-adv-x="1366" vert-adv-y="2465" d="M31 0v62l19 1l67 5q76 6 86 47q13 62 13 144v962q0 59 -7 112q-6 39 -14 51q-18 26 -78 29l-67 4l-19 2v61h356l98 2l82 3l80 2q181 4 301 -64q158 -91 158 -311q0 -188 -113 -301q-67 -66 -193 -114l290 -436l93 -129q43 -61 108 -66l42 -3l21 -1v-62h-353l-404 651 h-171v-392l5 -99q2 -70 28 -81q26 -10 109 -16l18 -1v-62h-555zM426 719h74q390 0 390 375q0 172 -73 246q-73 73 -249 73h-142v-694zM574 -349q49 -10 104 -10q103 0 103 80q0 89 -158 104v64q134 -3 200 -32q93 -42 93 -137q0 -152 -217 -152q-59 0 -125 11v72z" />
<glyph unicode="&#x157;" horiz-adv-x="682" vert-adv-y="2465" d="M31 0v62l19 1q73 4 86 26q13 19 14 71l2 99v568l-2 98q0 68 -25 82q-20 12 -75 16l-19 1v62h318v-179q109 203 260 203q31 0 61 -11v-297h-92l-2 18l-1 7q0 6 -1 18q0 7 -1 17q-4 77 -56 77q-82 0 -168 -125v-555l2 -99q1 -69 25 -82q22 -12 76 -15l18 -1v-62h-439z M152 -349q49 -10 104 -10q103 0 103 80q0 89 -158 104v64q134 -3 200 -32q93 -42 93 -137q0 -152 -217 -152q-59 0 -125 11v72z" />
<glyph unicode="&#x158;" horiz-adv-x="1366" vert-adv-y="2465" d="M31 0v62l19 1l67 5q76 6 86 47q13 62 13 144v962q0 59 -7 112q-6 39 -14 51q-18 26 -78 29l-67 4l-19 2v61h356l98 2l82 3l80 2q180 5 301 -64q158 -91 158 -311q0 -188 -113 -301q-67 -66 -193 -114l290 -436l93 -129q43 -61 108 -66l42 -3l21 -1v-62h-353l-404 651 h-171v-392l5 -99q2 -70 28 -81q26 -10 109 -16l18 -1v-62h-555zM235 1925h86l266 -222l265 222h86l-240 -321h-222zM426 719h74q390 0 390 375q0 172 -73 246q-73 73 -249 73h-142v-694z" />
<glyph unicode="&#x159;" horiz-adv-x="682" vert-adv-y="2465" d="M30 0v62l19 1q73 4 86 26q13 19 14 71l2 99v568l-2 98q0 68 -25 82q-20 12 -75 16l-19 1v62h318v-179q109 203 260 203q31 0 61 -11v-297h-92l-2 18l-1 7q0 6 -1 18q0 7 -1 17q-4 77 -56 77q-82 0 -168 -125v-555l2 -99q1 -69 25 -82q22 -12 76 -15l18 -1v-62h-439z M-12 1604h86l266 -222l265 222h86l-240 -321h-222z" />
<glyph unicode="&#x15a;" horiz-adv-x="1139" vert-adv-y="2465" d="M119 30v285h105l1 -18q2 -40 3 -69v-6q0 -75 69 -123q89 -62 245 -62q293 0 293 282q0 118 -45 179q-44 60 -188 138l-132 71q-340 183 -340 422q0 169 125 279q124 109 326 109q160 0 381 -63v-263h-111l-1 17q-3 40 -4 73v6q0 77 -49 116q-58 47 -201 47 q-264 0 -264 -254q0 -103 44 -163q43 -60 168 -127l132 -71q215 -116 292 -209q77 -92 77 -234q0 -186 -139 -308q-138 -121 -370 -121t-417 67zM482 1604l241 321h259l-407 -321h-93z" />
<glyph unicode="&#x15b;" horiz-adv-x="797" vert-adv-y="2465" d="M95 56v251h99l1 -18l3 -71q7 -175 176 -175q162 0 162 189q0 93 -38 136q-31 37 -108 88l-58 39q-143 96 -187 158t-44 166q0 291 310 291q125 0 245 -61v-235h-98v18q0 211 -132 211q-140 0 -140 -162q0 -120 92 -180l86 -56l56 -38q132 -89 172 -149q41 -60 41 -164 q0 -153 -89 -236q-90 -83 -249 -83q-139 0 -300 81zM276 1283l241 321h259l-407 -321h-93z" />
<glyph unicode="&#x15c;" horiz-adv-x="1139" vert-adv-y="2465" d="M119 30v285h105l1 -18q2 -40 3 -69v-6q0 -75 69 -123q89 -62 245 -62q293 0 293 282q0 118 -45 179q-44 60 -188 138l-132 71q-340 183 -340 422q0 169 125 279q124 109 326 109q160 0 381 -63v-263h-111l-1 17q-3 40 -4 73v6q0 77 -49 116q-58 47 -201 47 q-264 0 -264 -254q0 -103 44 -163q43 -60 168 -127l132 -71q215 -116 292 -209q77 -92 77 -234q0 -186 -139 -308q-138 -121 -370 -121t-417 67zM223 1604l241 321h222l240 -321h-86l-265 222l-266 -222h-86z" />
<glyph unicode="&#x15d;" horiz-adv-x="797" vert-adv-y="2465" d="M62 1283l241 321h222l240 -321h-86l-265 222l-266 -222h-86zM94 56v251h99l1 -18l3 -71q7 -175 176 -175q162 0 162 188q0 95 -37 137q-33 37 -109 88l-58 39q-142 96 -187 158q-44 62 -44 166q0 291 310 291q126 0 245 -61v-235h-98v18q0 211 -132 211q-140 0 -140 -162 q0 -120 92 -180l86 -56l56 -38q133 -90 172 -149q41 -60 41 -164q0 -153 -89 -236t-249 -83q-139 0 -300 81z" />
<glyph unicode="&#x15e;" horiz-adv-x="1139" vert-adv-y="2465" d="M119 30v285h105l1 -18q2 -40 3 -69v-6q0 -75 69 -123q89 -62 245 -62q293 0 293 282q0 118 -45 179q-44 60 -188 138l-132 71q-340 183 -340 422q0 170 125 279q124 109 326 109q160 0 381 -63v-263h-111l-1 17q-3 40 -4 73v6q0 77 -49 116q-58 47 -201 47 q-264 0 -264 -254q0 -103 44 -163q43 -60 168 -127l132 -71q215 -116 292 -209q77 -92 77 -234q0 -186 -139 -308q-138 -121 -370 -121t-417 67zM402 -343q62 -16 101 -16q107 0 107 82q0 98 -187 102l95 175h79l-66 -119q217 -19 217 -147q0 -70 -58 -118q-57 -48 -144 -48 q-68 0 -144 21v68z" />
<glyph unicode="&#x15f;" horiz-adv-x="797" vert-adv-y="2465" d="M95 56v251h99l1 -18l3 -71q7 -175 176 -175q162 0 162 189q0 93 -38 136q-31 37 -108 88l-58 39q-143 96 -187 158t-44 166q0 291 310 291q125 0 245 -61v-235h-98v18q0 211 -132 211q-140 0 -140 -162q0 -120 92 -180l86 -56l56 -38q132 -89 172 -149q41 -60 41 -164 q0 -153 -89 -236q-90 -83 -249 -83q-139 0 -300 81zM238 -343q62 -16 101 -16q107 0 107 82q0 98 -187 102l95 175h79l-66 -119q97 -8 144 -33q73 -37 73 -114q0 -70 -58 -118q-57 -48 -144 -48q-68 0 -144 21v68z" />
<glyph unicode="&#x160;" horiz-adv-x="1139" vert-adv-y="2465" d="M119 30v285h105l1 -18q2 -40 3 -69v-6q0 -75 69 -123q89 -62 245 -62q293 0 293 282q0 118 -45 179q-44 60 -188 138l-132 71q-340 183 -340 422q0 169 125 279q124 109 326 109q160 0 381 -63v-263h-111l-1 17q-3 40 -4 73v6q0 77 -49 116q-58 47 -201 47 q-264 0 -264 -254q0 -103 44 -163q43 -60 168 -127l132 -71q215 -116 292 -209q77 -92 77 -234q0 -186 -139 -308q-138 -121 -370 -121t-417 67zM223 1925h86l266 -222l265 222h86l-240 -321h-222z" />
<glyph unicode="&#x161;" horiz-adv-x="797" vert-adv-y="2465" d="M95 56v251h99l1 -18l3 -71q7 -175 176 -175q162 0 162 189q0 93 -38 136q-31 37 -108 88l-58 39q-143 96 -187 158t-44 166q0 291 310 291q125 0 245 -61v-235h-98v18q0 211 -132 211q-140 0 -140 -162q0 -120 92 -180l86 -56l56 -38q132 -89 172 -149q41 -60 41 -164 q0 -153 -89 -236q-90 -83 -249 -83q-139 0 -300 81zM66 1604h86l266 -222l265 222h86l-240 -321h-222z" />
<glyph unicode="&#x162;" horiz-adv-x="1251" vert-adv-y="2465" d="M31 1209v271h1190v-271h-105l-1 21q-1 23 -2 57v16q1 63 -15 78q-15 14 -67 14l-103 5h-197v-1141q0 -56 8 -112q5 -38 14 -50q19 -25 77 -29l68 -5l43 -1v-62h-629v62l43 1l68 5q75 6 85 47q13 62 13 144v1141h-196l-103 -5q-64 -1 -74 -24q-8 -19 -8 -70v-14l-1 -17 q0 -34 -1 -40l-2 -21h-105zM484 -343q62 -16 101 -16q107 0 107 82q0 98 -187 102l95 175h79l-66 -119q217 -19 217 -147q0 -70 -58 -118q-57 -48 -144 -48q-68 0 -144 21v68z" />
<glyph unicode="&#x163;" horiz-adv-x="569" vert-adv-y="2465" d="M25 999v87h111v197l198 49v-246h224v-87h-224v-686v-87q0 -171 104 -171q39 0 95 31v-80q-78 -31 -144 -31q-138 0 -196 81q-57 81 -57 283v660h-111zM186 -343q62 -16 101 -16q107 0 107 82q0 98 -187 102l95 175h79l-66 -119q96 -8 145 -33q72 -37 72 -114 q0 -70 -58 -118q-57 -48 -144 -48q-68 0 -144 21v68z" />
<glyph unicode="&#x164;" horiz-adv-x="1251" vert-adv-y="2465" d="M31 1209v271h1190v-271h-105l-1 21q-1 23 -2 57v16q1 63 -15 78q-15 14 -67 14l-103 5h-197v-1141q0 -56 8 -112q7 -51 32 -65q21 -11 59 -14l68 -5l43 -1v-62h-629v62l43 1l68 5q75 6 85 47q13 62 13 144v1141h-196l-103 -5q-64 -1 -74 -24q-8 -19 -8 -70v-14l-1 -17 q0 -34 -1 -40l-2 -21h-105zM275 1925h86l266 -222l265 222h86l-240 -321h-222z" />
<glyph unicode="&#x165;" horiz-adv-x="666" vert-adv-y="2465" d="M25 999v87h111v197l198 49v-246h224v-87h-224v-686v-87q0 -171 104 -171q39 0 95 31v-80q-78 -31 -144 -31q-138 0 -196 81q-57 81 -57 283v660h-111zM482 1234v50q79 6 79 155v52h-79v197h197v-171q0 -163 -62 -228q-47 -49 -135 -55z" />
<glyph unicode="&#x166;" horiz-adv-x="1251" vert-adv-y="2465" d="M31 1209v271h1190v-271h-105l-1 21q-1 23 -2 57v16q1 63 -15 78q-15 14 -67 14l-103 5h-197v-611h303v-74h-303v-456q0 -56 8 -112q7 -51 32 -65q21 -11 59 -14l68 -5l43 -1v-62h-629v62l43 1l68 5q75 6 85 47q13 62 13 144v456h-303v74h303v611h-196l-103 -5 q-64 -1 -74 -24q-8 -19 -8 -70v-14l-1 -17q0 -34 -1 -40l-2 -21h-105z" />
<glyph unicode="&#x167;" horiz-adv-x="569" vert-adv-y="2465" d="M25 617v74h111v308h-111v87h111v197l198 49v-246h224v-87h-224v-308h224v-74h-224v-304v-87q0 -171 104 -171q39 0 95 31v-80q-78 -31 -144 -31q-138 0 -196 81q-57 81 -57 283v278h-111z" />
<glyph unicode="&#x168;" horiz-adv-x="1479" vert-adv-y="2465" d="M19 1419v61h583v-61l-18 -2l-68 -4q-68 -5 -79 -27q-11 -19 -14 -66l-6 -99v-633q0 -228 12 -298q12 -71 61 -134q97 -125 289 -125q199 0 308 129q56 67 69 159q11 78 11 225v677q1 114 -18 156q-15 32 -81 36l-68 4l-18 2v61h474v-61l-19 -2l-68 -4q-75 -5 -85 -47 q-13 -64 -13 -145v-620q0 -207 -23 -302q-24 -98 -92 -179q-133 -157 -406 -157q-546 0 -546 591v667q0 59 -7 112q-6 39 -14 51q-18 26 -78 29l-67 4zM442 1604q27 140 96 193q53 42 131 42q65 0 118 -38l35 -25q52 -37 106 -37q95 0 118 99h62q-28 -139 -96 -192 q-54 -42 -131 -42q-63 0 -118 38l-35 24q-55 38 -106 38q-89 0 -118 -100h-62z" />
<glyph unicode="&#x169;" vert-adv-y="2465" d="M12 1024v62h319v-734l2 -78q2 -86 24 -124q26 -45 82 -45q115 0 236 140v582l-2 98q-1 69 -25 82q-21 12 -75 16l-19 1v62h318v-827l2 -99q0 -68 25 -82q23 -12 75 -15l19 -1v-62h-318v179q-64 -92 -124 -138q-85 -66 -187 -66q-124 0 -178 78q-53 78 -53 268v506l-2 98 q0 68 -25 82q-20 12 -75 16zM158 1283q27 140 96 193q54 42 131 42q65 0 118 -38l35 -25q52 -37 106 -37q95 0 118 99h62q-28 -139 -96 -192q-54 -42 -131 -42q-63 0 -118 38l-35 24q-55 38 -107 38q-88 0 -117 -100h-62z" />
<glyph unicode="&#x16a;" horiz-adv-x="1479" vert-adv-y="2465" d="M19 1419v61h583v-61l-18 -2l-68 -4q-68 -5 -79 -27q-11 -19 -14 -66l-6 -99v-633q0 -228 12 -298q12 -71 61 -134q97 -125 289 -125q199 0 308 129q56 67 69 159q11 78 11 225v677q1 114 -18 156q-15 32 -81 36l-68 4l-18 2v61h474v-61l-19 -2l-68 -4q-75 -5 -85 -47 q-13 -64 -13 -145v-620q0 -207 -23 -302q-24 -98 -92 -179q-133 -157 -406 -157q-546 0 -546 591v667q0 59 -7 112q-6 39 -14 51q-18 26 -78 29l-67 4zM470 1604v123h642v-123h-642z" />
<glyph unicode="&#x16b;" vert-adv-y="2465" d="M12 1024v62h319v-734l2 -78q2 -86 24 -124q26 -45 82 -45q115 0 236 140v582l-2 98q-1 69 -25 82q-21 12 -75 16l-19 1v62h318v-827l2 -99q0 -68 25 -82q23 -12 75 -15l19 -1v-62h-318v179q-64 -92 -124 -138q-85 -66 -187 -66q-124 0 -178 78q-53 78 -53 268v506l-2 98 q0 68 -25 82q-20 12 -75 16zM181 1283v123h642v-123h-642z" />
<glyph unicode="&#x16c;" horiz-adv-x="1479" vert-adv-y="2465" d="M19 1419v61h583v-61l-18 -2l-68 -4q-68 -5 -79 -27q-11 -19 -14 -66l-6 -99v-633q0 -228 12 -298q12 -71 61 -134q97 -125 289 -125q199 0 308 129q56 67 69 159q11 78 11 225v677q1 114 -18 156q-15 32 -81 36l-68 4l-18 2v61h474v-61l-19 -2l-68 -4q-75 -5 -85 -47 q-13 -64 -13 -145v-620q0 -207 -23 -302q-24 -98 -92 -179q-133 -157 -406 -157q-546 0 -546 591v667q0 59 -7 112q-6 39 -14 51q-18 26 -78 29l-67 4zM442 1925h65q27 -90 87 -132q68 -47 181 -47q126 0 196 59q49 40 73 120h64q-19 -135 -91 -216q-94 -105 -242 -105 q-154 0 -249 115q-65 78 -84 206z" />
<glyph unicode="&#x16d;" vert-adv-y="2465" d="M12 1024v62h319v-734l2 -78q2 -86 24 -124q26 -45 82 -45q115 0 236 140v582l-2 98q-1 69 -25 82q-21 12 -75 16l-19 1v62h318v-827l2 -99q0 -68 25 -82q23 -12 75 -15l19 -1v-62h-318v179q-64 -92 -124 -138q-85 -66 -187 -66q-124 0 -178 78q-53 78 -53 268v506l-2 98 q0 68 -25 82q-20 12 -75 16zM146 1604h65q27 -90 87 -132q68 -47 181 -47q126 0 196 59q49 40 73 120h64q-19 -135 -91 -216q-95 -105 -242 -105q-154 0 -249 115q-65 78 -84 206z" />
<glyph unicode="&#x16e;" horiz-adv-x="1479" vert-adv-y="2465" d="M19 1419v61h583v-61l-18 -2l-68 -4q-68 -5 -79 -27q-11 -19 -14 -66l-6 -99v-633q0 -228 12 -298q12 -71 61 -134q97 -125 289 -125q199 0 308 129q56 67 69 159q11 78 11 225v677q1 114 -18 156q-15 32 -81 36l-68 4l-18 2v61h474v-61l-19 -2l-68 -4q-75 -5 -85 -47 q-13 -64 -13 -145v-620q0 -207 -23 -302q-24 -98 -92 -179q-133 -157 -406 -157q-546 0 -546 591v667q0 59 -7 112q-6 39 -14 51q-18 26 -78 29l-67 4zM555 1806q0 95 66 161t161 66q94 0 160 -66q67 -66 67 -160q0 -96 -67 -162t-162 -66q-84 0 -145 54q-80 69 -80 173z M623 1807q0 -66 46 -113t111 -47q61 0 105 37q56 49 56 123q0 66 -47 112t-112 46q-66 0 -112 -46q-47 -47 -47 -112z" />
<glyph unicode="&#x16f;" vert-adv-y="2465" d="M12 1024v62h319v-734l2 -78q2 -86 24 -124q26 -45 82 -45q115 0 236 140v582l-2 98q-1 69 -25 82q-21 12 -75 16l-19 1v62h318v-827l2 -99q0 -68 25 -82q23 -12 75 -15l19 -1v-62h-318v179q-64 -92 -124 -138q-85 -66 -187 -66q-124 0 -178 78q-53 78 -53 268v506l-2 98 q0 68 -25 82q-20 12 -75 16zM264 1510q0 95 66 161t161 66q94 0 160 -66q67 -66 67 -160q0 -96 -67 -162t-162 -66q-84 0 -145 54q-80 70 -80 173zM332 1511q0 -66 46 -113t111 -47q61 0 105 37q56 49 56 123q0 66 -47 112t-112 46q-66 0 -113 -46q-46 -47 -46 -112z" />
<glyph unicode="&#x170;" horiz-adv-x="1479" vert-adv-y="2465" d="M19 1419v61h583v-61l-18 -2l-68 -4q-68 -5 -79 -27q-11 -19 -14 -66l-6 -99v-633q0 -228 12 -298q12 -71 61 -134q97 -125 289 -125q199 0 308 129q56 67 69 159q11 78 11 225v677q1 114 -18 156q-15 32 -81 36l-68 4l-18 2v61h474v-61l-19 -2l-68 -4q-75 -5 -85 -47 q-13 -64 -13 -145v-620q0 -207 -23 -302q-24 -98 -92 -179q-133 -157 -406 -157q-546 0 -546 591v667q0 59 -7 112q-6 39 -14 51q-18 26 -78 29l-67 4zM565 1604l214 321h169l-321 -321h-62zM874 1604l213 321h169l-321 -321h-61z" />
<glyph unicode="&#x171;" vert-adv-y="2465" d="M12 1024v62h319v-734l2 -78q2 -86 24 -124q26 -45 82 -45q115 0 236 140v582l-2 98q-1 69 -25 82q-21 12 -75 16l-19 1v62h318v-827l2 -99q0 -68 25 -82q23 -12 75 -15l19 -1v-62h-318v179q-64 -92 -124 -138q-85 -66 -187 -66q-124 0 -178 78q-53 78 -53 268v506l-2 98 q0 68 -25 82q-20 12 -75 16zM244 1283l214 321h169l-321 -321h-62zM553 1283l213 321h169l-321 -321h-61z" />
<glyph unicode="&#x172;" horiz-adv-x="1479" vert-adv-y="2465" d="M19 1419v61h583v-61l-18 -2l-68 -4q-68 -5 -79 -27q-11 -21 -14 -66l-6 -99v-633q0 -228 12 -298q12 -71 61 -134q97 -125 289 -125q199 0 308 129q56 67 69 159q11 78 11 225v677q1 114 -18 156q-15 32 -81 36l-68 4l-18 2v61h474v-61l-19 -2l-68 -4q-75 -5 -85 -47 q-13 -64 -13 -145v-620q0 -206 -23 -302q-24 -98 -92 -179q-133 -157 -406 -157q-546 0 -546 591v667q0 59 -7 112q-6 39 -14 51q-18 26 -78 29l-67 4zM665 -211q0 121 158 211h107q-129 -80 -129 -182q0 -107 133 -107q51 0 100 16v-68q-71 -29 -149 -29q-220 0 -220 159z " />
<glyph unicode="&#x173;" vert-adv-y="2465" d="M12 1024v62h319v-734l2 -78q2 -86 24 -124q26 -45 82 -45q115 0 236 140v582l-2 98q-1 69 -25 82q-21 12 -75 16l-19 1v62h318v-827l2 -99q0 -68 25 -82q23 -12 75 -15l19 -1v-62h-318v179q-64 -92 -124 -138q-85 -66 -187 -66q-124 0 -178 78q-53 78 -53 268v506l-2 98 q0 68 -25 82q-20 12 -75 16zM575 -211q0 122 158 211h107q-129 -80 -129 -182q0 -107 133 -107q51 0 100 16v-68q-71 -29 -149 -29q-220 0 -220 159z" />
<glyph unicode="&#x174;" horiz-adv-x="1933" vert-adv-y="2465" d="M0 1419v61h536v-61h-20l-54 -2q-94 -3 -94 -54q0 -40 29 -148l233 -861l360 1108h70l322 -1139l276 891q43 138 43 169q0 32 -88 34l-68 2h-19v61h407v-61l-17 -2l-60 -2q-60 -2 -79 -63l-43 -137l-382 -1234h-67l-322 1139l-370 -1139h-69l-336 1234q-33 121 -35 132 q-15 69 -73 69l-58 1zM679 1604l241 321h222l240 -321h-86l-265 222l-266 -222h-86z" />
<glyph unicode="&#x175;" horiz-adv-x="1479" vert-adv-y="2465" d="M0 1024v62h445v-62h-21q-102 0 -102 -47q0 -34 32 -150l139 -504l264 757h66l275 -796l161 543l17 58l19 69q5 17 5 25q0 42 -76 44l-29 1h-22v62h306l-1 -62l-22 -1q-70 -4 -104 -115l-25 -81l-258 -839h-55l-287 813l-284 -813h-61l-230 839q-34 123 -57 158t-76 38z M458 1283l241 321h222l240 -321h-86l-265 222l-266 -222h-86z" />
<glyph unicode="&#x176;" horiz-adv-x="1479" vert-adv-y="2465" d="M0 1419v61h573v-61h-19l-71 -2q-74 -2 -74 -37q0 -29 48 -99l45 -66l314 -467l315 466q95 140 95 175q0 25 -83 28l-56 2h-18v61h409v-61l-19 -2q-1 0 -6 1q-3 -3 -6 -3l-21 1q-73 3 -129 -83q-2 -4 -9 -14q-6 -9 -13 -18l-58 -86l-380 -559v-397q-1 -119 17 -155 q15 -32 81 -36l68 -5l19 -1v-62h-580v62l18 1l68 5q75 6 85 47q14 60 14 144v397l-375 559l-59 88q-69 105 -116 112l-58 2zM469 1604l241 321h222l240 -321h-86l-265 222l-266 -222h-86z" />
<glyph unicode="&#x177;" vert-adv-y="2465" d="M0 1024v62h437v-62h-19l-29 -1q-79 -3 -79 -41q0 -21 30 -91l31 -73l220 -546l203 545l26 67q31 80 31 98q0 42 -93 42h-22v62h288v-62l-17 -1q-62 -4 -96 -92l-44 -114l-456 -1212h-249l325 395l-331 820q-80 200 -139 203zM235 1283l241 321h222l240 -321h-86l-265 222 l-266 -222h-86z" />
<glyph unicode="&#x178;" horiz-adv-x="1479" vert-adv-y="2465" d="M0 1419v61h573v-61h-19l-71 -2q-74 -2 -74 -37q0 -29 48 -99l45 -66l314 -467l315 466q95 140 95 175q0 25 -83 28l-56 2h-18v61h409v-61l-19 -2q-1 0 -6 1q-3 -3 -6 -3l-21 1q-73 3 -129 -83q-2 -4 -9 -14q-6 -9 -13 -18l-58 -86l-380 -559v-397q-1 -119 17 -155 q15 -32 81 -36l68 -5l19 -1v-62h-580v62l18 1l68 5q75 6 85 47q14 60 14 144v397l-375 559l-59 88q-69 105 -116 112l-58 2zM537 1604v173h173v-173h-173zM932 1604v173h173v-173h-173z" />
<glyph unicode="&#x179;" horiz-adv-x="1251" vert-adv-y="2465" d="M92 0v80l795 1320h-451l-109 -4q-64 -1 -75 -19q-10 -17 -10 -55l-3 -113l-2 -25h-111v296h996v-67l-791 -1320h448l166 6q63 1 67 66l4 100l1 19h112v-284h-1037zM510 1604l241 321h259l-407 -321h-93z" />
<glyph unicode="&#x17a;" horiz-adv-x="909" vert-adv-y="2465" d="M62 0v62l528 956h-194l-96 -1q-82 0 -93 -26q-9 -17 -9 -57v-8v-13v-13q-1 -25 -1 -31l-2 -21h-105v238h729v-62l-525 -950h242l121 5q82 1 83 72v75l1 24h105v-250h-784zM325 1283l241 321h259l-407 -321h-93z" />
<glyph unicode="&#x17b;" horiz-adv-x="1251" vert-adv-y="2465" d="M92 0v80l795 1320h-451l-109 -4q-64 -1 -75 -19q-10 -17 -10 -55l-3 -113l-2 -25h-111v296h996v-67l-791 -1320h448l166 6q63 1 67 66l4 100l1 19h112v-284h-1037zM512 1604v197h197v-197h-197z" />
<glyph unicode="&#x17c;" horiz-adv-x="909" vert-adv-y="2465" d="M62 0v62l528 956h-194l-96 -1q-82 0 -93 -26q-9 -17 -9 -57v-8v-13v-13q-1 -25 -1 -31l-2 -21h-105v238h729v-62l-525 -950h242l121 5q82 1 83 72v75l1 24h105v-250h-784zM355 1283v197h197v-197h-197z" />
<glyph unicode="&#x17d;" horiz-adv-x="1251" vert-adv-y="2465" d="M92 0v80l795 1320h-451l-109 -4q-64 -1 -75 -19q-10 -17 -10 -55l-3 -113l-2 -25h-111v296h996v-67l-791 -1320h448l166 6q63 1 67 66l4 100l1 19h112v-284h-1037zM276 1925h86l266 -222l265 222h86l-240 -321h-222z" />
<glyph unicode="&#x17e;" horiz-adv-x="909" vert-adv-y="2465" d="M62 0v62l528 956h-194l-96 -1q-82 0 -93 -26q-9 -17 -9 -57v-8v-13v-13q-1 -25 -1 -31l-2 -21h-105v238h729v-62l-525 -950h242l121 5q82 1 83 72v75l1 24h105v-250h-784zM105 1604h86l266 -222l265 222h86l-240 -321h-222z" />
<glyph unicode="&#x17f;" horiz-adv-x="569" vert-adv-y="2465" d="M37 999v87h139v52q0 263 69 364q69 102 244 102q128 0 230 -74v-235h-111l-1 19q-2 39 -3 66v5q0 155 -108 155q-120 0 -122 -183l-1 -100v-998l2 -99q1 -72 33 -85q26 -12 92 -12l44 -1v-62h-489v62l19 1q77 5 89 29q11 20 11 68l2 99v740h-139z" />
<glyph unicode="&#x192;" vert-adv-y="2465" d="M12 -296l206 1036h-202v62h214l24 120q54 274 192 429q137 154 326 154q80 0 177 -30v-229h-98q-3 47 -4 74q-5 124 -124 124q-118 0 -171 -128q-43 -104 -89 -337l-35 -177h250v-62h-263l-206 -1036h-197z" />
<glyph unicode="&#x218;" horiz-adv-x="1139" vert-adv-y="2465" d="M119 30v285h105l1 -18q2 -40 3 -69v-6q0 -75 69 -123q89 -62 245 -62q293 0 293 282q0 118 -45 179q-44 60 -188 138l-132 71q-340 183 -340 422q0 170 125 279q124 109 326 109q160 0 381 -63v-263h-111l-1 17q-3 40 -4 73v6q0 77 -49 116q-58 47 -201 47 q-264 0 -264 -254q0 -103 44 -163q43 -60 168 -127l132 -71q215 -116 292 -209q77 -92 77 -234q0 -186 -139 -308q-138 -121 -370 -121t-417 67zM442 -349q49 -10 104 -10q103 0 103 80q0 89 -158 104v64q134 -3 200 -32q93 -42 93 -137q0 -152 -217 -152q-60 0 -125 11v72z " />
<glyph unicode="&#x219;" horiz-adv-x="797" vert-adv-y="2465" d="M95 56v251h99l1 -18l3 -71q7 -175 176 -175q162 0 162 189q0 93 -38 136q-31 37 -108 88l-58 39q-143 96 -187 158t-44 166q0 291 310 291q125 0 245 -61v-235h-98v18q0 211 -132 211q-140 0 -140 -162q0 -120 92 -180l86 -56l56 -38q132 -89 172 -149q41 -60 41 -164 q0 -153 -89 -236q-90 -83 -249 -83q-139 0 -300 81zM249 -349q49 -10 104 -10q103 0 103 80q0 89 -158 104v64q134 -3 200 -32q93 -42 93 -137q0 -152 -217 -152q-59 0 -125 11v72z" />
<glyph unicode="&#x21a;" horiz-adv-x="1251" vert-adv-y="2465" d="M31 1209v271h1190v-271h-105l-1 21q-1 23 -2 57v16q1 63 -15 78q-15 14 -67 14l-103 5h-197v-1141q0 -56 8 -112q5 -38 14 -50q19 -25 77 -29l68 -5l43 -1v-62h-629v62l43 1l68 5q75 6 85 47q13 62 13 144v1141h-196l-103 -5q-64 -1 -74 -24q-8 -19 -8 -70v-14l-1 -17 q0 -34 -1 -40l-2 -21h-105zM472 -349q49 -10 104 -10q103 0 103 80q0 89 -158 104v64q134 -3 200 -32q93 -42 93 -137q0 -152 -217 -152q-59 0 -125 11v72z" />
<glyph unicode="&#x21b;" horiz-adv-x="569" vert-adv-y="2465" d="M25 999v87h111v197l198 49v-246h224v-87h-224v-686v-87q0 -171 104 -171q39 0 95 31v-80q-78 -31 -144 -31q-138 0 -196 81q-57 81 -57 283v660h-111zM161 -349q49 -10 104 -10q103 0 103 80q0 89 -158 104v64q134 -3 200 -32q93 -42 93 -137q0 -152 -217 -152 q-59 0 -125 11v72z" />
<glyph unicode="&#x2c6;" horiz-adv-x="682" vert-adv-y="2465" d="M-10 1283l241 321h222l240 -321h-86l-265 222l-266 -222h-86z" />
<glyph unicode="&#x2c7;" horiz-adv-x="682" vert-adv-y="2465" d="M-10 1604h86l266 -222l265 222h86l-240 -321h-222z" />
<glyph unicode="&#x2c9;" horiz-adv-x="682" vert-adv-y="2465" d="M20 1283v123h642v-123h-642z" />
<glyph unicode="&#x2d8;" horiz-adv-x="682" vert-adv-y="2465" d="M8 1604h65q27 -90 87 -132q68 -47 181 -47q126 0 196 59q49 40 73 120h64q-19 -135 -91 -216q-94 -105 -242 -105q-154 0 -249 115q-65 78 -84 206z" />
<glyph unicode="&#x2d9;" horiz-adv-x="682" vert-adv-y="2465" d="M242 1283v197h197v-197h-197z" />
<glyph unicode="&#x2da;" horiz-adv-x="682" vert-adv-y="2465" d="M114 1510q0 95 66 161t161 66q94 0 160 -66q67 -66 67 -160q0 -96 -67 -162q-66 -66 -162 -66q-83 0 -145 54q-80 69 -80 173zM182 1511q0 -66 46 -113q47 -47 111 -47q61 0 105 37q56 49 56 123q0 66 -47 112q-46 46 -112 46t-112 -46q-47 -47 -47 -112z" />
<glyph unicode="&#x2db;" horiz-adv-x="682" vert-adv-y="2465" d="M156 -211q0 122 158 211h107q-129 -80 -129 -182q0 -107 133 -107q51 0 100 16v-68q-71 -29 -149 -29q-220 0 -220 159z" />
<glyph unicode="&#x2dc;" horiz-adv-x="682" vert-adv-y="2465" d="M8 1283q27 140 96 193q54 42 131 42q65 0 118 -38l35 -25q52 -37 106 -37q96 0 118 99h62q-28 -139 -96 -192q-54 -42 -131 -42q-63 0 -118 38l-35 24q-55 38 -107 38q-87 0 -117 -100h-62z" />
<glyph unicode="&#x2dd;" horiz-adv-x="682" vert-adv-y="2465" d="M-5 1283l214 321h169l-321 -321h-62zM304 1283l213 321h169l-321 -321h-61z" />
<glyph unicode="&#x326;" horiz-adv-x="682" vert-adv-y="2465" d="M170 -349q49 -10 104 -10q103 0 103 80q0 89 -158 104v64q134 -3 200 -32q93 -42 93 -137q0 -152 -217 -152q-59 0 -125 11v72z" />
<glyph unicode="&#x37e;" horiz-adv-x="569" vert-adv-y="2465" d="M161 0v247h247v-215q0 -139 -17 -183q-22 -65 -93 -119q-60 -47 -137 -51v62q99 8 99 194v65h-99zM161 839v247h247v-247h-247z" />
<glyph unicode="&#x387;" horiz-adv-x="512" vert-adv-y="2465" d="M133 491v247h247v-247h-247z" />
<glyph unicode="&#x2010;" horiz-adv-x="682" vert-adv-y="2465" d="M82 543v123h518v-123h-518z" />
<glyph unicode="&#x2011;" horiz-adv-x="682" vert-adv-y="2465" d="M82 543v123h518v-123h-518z" />
<glyph unicode="&#x2012;" vert-adv-y="2465" d="M86 543v123h851v-123h-851z" />
<glyph unicode="&#x2013;" vert-adv-y="2465" d="M86 543v123h851v-123h-851z" />
<glyph unicode="&#x2014;" horiz-adv-x="2048" vert-adv-y="2465" d="M99 543v99h1851v-99h-1851z" />
<glyph unicode="&#x2015;" horiz-adv-x="2048" vert-adv-y="2465" d="M99 543v99h1851v-99h-1851z" />
<glyph unicode="&#x2018;" horiz-adv-x="682" vert-adv-y="2465" d="M205 1012v214q0 141 16 184q22 64 94 119q60 46 137 50v-62q-99 -8 -99 -194v-65h99v-246h-247z" />
<glyph unicode="&#x2019;" horiz-adv-x="682" vert-adv-y="2465" d="M230 1012v61q99 9 99 195v64h-99v247h247v-214q0 -139 -17 -184q-23 -66 -93 -119q-60 -45 -137 -50z" />
<glyph unicode="&#x201a;" horiz-adv-x="682" vert-adv-y="2465" d="M230 0v247h247v-215q0 -139 -17 -183q-22 -65 -93 -119q-60 -47 -137 -51v62q99 8 99 194v65h-99z" />
<glyph unicode="&#x201b;" horiz-adv-x="512" vert-adv-y="2465" />
<glyph unicode="&#x201c;" horiz-adv-x="909" vert-adv-y="2465" d="M122 1012v214q0 141 16 184q22 64 94 119q60 46 137 50v-62q-99 -8 -99 -194v-65h99v-246h-247zM517 1012v214q0 142 16 183q23 67 94 120q60 45 137 50v-62q-99 -8 -99 -194v-65h99v-246h-247z" />
<glyph unicode="&#x201d;" horiz-adv-x="909" vert-adv-y="2465" d="M146 1012v61q99 9 99 195v64h-99v247h247v-214q0 -139 -17 -184q-23 -66 -93 -119q-60 -45 -137 -50zM541 1012v61q98 9 98 195v64h-98v247h247v-214q0 -139 -17 -184q-21 -63 -93 -119q-60 -45 -137 -50z" />
<glyph unicode="&#x201e;" horiz-adv-x="909" vert-adv-y="2465" d="M146 0v247h247v-215q0 -139 -17 -183q-22 -65 -93 -119q-60 -47 -137 -51v62q99 8 99 194v65h-99zM541 0v247h247v-215q0 -139 -17 -183q-21 -62 -93 -119q-60 -47 -137 -51v62q98 8 98 194v65h-98z" />
<glyph unicode="&#x2020;" vert-adv-y="2465" d="M80 814v148l382 -43l-49 561h197l-49 -561l383 43v-148l-383 43l49 -1153h-197l49 1153z" />
<glyph unicode="&#x2021;" vert-adv-y="2465" d="M80 222v148l382 -43v530l-382 -43v148l382 -43l-49 561h197l-49 -561l383 43v-148l-383 43v-530l383 43v-148l-383 43l49 -561h-197l49 561z" />
<glyph unicode="&#x2022;" horiz-adv-x="717" vert-adv-y="2465" d="M81 833q0 115 82 196q81 81 196 81t196 -82t81 -197q0 -114 -82 -195t-200 -81q-99 0 -175 66q-98 86 -98 212z" />
<glyph unicode="&#x2026;" horiz-adv-x="2048" vert-adv-y="2465" d="M243 0v197h197v-197h-197zM926 0v197h197v-197h-197zM1608 0v197h198v-197h-198z" />
<glyph unicode="&#x2030;" horiz-adv-x="2048" vert-adv-y="2465" d="M34 1110q0 163 88 266q88 104 227 104q138 0 226 -103q88 -104 88 -266q0 -166 -88 -268q-88 -103 -230 -103q-121 0 -205 84q-106 108 -106 286zM73 -37l1089 1554h86l-1088 -1554h-87zM182 1111q0 -309 165 -309q168 0 168 310q0 307 -166 307q-167 0 -167 -308z M657 370q0 162 88 266q89 104 227 104t226 -104t88 -266q0 -165 -88 -267q-88 -103 -230 -103q-121 0 -205 84q-106 108 -106 286zM805 371q0 -310 166 -310q167 0 167 310q0 308 -166 308q-167 0 -167 -308zM1385 370q0 162 88 266q89 104 227 104t226 -104t88 -266 q0 -165 -88 -267q-88 -103 -230 -103q-121 0 -205 84q-106 108 -106 286zM1533 371q0 -310 165 -310q168 0 168 314q0 304 -166 304q-167 0 -167 -308z" />
<glyph unicode="&#x2039;" horiz-adv-x="682" vert-adv-y="2465" d="M86 543l423 432l50 -39l-274 -393l274 -392l-50 -40z" />
<glyph unicode="&#x203a;" horiz-adv-x="682" vert-adv-y="2465" d="M123 149l273 394l-273 391l50 41l423 -432l-423 -432z" />
<glyph unicode="&#x203e;" vert-adv-y="2465" d="M99 1480v124h827v-124h-827z" />
<glyph unicode="&#x2044;" horiz-adv-x="342" vert-adv-y="2465" d="M-416 -37l1088 1554h87l-1089 -1554h-86z" />
<glyph unicode="&#x20ac;" vert-adv-y="2465" d="M0 580l26 62h96q-3 56 -3 91q0 26 2 76q1 28 2 42h-123l26 62h104q25 157 54 238q131 366 485 366q155 0 298 -74v-259h-99l-1 55q-4 211 -188 211q-169 0 -264 -180q-68 -128 -90 -357h529l-26 -62h-508q-4 -65 -4 -118q0 -9 1 -41q1 -28 2 -50h422l-25 -62h-392 q80 -518 395 -518q117 0 238 76v-93q-123 -82 -283 -82q-253 0 -402 211q-105 149 -143 406h-129z" />
<glyph unicode="&#x2122;" horiz-adv-x="2007" vert-adv-y="2465" d="M140 1283v197h679v-197h-87v136h-185v-629h124v-62h-383v62h123v629h-185v-136h-86zM893 1419v61h356l165 -442l153 442h300v-61h-123v-629h123v-62h-259v685l-213 -618h-37l-231 618v-685h-222v62h123v629h-135z" />
<glyph unicode="&#x212e;" horiz-adv-x="909" vert-adv-y="2465" d="M68 536q0 260 117 417q116 157 311 157q181 0 267 -122q85 -122 85 -383v-19h-564q3 -144 18 -218q60 -293 298 -293q122 0 248 75v-101q-166 -74 -306 -74q-220 0 -347 149t-127 412zM284 648h354l1 44q4 177 -28 265q-31 86 -125 86q-104 0 -161 -142q-39 -98 -41 -253 z" />
<glyph unicode="&#x2212;" horiz-adv-x="1628" vert-adv-y="2465" d="M222 543v99h1184v-99h-1184z" />
<glyph unicode="&#x2215;" horiz-adv-x="342" vert-adv-y="2465" d="M-416 -37l1088 1554h87l-1089 -1554h-86z" />
<glyph unicode="&#x2219;" horiz-adv-x="512" vert-adv-y="2465" d="M133 491v247h247v-247h-247z" />
<glyph unicode="&#x22c5;" horiz-adv-x="512" vert-adv-y="2465" d="M133 491v247h247v-247h-247z" />
<glyph unicode="&#xe000;" horiz-adv-x="1085" vert-adv-y="2169" d="M0 1085h1085v-1085h-1085v1085z" />
<glyph unicode="&#xea01;" horiz-adv-x="1139" vert-adv-y="2465" d="M37 999v87h139v52q0 256 67 361q68 105 228 105q114 0 216 -74v-222h-111l-1 16q-1 33 -2 51v11q0 154 -93 154q-104 0 -106 -183l-1 -100v-171h586v-827l2 -99q1 -74 22 -82q20 -10 103 -15l18 -1v-62h-488v62l62 1q81 0 82 97l1 99v746h-388v-746l2 -99q1 -72 33 -85 q26 -12 92 -12l44 -1v-62h-489v62l19 1q77 5 89 29q11 20 11 68l2 99v740h-139zM786 1283v197h173v-197h-173z" />
<glyph unicode="&#xea02;" horiz-adv-x="1139" vert-adv-y="2465" d="M37 999v87h139v52q0 175 16 246q16 73 68 130q82 90 208 90q50 0 164 -25h327v-1320l2 -99q1 -74 22 -82q20 -10 103 -15l18 -1v-62h-488v62l62 1q81 0 82 97l1 99v1178q-157 103 -275 103q-110 0 -112 -183l-1 -100v-171h173v-81h-173v-746l2 -99q1 -72 33 -85 q26 -12 92 -12l44 -1v-62h-489v62l19 1q77 5 89 29q11 20 11 68l2 99v740h-139z" />
<glyph unicode="&#xf001;" horiz-adv-x="1139" vert-adv-y="2465" d="M37 999v87h139v52q0 256 67 361q68 105 228 105q114 0 216 -74v-222h-111l-1 16q-1 33 -2 51v11q0 154 -93 154q-104 0 -106 -183l-1 -100v-171h586v-827l2 -99q1 -74 22 -82q20 -10 103 -15l18 -1v-62h-488v62l62 1q81 0 82 97l1 99v746h-388v-746l2 -99q1 -72 33 -85 q26 -12 92 -12l44 -1v-62h-489v62l19 1q77 5 89 29q11 20 11 68l2 99v740h-139zM786 1283v197h173v-197h-173z" />
<glyph unicode="&#xfb01;" horiz-adv-x="1139" vert-adv-y="2465" d="M37 999v87h139v52q0 256 67 361q68 105 228 105q114 0 216 -74v-222h-111l-1 16q-1 33 -2 51v11q0 154 -93 154q-104 0 -106 -183l-1 -100v-171h586v-827l2 -99q1 -74 22 -82q20 -10 103 -15l18 -1v-62h-488v62l62 1q81 0 82 97l1 99v746h-388v-746l2 -99q1 -72 33 -85 q26 -12 92 -12l44 -1v-62h-489v62l19 1q77 5 89 29q11 20 11 68l2 99v740h-139zM786 1283v197h173v-197h-173z" />
<glyph unicode="&#xf002;" horiz-adv-x="1139" vert-adv-y="2465" d="M37 999v87h139v52q0 175 16 246q16 73 68 130q82 90 208 90q50 0 164 -25h327v-1320l2 -99q1 -74 22 -82q20 -10 103 -15l18 -1v-62h-488v62l62 1q81 0 82 97l1 99v1178q-157 103 -275 103q-110 0 -112 -183l-1 -100v-171h173v-81h-173v-746l2 -99q1 -72 33 -85 q26 -12 92 -12l44 -1v-62h-489v62l19 1q77 5 89 29q11 20 11 68l2 99v740h-139z" />
<glyph unicode="&#xfb02;" horiz-adv-x="1139" vert-adv-y="2465" d="M37 999v87h139v52q0 175 16 246q16 73 68 130q82 90 208 90q50 0 164 -25h327v-1320l2 -99q1 -74 22 -82q20 -10 103 -15l18 -1v-62h-488v62l62 1q81 0 82 97l1 99v1178q-157 103 -275 103q-110 0 -112 -183l-1 -100v-171h173v-81h-173v-746l2 -99q1 -72 33 -85 q26 -12 92 -12l44 -1v-62h-489v62l19 1q77 5 89 29q11 20 11 68l2 99v740h-139z" />
<glyph unicode="&#xf004;" horiz-adv-x="614" vert-adv-y="2465" d="M31 977v66l368 479h91v-456h92v-89h-92v-68l3 -50q2 -35 22 -42q16 -5 52 -6l9 -1v-38h-292v38l9 1q50 1 64 8q15 9 17 40l3 50v68h-346zM97 1066h280v363z" />
<glyph unicode="&#xf6be;" horiz-adv-x="569" vert-adv-y="2465" d="M-78 -136h99l1 -18q4 -118 25 -157q25 -47 86 -47q129 0 129 173v103v909l-2 98q0 68 -25 82q-21 12 -76 16l-18 1v62h318v-1074q0 -431 -332 -431q-76 0 -205 39v244z" />
<glyph horiz-adv-x="512" vert-adv-y="2465" />
<glyph horiz-adv-x="512" vert-adv-y="2465" />
<glyph horiz-adv-x="512" vert-adv-y="2465" />
<glyph horiz-adv-x="512" vert-adv-y="2465" />
<glyph horiz-adv-x="512" vert-adv-y="2465" />
<glyph horiz-adv-x="512" vert-adv-y="2465" />
<glyph horiz-adv-x="512" vert-adv-y="2465" />
<glyph horiz-adv-x="512" vert-adv-y="2465" />
<glyph horiz-adv-x="512" vert-adv-y="2465" />
<glyph horiz-adv-x="512" vert-adv-y="2465" />
<glyph horiz-adv-x="512" vert-adv-y="2465" />
<glyph horiz-adv-x="512" vert-adv-y="2465" />
<glyph horiz-adv-x="512" vert-adv-y="2465" />
<glyph vert-adv-y="1024" />
<glyph horiz-adv-x="512" vert-adv-y="2465" />
<glyph horiz-adv-x="512" vert-adv-y="2465" />
</font>
</defs>
</svg>
