<?xml version="1.0" standalone="no"?>
<!DOCTYPE svg PUBLIC "-//W3C//DTD SVG 1.1//EN" "http://www.w3.org/Graphics/SVG/1.1/DTD/svg11.dtd" >
<svg xmlns="http://www.w3.org/2000/svg">
<metadata>
This is a custom SVG webfont generated by Font Squirrel.
Copyright   : Copyright c 2001 by Bigelow  Holmes Inc Instructions copyright c 2001 by URW
Designer    : Kris Holmes and Charles Bigelow
Foundry     : Bigelow  Holmes Inc
Foundry URL : httpwwwurwppde
</metadata>
<defs>
<font id="LuxiSerifBoldOblique" horiz-adv-x="1024" vert-adv-y="2048" >
<font-face units-per-em="2048" ascent="1638" descent="-410" />
<missing-glyph horiz-adv-x="512" />
<glyph horiz-adv-x="0" vert-adv-y="0" />
<glyph horiz-adv-x="512" vert-adv-y="2505" />
<glyph unicode=" " horiz-adv-x="512" vert-adv-y="2505" />
<glyph unicode="!" horiz-adv-x="682" vert-adv-y="2505" d="M193 0l49 247h296l-49 -247h-296zM379 419l51 765l59 296h296l-59 -296l-255 -765h-92z" />
<glyph unicode="&#x22;" horiz-adv-x="1137" vert-adv-y="2505" d="M494 987l20 592h296l-217 -592h-99zM938 987l20 592h296l-217 -592h-99z" />
<glyph unicode="#" vert-adv-y="2505" d="M78 0l198 432h-168l49 123h175l164 370h-194l52 124h198l196 431h127l-196 -431h239l196 431h127l-197 -431h167l-49 -124h-172l-165 -370h191l-48 -123h-197l-197 -432h-128l197 432h-239l-197 -432h-129zM459 555h239l165 370h-238z" />
<glyph unicode="$" vert-adv-y="2505" d="M86 74l57 284h136l-3 -19l-9 -61q-4 -28 -4 -43q0 -111 224 -132l109 545l-73 63q-133 115 -167 163q-36 53 -36 133q0 221 187 372q119 97 286 101l32 161h93l-32 -161q166 -9 306 -67l-56 -278h-135l2 19l10 69q3 20 3 37q0 114 -148 131l-103 -514l97 -76 q184 -144 184 -314q0 -220 -175 -363q-118 -98 -312 -124l-32 -160h-93l32 160q-218 13 -380 74zM580 109q82 14 133 79q66 85 66 214q0 103 -102 190zM586 1094q0 -83 92 -159l90 449q-73 -18 -119 -84q-63 -89 -63 -206z" />
<glyph unicode="%" horiz-adv-x="2048" vert-adv-y="2505" d="M283 -37l1581 1554h195l-1589 -1554h-187zM392 1000q0 213 121 346q121 134 322 134q289 0 289 -264q0 -214 -122 -346q-121 -133 -326 -133q-284 0 -284 263zM607 948q0 -116 93 -116q106 0 156 149q16 49 32 125q20 96 20 153q0 126 -97 126q-83 0 -138 -118 q-28 -59 -44 -136q-22 -103 -22 -183zM1220 263q0 212 121 345q121 134 322 134q289 0 289 -263q0 -214 -122 -346q-121 -133 -327 -133q-283 0 -283 263zM1435 210q0 -115 93 -115q107 0 156 149q17 51 32 125q20 96 20 153q0 126 -97 126q-83 0 -139 -118 q-27 -59 -44 -136q-21 -102 -21 -184z" />
<glyph unicode="&#x26;" horiz-adv-x="1706" vert-adv-y="2505" d="M174 357q0 229 179 375q76 61 170 103q48 21 146 53q-78 156 -78 246q0 171 138 277q139 106 375 106q368 0 368 -251q0 -157 -155 -275q-109 -83 -298 -136q118 -233 232 -427l54 -92q137 172 137 330q0 60 -74 64q-6 1 -18 2l-9 1h-7l-18 1l18 93h481l-18 -93l-19 -1 l-43 -2q-57 -1 -77 -31q-17 -24 -34 -81q-50 -170 -267 -353q85 -138 111 -149q32 -16 139 -23l18 -1l-18 -93h-429l-61 84q-204 -121 -453 -121q-233 0 -361 104q-129 103 -129 290zM468 415q0 -317 342 -317q120 0 243 55q-174 287 -348 653q-106 -49 -159 -120 q-78 -106 -78 -271zM885 1207q0 -100 96 -280q254 170 254 377q0 121 -139 121q-107 0 -160 -60q-51 -56 -51 -158z" />
<glyph unicode="'" horiz-adv-x="569" vert-adv-y="2505" d="M428 962l13 617h321l-235 -617h-99z" />
<glyph unicode="(" horiz-adv-x="682" vert-adv-y="2505" d="M189 422q0 408 281 781q185 245 464 388l-19 -92q-109 -86 -175 -184q-82 -124 -159 -379q-128 -425 -128 -765q0 -162 46 -270q25 -60 73 -117l-18 -92q-161 101 -250 259q-115 203 -115 471z" />
<glyph unicode=")" horiz-adv-x="682" vert-adv-y="2505" d="M19 -308l19 92q109 86 175 185q82 124 159 379q128 422 128 764q0 162 -46 270q-26 61 -73 117l18 92q162 -102 250 -259q115 -204 115 -471q0 -408 -281 -781q-184 -245 -464 -388z" />
<glyph unicode="*" vert-adv-y="2505" d="M342 1113l113 213l221 -154q-46 -40 -46 -88zM372 857l260 196q21 -45 63 -54l-173 -271zM699 1480h220l-123 -290q-21 10 -43 10q-20 0 -48 -10zM727 999q44 10 84 53l181 -196l-203 -128zM816 1170l286 154l25 -213l-300 -28q6 20 6 32q0 28 -17 55z" />
<glyph unicode="+" horiz-adv-x="1167" vert-adv-y="2505" d="M194 518l30 148h419l84 420h148l-83 -420h419l-30 -148h-419l-84 -419h-148l84 419h-420z" />
<glyph unicode="," horiz-adv-x="512" vert-adv-y="2505" d="M36 -296l18 92q130 1 164 204h-123l64 321h321l-50 -248q-70 -341 -394 -369z" />
<glyph unicode="-" horiz-adv-x="682" vert-adv-y="2505" d="M153 518l29 148h584l-30 -148h-583z" />
<glyph unicode="." horiz-adv-x="512" vert-adv-y="2505" d="M96 0l64 321h321l-64 -321h-321z" />
<glyph unicode="/" horiz-adv-x="569" vert-adv-y="2505" d="M-118 -296l888 1776h155l-889 -1776h-154z" />
<glyph unicode="0" vert-adv-y="2505" d="M165 433q0 492 237 833q175 251 410 251q342 0 342 -462q0 -221 -65 -453q-65 -233 -172 -389q-172 -250 -425 -250q-327 0 -327 470zM432 187q0 -132 95 -132q67 0 110 74q37 63 84 230q66 238 116 506q50 267 50 428q0 132 -93 132q-68 0 -115 -78q-78 -131 -167 -607 l-48 -258q-32 -172 -32 -295z" />
<glyph unicode="1" vert-adv-y="2505" d="M119 0l19 93l18 1l116 10q74 6 93 15q19 11 36 55q25 64 35 116l165 826l14 101l8 35q-8 34 -58 34q-24 0 -118 -17l-77 -14l20 99l583 139l-241 -1203q-17 -85 -17 -134q0 -31 34 -44q17 -6 78 -10l107 -8l18 -1l-19 -93h-814z" />
<glyph unicode="2" vert-adv-y="2505" d="M38 0l20 99q99 177 261 333l120 113l67 64l166 162q208 203 208 452q0 196 -185 196q-193 0 -227 -158l-18 -83l-5 -18h-136l55 276q248 82 449 82q380 0 380 -299q0 -168 -103 -287q-81 -93 -279 -224q-123 -81 -167 -119l-86 -75q-148 -128 -184 -267h628l-50 -247 h-914z" />
<glyph unicode="3" vert-adv-y="2505" d="M77 17l56 279h136l-3 -18l-9 -64q-4 -28 -4 -50q0 -109 157 -109q144 0 241 125q98 126 98 299q0 260 -291 260h-101l19 92h85q185 0 291 108q107 110 107 292q0 194 -176 194q-161 0 -195 -138l-22 -90l-5 -19h-142l55 274q219 66 385 66q398 0 398 -286 q0 -170 -147 -298q-100 -88 -266 -137q98 -24 149 -52q159 -89 159 -278q0 -213 -174 -358q-174 -146 -443 -146q-196 0 -358 54z" />
<glyph unicode="4" vert-adv-y="2505" d="M105 401l33 167l783 931h218l-178 -888h148l-42 -210h-148l-22 -111l-14 -99l-8 -36q7 -55 100 -61l18 -1l-18 -93h-543l18 93l19 1q115 7 127 26q16 19 29 71l25 99l22 111h-567zM297 611h417l131 652z" />
<glyph unicode="5" vert-adv-y="2505" d="M119 10l54 274h136l-2 -19l-8 -61q-9 -57 -9 -66q0 -83 121 -83q124 0 211 138q87 137 87 321q0 279 -292 279q-49 0 -115 -7l139 694h758l-45 -228h-638l-99 -365l79 1q228 3 365 -75q163 -93 163 -308q0 -223 -182 -383q-181 -159 -433 -159q-106 0 -290 47z" />
<glyph unicode="6" vert-adv-y="2505" d="M162 436q0 203 73 427q71 221 190 376q213 278 516 278q149 0 260 -59l-54 -267h-136l3 18l3 22l3 20q3 22 6 38q7 37 7 63q0 73 -111 73q-149 0 -269 -225q-86 -161 -135 -417q148 171 305 171q270 0 270 -318q0 -264 -174 -468q-175 -205 -399 -205q-166 0 -262 127 q-96 126 -96 346zM440 278q0 -223 107 -223q87 0 158 160q86 192 86 427q0 187 -99 187q-97 0 -174 -169q-78 -170 -78 -382z" />
<glyph unicode="7" vert-adv-y="2505" d="M147 0q84 225 223 419q135 191 529 642l151 173h-721l49 246h895l-38 -188q-583 -588 -767 -1292h-321z" />
<glyph unicode="8" vert-adv-y="2505" d="M120 264q0 186 145 334q88 89 255 178l-34 37q-125 136 -125 269q0 184 138 310q137 126 348 126q314 0 314 -259q0 -159 -128 -282q-78 -75 -226 -149l18 -20l27 -28q107 -109 157 -177q55 -76 55 -171q0 -192 -166 -330q-165 -139 -396 -139q-176 0 -279 80t-103 221z M398 248q0 -193 160 -193q97 0 163 90q67 90 67 210q0 96 -75 192l-82 105l-50 70l-14 -17q-169 -205 -169 -457zM624 1155q0 -100 96 -226l29 -38q162 179 162 396q0 138 -105 138q-80 0 -131 -79t-51 -191z" />
<glyph unicode="9" vert-adv-y="2505" d="M122 22l53 268h136l-2 -19l-3 -22q-3 -22 -7 -41l-1 -6l-2 -11q-6 -42 -6 -64q0 -72 111 -72q149 0 269 225q84 157 135 417q-149 -170 -305 -170q-270 0 -270 316q0 266 174 470t399 204q166 0 261 -127q96 -127 96 -345q0 -204 -73 -427q-72 -223 -189 -377 q-212 -278 -516 -278q-149 0 -260 59zM531 838q0 -187 99 -187q97 0 175 170q77 169 77 382q0 222 -107 222q-87 0 -158 -160q-86 -192 -86 -427z" />
<glyph unicode=":" horiz-adv-x="682" vert-adv-y="2505" d="M193 0l59 296h296l-59 -296h-296zM353 802l60 296h296l-60 -296h-296z" />
<glyph unicode=";" horiz-adv-x="682" vert-adv-y="2505" d="M134 -296l18 92q138 20 152 204h-111l59 296h296l-43 -218q-68 -332 -371 -374zM353 802l60 296h296l-60 -296h-296z" />
<glyph unicode="&#x3c;" horiz-adv-x="1167" vert-adv-y="2505" d="M209 592l1086 494l-33 -166l-719 -327l-1 -2l589 -327l-33 -165z" />
<glyph unicode="=" horiz-adv-x="1167" vert-adv-y="2505" d="M157 333l29 148h987l-29 -148h-987zM231 703l29 148h987l-29 -148h-987z" />
<glyph unicode="&#x3e;" horiz-adv-x="1167" vert-adv-y="2505" d="M110 99l33 165l719 327l1 2l-589 327l33 166l888 -494z" />
<glyph unicode="?" vert-adv-y="2505" d="M279 0l50 247h296l-49 -247h-297zM300 1178l55 276q205 64 408 64q207 0 326 -75q118 -75 118 -203q0 -118 -96 -218q-46 -49 -137 -107l-24 -17q-37 -23 -62 -41l-53 -39q-102 -75 -145 -263l-27 -116l-4 -20h-296l4 17q35 166 211 297l75 55q232 170 232 417 q0 220 -203 220q-192 0 -225 -150l-17 -78l-5 -19h-135z" />
<glyph unicode="@" horiz-adv-x="1905" vert-adv-y="2505" d="M279 468q0 300 282 624q176 201 403 312q231 113 462 113q238 0 391 -142t153 -361q0 -273 -206 -495q-206 -223 -461 -223q-143 0 -143 83q0 60 103 250h-38q-287 -333 -460 -333q-133 0 -133 156q0 188 171 413q234 307 489 307q63 0 156 -33l6 -2q4 -1 11 -4l4 -1h129 l-209 -521q-39 -97 -39 -146q0 -55 68 -55q151 0 304 195t153 391q0 188 -133 308q-134 121 -350 121q-431 0 -767 -387q-255 -294 -255 -569q0 -187 124 -300q125 -113 328 -113q151 0 356 77l14 -87q-213 -83 -375 -83q-246 0 -392 137q-146 136 -146 368zM821 524 q0 -80 64 -80q128 0 398 346l95 233q-70 60 -161 60q-137 0 -262 -195q-134 -210 -134 -364z" />
<glyph unicode="A" horiz-adv-x="1479" vert-adv-y="2505" d="M0 0l18 93l19 1q81 5 140 96l66 102l747 1201h103l270 -1203q41 -186 95 -194l27 -2l12 -1l-19 -93h-530l18 93l20 1l36 2q52 3 52 52q0 17 -12 75l-15 69l-35 158h-549l-100 -159q-87 -139 -87 -166q0 -26 44 -29l26 -2l18 -1l-19 -93h-345zM525 549h465l-122 549z" />
<glyph unicode="B" horiz-adv-x="1366" vert-adv-y="2505" d="M43 0l19 93l18 1q115 7 127 26q16 19 29 71l25 99l180 901l15 98l7 34q-5 55 -124 64l-18 1l18 92h748q371 0 371 -272q0 -175 -158 -300q-94 -75 -276 -140q137 -32 210 -80q131 -87 131 -246q0 -152 -110 -277q-80 -91 -184 -128q-103 -37 -277 -37h-751zM544 184 q0 -49 42 -63q32 -10 100 -10q168 0 267 95q100 94 100 250q0 118 -80 185q-79 68 -212 68h-120l-84 -420q-13 -66 -13 -105zM661 808h119q160 0 262 107q103 106 103 268q0 199 -249 199h-120z" />
<glyph unicode="C" horiz-adv-x="1479" vert-adv-y="2505" d="M210 551q0 367 228 647q260 319 752 319q225 0 475 -65l-61 -305h-173l4 19l8 58l2 17q4 24 4 35q0 58 -86 100q-87 43 -205 43q-279 0 -448 -265q-77 -122 -127 -307q-51 -187 -51 -349q0 -411 438 -411q200 0 470 110l-28 -140q-259 -94 -530 -94q-672 0 -672 588z" />
<glyph unicode="D" horiz-adv-x="1479" vert-adv-y="2505" d="M43 0l18 93l19 1q66 4 81 25q15 19 27 72l21 99l180 901l18 98q7 34 7 45q0 49 -75 53l-19 1l19 92h433l75 1l92 2l74 1h15q203 0 335 -77q215 -127 215 -452q0 -314 -186 -587q-251 -368 -689 -368h-660zM505 186q0 -55 56 -70q42 -11 122 -11q246 0 412 278 q160 269 160 600q0 200 -110 298q-112 101 -346 101h-64l-219 -1092q-11 -54 -11 -104z" />
<glyph unicode="E" horiz-adv-x="1366" vert-adv-y="2505" d="M55 0l19 93l19 1q115 7 126 26q17 20 30 71l25 99l180 901l14 98l7 34q-4 55 -124 64l-18 1l18 92h1209l-53 -265h-173l3 19l4 26q4 32 5 34q3 12 4 15q1 5 2 7q2 5 2 8q0 58 -136 58h-417l-113 -562h305l98 2q45 1 53 14q8 12 13 38q5 20 12 45l5 19h130l-65 -321h-129 l2 18q0 2 2 11l1 10q1 6 2 15l1 4q3 16 3 30q0 23 -51 25l-93 4h-306l-89 -444q-16 -80 -16 -133q0 -31 30 -42q19 -7 59 -8l82 -2h223l114 3q70 1 87 56l24 95l5 19h173l-56 -278h-1252z" />
<glyph unicode="F" horiz-adv-x="1251" vert-adv-y="2505" d="M55 0l19 93l19 1q115 7 126 26q17 20 30 71l25 99l180 901l14 98l7 34q-4 55 -124 64l-18 1l18 92h1123l-56 -277h-172l2 18q7 59 10 66q2 6 5 16q5 16 5 21q0 58 -137 58h-330l-120 -599h224l98 2q40 1 50 10q7 8 12 29q3 11 4 13q3 9 12 45l5 19h129l-64 -321h-129 l2 18q0 2 1 10q7 39 7 60q0 23 -51 25l-93 4h-224l-82 -407q-16 -79 -16 -137q0 -33 30 -45q15 -7 47 -9l66 -5l19 -1l-19 -93h-654z" />
<glyph unicode="G" horiz-adv-x="1593" vert-adv-y="2505" d="M210 550q0 364 228 648q137 170 317 244q181 75 457 75q241 0 490 -65l-58 -292h-173l4 18l8 56q5 34 5 45q0 62 -90 101q-92 39 -230 39q-372 0 -531 -403q-49 -124 -80 -280q-29 -147 -29 -274q0 -400 421 -400q88 0 174 26l54 274l15 99l7 34q-5 55 -124 63l-18 1 l18 93h629l-18 -93l-19 -1q-115 -7 -126 -26q-17 -20 -30 -71l-25 -99l-67 -332q-322 -67 -548 -67q-661 0 -661 587z" />
<glyph unicode="H" horiz-adv-x="1593" vert-adv-y="2505" d="M43 0l19 93l18 1q115 7 127 26q16 19 29 71l25 99l180 901l15 98l7 34q-5 55 -124 64l-18 1l18 92h629l-18 -92l-19 -1q-118 -9 -127 -27q-16 -18 -29 -71l-25 -98l-72 -360h570l72 360l15 98l6 34q-4 55 -124 64l-18 1l19 92h629l-19 -92l-18 -1q-119 -9 -128 -27 q-15 -19 -28 -71l-26 -98l-180 -901l-14 -99l-7 -34q5 -55 124 -63l18 -1l-18 -93h-629l18 93l19 1q115 7 126 26q17 19 30 71l25 99l87 436h-570l-87 -436l-15 -99l-6 -34q4 -55 123 -63l19 -1l-19 -93h-629z" />
<glyph unicode="I" horiz-adv-x="797" vert-adv-y="2505" d="M84 0l19 93l18 1q115 7 127 26q16 19 29 71l25 99l180 901l15 98l7 34q-5 55 -124 64l-18 1l18 92h629l-18 -92l-19 -1q-118 -9 -127 -27q-16 -18 -29 -71l-25 -98l-180 -901l-15 -99l-6 -34q4 -55 123 -63l19 -1l-19 -93h-629z" />
<glyph unicode="J" vert-adv-y="2505" d="M-55 -246l58 290h185l-8 -43l-8 -56q-4 -29 -4 -50q0 -92 124 -92q116 0 165 97q38 74 69 228l212 1063l15 98l7 34q-5 55 -124 64l-18 1l18 92h629l-18 -92l-19 -1q-118 -9 -127 -27q-15 -17 -29 -71l-25 -98l-192 -960q-56 -280 -192 -403q-135 -124 -382 -124 q-139 0 -336 50z" />
<glyph unicode="K" horiz-adv-x="1593" vert-adv-y="2505" d="M43 0l19 93l18 1q115 7 127 26q16 19 29 71l25 99l180 901l15 98l7 34q-5 55 -124 64l-18 1l18 92h592l-18 -92l-19 -1q-94 -7 -105 -27q-15 -19 -27 -71l-24 -98l-79 -394l570 394q199 137 199 173q0 20 -52 22l-44 2h-17l18 92h450l-18 -92l-19 -1l-40 -2 q-65 -1 -185 -92l-41 -30l-102 -74l-468 -322l445 -580l97 -119q55 -68 142 -74l18 -1l-18 -93h-716l18 93h19l46 1q89 2 89 43q0 42 -86 154l-322 421l-85 -422l-14 -99l-7 -36q7 -55 99 -61l19 -1l-19 -93h-592z" />
<glyph unicode="L" horiz-adv-x="1366" vert-adv-y="2505" d="M55 0l19 93l19 1q115 7 126 26q17 20 30 71l25 99l180 901l14 98l7 34q-4 55 -124 64l-18 1l18 92h630l-19 -92l-19 -1q-118 -9 -127 -27q-16 -18 -29 -71l-25 -98l-180 -901q-16 -80 -16 -135q0 -46 88 -48l89 -2h223l87 4q83 2 98 21q16 20 28 77l27 120l9 43h197 l-74 -370h-1283z" />
<glyph unicode="M" horiz-adv-x="1933" vert-adv-y="2505" d="M55 0l18 93l19 1q115 7 127 26q16 19 29 71l25 99l180 901l15 98l6 34q-3 55 -123 64l-19 1l19 92h498l241 -958l659 958h424l-18 -92l-19 -1q-119 -9 -128 -27q-16 -18 -29 -71l-25 -98l-180 -901l-14 -99l-7 -34q4 -55 123 -63l19 -1l-19 -93h-580l19 93l19 1 q93 6 106 27q15 20 27 70l24 99l175 878l-691 -1003h-98l-268 1065l-188 -940l-15 -99q-3 -15 -9 -39q8 -26 11 -29q28 -26 91 -29l18 -1l-18 -93h-444z" />
<glyph unicode="N" horiz-adv-x="1479" vert-adv-y="2505" d="M44 0l19 93l18 1q115 7 127 26q16 19 29 71l25 99l180 901l15 98l7 34q-5 55 -124 64l-18 1l18 92h385l448 -1099l162 810l15 98l7 35q-5 55 -124 63l-19 1l19 92h466l-18 -92l-19 -1q-117 -9 -126 -27q-16 -18 -29 -71l-25 -98l-242 -1212h-218l-455 1102l-158 -791 l-14 -99l-7 -34q4 -55 124 -63l18 -1l-19 -93h-467z" />
<glyph unicode="O" horiz-adv-x="1593" vert-adv-y="2505" d="M207 544q0 405 259 688q260 285 636 285q280 0 436 -151q157 -151 157 -431q0 -409 -262 -690q-263 -282 -650 -282q-240 0 -389 125q-187 155 -187 456zM524 465q0 -403 288 -403q214 0 363 226q98 148 151 344q51 183 51 381q0 406 -295 406q-233 0 -391 -283 q-167 -300 -167 -671z" />
<glyph unicode="P" horiz-adv-x="1251" vert-adv-y="2505" d="M43 0l19 93l18 1q115 7 127 26q16 19 29 71l25 99l180 901l15 98l7 34q-5 55 -124 64l-18 1l18 92h457l91 2l100 3l84 2h20q135 0 226 -52q123 -72 123 -245q0 -202 -138 -365q-185 -218 -589 -218h-92l-64 -317q-16 -80 -16 -137q0 -48 77 -54l67 -5l18 -1l-18 -93h-642 zM640 705h59q190 0 307 132q118 131 118 335q0 210 -241 210h-107z" />
<glyph unicode="Q" horiz-adv-x="1593" vert-adv-y="2505" d="M207 543q0 405 259 689q259 285 637 285q279 0 435 -151q157 -150 157 -427q0 -357 -209 -630q-143 -188 -380 -292q255 -105 520 -130l-229 -191q-191 74 -407 255l-31 26q-100 -14 -172 -14q-270 0 -425 153t-155 427zM524 465q0 -403 288 -403q214 0 364 226 q97 146 151 344q50 184 50 381q0 406 -295 406q-233 0 -391 -283q-167 -300 -167 -671z" />
<glyph unicode="R" horiz-adv-x="1479" vert-adv-y="2505" d="M43 0l19 93l18 1q115 7 127 26q16 19 29 71l25 99l180 901l15 98l7 34q-5 55 -124 64l-18 1l18 92h432l92 2l90 3l92 2h20q150 0 248 -56q124 -71 124 -238q0 -186 -138 -341q-93 -105 -240 -162l208 -403l59 -102q46 -82 103 -88l48 -3l18 -1l-18 -93h-441l-281 648 h-126l-72 -358l-15 -99q-4 -18 -8 -39q8 -26 11 -29q27 -26 90 -29l19 -1l-19 -93h-592zM649 747h54q181 0 300 125q120 126 120 309q0 201 -236 201h-111z" />
<glyph unicode="S" horiz-adv-x="1139" vert-adv-y="2505" d="M104 18l62 309h160l-4 -24l-10 -65q-2 -12 -2 -35q0 -61 63 -101q63 -41 155 -41q136 0 230 97q95 96 95 227q0 116 -161 215l-88 54q-290 178 -290 384q0 196 169 337q169 142 414 142q166 0 383 -65l-60 -298h-160l2 18l11 67q0 4 1 19l1 10v7v5q0 139 -165 139 q-120 0 -206 -85q-86 -84 -86 -195q0 -101 163 -208l88 -58q173 -114 232 -192q64 -82 64 -196q0 -220 -187 -371t-468 -151q-175 0 -406 55z" />
<glyph unicode="T" horiz-adv-x="1366" vert-adv-y="2505" d="M275 1172l62 308h1286l-62 -308h-160l5 31l14 91q4 27 4 44q0 44 -129 44h-181l-218 -1092q-16 -80 -16 -137q0 -33 30 -45q15 -7 47 -9l66 -5l19 -1l-19 -93h-678l18 93l19 1l69 5q74 5 97 52q20 39 40 139l218 1092h-180q-106 0 -129 -20q-21 -18 -32 -67 q-14 -57 -17 -75q-6 -29 -7 -29l-5 -19h-161z" />
<glyph unicode="U" horiz-adv-x="1479" vert-adv-y="2505" d="M267 349q0 89 25 214l124 621l14 99l7 34q-4 56 -124 64l-18 1l20 98h629l-18 -92l-19 -1q-116 -9 -126 -27q-16 -19 -29 -71l-25 -98l-128 -640q-34 -170 -34 -254q0 -237 249 -237q182 0 290 120q109 120 161 379l126 632l15 98l7 35q-5 54 -124 63l-18 1l18 92h466 l-19 -92l-19 -1q-113 -8 -124 -26q-16 -19 -29 -72l-25 -98l-121 -608q-63 -318 -225 -469t-442 -151q-223 0 -353 103q-131 102 -131 283z" />
<glyph unicode="V" horiz-adv-x="1479" vert-adv-y="2505" d="M278 1388l18 92h617l-19 -92l-19 -1l-7 -1h-13q-11 -1 -18 -1h-7q-81 0 -81 -57q0 -33 23 -135l171 -763l465 763q22 36 43 77l6 12q11 22 16 31l7 14q1 2 3 5q8 14 8 25q0 29 -54 29h-42h-4q-7 1 -11 1l-19 1l19 92h395l-19 -92l-19 -1q-72 -6 -85 -19q-16 -14 -40 -53 l-79 -122l-739 -1212h-100l-274 1212l-25 105q-15 68 -33 75q-17 10 -66 14z" />
<glyph unicode="W" horiz-adv-x="2048" vert-adv-y="2505" d="M290 1388l19 92h592l-19 -92h-18l-54 -1q-59 -1 -69 -23q-10 -20 -10 -67q0 -52 6 -108l72 -675l504 948h126l154 -980l359 703l32 67l7 15l9 20q14 31 16 36q10 19 10 33q0 30 -56 31l-46 1h-18l18 92h407l-18 -92l-19 -1l-16 -1q-19 -2 -30 -2q-47 -1 -64 -16 q-16 -14 -38 -58l-65 -125l-622 -1204h-96l-165 1027l-546 -1027h-98l-122 1208l-13 112q-7 64 -27 71q-20 10 -84 15z" />
<glyph unicode="X" horiz-adv-x="1479" vert-adv-y="2505" d="M21 0l19 93l18 1q89 6 110 23q24 17 66 66l95 109l390 448l-181 446l-43 99q-31 76 -55 87q-22 10 -80 15l-18 1l18 92h636l-19 -92h-18l-51 -1q-70 -1 -70 -39q0 -42 48 -162l123 -309l289 310q133 143 133 175q0 24 -49 25l-41 1h-18l18 92h413l-18 -92q-3 0 -7 -1 q-8 0 -11 -1l-11 3q-1 0 -7 -3q-3 -1 -29 -3q-44 -5 -61 -17t-47 -43l-128 -137l-363 -398l201 -496l59 -127q30 -65 79 -69l41 -2l19 -1l-19 -93h-635l18 93h19l53 1q72 1 72 37q0 33 -51 161l-144 360l-315 -360q-124 -142 -124 -173q0 -24 51 -25l44 -1h19l-19 -93h-419z " />
<glyph unicode="Y" horiz-adv-x="1479" vert-adv-y="2505" d="M280 1388l18 92h642l-19 -92h-16l-50 -1q-75 -1 -75 -40q0 -41 51 -166l169 -412l339 412q120 146 120 177q0 30 -90 30h-22l18 92h407l-18 -92l-19 -1l-44 -4q-59 -6 -108 -66l-114 -135l-452 -540l-70 -352l-14 -99l-7 -34q4 -55 124 -63l18 -1l-19 -93h-629l19 93 l19 1q115 7 126 26q17 20 30 71l25 99l70 350l-227 542l-19 44l-14 34q-12 28 -15 38q-28 82 -82 86l-53 3z" />
<glyph unicode="Z" horiz-adv-x="1366" vert-adv-y="2505" d="M90 0l22 111l1067 1258h-433q-91 0 -117 -14t-39 -70l-21 -98l-9 -40h-185l67 333h1097l-22 -111l-1060 -1258h432q137 0 164 11q26 12 42 76l21 83l11 46h185l-66 -327h-1156z" />
<glyph unicode="[" horiz-adv-x="682" vert-adv-y="2505" d="M83 -296l375 1875h462l-18 -92h-210l-338 -1691h210l-19 -92h-462z" />
<glyph unicode="\" horiz-adv-x="569" vert-adv-y="2505" d="M237 1480h155l177 -1776h-154z" />
<glyph unicode="]" horiz-adv-x="682" vert-adv-y="2505" d="M18 -296l18 92h210l338 1691h-210l19 92h462l-375 -1875h-462z" />
<glyph unicode="^" horiz-adv-x="1190" vert-adv-y="2505" d="M269 592l622 888l266 -888h-165l-167 557l-390 -557h-166z" />
<glyph unicode="_" vert-adv-y="2505" d="M-30 -148l30 148h1024l-30 -148h-1024z" />
<glyph unicode="`" horiz-adv-x="682" vert-adv-y="2505" d="M392 1604h299l176 -321h-132z" />
<glyph unicode="a" vert-adv-y="2505" d="M108 218q0 199 159 317q158 119 431 119h50l26 133q21 108 21 142q0 101 -107 101q-134 0 -166 -134l-15 -63l-5 -19h-185l44 222q203 87 388 87q331 0 331 -245q0 -43 -9 -88l-96 -482l-14 -86l-10 -60q-2 -11 -2 -22q0 -52 51 -52q13 0 30 5l-19 -97q-77 -21 -129 -21 q-145 0 -198 152q-160 -152 -320 -152q-117 0 -186 65q-70 64 -70 178zM413 257q0 -124 102 -124q56 0 124 53l18 14l73 364h-39q-124 0 -201 -86t-77 -221z" />
<glyph unicode="b" horiz-adv-x="1139" vert-adv-y="2505" d="M106 -12l260 1301l18 99q7 33 7 44q0 46 -75 53l-19 2l19 92h404l-132 -663q63 93 125 139q91 68 206 68q309 0 309 -382q0 -321 -185 -543q-184 -223 -453 -223q-79 0 -186 25zM438 166q88 -50 147 -50q131 0 228 183q98 184 98 425q0 208 -142 208q-101 0 -202 -119z " />
<glyph unicode="c" horiz-adv-x="909" vert-adv-y="2505" d="M141 384q0 308 186 524q186 215 462 215q134 0 269 -50l-57 -283h-167l3 18l10 74q0 2 1 17v7q0 124 -89 124q-115 0 -201 -198q-107 -247 -107 -480q0 -232 199 -232q95 0 231 55l-29 -149q-174 -51 -293 -51q-197 0 -307 105q-111 105 -111 304z" />
<glyph unicode="d" horiz-adv-x="1139" vert-adv-y="2505" d="M133 357q0 321 184 544q184 222 453 222q79 0 186 -25l38 191l15 99l7 35q-6 53 -124 62l-19 2l19 92h456l-258 -1289l-17 -99l-4 -17q-3 -18 -3 -27q0 -49 75 -53l19 -1l-19 -93h-405l37 182q-64 -93 -126 -139q-91 -68 -206 -68q-308 0 -308 382zM450 374 q0 -208 141 -208q102 0 202 119l130 647q-89 50 -147 50q-133 0 -229 -183q-97 -184 -97 -425z" />
<glyph unicode="e" horiz-adv-x="909" vert-adv-y="2505" d="M140 377q0 310 169 528q168 218 414 218q279 0 279 -302q0 -130 -30 -260l-5 -22h-507q-23 -131 -23 -203q0 -212 192 -212q116 0 269 69l-30 -150q-181 -68 -338 -68q-390 0 -390 402zM486 632h208q46 231 46 311q0 87 -54 87q-109 0 -200 -398z" />
<glyph unicode="f" horiz-adv-x="682" vert-adv-y="2505" d="M37 0l19 93l18 1q70 5 84 28q14 20 24 69l22 99l141 709h-108l20 99h108l9 44q95 462 453 462q126 0 221 -63l-46 -233h-130l2 18l9 61q4 28 4 51q0 70 -60 70q-58 0 -87 -75q-22 -55 -50 -192l-29 -143h191l-19 -99h-191l-142 -709l-18 -99q-7 -34 -7 -44q0 -51 100 -53 l43 -1l-18 -93h-563z" />
<glyph unicode="g" vert-adv-y="2505" d="M-18 -219q0 162 292 258q-89 54 -89 122q0 121 234 218q-87 37 -131 87q-64 74 -64 196q0 201 130 331t339 130q109 0 204 -37l351 31l-93 -158l-181 30q53 -86 53 -176q0 -179 -138 -318q-138 -140 -319 -140q-20 0 -69 5q-74 -54 -74 -103q0 -53 115 -53h117 q325 0 325 -206q0 -175 -175 -296q-174 -122 -434 -122q-181 0 -287 54q-106 53 -106 147zM274 -199q0 -128 159 -128q116 0 187 64q72 63 72 165q0 77 -68 96q-53 14 -162 14h-97q-91 -104 -91 -211zM486 570q0 -130 80 -130q69 0 127 127q70 153 70 332q0 127 -80 127 q-69 0 -127 -127q-70 -154 -70 -329z" />
<glyph unicode="h" horiz-adv-x="1139" vert-adv-y="2505" d="M31 0l19 93l19 1q69 5 83 28q14 20 24 69l22 99l200 999l18 99q7 33 7 44q0 44 -76 53l-18 2l18 92h405l-133 -663q68 93 135 139q98 68 217 68q224 0 224 -211q0 -60 -15 -135l-97 -487l-18 -99q-7 -34 -7 -44q0 -49 75 -53l19 -1l-19 -93h-501l19 93l19 1q75 5 95 97 l22 99l90 453q17 86 17 115q0 85 -91 85q-101 0 -206 -138l-103 -515l-18 -99q-7 -35 -7 -47q0 -47 63 -50l19 -1l-19 -93h-501z" />
<glyph unicode="i" horiz-adv-x="569" vert-adv-y="2505" d="M40 0l18 93l19 1q66 4 81 25q15 19 27 72l21 99l104 518l18 99q7 34 7 44q0 49 -76 53l-18 1l18 93h405l-162 -808l-17 -99q-7 -34 -7 -44q0 -49 75 -53l19 -1l-19 -93h-513zM405 1283l59 296h296l-59 -296h-296z" />
<glyph unicode="j" horiz-adv-x="682" vert-adv-y="2505" d="M-180 -379l54 268h161l-3 -19l-10 -69q-3 -19 -3 -44q0 -85 81 -85q97 0 133 177l20 98l172 861l18 99q7 33 7 44q0 49 -76 53l-18 1l18 93h405l-215 -1076q-88 -442 -505 -442q-105 0 -239 41zM520 1283l59 296h296l-59 -296h-296z" />
<glyph unicode="k" horiz-adv-x="1139" vert-adv-y="2505" d="M31 0l18 93l19 1q66 4 81 25q15 19 27 72l21 99l200 999l18 99q7 34 7 44q0 45 -75 53l-19 2l19 92h404l-197 -987h16l260 227q59 51 80 72l57 58q21 21 21 34q0 20 -41 21l-42 1h-18l18 93h370l-18 -93l-19 -1q-79 -5 -189 -108q-67 -62 -99 -89l-140 -121l169 -399 q78 -187 130 -192l20 -1l18 -1l-18 -93h-351l-224 530h-12l-49 -240l-17 -99q-7 -34 -7 -44q0 -49 75 -53l19 -1l-19 -93h-513z" />
<glyph unicode="l" horiz-adv-x="569" vert-adv-y="2505" d="M40 0l18 93l19 1q66 4 81 25q15 19 27 72l21 99l200 999l18 99q7 34 7 44q0 45 -75 53l-19 2l19 92h404l-258 -1289l-17 -99q-7 -34 -7 -44q0 -49 75 -53l19 -1l-19 -93h-513z" />
<glyph unicode="m" horiz-adv-x="1706" vert-adv-y="2505" d="M31 0l19 93l19 1q69 5 83 28q14 20 24 69l22 99l104 518l18 99q7 34 7 44q0 49 -76 53l-18 1l18 93h405l-37 -182q68 93 132 139q96 68 210 68q116 0 174 -63q46 -51 50 -161q82 118 149 167q79 57 202 57q226 0 226 -211q0 -60 -15 -135l-97 -487l-18 -99q-7 -33 -7 -44 q0 -49 76 -53l18 -1l-19 -93h-500l18 93l19 1q75 5 95 97l22 99l91 453q16 80 16 115q0 85 -86 85q-95 0 -200 -138l-103 -515l-18 -99q-7 -34 -7 -44q0 -49 76 -53l18 -1l-18 -93h-501l18 93l19 1q75 6 95 97l22 99l91 453q17 85 17 115q0 85 -87 85q-95 0 -200 -138 l-103 -515l-18 -99q-7 -35 -7 -47q0 -47 63 -50l19 -1l-19 -93h-501z" />
<glyph unicode="n" horiz-adv-x="1139" vert-adv-y="2505" d="M31 0l19 93l19 1q69 5 83 28q14 20 24 69l22 99l104 518l18 99q7 34 7 44q0 49 -76 53l-18 1l18 93h405l-37 -182q68 93 135 139q98 68 217 68q224 0 224 -211q0 -60 -15 -135l-97 -487l-18 -99q-7 -34 -7 -44q0 -49 75 -53l19 -1l-19 -93h-501l19 93l19 1q75 5 95 97 l22 99l90 453q17 86 17 115q0 85 -91 85q-101 0 -206 -138l-103 -515l-18 -99q-7 -35 -7 -47q0 -47 63 -50l19 -1l-19 -93h-501z" />
<glyph unicode="o" vert-adv-y="2505" d="M141 387q0 309 174 522q175 214 433 214q366 0 366 -412q0 -311 -175 -523q-174 -213 -437 -213q-361 0 -361 412zM439 280q0 -200 97 -200q76 0 153 163q127 270 127 577q0 198 -94 198q-80 0 -157 -166q-126 -271 -126 -572z" />
<glyph unicode="p" horiz-adv-x="1139" vert-adv-y="2505" d="M-79 -395l18 93l19 1q66 4 81 25q15 19 27 72l21 99l183 913l18 99q7 33 7 44q0 49 -76 53l-18 1l18 93h405l-36 -182q63 93 125 139q91 68 206 68q309 0 309 -382q0 -321 -185 -543q-184 -223 -453 -223q-79 0 -186 25l-20 -105l-18 -99q-7 -34 -7 -44q0 -49 75 -53 l19 -1l-19 -93h-513zM438 166q88 -50 147 -50q131 0 228 183q98 184 98 425q0 208 -142 208q-101 0 -202 -119z" />
<glyph unicode="q" horiz-adv-x="1139" vert-adv-y="2505" d="M133 357q0 321 184 544q184 222 453 222q79 0 186 -25h296l-240 -1203l-18 -99q-7 -33 -7 -44q0 -49 75 -53l19 -1l-19 -93h-513l18 93l19 1q70 5 84 28q14 20 24 69l22 99l57 287q-64 -93 -126 -139q-91 -68 -206 -68q-308 0 -308 382zM450 374q0 -208 142 -208 q101 0 201 119l130 647q-89 50 -147 50q-132 0 -229 -183q-97 -184 -97 -425z" />
<glyph unicode="r" horiz-adv-x="909" vert-adv-y="2505" d="M31 0l18 93l19 1q66 4 81 25q15 19 27 72l21 99l104 518l18 99q7 34 7 44q0 49 -76 53l-18 1l18 93h405l-41 -207q189 232 397 232q33 0 69 -8l-70 -350h-136l3 18l5 47q7 50 7 59q0 33 -52 33q-134 0 -244 -137l-100 -495q-16 -79 -16 -138q0 -47 77 -53l67 -5l18 -1 l-18 -93h-590z" />
<glyph unicode="s" horiz-adv-x="797" vert-adv-y="2505" d="M53 50l52 258h148l-2 -18q-16 -83 -16 -111q0 -111 119 -111q78 0 120 47q46 53 46 154q0 82 -91 150l-66 49q-167 124 -167 263q0 169 121 280q120 112 310 112q115 0 260 -44l-49 -246h-148l3 18l6 42q10 44 10 75q0 62 -69 62q-63 0 -105 -61t-42 -145q0 -80 86 -145 l50 -38q122 -93 159 -143q35 -48 35 -123q0 -168 -140 -284t-335 -116q-120 0 -295 75z" />
<glyph unicode="t" horiz-adv-x="682" vert-adv-y="2505" d="M198 187q0 59 19 154l132 658h-111l19 99h111l37 185l307 52l-48 -237h189l-20 -99h-188l-133 -665l-17 -85q-8 -39 -8 -68q0 -88 79 -88q39 0 102 23l-21 -107q-101 -34 -183 -34q-117 0 -191 58q-75 58 -75 154z" />
<glyph unicode="u" horiz-adv-x="1139" vert-adv-y="2505" d="M165 189q0 62 14 132l98 487l18 99q7 33 7 44q0 49 -76 53l-18 1l18 93h405l-149 -743q-17 -85 -17 -115q0 -85 91 -85q101 0 206 138l103 515l18 99q7 34 7 47q0 47 -63 50l-19 1l19 93h392l-161 -808l-18 -99q-7 -35 -7 -44q0 -49 75 -53l19 -1l-19 -93h-404l36 182 q-152 -207 -352 -207q-223 0 -223 214z" />
<glyph unicode="v" vert-adv-y="2505" d="M201 1005l19 93h517l-19 -93l-19 -1l-15 -1q-40 -1 -55 -10q-28 -17 -28 -60q0 -32 19 -129l81 -415l227 415l12 22q20 36 22 41l31 63q13 26 13 46q0 23 -44 26l-28 2l-18 1l19 93h309l-19 -93l-18 -1l-29 -1q-49 -3 -94 -94l-11 -20q-4 -8 -9 -17l-36 -65l-454 -819 h-91l-164 816l-20 104q-18 92 -79 96z" />
<glyph unicode="w" horiz-adv-x="1479" vert-adv-y="2505" d="M213 1005l18 93h525l-19 -93h-18q-77 -1 -89 -41q-12 -38 -12 -136v-17l14 -355l351 636h106l79 -635l158 347l29 63l27 61q14 31 14 46q0 31 -69 31h-18l18 93h358l-18 -93l-19 -1q-98 -6 -119 -39q-27 -36 -81 -156l-370 -821h-91l-96 772l-427 -772h-96l-30 819l-2 97 q-4 94 -105 100z" />
<glyph unicode="x" vert-adv-y="2505" d="M0 0l19 93l12 1l27 2q71 5 146 96l78 94l202 252l-89 280q-47 150 -68 164q-23 18 -89 22l-18 1l18 93h555l-18 -93h-19l-26 -1q-74 -3 -74 -68q0 -46 24 -123l39 -125l100 125q100 125 100 164q0 28 -64 28h-18l18 93h370l-18 -93l-19 -1h-27q-62 0 -129 -83l-88 -109 l-187 -239l94 -301q54 -170 173 -178l18 -1l-18 -93h-549l19 93h18h7q6 1 8 1l45 7q26 11 26 44q0 40 -34 144l-43 132l-103 -131q-25 -32 -51 -71l-7 -9l-9 -13l-13 -19l-7 -9q-22 -28 -22 -51q0 -21 41 -24l14 -1h18l-18 -93h-364z" />
<glyph unicode="y" vert-adv-y="2505" d="M71 -395l406 401l-158 798l-20 104q-18 92 -79 96l-19 1l19 93h523l-19 -93l-19 -1h-10q-13 -1 -16 -1l-10 1l-7 -2q-28 -9 -33.5 -12.5t-11.5 -15.5q-11 -21 -11 -38q0 -2 2 -15l1 -11q5 -46 17 -106l79 -410l229 410l10 19l10 17l14 27l31 63q13 26 13 46q0 23 -44 26 l-27 2l-19 1l19 93h303l-19 -93l-18 -1l-29 -1q-49 -3 -94 -94q-4 -7 -11 -21l-45 -81l-670 -1202h-287z" />
<glyph unicode="z" horiz-adv-x="909" vert-adv-y="2505" d="M52 0l21 105l656 900h-143q-95 0 -126 -13q-32 -13 -44 -58l-20 -83l-5 -18h-135l53 265h742l-18 -93l-654 -900h190q125 0 147 21q22 19 31 62l4 15l12 44l5 18h135l-53 -265h-798z" />
<glyph unicode="{" horiz-adv-x="807" vert-adv-y="2505" d="M217 595l18 93h62q199 0 200 195l-3 89l-3 106l-1 66q-1 182 97 294q122 141 349 141h101l-19 -92q-119 -8 -173 -50q-59 -49 -61 -179l-1 -42l-1 -71q-3 -175 -51 -273q-76 -161 -252 -230q162 -82 162 -251q0 -91 -66 -264l-27 -71l-15 -41q-26 -71 -26 -106 q0 -100 133 -109q16 -1 40 -4l-19 -92h-103q-148 0 -233 64q-86 65 -86 173q0 89 73 256l46 105l33 75q29 66 29 118q0 100 -142 100h-61z" />
<glyph unicode="|" horiz-adv-x="451" vert-adv-y="2505" d="M92 -296l375 1875h148l-375 -1875h-148z" />
<glyph unicode="}" horiz-adv-x="807" vert-adv-y="2505" d="M27 -296l19 93q118 7 173 49q59 49 61 179l1 42l1 71q3 176 51 273q77 162 252 231q-162 81 -162 250q0 94 66 265l27 70l15 41q26 72 26 106q0 100 -133 109q-16 1 -40 4l18 92h104q148 0 233 -65q86 -64 86 -173q0 -88 -73 -255l-46 -105l-33 -75q-29 -66 -29 -118 q0 -100 142 -100h61l-18 -93h-62q-199 0 -200 -195l3 -89l2 -106l2 -65q0 -183 -97 -295q-122 -141 -349 -141h-101z" />
<glyph unicode="~" horiz-adv-x="1065" vert-adv-y="2505" d="M128 444q24 101 54 153q94 168 291 168q119 0 214 -88l42 -39q83 -77 159 -77q147 0 187 179h99q-25 -101 -54 -153q-94 -168 -292 -168q-119 0 -214 88l-42 39q-83 77 -159 77q-147 0 -187 -179h-98z" />
<glyph vert-adv-y="2505" d="M111 555l40 99h75q11 97 38 185h-96l40 99h86q65 160 121 248q208 331 533 331q116 0 317 -65l-56 -280h-148l4 19q11 53 11 109q0 121 -129 121q-141 0 -241 -158q-68 -108 -126 -325h435l-52 -99h-406l-10 -40q-2 -8 -12 -55q-10 -51 -12 -65l-4 -25h345l-52 -99h-309 q-14 -104 -14 -156q0 -312 244 -312q110 0 261 79l-26 -131q-165 -72 -300 -72q-204 0 -329 134q-126 134 -126 361q0 39 3 97h-105z" />
<glyph unicode="&#xa0;" horiz-adv-x="512" vert-adv-y="2505" />
<glyph unicode="&#xa1;" horiz-adv-x="682" vert-adv-y="2505" d="M116 -382l59 296l254 765h93l-51 -765l-59 -296h-296zM362 851l50 247h296l-50 -247h-296z" />
<glyph unicode="&#xa2;" vert-adv-y="2505" d="M246 595q0 217 108 399q107 182 264 256q96 45 235 59l34 171h99l-34 -172l37 -5q119 -15 221 -42l-58 -293h-117q1 7 3 19q1 4 3 24q1 7 2 18q2 10 3 19q7 43 7 61q0 93 -120 104l-185 -925q120 0 279 55l-27 -135q-138 -40 -279 -52l-31 -156h-99l32 158 q-111 15 -168 41q-209 99 -209 396zM513 567q0 -132 53 -198q30 -39 87 -62l180 903q-125 -40 -208 -186q-112 -198 -112 -457z" />
<glyph unicode="&#xa3;" vert-adv-y="2505" d="M49 0l47 234q179 39 234 307l36 181h-160l21 105h160l33 162q52 255 185 391q135 137 328 137q100 0 283 -59l-52 -261h-135q13 81 13 128q0 92 -101 92q-89 0 -132 -77q-36 -64 -64 -205l-62 -308h210l-19 -93h-209l-24 -118q-52 -256 -376 -382h707l-47 -234h-876z" />
<glyph unicode="&#xa4;" vert-adv-y="2505" d="M127 344l170 142q-43 80 -43 164q0 169 140 320l-114 142l84 70l113 -142q129 83 260 83q128 0 225 -83l170 142l56 -70l-170 -142q42 -80 42 -163q0 -170 -139 -322l113 -141l-84 -70l-113 142q-127 -83 -258 -83q-128 0 -226 83l-170 -142zM406 679q0 -79 47 -131 q59 -67 156 -67q117 0 208 91q92 90 92 205q0 88 -57 143q-58 55 -147 55q-116 0 -208 -91q-91 -90 -91 -205z" />
<glyph unicode="&#xa5;" vert-adv-y="2505" d="M215 382l18 93h238l34 173h-237l18 92h238l-136 454q-59 194 -111 194l19 92h458l-18 -92q-6 0 -13 -1h-4h-2l-9 1l-7 -2q-28 -4 -34 -8q-20 -13 -18 -26l1 -8q2 -12 4 -20l17 -62q4 -11 8 -27q8 -25 13 -42l92 -307h3l215 307l46 71q37 57 44 79l5 19l2 9q-3 17 -45 17 h-17h-5l19 92h269l-19 -92q-54 -4 -188 -194l-318 -454h238l-19 -92h-237l-35 -173h238l-19 -93h-237l-19 -92l-15 -99l-8 -38q6 -52 114 -59h2q4 -1 8 -1h6l-18 -93h-565l18 93l17 1q105 7 117 27q15 19 28 70l25 99l18 92h-237z" />
<glyph unicode="&#xa6;" horiz-adv-x="451" vert-adv-y="2505" d="M92 -296l148 740h148l-148 -740h-148zM319 839l148 740h148l-148 -740h-148z" />
<glyph unicode="&#xa7;" vert-adv-y="2505" d="M35 -261l56 280h135l-2 -19q-1 -6 -3 -22q-2 -9 -3 -18q-2 -15 -4 -21q-6 -24 -6 -42q0 -51 73 -88q72 -37 168 -37q106 0 182 71t76 160q0 75 -152 154l-107 56q-138 72 -194 141q-57 69 -57 166q0 181 227 361q-119 82 -119 211q0 185 148 305q147 120 385 120 q170 0 339 -54l-58 -291h-136l3 19q8 58 14 81q5 22 5 37q0 48 -55 82t-132 34q-101 0 -181 -75q-79 -75 -79 -166q0 -76 126 -140l100 -51q145 -74 203 -146q59 -73 59 -174q0 -162 -206 -367q113 -85 113 -224q0 -179 -148 -291t-392 -112q-181 0 -378 60zM421 656 q0 -73 58 -121q46 -39 141 -91l158 -86q63 99 63 184q0 87 -82 133l-135 76l-136 81q-67 -87 -67 -176z" />
<glyph unicode="&#xa8;" horiz-adv-x="682" vert-adv-y="2505" d="M289 1283l42 210h209l-42 -210h-209zM696 1283l42 210h209l-42 -210h-209z" />
<glyph unicode="&#xa9;" horiz-adv-x="1530" vert-adv-y="2505" d="M167 596q0 346 277 615q278 270 629 270q262 0 433 -170q172 -169 172 -427q0 -343 -278 -613q-277 -271 -632 -271q-233 0 -395 137q-206 175 -206 459zM268 616q0 -224 148 -370q147 -147 376 -147q271 0 493 188q292 248 292 577q0 225 -149 371q-149 147 -375 147 q-305 0 -545 -234t-240 -532zM532 650q0 216 149 361q148 146 372 146q116 0 264 -35l-36 -182h-99l19 96q-87 39 -156 39q-137 0 -235 -123q-99 -123 -99 -292q0 -111 65 -179q64 -67 172 -67q111 0 240 52l-22 -109q-151 -40 -274 -40q-360 0 -360 333z" />
<glyph unicode="&#xaa;" horiz-adv-x="614" vert-adv-y="2505" d="M238 969q0 122 96 194q96 71 261 71h24l16 81q13 66 13 85q0 62 -58 62q-77 0 -96 -81l-9 -39l-3 -11h-118l27 134q123 53 234 53q201 0 201 -149q0 -28 -5 -53l-59 -291l-8 -52l-6 -37q0 -2 -1 -6v-3v-3q0 -32 31 -32q3 0 12 2q4 0 6 1l-12 -59q-47 -13 -81 -13 q-91 0 -123 92q-77 -92 -189 -92q-153 0 -153 146zM430 992q0 -74 55 -74q56 0 79 41l44 220h-17q-161 0 -161 -187z" />
<glyph unicode="&#xab;" vert-adv-y="2505" d="M120 549l533 438l63 -62l-296 -376l145 -376l-88 -62zM588 549l532 434l64 -58l-296 -376l145 -373l-87 -55z" />
<glyph unicode="&#xac;" horiz-adv-x="1167" vert-adv-y="2505" d="M238 740l30 148h987l-119 -592h-148l89 444h-839z" />
<glyph unicode="&#xad;" horiz-adv-x="682" vert-adv-y="2505" d="M153 518l29 148h584l-30 -148h-583z" />
<glyph unicode="&#xae;" horiz-adv-x="1530" vert-adv-y="2505" d="M167 596q0 346 277 615q278 270 629 270q262 0 433 -170q172 -169 172 -427q0 -343 -278 -613q-277 -271 -632 -271q-233 0 -395 137q-206 175 -206 459zM268 616q0 -224 148 -370q147 -147 376 -147q271 0 493 188q292 248 292 577q0 225 -149 371q-149 147 -375 147 q-305 0 -545 -234t-240 -532zM511 345l11 56l10 1q62 5 69 14q9 9 16 38l13 54l95 475l8 54l4 19q-5 28 -67 33l-10 1l11 56h240h50l49 2l50 1q88 2 144 -31q67 -38 67 -128q0 -100 -75 -184q-51 -57 -130 -88l114 -214l31 -56q23 -41 56 -47l-11 -56h-214l-140 351h-68 l-37 -188l-9 -54l-4 -22q3 -26 55 -30l10 -1l-11 -56h-327zM845 751h30q93 0 157 67t64 161q0 107 -124 107h-60z" />
<glyph unicode="&#xaf;" vert-adv-y="2505" d="M378 1456l30 148h851l-30 -148h-851z" />
<glyph unicode="&#xb0;" horiz-adv-x="819" vert-adv-y="2505" d="M357 1162q0 139 110 247t251 108q106 0 175 -67q69 -66 69 -170q0 -139 -111 -247t-255 -108q-92 0 -156 55q-83 70 -83 182zM471 1185q0 -65 42 -107q43 -42 108 -42q79 0 143 54q84 71 84 169q0 65 -43 106q-42 41 -109 41q-89 0 -157 -67q-68 -68 -68 -154z" />
<glyph unicode="&#xb1;" horiz-adv-x="1167" vert-adv-y="2505" d="M90 0l30 148h987l-30 -148h-987zM223 666l30 148h419l74 370h148l-74 -370h420l-30 -148h-419l-74 -370h-148l74 370h-420z" />
<glyph unicode="&#xb2;" horiz-adv-x="614" vert-adv-y="2505" d="M147 592l24 119q68 112 228 237l53 42q195 155 195 328q0 114 -98 114q-55 0 -143 -46l-19 -93h-85l33 164q135 46 268 46q240 0 240 -189q0 -168 -207 -295l-81 -50l-50 -32q-142 -90 -168 -186h397l-31 -159h-556z" />
<glyph unicode="&#xb3;" horiz-adv-x="614" vert-adv-y="2505" d="M155 604l31 155h81l-2 -11q-4 -23 -4 -44q0 -65 104 -65q78 0 131 71q54 72 54 168q0 147 -189 147h-51l14 69h54q236 0 236 228q0 111 -94 111q-102 0 -133 -112l-3 -11h-82l30 150q118 43 253 43q229 0 229 -170q0 -130 -114 -203q-53 -35 -152 -61q88 -16 135 -50 q68 -49 68 -145q0 -132 -105 -218t-276 -86q-131 0 -215 34z" />
<glyph unicode="&#xb4;" horiz-adv-x="682" vert-adv-y="2505" d="M328 1283l305 321h299l-471 -321h-133z" />
<glyph unicode="&#xb5;" horiz-adv-x="1139" vert-adv-y="2505" d="M52 -345l231 1153l18 99q7 34 7 44q0 48 -76 53l-18 1l18 93h405l-149 -743q-17 -84 -17 -115q0 -85 91 -85q101 0 206 138l161 805h296l-161 -808l-18 -99q-7 -35 -7 -44q0 -49 75 -53l19 -1l-19 -93h-404l36 182q-88 -119 -133 -157q-51 -44 -127 -44q-34 0 -69 19 l-69 -345h-296z" />
<glyph unicode="&#xb6;" horiz-adv-x="1106" vert-adv-y="2505" d="M303 1064q0 219 147 339q108 89 259 85l80 -2l194 -6h225l-356 -1776h-92l331 1653h-241l-331 -1653h-86l207 1036q-107 12 -162 36q-175 75 -175 288z" />
<glyph unicode="&#xb7;" horiz-adv-x="512" vert-adv-y="2505" d="M202 469l59 296h296l-59 -296h-296z" />
<glyph unicode="&#xb8;" horiz-adv-x="682" vert-adv-y="2505" d="M57 -407l17 85q69 -21 111 -21q107 0 107 83q0 71 -164 73l130 187h109l-79 -114q203 -13 203 -133q0 -82 -76 -133q-75 -52 -198 -52q-74 0 -160 25z" />
<glyph unicode="&#xb9;" horiz-adv-x="614" vert-adv-y="2505" d="M240 592l14 74q8 1 10 1q11 0 14 1q8 1 10 1l8 -1l5 2l5 -2l6 1q39 3 52 28t24 83l91 454q11 55 11 82q0 30 -41 30h-7q-11 0 -29 -2q-15 -1 -23 -2l14 72l314 89l-145 -723q-10 -50 -10 -77q0 -35 52 -35h4h16l9 -1q12 -1 17 -1l-14 -74h-407z" />
<glyph unicode="&#xba;" horiz-adv-x="676" vert-adv-y="2505" d="M258 1075q0 189 109 315q110 127 276 127q246 0 246 -251q0 -191 -110 -317t-282 -126q-239 0 -239 252zM447 1026q0 -122 77 -122q53 0 99 87q77 144 77 327q0 119 -71 119q-65 0 -118 -113q-64 -137 -64 -298z" />
<glyph unicode="&#xbb;" vert-adv-y="2505" d="M61 176l294 373l-145 376l87 58l359 -434l-530 -428zM528 173l295 376l-145 376l88 62l358 -438l-532 -438z" />
<glyph unicode="&#xbc;" horiz-adv-x="1536" vert-adv-y="2505" d="M165 -37l1419 1554h123l-1418 -1554h-124zM217 592l15 74q8 1 10 1q11 0 14 1q8 1 10 1q7 -1 8 -1l4 2l5 -2l6 1q39 3 52 28q14 23 25 83l90 454q11 56 11 82q0 30 -40 30h-8l-29 -2q-15 -1 -23 -2l14 72l314 89l-144 -723q-10 -50 -10 -77q0 -35 52 -35h4h16l9 -1 q12 -1 17 -1l-15 -74h-407zM880 238l25 125l442 536h171l-102 -513h98l-29 -148h-99l-11 -56q-10 -50 -10 -77q0 -31 45 -34l16 -1l12 -1l-14 -69h-356l14 69l11 1q57 2 71 27q13 24 26 85l11 56h-321zM1011 386h220l70 352z" />
<glyph unicode="&#xbd;" horiz-adv-x="1536" vert-adv-y="2505" d="M85 -37l1418 1554h124l-1419 -1554h-123zM167 592l15 74q8 1 10 1q11 0 14 1q8 1 10 1l7 -1l5 2l5 -2l6 1q40 3 53 28q13 26 24 83l91 454q11 55 11 82q0 30 -41 30h-8l-29 -2q-15 -1 -23 -2l15 72l314 89l-145 -723q-10 -50 -10 -77q0 -35 52 -35h4h15l10 -1 q12 -1 17 -1l-14 -74h-408zM934 34l31 155h82l-2 -11q-3 -19 -3 -34l-1 -11q0 -64 102 -64q80 0 133 71q54 72 54 169q0 146 -190 146h-50l14 70h53q237 0 237 227q0 112 -94 112q-102 0 -133 -113l-3 -11h-82l30 151q119 42 251 42q231 0 231 -170q0 -130 -114 -203 q-53 -35 -152 -61q88 -16 135 -50q68 -49 68 -144q0 -132 -106 -219q-105 -86 -275 -86q-131 0 -216 34z" />
<glyph unicode="&#xbe;" horiz-adv-x="1536" vert-adv-y="2505" d="M202 -37l1419 1554h123l-1418 -1554h-124zM207 604l31 155h81l-1 -11q-4 -31 -4 -44q0 -65 103 -65q79 0 132 71q53 72 53 168q0 147 -189 147h-50l14 69h53q236 0 236 228q0 111 -93 111q-53 0 -88 -29q-36 -32 -46 -83l-2 -11h-82l30 150q119 43 251 43q231 0 231 -173 q0 -127 -114 -200q-53 -35 -152 -61q89 -17 134 -50q68 -50 68 -145q0 -131 -105 -218q-105 -86 -275 -86q-132 0 -216 34zM893 238l25 125l441 536h172l-103 -513h99l-30 -148h-99l-11 -56q-9 -46 -9 -77q0 -32 44 -34l17 -1l11 -1l-14 -69h-355l14 69l11 1q56 2 70 27 q13 24 26 85l11 56h-320zM1024 386h219l70 352z" />
<glyph unicode="&#xbf;" vert-adv-y="2505" d="M43 -142q0 118 96 218q46 49 137 107l46 31q33 22 40 27l53 39q102 75 145 263l27 116l3 20h296l-3 -16q-32 -166 -211 -298l-75 -55q-233 -171 -233 -416q0 -221 203 -221q195 0 226 150l16 78l5 19h136l-55 -276q-206 -64 -409 -64q-206 0 -325 75q-118 75 -118 203z M625 851l49 247h296l-49 -247h-296z" />
<glyph unicode="&#xc0;" horiz-adv-x="1479" vert-adv-y="2505" d="M0 0l18 93l19 1q81 5 140 96l66 102l747 1201h103l270 -1203q41 -186 95 -194l27 -2l12 -1l-19 -93h-530l18 93l20 1l36 2q52 3 52 52q0 17 -12 75l-15 69l-35 158h-549l-100 -159q-87 -139 -87 -166q0 -26 44 -29l26 -2l18 -1l-19 -93h-345zM525 549h465l-122 549z M773 1925h299l176 -321h-132z" />
<glyph unicode="&#xc1;" horiz-adv-x="1479" vert-adv-y="2505" d="M0 0l18 93l19 1q81 5 140 96l66 102l747 1201h103l270 -1203q41 -186 95 -194l27 -2l12 -1l-19 -93h-530l18 93l20 1l36 2q52 3 52 52q0 17 -12 75l-15 69l-35 158h-549l-100 -159q-87 -139 -87 -166q0 -26 44 -29l26 -2l18 -1l-19 -93h-345zM525 549h465l-122 549z M880 1604l304 321h300l-472 -321h-132z" />
<glyph unicode="&#xc2;" horiz-adv-x="1479" vert-adv-y="2505" d="M0 0l18 93l19 1q81 5 140 96l66 102l747 1201h103l270 -1203q41 -186 95 -194l27 -2l12 -1l-19 -93h-530l18 93l20 1l36 2q52 3 52 52q0 17 -12 75l-15 69l-35 158h-549l-100 -159q-87 -139 -87 -166q0 -26 44 -29l26 -2l18 -1l-19 -93h-345zM525 549h465l-122 549z M700 1604l305 321h246l177 -321h-117l-208 194l-286 -194h-117z" />
<glyph unicode="&#xc3;" horiz-adv-x="1479" vert-adv-y="2505" d="M0 0l18 93l19 1q81 5 140 96l66 102l747 1201h103l270 -1203q41 -186 95 -194l27 -2l12 -1l-19 -93h-530l18 93l20 1l36 2q52 3 52 52q0 17 -12 75l-15 69l-35 158h-549l-100 -159q-87 -139 -87 -166q0 -26 44 -29l26 -2l18 -1l-19 -93h-345zM525 549h465l-122 549z M715 1604q26 106 65 163q69 102 188 102q65 0 127 -33l67 -36q66 -35 104 -35q80 0 107 104h93q-26 -106 -64 -163q-68 -102 -188 -102q-66 0 -128 33l-67 36q-66 35 -104 35q-80 0 -107 -104h-93z" />
<glyph unicode="&#xc4;" horiz-adv-x="1479" vert-adv-y="2505" d="M0 0l18 93l19 1q81 5 140 96l66 102l747 1201h103l270 -1203q41 -186 95 -194l27 -2l12 -1l-19 -93h-530l18 93l20 1l36 2q52 3 52 52q0 17 -12 75l-15 69l-35 158h-549l-100 -159q-87 -139 -87 -166q0 -26 44 -29l26 -2l18 -1l-19 -93h-345zM525 549h465l-122 549z M756 1604l41 210h210l-42 -210h-209zM1163 1604l42 210h209l-42 -210h-209z" />
<glyph unicode="&#xc5;" horiz-adv-x="1479" vert-adv-y="2505" d="M0 0l18 93l19 1q81 5 140 96l66 102l747 1201h103l270 -1203q41 -186 95 -194l27 -2l12 -1l-19 -93h-530l18 93l20 1l36 2q52 3 52 52q0 17 -12 75l-15 69l-35 158h-549l-100 -159q-87 -139 -87 -166q0 -26 44 -29l26 -2l18 -1l-19 -93h-345zM525 549h465l-122 549z M850 1683q0 109 87 195q88 86 199 86q83 0 138 -54q54 -53 54 -134q0 -110 -88 -195q-87 -86 -199 -86q-75 0 -127 43q-64 54 -64 145zM944 1699q0 -112 114 -112q63 0 112 42q64 55 64 130q0 112 -115 112q-69 0 -122 -52t-53 -120z" />
<glyph unicode="&#xc6;" horiz-adv-x="2048" vert-adv-y="2505" d="M0 0l19 93l19 1q65 5 133 90l82 101l975 1195h1014l-53 -265h-173l3 19q5 37 8 57v3q1 5 2 6q2 8 3 9q1 6 2 7l3 6l-1 3q-8 25 -17 33q-35 24 -120 24h-394l-113 -562h283l98 2q45 1 53 14q8 12 13 38q5 20 12 45l5 19h129l-64 -321h-129l2 18l2 11q2 14 3 25q2 9 2 19 q0 5 1 8v6q0 24 -51 26l-92 4h-284l-89 -444q-15 -75 -15 -133q0 -31 30 -42q18 -7 59 -8l81 -2h201l114 3q70 1 87 56l24 95l5 19h173l-56 -278h-1217l18 93l19 1q110 6 124 23q18 18 32 74l25 99l30 148h-524l-126 -153q-44 -53 -63 -80l-36 -50q-15 -21 -15 -32 q0 -24 58 -27l44 -2h18l-18 -94h-358zM579 530h459l149 745z" />
<glyph unicode="&#xc7;" horiz-adv-x="1479" vert-adv-y="2505" d="M210 551q0 367 228 647q260 319 752 319q225 0 475 -65l-61 -305h-173l4 19l8 58l2 17q4 24 4 35q0 58 -86 100q-87 43 -205 43q-279 0 -448 -265q-77 -122 -127 -307q-51 -187 -51 -349q0 -411 438 -411q200 0 470 110l-28 -140q-262 -94 -531 -94q-671 0 -671 588z M584 -407l17 85q69 -21 111 -21q107 0 107 83q0 71 -164 73l130 187h109l-79 -114q90 -6 136 -28q67 -33 67 -106q0 -81 -75 -132q-76 -52 -198 -52q-75 0 -161 25z" />
<glyph unicode="&#xc8;" horiz-adv-x="1366" vert-adv-y="2505" d="M55 0l19 93l19 1q115 7 126 26q17 20 30 71l25 99l180 901l14 98l7 34q-4 55 -124 64l-18 1l18 92h1209l-53 -265h-173l3 19l4 26q4 32 5 34q3 12 4 15q1 5 2 7q2 5 2 8q0 58 -136 58h-417l-113 -562h305l98 2q45 1 53 14q8 12 13 38q5 20 12 45l5 19h130l-65 -321h-129 l2 18q0 2 2 11l1 10q1 6 2 15l1 4q3 16 3 30q0 23 -51 25l-93 4h-306l-89 -444q-16 -80 -16 -133q0 -31 30 -42q19 -7 59 -8l82 -2h223l114 3q70 1 87 56l24 95l5 19h173l-56 -278h-1252zM687 1925h299l177 -321h-133z" />
<glyph unicode="&#xc9;" horiz-adv-x="1366" vert-adv-y="2505" d="M55 0l19 93l19 1q115 7 126 26q17 20 30 71l25 99l180 901l14 98l7 34q-4 55 -124 64l-18 1l18 92h1209l-53 -265h-173l3 19l4 26q4 32 5 34q3 12 4 15q1 5 2 7q2 5 2 8q0 58 -136 58h-417l-113 -562h305l98 2q45 1 53 14q8 12 13 38q5 20 12 45l5 19h130l-65 -321h-129 l2 18q0 2 2 11l1 10q1 6 2 15l1 4q3 16 3 30q0 23 -51 25l-93 4h-306l-89 -444q-16 -80 -16 -133q0 -31 30 -42q19 -7 59 -8l82 -2h223l114 3q70 1 87 56l24 95l5 19h173l-56 -278h-1252zM845 1604l305 321h299l-471 -321h-133z" />
<glyph unicode="&#xca;" horiz-adv-x="1366" vert-adv-y="2505" d="M55 0l19 93l19 1q115 7 126 26q17 20 30 71l25 99l180 901l14 98l7 34q-4 55 -124 64l-18 1l18 92h1209l-53 -265h-173l3 19l4 26q4 32 5 34q3 12 4 15q1 5 2 7q2 5 2 8q0 58 -136 58h-417l-113 -562h305l98 2q45 1 53 14q8 12 13 38q5 20 12 45l5 19h130l-65 -321h-129 l2 18q0 2 2 11l1 10q1 6 2 15l1 4q3 16 3 30q0 23 -51 25l-93 4h-306l-89 -444q-16 -80 -16 -133q0 -31 30 -42q19 -7 59 -8l82 -2h223l114 3q70 1 87 56l24 95l5 19h173l-56 -278h-1252zM691 1604l304 321h247l176 -321h-117l-207 194l-286 -194h-117z" />
<glyph unicode="&#xcb;" horiz-adv-x="1366" vert-adv-y="2505" d="M55 0l19 93l19 1q115 7 126 26q17 20 30 71l25 99l180 901l14 98l7 34q-4 55 -124 64l-18 1l18 92h1209l-53 -265h-173l3 19l4 26q4 32 5 34q3 12 4 15q1 5 2 7q2 5 2 8q0 58 -136 58h-417l-113 -562h305l98 2q45 1 53 14q8 12 13 38q5 20 12 45l5 19h130l-65 -321h-129 l2 18q0 2 2 11l1 10q1 6 2 15l1 4q3 16 3 30q0 23 -51 25l-93 4h-306l-89 -444q-16 -80 -16 -133q0 -31 30 -42q19 -7 59 -8l82 -2h223l114 3q70 1 87 56l24 95l5 19h173l-56 -278h-1252zM746 1604l42 210h210l-42 -210h-210zM1153 1604l42 210h210l-42 -210h-210z" />
<glyph unicode="&#xcc;" horiz-adv-x="797" vert-adv-y="2505" d="M84 0l19 93l18 1q115 7 127 26q16 19 29 71l25 99l180 901l15 98l7 34q-5 55 -124 64l-18 1l18 92h629l-18 -92l-19 -1q-118 -9 -127 -27q-16 -18 -29 -71l-25 -98l-180 -901l-15 -99l-6 -34q4 -55 123 -63l19 -1l-19 -93h-629zM469 1925h299l177 -321h-133z" />
<glyph unicode="&#xcd;" horiz-adv-x="797" vert-adv-y="2505" d="M84 0l19 93l18 1q115 7 127 26q16 19 29 71l25 99l180 901l15 98l7 34q-5 55 -124 64l-18 1l18 92h629l-18 -92l-19 -1q-118 -9 -127 -27q-16 -18 -29 -71l-25 -98l-180 -901l-15 -99l-6 -34q4 -55 123 -63l19 -1l-19 -93h-629zM494 1604l305 321h299l-471 -321h-133z " />
<glyph unicode="&#xce;" horiz-adv-x="797" vert-adv-y="2505" d="M84 0l19 93l18 1q115 7 127 26q16 19 29 71l25 99l180 901l15 98l7 34q-5 55 -124 64l-18 1l18 92h629l-18 -92l-19 -1q-118 -9 -127 -27q-16 -18 -29 -71l-25 -98l-180 -901l-15 -99l-6 -34q4 -55 123 -63l19 -1l-19 -93h-629zM355 1604l305 321h247l176 -321h-117 l-208 194l-285 -194h-118z" />
<glyph unicode="&#xcf;" horiz-adv-x="797" vert-adv-y="2505" d="M84 0l19 93l18 1q115 7 127 26q16 19 29 71l25 99l180 901l15 98l7 34q-5 55 -124 64l-18 1l18 92h629l-18 -92l-19 -1q-118 -9 -127 -27q-16 -18 -29 -71l-25 -98l-180 -901l-15 -99l-6 -34q4 -55 123 -63l19 -1l-19 -93h-629zM411 1604l42 210h210l-42 -210h-210z M818 1604l42 210h210l-42 -210h-210z" />
<glyph unicode="&#xd0;" horiz-adv-x="1479" vert-adv-y="2505" d="M43 0l19 93l18 1q70 5 84 28q14 20 24 69l22 99l82 413h-108l19 99h109l78 389l18 98q7 35 7 45q0 49 -76 53l-18 1l18 92h434l74 1l92 2l74 1q213 3 350 -77q215 -127 215 -451q0 -316 -185 -588q-250 -368 -689 -368h-661zM504 179q0 -49 58 -63q43 -11 122 -11 q244 0 411 278q161 269 161 599q0 201 -110 299q-112 101 -346 101h-65l-116 -580h296l-20 -99h-296l-82 -413q-13 -66 -13 -111z" />
<glyph unicode="&#xd1;" horiz-adv-x="1479" vert-adv-y="2505" d="M44 0l19 93l18 1q115 7 127 26q16 19 29 71l25 99l180 901l15 98l7 34q-5 55 -124 64l-18 1l18 92h385l448 -1099l162 810l15 98l7 35q-5 55 -124 63l-19 1l19 92h466l-18 -92l-19 -1q-117 -9 -126 -27q-16 -18 -29 -71l-25 -98l-242 -1212h-218l-455 1102l-158 -791 l-14 -99l-7 -34q4 -55 124 -63l18 -1l-19 -93h-467zM706 1604q26 106 65 163q69 102 188 102q66 0 127 -33l67 -36q65 -35 104 -35q80 0 107 104h93q-26 -107 -64 -163q-68 -102 -188 -102q-66 0 -128 33l-67 36q-66 35 -104 35q-80 0 -107 -104h-93z" />
<glyph unicode="&#xd2;" horiz-adv-x="1593" vert-adv-y="2505" d="M207 544q0 405 259 688q260 285 636 285q280 0 436 -151q157 -151 157 -431q0 -409 -262 -690q-263 -282 -650 -282q-240 0 -389 125q-187 155 -187 456zM524 465q0 -403 288 -403q214 0 363 226q98 148 151 344q51 183 51 381q0 406 -295 406q-233 0 -391 -283 q-167 -300 -167 -671zM780 1925h300l176 -321h-133z" />
<glyph unicode="&#xd3;" horiz-adv-x="1593" vert-adv-y="2505" d="M207 544q0 405 259 688q260 285 636 285q280 0 436 -151q157 -151 157 -431q0 -409 -262 -690q-263 -282 -650 -282q-240 0 -389 125q-187 155 -187 456zM524 465q0 -403 288 -403q214 0 363 226q98 148 151 344q51 183 51 381q0 406 -295 406q-233 0 -391 -283 q-167 -300 -167 -671zM991 1604l304 321h300l-472 -321h-132z" />
<glyph unicode="&#xd4;" horiz-adv-x="1593" vert-adv-y="2505" d="M207 544q0 405 259 688q260 285 636 285q280 0 436 -151q157 -151 157 -431q0 -409 -262 -690q-263 -282 -650 -282q-240 0 -389 125q-187 155 -187 456zM524 465q0 -403 288 -403q214 0 363 226q98 148 151 344q51 183 51 381q0 406 -295 406q-233 0 -391 -283 q-167 -300 -167 -671zM759 1604l305 321h247l176 -321h-117l-208 194l-285 -194h-118z" />
<glyph unicode="&#xd5;" horiz-adv-x="1593" vert-adv-y="2505" d="M207 544q0 405 259 688q260 285 636 285q280 0 436 -151q157 -151 157 -431q0 -409 -262 -690q-263 -282 -650 -282q-240 0 -389 125q-187 155 -187 456zM524 465q0 -403 288 -403q214 0 363 226q98 148 151 344q51 183 51 381q0 406 -295 406q-233 0 -391 -283 q-167 -300 -167 -671zM775 1604q26 106 64 163q69 102 189 102q64 0 126 -33l67 -36q66 -35 104 -35q80 0 107 104h93q-26 -106 -64 -163q-68 -102 -188 -102q-66 0 -127 33l-67 36q-65 35 -104 35q-80 0 -108 -104h-92z" />
<glyph unicode="&#xd6;" horiz-adv-x="1593" vert-adv-y="2505" d="M207 544q0 405 259 688q260 285 636 285q280 0 436 -151q157 -151 157 -431q0 -409 -262 -690q-263 -282 -650 -282q-240 0 -389 125q-187 155 -187 456zM524 465q0 -403 288 -403q214 0 363 226q98 148 151 344q51 183 51 381q0 406 -295 406q-233 0 -391 -283 q-167 -300 -167 -671zM815 1604l42 210h210l-42 -210h-210zM1222 1604l42 210h210l-42 -210h-210z" />
<glyph unicode="&#xd7;" horiz-adv-x="1167" vert-adv-y="2505" d="M152 243l450 375l-300 375l125 105l301 -375l450 375l83 -105l-450 -375l300 -375l-125 -105l-300 375l-451 -375z" />
<glyph unicode="&#xd8;" horiz-adv-x="1593" vert-adv-y="2505" d="M67 -37l233 223q-99 166 -99 361q0 404 260 687q259 283 638 283q261 0 434 -153l160 153h130l-233 -222q98 -166 98 -362q0 -400 -259 -685q-258 -285 -633 -285q-259 0 -440 153l-160 -153h-129zM519 478l2 -81l830 794q-36 126 -110 179q-67 49 -166 49 q-246 0 -402 -306q-77 -150 -123 -369q-33 -158 -31 -266zM538 290q35 -126 110 -179q66 -49 166 -49q247 0 402 307q77 151 123 367q34 159 31 268l-2 79z" />
<glyph unicode="&#xd9;" horiz-adv-x="1479" vert-adv-y="2505" d="M267 349q0 89 25 214l124 621l14 99l7 34q-4 56 -124 64l-18 1l20 98h629l-18 -92l-19 -1q-116 -9 -126 -27q-16 -19 -29 -71l-25 -98l-128 -640q-34 -170 -34 -254q0 -237 249 -237q182 0 290 120q109 120 161 379l126 632l15 98l7 35q-5 54 -124 63l-18 1l18 92h466 l-19 -92l-19 -1q-113 -8 -124 -26q-16 -19 -29 -72l-25 -98l-121 -608q-63 -318 -225 -469t-442 -151q-223 0 -353 103q-131 102 -131 283zM774 1925h299l176 -321h-132z" />
<glyph unicode="&#xda;" horiz-adv-x="1479" vert-adv-y="2505" d="M267 349q0 89 25 214l124 621l14 99l7 34q-4 56 -124 64l-18 1l20 98h629l-18 -92l-19 -1q-116 -9 -126 -27q-16 -19 -29 -71l-25 -98l-128 -640q-34 -170 -34 -254q0 -237 249 -237q182 0 290 120q109 120 161 379l126 632l15 98l7 35q-5 54 -124 63l-18 1l18 92h466 l-19 -92l-19 -1q-113 -8 -124 -26q-16 -19 -29 -72l-25 -98l-121 -608q-63 -318 -225 -469t-442 -151q-223 0 -353 103q-131 102 -131 283zM984 1604l305 321h299l-471 -321h-133z" />
<glyph unicode="&#xdb;" horiz-adv-x="1479" vert-adv-y="2505" d="M267 349q0 89 25 214l124 621l14 99l7 34q-4 56 -124 64l-18 1l20 98h629l-18 -92l-19 -1q-116 -9 -126 -27q-16 -19 -29 -71l-25 -98l-128 -640q-34 -170 -34 -254q0 -237 249 -237q182 0 290 120q109 120 161 379l126 632l15 98l7 35q-5 54 -124 63l-18 1l18 92h466 l-19 -92l-19 -1q-113 -8 -124 -26q-16 -19 -29 -72l-25 -98l-121 -608q-63 -318 -225 -469t-442 -151q-223 0 -353 103q-131 102 -131 283zM753 1604l304 321h247l177 -321h-118l-207 194l-286 -194h-117z" />
<glyph unicode="&#xdc;" horiz-adv-x="1479" vert-adv-y="2505" d="M267 349q0 89 25 214l124 621l14 99l7 34q-4 56 -124 64l-18 1l20 98h629l-18 -92l-19 -1q-116 -9 -126 -27q-16 -19 -29 -71l-25 -98l-128 -640q-34 -170 -34 -254q0 -237 249 -237q182 0 290 120q109 120 161 379l126 632l15 98l7 35q-5 54 -124 63l-18 1l18 92h466 l-19 -92l-19 -1q-113 -8 -124 -26q-16 -19 -29 -72l-25 -98l-121 -608q-63 -318 -225 -469t-442 -151q-223 0 -353 103q-131 102 -131 283zM808 1604l42 210h210l-42 -210h-210zM1215 1604l42 210h210l-42 -210h-210z" />
<glyph unicode="&#xdd;" horiz-adv-x="1479" vert-adv-y="2505" d="M280 1388l18 92h642l-19 -92h-16l-50 -1q-75 -1 -75 -40q0 -41 51 -166l169 -412l339 412q120 146 120 177q0 30 -90 30h-22l18 92h407l-18 -92l-19 -1l-44 -4q-59 -6 -108 -66l-114 -135l-452 -540l-70 -352l-14 -99l-7 -34q4 -55 124 -63l18 -1l-19 -93h-629l19 93 l19 1q115 7 126 26q17 20 30 71l25 99l70 350l-227 542l-19 44l-14 34q-12 28 -15 38q-28 82 -82 86l-53 3zM927 1604l305 321h299l-471 -321h-133z" />
<glyph unicode="&#xde;" horiz-adv-x="1258" vert-adv-y="2505" d="M43 0l19 93l18 1q115 7 127 26q16 19 29 71l25 99l180 901l15 98l7 34q-5 55 -124 64l-18 1l18 92h617l-19 -92l-18 -1q-107 -8 -130 -50q-24 -40 -53 -153h95q330 0 423 -51q131 -72 131 -243q0 -198 -138 -362q-186 -220 -590 -220h-96q-2 -14 -8 -45l-7 -44l-3 -18 q-2 -8 -3 -16q-5 -22 -5 -44q0 -36 67 -42l58 -5l18 -1l-18 -93h-617zM581 407h63q190 0 307 131q118 133 118 339q0 209 -241 209h-111z" />
<glyph unicode="&#xdf;" horiz-adv-x="1139" vert-adv-y="2505" d="M31 0l19 93l18 1q76 5 96 97l21 99l165 824q98 491 529 491q149 0 241 -62t92 -160q0 -130 -184 -254l-49 -33q-138 -93 -138 -160q0 -44 69 -116l54 -56l92 -110l71 -83q70 -82 70 -189q0 -160 -128 -283q-128 -124 -300 -124q-109 0 -201 44l48 240h98l-2 -18l-2 -17 l-2 -16l-2 -15l-2 -14q-4 -34 -4 -48q0 -63 72 -63t120 60q49 59 49 143q0 57 -80 160l-85 109l-87 93q-51 54 -51 142q0 126 158 266l35 31q119 106 119 302q0 137 -107 137q-87 0 -131 -98q-32 -72 -62 -219l-181 -904l-18 -99q-6 -33 -6 -49q0 -45 50 -48l18 -1l-18 -93 h-464z" />
<glyph unicode="&#xe0;" vert-adv-y="2505" d="M108 218q0 199 159 317q158 119 431 119h50l26 133q21 108 21 142q0 101 -107 101q-134 0 -166 -134l-15 -63l-5 -19h-185l44 222q203 87 388 87q331 0 331 -245q0 -43 -9 -88l-96 -482l-14 -86l-10 -60q-2 -11 -2 -22q0 -52 51 -52q13 0 30 5l-19 -97q-77 -21 -129 -21 q-145 0 -198 152q-160 -152 -320 -152q-117 0 -186 65q-70 64 -70 178zM413 257q0 -124 102 -124q56 0 124 53l18 14l73 364h-39q-124 0 -201 -86t-77 -221zM441 1604h299l176 -321h-132z" />
<glyph unicode="&#xe1;" vert-adv-y="2505" d="M108 218q0 199 159 317q158 119 431 119h50l26 133q21 108 21 142q0 101 -107 101q-134 0 -166 -134l-15 -63l-5 -19h-185l44 222q203 87 388 87q331 0 331 -245q0 -43 -9 -88l-96 -482l-14 -86l-10 -60q-2 -11 -2 -22q0 -52 51 -52q13 0 30 5l-19 -97q-77 -21 -129 -21 q-145 0 -198 152q-160 -152 -320 -152q-117 0 -186 65q-70 64 -70 178zM413 257q0 -124 102 -124q56 0 124 53l18 14l73 364h-39q-124 0 -201 -86t-77 -221zM602 1283l305 321h299l-471 -321h-133z" />
<glyph unicode="&#xe2;" vert-adv-y="2505" d="M108 218q0 199 159 317q158 119 431 119h50l26 133q21 108 21 142q0 101 -107 101q-134 0 -166 -134l-15 -63l-5 -19h-185l44 222q203 87 388 87q331 0 331 -245q0 -43 -9 -88l-96 -482l-14 -86l-10 -60q-2 -11 -2 -22q0 -52 51 -52q13 0 30 5l-19 -97q-77 -21 -129 -21 q-145 0 -198 152q-160 -152 -320 -152q-117 0 -186 65q-70 64 -70 178zM413 257q0 -124 102 -124q56 0 124 53l18 14l73 364h-39q-124 0 -201 -86t-77 -221zM417 1283l304 321h247l177 -321h-118l-207 194l-286 -194h-117z" />
<glyph unicode="&#xe3;" vert-adv-y="2505" d="M108 218q0 199 159 317q158 119 431 119h50l26 133q21 108 21 142q0 101 -107 101q-134 0 -166 -134l-15 -63l-5 -19h-185l44 222q203 87 388 87q331 0 331 -245q0 -43 -9 -88l-96 -482l-14 -86l-10 -60q-2 -11 -2 -22q0 -52 51 -52q13 0 30 5l-19 -97q-77 -21 -129 -21 q-145 0 -198 152q-160 -152 -320 -152q-117 0 -186 65q-70 64 -70 178zM413 257q0 -124 102 -124q56 0 124 53l18 14l73 364h-39q-124 0 -201 -86t-77 -221zM423 1283q26 107 64 164q69 102 187 102q65 0 128 -34l67 -36q66 -35 103 -35q81 0 108 105h93q-26 -107 -64 -164 q-68 -102 -187 -102q-63 0 -128 34l-67 35q-69 36 -104 36q-81 0 -108 -105h-92z" />
<glyph unicode="&#xe4;" vert-adv-y="2505" d="M108 218q0 199 159 317q158 119 431 119h50l26 133q21 108 21 142q0 101 -107 101q-134 0 -166 -134l-15 -63l-5 -19h-185l44 222q203 87 388 87q331 0 331 -245q0 -43 -9 -88l-96 -482l-14 -86l-10 -60q-2 -11 -2 -22q0 -52 51 -52q13 0 30 5l-19 -97q-77 -21 -129 -21 q-145 0 -198 152q-160 -152 -320 -152q-117 0 -186 65q-70 64 -70 178zM413 257q0 -124 102 -124q56 0 124 53l18 14l73 364h-39q-124 0 -201 -86t-77 -221zM466 1283l42 210h209l-42 -210h-209zM873 1283l42 210h209l-42 -210h-209z" />
<glyph unicode="&#xe5;" vert-adv-y="2505" d="M108 218q0 199 159 317q158 119 431 119h50l26 133q21 108 21 142q0 101 -107 101q-134 0 -166 -134l-15 -63l-5 -19h-185l44 222q203 87 388 87q331 0 331 -245q0 -43 -9 -88l-96 -482l-14 -86l-10 -60q-2 -11 -2 -22q0 -52 51 -52q13 0 30 5l-19 -97q-77 -21 -129 -21 q-145 0 -198 152q-160 -152 -320 -152q-117 0 -186 65q-70 64 -70 178zM413 257q0 -124 102 -124q56 0 124 53l18 14l73 364h-39q-124 0 -201 -86t-77 -221zM567 1471q0 110 87 195q88 86 199 86q84 0 138 -53t54 -135q0 -110 -88 -195q-87 -86 -200 -86q-75 0 -125 43 q-65 55 -65 145zM661 1488q0 -112 114 -112q63 0 112 42q64 54 64 129q0 112 -115 112q-69 0 -122 -52q-53 -51 -53 -119z" />
<glyph unicode="&#xe6;" horiz-adv-x="1479" vert-adv-y="2505" d="M108 218q0 199 159 317q158 119 431 119h50l26 133q21 108 21 142q0 101 -107 101q-134 0 -166 -134l-15 -63l-5 -19h-185l44 222q203 87 386 87q172 0 268 -81q128 81 269 81q279 0 279 -300q0 -131 -30 -262l-5 -22h-507q-23 -124 -23 -203q0 -212 192 -212 q116 0 269 69l-30 -150q-179 -68 -340 -68q-156 0 -236 57q-64 44 -122 147q-187 -204 -368 -204q-116 0 -185 65q-70 64 -70 178zM413 257q0 -124 102 -124q56 0 124 53l18 14l73 364h-39q-124 0 -201 -86t-77 -221zM1047 632h208q46 231 46 311q0 87 -54 87 q-109 0 -200 -398z" />
<glyph unicode="&#xe7;" horiz-adv-x="909" vert-adv-y="2505" d="M141 384q0 308 186 524q186 215 462 215q134 0 269 -50l-57 -283h-167l3 18l10 74q0 2 1 17v7q0 124 -89 124q-115 0 -201 -198q-107 -247 -107 -480q0 -232 199 -232q95 0 231 55l-29 -149q-174 -51 -293 -51q-197 0 -307 105q-111 105 -111 304zM278 -407l17 85 q69 -21 111 -21q107 0 107 83q0 71 -164 73l130 187h109l-79 -114q203 -13 203 -133q0 -82 -76 -133q-75 -52 -198 -52q-74 0 -160 25z" />
<glyph unicode="&#xe8;" horiz-adv-x="909" vert-adv-y="2505" d="M140 377q0 310 169 528q168 218 414 218q279 0 279 -302q0 -130 -30 -260l-5 -22h-507q-23 -131 -23 -203q0 -212 192 -212q116 0 269 69l-30 -150q-181 -68 -338 -68q-390 0 -390 402zM486 632h208q46 231 46 311q0 87 -54 87q-109 0 -200 -398zM448 1604h299l176 -321 h-132z" />
<glyph unicode="&#xe9;" horiz-adv-x="909" vert-adv-y="2505" d="M140 377q0 310 169 528q168 218 414 218q279 0 279 -302q0 -130 -30 -260l-5 -22h-507q-23 -131 -23 -203q0 -212 192 -212q116 0 269 69l-30 -150q-181 -68 -338 -68q-390 0 -390 402zM486 632h208q46 231 46 311q0 87 -54 87q-109 0 -200 -398zM584 1283l305 321h299 l-471 -321h-133z" />
<glyph unicode="&#xea;" horiz-adv-x="909" vert-adv-y="2505" d="M140 377q0 310 169 528q168 218 414 218q279 0 279 -302q0 -130 -30 -260l-5 -22h-507q-23 -131 -23 -203q0 -212 192 -212q116 0 269 69l-30 -150q-181 -68 -338 -68q-390 0 -390 402zM486 632h208q46 231 46 311q0 87 -54 87q-109 0 -200 -398zM390 1283l304 321h247 l177 -321h-118l-207 194l-286 -194h-117z" />
<glyph unicode="&#xeb;" horiz-adv-x="909" vert-adv-y="2505" d="M140 377q0 310 169 528q168 218 414 218q279 0 279 -302q0 -130 -30 -260l-5 -22h-507q-23 -131 -23 -203q0 -212 192 -212q116 0 269 69l-30 -150q-181 -68 -338 -68q-390 0 -390 402zM486 632h208q46 231 46 311q0 87 -54 87q-109 0 -200 -398zM445 1283l42 210h209 l-42 -210h-209zM852 1283l42 210h209l-42 -210h-209z" />
<glyph unicode="&#xec;" horiz-adv-x="569" vert-adv-y="2505" d="M40 0l18 93l19 1q66 4 81 25q15 19 27 72l21 99l104 518l18 99q7 34 7 44q0 49 -76 53l-18 1l18 93h405l-162 -808l-17 -99q-7 -34 -7 -44q0 -49 75 -53l19 -1l-19 -93h-513zM320 1604h299l176 -321h-132z" />
<glyph unicode="&#xed;" horiz-adv-x="569" vert-adv-y="2505" d="M40 0l18 93l19 1q66 4 81 25q15 19 27 72l21 99l104 518l18 99q7 34 7 44q0 49 -76 53l-18 1l18 93h405l-162 -808l-17 -99q-7 -34 -7 -44q0 -49 75 -53l19 -1l-19 -93h-513zM285 1283l305 321h299l-471 -321h-133z" />
<glyph unicode="&#xee;" horiz-adv-x="569" vert-adv-y="2505" d="M40 0l18 93l19 1q66 4 81 25q15 19 27 72l21 99l104 518l18 99q7 34 7 44q0 49 -76 53l-18 1l18 93h405l-162 -808l-17 -99q-7 -34 -7 -44q0 -49 75 -53l19 -1l-19 -93h-513zM177 1283l304 321h247l177 -321h-118l-207 194l-286 -194h-117z" />
<glyph unicode="&#xef;" horiz-adv-x="569" vert-adv-y="2505" d="M40 0l18 93l19 1q66 4 81 25q15 19 27 72l21 99l104 518l18 99q7 34 7 44q0 49 -76 53l-18 1l18 93h405l-162 -808l-17 -99q-7 -34 -7 -44q0 -49 75 -53l19 -1l-19 -93h-513zM232 1283l42 210h210l-42 -210h-210zM639 1283l42 210h210l-42 -210h-210z" />
<glyph unicode="&#xf0;" vert-adv-y="2505" d="M136 383q0 275 167 482q167 208 387 208q63 0 130 -29q-39 153 -141 277l-287 -236l-36 68l266 220q-116 93 -279 114l19 92h30q196 0 364 -96l239 195l37 -69l-205 -168q131 -115 198 -236q98 -178 98 -412q0 -334 -182 -576t-438 -242q-170 0 -268 108q-99 108 -99 300 zM424 230q0 -162 120 -162q99 0 158 172q47 133 87 360q26 148 26 240q0 141 -99 141q-126 0 -199 -239q-41 -131 -68 -281q-25 -136 -25 -231z" />
<glyph unicode="&#xf1;" horiz-adv-x="1139" vert-adv-y="2505" d="M31 0l19 93l19 1q69 5 83 28q14 20 24 69l22 99l104 518l18 99q7 34 7 44q0 49 -76 53l-18 1l18 93h405l-37 -182q68 93 135 139q98 68 217 68q224 0 224 -211q0 -60 -15 -135l-97 -487l-18 -99q-7 -34 -7 -44q0 -49 75 -53l19 -1l-19 -93h-501l19 93l19 1q75 5 95 97 l22 99l90 453q17 86 17 115q0 85 -91 85q-101 0 -206 -138l-103 -515l-18 -99q-7 -35 -7 -47q0 -47 63 -50l19 -1l-19 -93h-501zM471 1283q26 107 64 164q69 102 187 102q65 0 128 -34l67 -36q66 -35 103 -35q81 0 108 105h93q-26 -107 -64 -164q-68 -102 -187 -102 q-63 0 -128 34l-67 35q-69 36 -104 36q-81 0 -108 -105h-92z" />
<glyph unicode="&#xf2;" vert-adv-y="2505" d="M141 387q0 309 174 522q175 214 433 214q366 0 366 -412q0 -311 -175 -523q-174 -213 -437 -213q-361 0 -361 412zM439 280q0 -200 97 -200q76 0 153 163q127 270 127 577q0 198 -94 198q-80 0 -157 -166q-126 -271 -126 -572zM468 1604h299l176 -321h-132z" />
<glyph unicode="&#xf3;" vert-adv-y="2505" d="M141 387q0 309 174 522q175 214 433 214q366 0 366 -412q0 -311 -175 -523q-174 -213 -437 -213q-361 0 -361 412zM439 280q0 -200 97 -200q76 0 153 163q127 270 127 577q0 198 -94 198q-80 0 -157 -166q-126 -271 -126 -572zM605 1283l305 321h299l-471 -321h-133z" />
<glyph unicode="&#xf4;" vert-adv-y="2505" d="M141 387q0 309 174 522q175 214 433 214q366 0 366 -412q0 -311 -175 -523q-174 -213 -437 -213q-361 0 -361 412zM439 280q0 -200 97 -200q76 0 153 163q127 270 127 577q0 198 -94 198q-80 0 -157 -166q-126 -271 -126 -572zM410 1283l304 321h247l177 -321h-118 l-207 194l-286 -194h-117z" />
<glyph unicode="&#xf5;" vert-adv-y="2505" d="M141 387q0 309 174 522q175 214 433 214q366 0 366 -412q0 -311 -175 -523q-174 -213 -437 -213q-361 0 -361 412zM439 280q0 -200 97 -200q76 0 153 163q127 270 127 577q0 198 -94 198q-80 0 -157 -166q-126 -271 -126 -572zM426 1283q26 107 64 164q69 102 187 102 q65 0 128 -34l67 -36q66 -35 103 -35q81 0 108 105h93q-26 -107 -64 -164q-68 -102 -187 -102q-63 0 -128 34l-67 35q-69 36 -104 36q-81 0 -108 -105h-92z" />
<glyph unicode="&#xf6;" vert-adv-y="2505" d="M141 387q0 309 174 522q175 214 433 214q366 0 366 -412q0 -311 -175 -523q-174 -213 -437 -213q-361 0 -361 412zM439 280q0 -200 97 -200q76 0 153 163q127 270 127 577q0 198 -94 198q-80 0 -157 -166q-126 -271 -126 -572zM466 1283l42 210h209l-42 -210h-209z M873 1283l42 210h209l-42 -210h-209z" />
<glyph unicode="&#xf7;" horiz-adv-x="1167" vert-adv-y="2505" d="M194 518l29 148h987l-29 -148h-987zM465 25l49 246h247l-49 -246h-247zM643 913l49 247h247l-50 -247h-246z" />
<glyph unicode="&#xf8;" vert-adv-y="2505" d="M38 -25l152 164q-54 107 -54 249q0 307 173 521t430 214q168 0 270 -101l93 101h103l-152 -164q55 -108 55 -248q0 -307 -174 -522q-173 -214 -428 -214q-167 0 -271 101l-93 -101h-104zM433 290q3 -210 96 -210q92 0 160 158q61 143 110 447zM444 413l366 395 q-3 210 -96 210q-92 0 -159 -158q-62 -144 -111 -447z" />
<glyph unicode="&#xf9;" horiz-adv-x="1139" vert-adv-y="2505" d="M165 189q0 62 14 132l98 487l18 99q7 33 7 44q0 49 -76 53l-18 1l18 93h405l-149 -743q-17 -85 -17 -115q0 -85 91 -85q101 0 206 138l103 515l18 99q7 34 7 47q0 47 -63 50l-19 1l19 93h392l-161 -808l-18 -99q-7 -35 -7 -44q0 -49 75 -53l19 -1l-19 -93h-404l36 182 q-152 -207 -352 -207q-223 0 -223 214zM543 1604h299l176 -321h-132z" />
<glyph unicode="&#xfa;" horiz-adv-x="1139" vert-adv-y="2505" d="M165 189q0 62 14 132l98 487l18 99q7 33 7 44q0 49 -76 53l-18 1l18 93h405l-149 -743q-17 -85 -17 -115q0 -85 91 -85q101 0 206 138l103 515l18 99q7 34 7 47q0 47 -63 50l-19 1l19 93h392l-161 -808l-18 -99q-7 -35 -7 -44q0 -49 75 -53l19 -1l-19 -93h-404l36 182 q-152 -207 -352 -207q-223 0 -223 214zM609 1283l305 321h299l-471 -321h-133z" />
<glyph unicode="&#xfb;" horiz-adv-x="1139" vert-adv-y="2505" d="M165 189q0 62 14 132l98 487l18 99q7 33 7 44q0 49 -76 53l-18 1l18 93h405l-149 -743q-17 -85 -17 -115q0 -85 91 -85q101 0 206 138l103 515l18 99q7 34 7 47q0 47 -63 50l-19 1l19 93h392l-161 -808l-18 -99q-7 -35 -7 -44q0 -49 75 -53l19 -1l-19 -93h-404l36 182 q-152 -207 -352 -207q-223 0 -223 214zM450 1283l304 321h247l177 -321h-118l-207 194l-286 -194h-117z" />
<glyph unicode="&#xfc;" horiz-adv-x="1139" vert-adv-y="2505" d="M165 189q0 62 14 132l98 487l18 99q7 33 7 44q0 49 -76 53l-18 1l18 93h405l-149 -743q-17 -85 -17 -115q0 -85 91 -85q101 0 206 138l103 515l18 99q7 34 7 47q0 47 -63 50l-19 1l19 93h392l-161 -808l-18 -99q-7 -35 -7 -44q0 -49 75 -53l19 -1l-19 -93h-404l36 182 q-152 -207 -352 -207q-223 0 -223 214zM495 1283l42 210h209l-42 -210h-209zM902 1283l42 210h209l-42 -210h-209z" />
<glyph unicode="&#xfd;" vert-adv-y="2505" d="M71 -395l406 401l-158 798l-20 104q-18 92 -79 96l-19 1l19 93h523l-19 -93l-19 -1h-10q-13 -1 -16 -1l-10 1l-7 -2q-28 -9 -33.5 -12.5t-11.5 -15.5q-11 -21 -11 -38q0 -2 2 -15l1 -11q5 -46 17 -106l79 -410l229 410l10 19l10 17l14 27l31 63q13 26 13 46q0 23 -44 26 l-27 2l-19 1l19 93h303l-19 -93l-18 -1l-29 -1q-49 -3 -94 -94q-4 -7 -11 -21l-45 -81l-670 -1202h-287zM701 1283l305 321h299l-471 -321h-133z" />
<glyph unicode="&#xfe;" horiz-adv-x="1139" vert-adv-y="2505" d="M-79 -395l18 93l19 1q66 4 81 25q15 19 27 72l21 99l279 1394l18 99q7 33 7 44q0 46 -75 53l-19 2l19 92h404l-132 -663q63 93 125 139q91 68 206 68q309 0 309 -382q0 -321 -185 -543q-184 -223 -453 -223q-79 0 -186 25l-20 -105l-18 -99q-7 -34 -7 -44q0 -49 75 -53 l19 -1l-19 -93h-513zM438 166q88 -50 147 -50q131 0 228 183q98 184 98 425q0 208 -142 208q-101 0 -202 -119z" />
<glyph unicode="&#xff;" vert-adv-y="2505" d="M71 -395l406 401l-158 798l-20 104q-18 92 -79 96l-19 1l19 93h523l-19 -93l-19 -1h-10q-13 -1 -16 -1l-10 1l-7 -2q-28 -9 -33.5 -12.5t-11.5 -15.5q-11 -21 -11 -38q0 -2 2 -15l1 -11q5 -46 17 -106l79 -410l229 410l10 19l10 17l14 27l31 63q13 26 13 46q0 23 -44 26 l-27 2l-19 1l19 93h303l-19 -93l-18 -1l-29 -1q-49 -3 -94 -94q-4 -7 -11 -21l-45 -81l-670 -1202h-287zM570 1283l42 210h210l-42 -210h-210zM977 1283l42 210h210l-42 -210h-210z" />
<glyph unicode="&#x100;" horiz-adv-x="1479" vert-adv-y="2505" d="M0 0l18 93l19 1q81 5 140 96l66 102l747 1201h103l270 -1203q41 -186 95 -194l27 -2l12 -1l-19 -93h-530l18 93l20 1l36 2q52 3 52 52q0 17 -12 75l-15 69l-35 158h-549l-100 -159q-87 -139 -87 -166q0 -26 44 -29l26 -2l18 -1l-19 -93h-345zM525 549h465l-122 549z M715 1604l31 154h691l-31 -154h-691z" />
<glyph unicode="&#x101;" vert-adv-y="2505" d="M108 218q0 199 159 317q158 119 431 119h50l26 133q21 108 21 142q0 101 -107 101q-134 0 -166 -134l-15 -63l-5 -19h-185l44 222q203 87 388 87q331 0 331 -245q0 -43 -9 -88l-96 -482l-14 -86l-10 -60q-2 -11 -2 -22q0 -52 51 -52q13 0 30 5l-19 -97q-77 -21 -129 -21 q-145 0 -198 152q-160 -152 -320 -152q-117 0 -186 65q-70 64 -70 178zM413 257q0 -124 102 -124q56 0 124 53l18 14l73 364h-39q-124 0 -201 -86t-77 -221zM429 1283l30 154h691l-30 -154h-691z" />
<glyph unicode="&#x102;" horiz-adv-x="1479" vert-adv-y="2505" d="M0 0l18 93l19 1q81 5 140 96l66 102l747 1201h103l270 -1203q41 -186 95 -194l27 -2l12 -1l-19 -93h-530l18 93l20 1l36 2q52 3 52 52q0 17 -12 75l-15 69l-35 158h-549l-100 -159q-87 -139 -87 -166q0 -26 44 -29l26 -2l18 -1l-19 -93h-345zM525 549h465l-122 549z M775 1881v12v10l1 8v14h93q44 -148 230 -148q181 0 288 148h93q-51 -136 -143 -216q-121 -105 -275 -105q-124 0 -205 80q-82 81 -82 197z" />
<glyph unicode="&#x103;" vert-adv-y="2505" d="M108 218q0 199 159 317q158 119 431 119h50l26 133q21 108 21 142q0 101 -107 101q-134 0 -166 -134l-15 -63l-5 -19h-185l44 222q203 87 388 87q331 0 331 -245q0 -43 -9 -88l-96 -482l-14 -86l-10 -60q-2 -11 -2 -22q0 -52 51 -52q13 0 30 5l-19 -97q-77 -21 -129 -21 q-145 0 -198 152q-160 -152 -320 -152q-117 0 -186 65q-70 64 -70 178zM413 257q0 -124 102 -124q56 0 124 53l18 14l73 364h-39q-124 0 -201 -86t-77 -221zM471 1561q0 14 2 43h92q44 -148 230 -148q181 0 288 148h93q-51 -136 -143 -216q-121 -105 -275 -105 q-123 0 -205 80t-82 198z" />
<glyph unicode="&#x104;" horiz-adv-x="1479" vert-adv-y="2505" d="M0 0l18 93l19 1q81 5 140 96l66 102l747 1201h103l270 -1203q41 -186 95 -194l27 -2l12 -1l-19 -93h-530l18 93l20 1l36 2q52 3 52 52q0 17 -12 75l-15 69l-35 158h-549l-100 -159q-87 -139 -87 -166q0 -26 44 -29l26 -2l18 -1l-19 -93h-345zM525 549h465l-122 549z M957 -239q0 120 227 239h101q-125 -96 -125 -194q0 -78 98 -78q54 0 121 22l-17 -87q-92 -33 -188 -33q-217 0 -217 131z" />
<glyph unicode="&#x105;" vert-adv-y="2505" d="M108 218q0 199 159 317q158 119 431 119h50l26 133q21 108 21 142q0 101 -107 101q-134 0 -166 -134l-15 -63l-5 -19h-185l44 222q203 87 388 87q331 0 331 -245q0 -43 -9 -88l-96 -482l-14 -86l-10 -60q-2 -11 -2 -22q0 -52 51 -52q13 0 30 5l-19 -97q-77 -21 -129 -21 q-145 0 -198 152q-160 -152 -320 -152q-117 0 -186 65q-70 64 -70 178zM413 257q0 -124 102 -124q56 0 124 53l18 14l73 364h-39q-124 0 -201 -86t-77 -221zM547 -239q0 120 227 239h101q-125 -97 -125 -194q0 -78 98 -78q54 0 121 22l-17 -87q-91 -33 -188 -33 q-217 0 -217 131z" />
<glyph unicode="&#x106;" horiz-adv-x="1479" vert-adv-y="2505" d="M210 551q0 367 228 647q260 319 752 319q225 0 475 -65l-61 -305h-173l4 19l8 58l2 17q4 24 4 35q0 58 -86 100q-87 43 -205 43q-279 0 -448 -265q-77 -122 -127 -307q-51 -187 -51 -349q0 -411 438 -411q200 0 470 110l-28 -140q-259 -94 -530 -94q-672 0 -672 588z M1015 1604l305 321h299l-471 -321h-133z" />
<glyph unicode="&#x107;" horiz-adv-x="909" vert-adv-y="2505" d="M141 384q0 308 186 524q186 215 462 215q134 0 269 -50l-57 -283h-167l3 18l10 74q0 2 1 17v7q0 124 -89 124q-115 0 -201 -198q-107 -247 -107 -480q0 -232 199 -232q95 0 231 55l-29 -149q-174 -51 -293 -51q-197 0 -307 105q-111 105 -111 304zM612 1283l305 321h299 l-471 -321h-133z" />
<glyph unicode="&#x108;" horiz-adv-x="1479" vert-adv-y="2505" d="M210 551q0 367 228 647q260 319 752 319q225 0 475 -65l-61 -305h-173l4 19l8 58l2 17q4 24 4 35q0 58 -86 100q-87 43 -205 43q-279 0 -448 -265q-77 -122 -127 -307q-51 -187 -51 -349q0 -411 438 -411q200 0 470 110l-28 -140q-259 -94 -530 -94q-672 0 -672 588z M833 1604l305 321h247l176 -321h-117l-208 194l-285 -194h-118z" />
<glyph unicode="&#x109;" horiz-adv-x="922" vert-adv-y="2505" d="M141 384q0 308 186 524q186 215 462 215q134 0 269 -50l-57 -283h-167l3 18l10 74q0 2 1 17v7q0 124 -89 124q-115 0 -201 -198q-107 -247 -107 -480q0 -232 199 -232q95 0 231 55l-29 -149q-174 -51 -293 -51q-197 0 -307 105q-111 105 -111 304zM430 1283l305 321h247 l176 -321h-117l-208 194l-285 -194h-118z" />
<glyph unicode="&#x10a;" horiz-adv-x="1479" vert-adv-y="2505" d="M210 551q0 367 228 647q260 319 752 319q225 0 475 -65l-61 -305h-173l4 19l8 58l2 17q4 24 4 35q0 58 -86 100q-87 43 -205 43q-279 0 -448 -265q-77 -122 -127 -307q-51 -187 -51 -349q0 -411 438 -411q200 0 470 110l-28 -140q-259 -94 -530 -94q-672 0 -672 588z M1049 1604l60 296h296l-60 -296h-296z" />
<glyph unicode="&#x10b;" horiz-adv-x="909" vert-adv-y="2505" d="M141 384q0 308 186 524q186 215 462 215q134 0 269 -50l-57 -283h-167l3 18l10 74q0 2 1 17v7q0 124 -89 124q-115 0 -201 -198q-107 -247 -107 -480q0 -232 199 -232q95 0 231 55l-29 -149q-174 -51 -293 -51q-197 0 -307 105q-111 105 -111 304zM671 1283l59 296h296 l-59 -296h-296z" />
<glyph unicode="&#x10c;" horiz-adv-x="1479" vert-adv-y="2505" d="M210 551q0 367 228 647q260 319 752 319q225 0 475 -65l-61 -305h-173l4 19l8 58l2 17q4 24 4 35q0 58 -86 100q-87 43 -205 43q-279 0 -448 -265q-77 -122 -127 -307q-51 -187 -51 -349q0 -411 438 -411q200 0 470 110l-28 -140q-259 -94 -530 -94q-672 0 -672 588z M898 1925h117l208 -195l285 195h118l-305 -321h-247z" />
<glyph unicode="&#x10d;" horiz-adv-x="909" vert-adv-y="2505" d="M141 384q0 308 186 524q186 215 462 215q134 0 269 -50l-57 -283h-167l3 18l10 74q0 2 1 17v7q0 124 -89 124q-115 0 -201 -198q-107 -247 -107 -480q0 -232 199 -232q95 0 231 55l-29 -149q-174 -51 -293 -51q-197 0 -307 105q-111 105 -111 304zM494 1604h117l208 -194 l285 194h118l-305 -321h-247z" />
<glyph unicode="&#x10e;" horiz-adv-x="1479" vert-adv-y="2505" d="M43 0l18 93l19 1q66 4 81 25q15 19 27 72l21 99l180 901l18 98q7 34 7 45q0 49 -75 53l-19 1l19 92h433l75 1l92 2l74 1q213 3 350 -77q215 -127 215 -452q0 -314 -186 -587q-251 -368 -689 -368h-660zM505 186q0 -55 56 -70q42 -11 122 -11q246 0 412 278 q160 269 160 600q0 200 -110 298q-112 101 -346 101h-64l-219 -1092q-11 -54 -11 -104zM689 1925h117l208 -195l286 195h117l-305 -321h-247z" />
<glyph unicode="&#x10f;" horiz-adv-x="1502" vert-adv-y="2505" d="M133 357q0 321 184 544q184 222 453 222q79 0 186 -25l38 191l15 99l7 35q-6 53 -124 62l-19 2l19 92h456l-258 -1289l-17 -99l-4 -17q-3 -18 -3 -27q0 -49 75 -53l19 -1l-19 -93h-405l37 182q-64 -93 -126 -139q-91 -68 -206 -68q-308 0 -308 382zM450 374 q0 -208 141 -208q102 0 202 119l130 647q-89 50 -147 50q-133 0 -229 -183q-97 -184 -97 -425zM1403 987l18 93q105 0 141 203h-100l59 296h259l-44 -223q-71 -341 -333 -369z" />
<glyph unicode="&#x110;" horiz-adv-x="1479" vert-adv-y="2505" d="M43 0l19 93l18 1q70 5 84 28q14 20 24 69l22 99l82 413h-108l19 99h109l78 389l18 98q7 35 7 45q0 49 -76 53l-18 1l18 92h434l74 1l92 2l74 1q213 3 350 -77q215 -127 215 -451q0 -316 -185 -588q-250 -368 -689 -368h-661zM504 179q0 -49 58 -63q43 -11 122 -11 q244 0 411 278q161 269 161 599q0 201 -110 299q-112 101 -346 101h-65l-116 -580h296l-20 -99h-296l-82 -413q-13 -66 -13 -111z" />
<glyph unicode="&#x111;" horiz-adv-x="1139" vert-adv-y="2505" d="M133 357q0 321 184 544q184 222 453 222q79 0 186 -25l30 148h-272l20 99h268l1 4q2 8 3 21q2 16 3 18q0 2 3 16q3 15 3 16q0 27 -25 41q-27 17 -98 24l-19 2l19 92h456l-46 -234h108l-20 -99h-108l-192 -956l-17 -99l-4 -17q-3 -18 -3 -27q0 -49 75 -53l19 -1l-19 -93 h-405l37 182q-64 -93 -126 -139q-91 -68 -206 -68q-308 0 -308 382zM450 374q0 -208 141 -208q102 0 202 119l130 647q-89 50 -147 50q-133 0 -229 -183q-97 -184 -97 -425z" />
<glyph unicode="&#x112;" horiz-adv-x="1366" vert-adv-y="2505" d="M55 0l19 93l19 1q115 7 126 26q17 20 30 71l25 99l180 901l14 98l7 34q-4 55 -124 64l-18 1l18 92h1209l-53 -265h-173l3 19l4 26q4 32 5 34q3 12 4 15q1 5 2 7q2 5 2 8q0 58 -136 58h-417l-113 -562h305l98 2q45 1 53 14q8 12 13 38q5 20 12 45l5 19h130l-65 -321h-129 l2 18q0 2 2 11l1 10q1 6 2 15l1 4q3 16 3 30q0 23 -51 25l-93 4h-306l-89 -444q-16 -80 -16 -133q0 -31 30 -42q19 -7 59 -8l82 -2h223l114 3q70 1 87 56l24 95l5 19h173l-56 -278h-1252zM672 1604l31 154h691l-31 -154h-691z" />
<glyph unicode="&#x113;" horiz-adv-x="909" vert-adv-y="2505" d="M140 377q0 310 169 528q168 218 414 218q279 0 279 -302q0 -130 -30 -260l-5 -22h-507q-23 -131 -23 -203q0 -212 192 -212q116 0 269 69l-30 -150q-181 -68 -338 -68q-390 0 -390 402zM486 632h208q46 231 46 311q0 87 -54 87q-109 0 -200 -398zM389 1287l30 154h691 l-30 -154h-691z" />
<glyph unicode="&#x114;" horiz-adv-x="1366" vert-adv-y="2505" d="M55 0l19 93l19 1q115 7 126 26q17 20 30 71l25 99l180 901l14 98l7 34q-4 55 -124 64l-18 1l18 92h1209l-53 -265h-173l3 19l4 26q4 32 5 34q3 12 4 15q1 5 2 7q2 5 2 8q0 58 -136 58h-417l-113 -562h305l98 2q45 1 53 14q8 12 13 38q5 20 12 45l5 19h130l-65 -321h-129 l2 18q0 2 2 11l1 10q1 6 2 15l1 4q3 16 3 30q0 23 -51 25l-93 4h-306l-89 -444q-16 -80 -16 -133q0 -31 30 -42q19 -7 59 -8l82 -2h223l114 3q70 1 87 56l24 95l5 19h173l-56 -278h-1252zM704 1884q0 14 2 41h92q44 -148 230 -148q181 0 288 148h93q-51 -136 -143 -216 q-121 -105 -275 -105q-124 0 -205 80q-82 81 -82 200z" />
<glyph unicode="&#x115;" horiz-adv-x="909" vert-adv-y="2505" d="M140 377q0 310 169 528q168 218 414 218q279 0 279 -302q0 -130 -30 -260l-5 -22h-507q-23 -131 -23 -203q0 -212 192 -212q116 0 269 69l-30 -150q-181 -68 -338 -68q-390 0 -390 402zM465 1561q0 14 2 43h92q44 -148 230 -148q181 0 288 148h93q-51 -137 -143 -216 q-121 -105 -275 -105q-123 0 -205 80t-82 198zM486 632h208q46 231 46 311q0 87 -54 87q-109 0 -200 -398z" />
<glyph unicode="&#x116;" horiz-adv-x="1366" vert-adv-y="2505" d="M55 0l19 93l19 1q115 7 126 26q17 20 30 71l25 99l180 901l14 98l7 34q-4 55 -124 64l-18 1l18 92h1209l-53 -265h-173l3 19l4 26q4 32 5 34q3 12 4 15q1 5 2 7q2 5 2 8q0 58 -136 58h-417l-113 -562h305l98 2q45 1 53 14q8 12 13 38q5 20 12 45l5 19h130l-65 -321h-129 l2 18q0 2 2 11l1 10q1 6 2 15l1 4q3 16 3 30q0 23 -51 25l-93 4h-306l-89 -444q-16 -80 -16 -133q0 -31 30 -42q19 -7 59 -8l82 -2h223l114 3q70 1 87 56l24 95l5 19h173l-56 -278h-1252zM845 1604l59 296h296l-59 -296h-296z" />
<glyph unicode="&#x117;" horiz-adv-x="909" vert-adv-y="2505" d="M140 377q0 310 169 528q168 218 414 218q279 0 279 -302q0 -130 -30 -260l-5 -22h-507q-23 -131 -23 -203q0 -212 192 -212q116 0 269 69l-30 -150q-181 -68 -338 -68q-390 0 -390 402zM486 632h208q46 231 46 311q0 87 -54 87q-109 0 -200 -398zM606 1283l59 296h296 l-59 -296h-296z" />
<glyph unicode="&#x118;" horiz-adv-x="1366" vert-adv-y="2505" d="M55 0l19 93l19 1q115 7 126 26q17 20 30 71l25 99l180 901l14 98l7 34q-4 55 -124 64l-18 1l18 92h1209l-53 -265h-173l3 19l4 26q4 32 5 34q3 12 4 15q1 5 2 7q2 5 2 8q0 58 -136 58h-417l-113 -562h305l98 2q45 0 53 14q8 12 13 38q5 20 12 45l5 19h130l-65 -321h-129 l2 18q0 2 2 11l1 10q1 6 2 15l1 4q3 16 3 30q0 23 -51 25l-93 4h-306l-89 -444q-16 -80 -16 -133q0 -31 30 -42q19 -7 59 -8l82 -2h223l114 3q70 1 87 56l24 95l5 19h173l-56 -278h-1252zM762 -240q0 120 226 240h101q-125 -97 -125 -194q0 -78 98 -78q54 0 121 22l-17 -87 q-91 -33 -188 -33q-216 0 -216 130z" />
<glyph unicode="&#x119;" horiz-adv-x="909" vert-adv-y="2505" d="M140 377q0 310 169 528q168 218 414 218q279 0 279 -302q0 -130 -30 -260l-5 -22h-507q-23 -131 -23 -203q0 -212 192 -212q116 0 269 69l-30 -150q-181 -68 -338 -68q-390 0 -390 402zM486 632h208q46 231 46 311q0 87 -54 87q-109 0 -200 -398zM338 -239q0 120 227 239 h101q-125 -97 -125 -194q0 -78 98 -78q54 0 121 22l-17 -87q-91 -33 -188 -33q-217 0 -217 131z" />
<glyph unicode="&#x11a;" horiz-adv-x="1366" vert-adv-y="2505" d="M55 0l19 93l19 1q115 7 126 26q17 20 30 71l25 99l180 901l14 98l7 34q-4 55 -124 64l-18 1l18 92h1209l-53 -265h-173l3 19l4 26q4 32 5 34q3 12 4 15q1 5 2 7q2 5 2 8q0 58 -136 58h-417l-113 -562h305l98 2q45 1 53 14q8 12 13 38q5 20 12 45l5 19h130l-65 -321h-129 l2 18q0 2 2 11l1 10q1 6 2 15l1 4q3 16 3 30q0 23 -51 25l-93 4h-306l-89 -444q-16 -80 -16 -133q0 -31 30 -42q19 -7 59 -8l82 -2h223l114 3q70 1 87 56l24 95l5 19h173l-56 -278h-1252zM693 1925h117l208 -195l286 195h117l-305 -321h-246z" />
<glyph unicode="&#x11b;" horiz-adv-x="909" vert-adv-y="2505" d="M140 377q0 310 169 528q168 218 414 218q279 0 279 -302q0 -130 -30 -260l-5 -22h-507q-23 -131 -23 -203q0 -212 192 -212q116 0 269 69l-30 -150q-181 -68 -338 -68q-390 0 -390 402zM486 632h208q46 231 46 311q0 87 -54 87q-109 0 -200 -398zM454 1604h117l208 -194 l285 194h118l-305 -321h-247z" />
<glyph unicode="&#x11c;" horiz-adv-x="1593" vert-adv-y="2505" d="M210 550q0 364 228 648q137 170 317 244q181 75 457 75q241 0 490 -65l-58 -292h-173l4 18l8 56q5 34 5 45q0 62 -90 101q-92 39 -230 39q-372 0 -531 -403q-49 -124 -80 -280q-29 -147 -29 -274q0 -400 421 -400q88 0 174 26l54 274l15 99l7 34q-5 55 -124 63l-18 1 l18 93h629l-18 -93l-19 -1q-115 -7 -126 -26q-17 -20 -30 -71l-25 -99l-67 -332q-322 -67 -548 -67q-661 0 -661 587zM844 1604l305 321h246l177 -321h-117l-208 194l-286 -194h-117z" />
<glyph unicode="&#x11d;" vert-adv-y="2505" d="M-18 -219q0 162 292 258q-89 54 -89 122q0 121 234 218q-87 37 -131 87q-64 74 -64 196q0 201 130 331t339 130q109 0 204 -37l351 31l-93 -158l-181 30q53 -86 53 -176q0 -179 -138 -318q-138 -140 -319 -140q-20 0 -69 5q-74 -54 -74 -103q0 -53 115 -53h117 q325 0 325 -206q0 -175 -175 -296q-174 -122 -434 -122q-181 0 -287 54q-106 53 -106 147zM274 -199q0 -128 159 -128q116 0 187 64q72 63 72 165q0 77 -68 96q-53 14 -162 14h-97q-91 -104 -91 -211zM376 1283l305 321h247l176 -321h-117l-208 194l-286 -194h-117zM486 570 q0 -130 80 -130q69 0 127 127q70 153 70 332q0 127 -80 127q-69 0 -127 -127q-70 -154 -70 -329z" />
<glyph unicode="&#x11e;" horiz-adv-x="1593" vert-adv-y="2505" d="M210 550q0 364 228 648q137 170 317 244q181 75 457 75q241 0 490 -65l-58 -292h-173l4 18l8 56q5 34 5 45q0 62 -90 101q-92 39 -230 39q-372 0 -531 -403q-49 -124 -80 -280q-29 -147 -29 -274q0 -400 421 -400q88 0 174 26l54 274l15 99l7 34q-5 55 -124 63l-18 1 l18 93h629l-18 -93l-19 -1q-115 -7 -126 -26q-17 -20 -30 -71l-25 -99l-67 -332q-322 -67 -548 -67q-661 0 -661 587zM919 1883v9v10q0 13 1 23h93q21 -73 71 -107q59 -41 159 -41q181 0 288 148h93q-51 -136 -143 -216q-121 -105 -275 -105q-123 0 -205 80t-82 199z" />
<glyph unicode="&#x11f;" vert-adv-y="2505" d="M-18 -219q0 162 292 258q-89 54 -89 122q0 121 234 218q-87 37 -131 87q-64 74 -64 196q0 201 130 331t339 130q109 0 204 -37l351 31l-93 -158l-181 30q53 -86 53 -176q0 -179 -138 -318q-138 -140 -319 -140q-20 0 -69 5q-74 -54 -74 -103q0 -53 115 -53h117 q325 0 325 -206q0 -175 -175 -296q-174 -122 -434 -122q-181 0 -287 54q-106 53 -106 147zM274 -199q0 -128 159 -128q116 0 187 64q72 63 72 165q0 77 -68 96q-53 14 -162 14h-97q-91 -104 -91 -211zM486 570q0 -130 80 -130q69 0 127 127q70 153 70 332q0 127 -80 127 q-69 0 -127 -127q-70 -154 -70 -329zM451 1561q0 14 2 43h92q44 -148 230 -148q181 0 288 148h93q-51 -136 -143 -216q-121 -105 -275 -105q-123 0 -205 80t-82 198z" />
<glyph unicode="&#x120;" horiz-adv-x="1593" vert-adv-y="2505" d="M210 550q0 364 228 648q137 170 317 244q181 75 457 75q241 0 490 -65l-58 -292h-173l4 18l8 56q5 34 5 45q0 62 -90 101q-92 39 -230 39q-372 0 -531 -403q-49 -124 -80 -280q-29 -147 -29 -274q0 -400 421 -400q88 0 174 26l54 274l15 99l7 34q-5 55 -124 63l-18 1 l18 93h629l-18 -93l-19 -1q-115 -7 -126 -26q-17 -20 -30 -71l-25 -99l-67 -332q-322 -67 -548 -67q-661 0 -661 587zM1060 1604l59 296h296l-59 -296h-296z" />
<glyph unicode="&#x121;" vert-adv-y="2505" d="M-18 -219q0 162 292 258q-89 54 -89 122q0 121 234 218q-87 37 -131 87q-64 74 -64 196q0 201 130 331t339 130q109 0 204 -37l351 31l-93 -158l-181 30q53 -86 53 -176q0 -179 -138 -318q-138 -140 -319 -140q-20 0 -69 5q-74 -54 -74 -103q0 -53 115 -53h117 q325 0 325 -206q0 -175 -175 -296q-174 -122 -434 -122q-181 0 -287 54q-106 53 -106 147zM274 -199q0 -128 159 -128q116 0 187 64q72 63 72 165q0 77 -68 96q-53 14 -162 14h-97q-91 -104 -91 -211zM486 570q0 -130 80 -130q69 0 127 127q70 153 70 332q0 127 -80 127 q-69 0 -127 -127q-70 -154 -70 -329zM592 1283l59 296h296l-59 -296h-296z" />
<glyph unicode="&#x122;" horiz-adv-x="1593" vert-adv-y="2505" d="M210 550q0 365 228 648q137 170 317 244q181 75 457 75q241 0 490 -65l-58 -292h-173l4 18l8 56q5 34 5 45q0 62 -90 101q-92 39 -230 39q-372 0 -531 -403q-49 -124 -80 -280q-29 -146 -29 -274q0 -400 421 -400q88 0 174 26l54 274l15 99l7 34q-5 55 -124 63l-18 1 l18 93h629l-18 -93l-19 -1q-115 -7 -126 -26q-17 -19 -30 -71l-25 -99l-67 -332q-322 -67 -548 -67q-661 0 -661 587zM598 -414l18 90q62 -12 103 -12q112 0 112 75q0 35 -39 50q-32 12 -102 13l18 89q168 -3 241 -35q80 -36 80 -109q0 -79 -79 -129q-78 -50 -205 -50 q-71 0 -147 18z" />
<glyph unicode="&#x123;" vert-adv-y="2505" d="M-18 -219q0 162 292 258q-89 54 -89 122q0 121 234 218q-87 37 -131 87q-64 74 -64 196q0 201 130 331t339 130q109 0 204 -37l351 31l-93 -158l-181 30q53 -86 53 -176q0 -179 -138 -318q-138 -140 -319 -140q-20 0 -69 5q-74 -54 -74 -103q0 -53 115 -53h117 q325 0 325 -206q0 -175 -175 -296q-174 -122 -434 -122q-181 0 -287 54q-106 53 -106 147zM274 -199q0 -128 159 -128q116 0 187 64q72 63 72 165q0 77 -68 96q-53 14 -162 14h-97q-91 -104 -91 -211zM486 570q0 -130 80 -130q69 0 127 127q70 153 70 332q0 127 -80 127 q-69 0 -127 -127q-70 -154 -70 -329zM592 1283l45 224q70 339 370 368l-19 -92q-119 -1 -155 -204h114l-59 -296h-296z" />
<glyph unicode="&#x124;" horiz-adv-x="1593" vert-adv-y="2505" d="M43 0l19 93l18 1q115 7 127 26q16 19 29 71l25 99l180 901l15 98l7 34q-5 55 -124 64l-18 1l18 92h629l-18 -92l-19 -1q-118 -9 -127 -27q-16 -18 -29 -71l-25 -98l-72 -360h570l72 360l15 98l6 34q-4 55 -124 64l-18 1l19 92h629l-19 -92l-18 -1q-119 -9 -128 -27 q-15 -19 -28 -71l-26 -98l-180 -901l-14 -99l-7 -34q5 -55 124 -63l18 -1l-18 -93h-629l18 93l19 1q115 7 126 26q17 19 30 71l25 99l87 436h-570l-87 -436l-15 -99l-6 -34q4 -55 123 -63l19 -1l-19 -93h-629zM754 1604l304 321h247l176 -321h-117l-208 194l-285 -194h-117z " />
<glyph unicode="&#x125;" horiz-adv-x="1139" vert-adv-y="2505" d="M31 0l19 93l19 1q69 5 83 28q14 20 24 69l22 99l200 999l18 99q7 33 7 44q0 44 -76 53l-18 2l18 92h405l-133 -663q68 93 135 139q98 68 217 68q224 0 224 -211q0 -60 -15 -135l-97 -487l-18 -99q-7 -34 -7 -44q0 -49 75 -53l19 -1l-19 -93h-501l19 93l19 1q75 5 95 97 l22 99l90 453q17 86 17 115q0 85 -91 85q-101 0 -206 -138l-103 -515l-18 -99q-7 -35 -7 -47q0 -47 63 -50l19 -1l-19 -93h-501zM630 1678l305 321h246l177 -321h-118l-207 194l-286 -194h-117z" />
<glyph unicode="&#x126;" horiz-adv-x="1593" vert-adv-y="2505" d="M43 0l19 93l18 1q115 7 127 26q16 19 29 71l25 99l153 765h-160l20 99h160l7 37l15 98l7 34q-5 55 -124 64l-18 1l18 92h629l-18 -92l-19 -1q-118 -9 -127 -27q-16 -18 -29 -71l-25 -98l-7 -37h570l7 37l15 98l6 34q-4 55 -124 64l-18 1l19 92h629l-19 -92l-18 -1 q-119 -9 -128 -27q-15 -19 -28 -71l-26 -98l-7 -37h160l-19 -99h-161l-153 -765l-14 -99l-7 -34q5 -55 124 -63l18 -1l-18 -93h-629l18 93l19 1q115 7 126 26q17 19 30 71l25 99l87 436h-570l-87 -436l-15 -99l-6 -34q4 -55 123 -63l19 -1l-19 -93h-629zM678 831h570l45 224 h-570z" />
<glyph unicode="&#x127;" horiz-adv-x="1139" vert-adv-y="2505" d="M31 0l19 93l19 1q69 5 83 28q14 20 24 69l22 99l191 956h-108l19 99h108q0 2 1 5v3q1 3 1 5l6 30q6 30 6 46q0 42 -75 51l-18 2l18 92h405l-47 -234h296l-20 -99h-296l-66 -330q68 93 135 139q98 68 217 68q224 0 224 -211q0 -60 -15 -135l-97 -487l-18 -99 q-7 -34 -7 -44q0 -49 75 -53l19 -1l-19 -93h-501l19 93l19 1q75 5 95 97l22 99l90 453q17 86 17 115q0 85 -91 85q-101 0 -206 -138l-103 -515l-18 -99q-7 -35 -7 -47q0 -47 63 -50l19 -1l-19 -93h-501z" />
<glyph unicode="&#x128;" horiz-adv-x="797" vert-adv-y="2505" d="M84 0l19 93l18 1q115 7 127 26q16 19 29 71l25 99l180 901l15 98l7 34q-5 55 -124 64l-18 1l18 92h629l-18 -92l-19 -1q-118 -9 -127 -27q-16 -18 -29 -71l-25 -98l-180 -901l-15 -99l-6 -34q4 -55 123 -63l19 -1l-19 -93h-629zM371 1604q26 106 64 163q69 102 189 102 q64 0 126 -33l67 -36q66 -35 104 -35q80 0 107 104h93q-26 -106 -64 -163q-68 -102 -188 -102q-65 0 -127 33l-67 36q-65 35 -104 35q-80 0 -108 -104h-92z" />
<glyph unicode="&#x129;" horiz-adv-x="569" vert-adv-y="2505" d="M40 0l18 93l19 1q66 4 81 25q15 19 27 72l21 99l104 518l18 99q7 34 7 44q0 49 -76 53l-18 1l18 93h405l-162 -808l-17 -99q-7 -34 -7 -44q0 -49 75 -53l19 -1l-19 -93h-513zM180 1283q26 107 64 164q69 102 187 102q64 0 128 -34l67 -36q66 -35 104 -35q80 0 107 105h93 q-26 -107 -64 -164q-68 -102 -187 -102q-63 0 -128 34l-67 35q-69 36 -104 36q-81 0 -108 -105h-92z" />
<glyph unicode="&#x12a;" horiz-adv-x="797" vert-adv-y="2505" d="M84 0l19 93l18 1q115 7 127 26q16 19 29 71l25 99l180 901l15 98l7 34q-5 55 -124 64l-18 1l18 92h629l-18 -92l-19 -1q-118 -9 -127 -27q-16 -18 -29 -71l-25 -98l-180 -901l-15 -99l-6 -34q4 -55 123 -63l19 -1l-19 -93h-629zM374 1604l31 154h691l-31 -154h-691z" />
<glyph unicode="&#x12b;" horiz-adv-x="569" vert-adv-y="2505" d="M40 0l18 93l19 1q66 4 81 25q15 19 27 72l21 99l104 518l18 99q7 34 7 44q0 49 -76 53l-18 1l18 93h405l-162 -808l-17 -99q-7 -34 -7 -44q0 -49 75 -53l19 -1l-19 -93h-513zM183 1283l30 154h691l-30 -154h-691z" />
<glyph unicode="&#x12c;" horiz-adv-x="797" vert-adv-y="2505" d="M84 0l19 93l18 1q115 7 127 26q16 19 29 71l25 99l180 901l15 98l7 34q-5 55 -124 64l-18 1l18 92h629l-18 -92l-19 -1q-118 -9 -127 -27q-16 -18 -29 -71l-25 -98l-180 -901l-15 -99l-6 -34q4 -55 123 -63l19 -1l-19 -93h-629zM431 1884v9v10q1 13 1 22h93 q22 -73 71 -107q58 -41 158 -41q181 0 289 148h92q-49 -136 -142 -216q-121 -105 -276 -105q-123 0 -205 80q-81 80 -81 200z" />
<glyph unicode="&#x12d;" horiz-adv-x="569" vert-adv-y="2505" d="M40 0l18 93l19 1q66 4 81 25q15 19 27 72l21 99l104 518l18 99q7 34 7 44q0 49 -76 53l-18 1l18 93h405l-162 -808l-17 -99q-7 -34 -7 -44q0 -49 75 -53l19 -1l-19 -93h-513zM246 1561v9v11q1 13 1 23h93q21 -73 71 -107q59 -41 159 -41q181 0 288 148h92 q-51 -136 -143 -216q-120 -105 -275 -105q-122 0 -204 80t-82 198z" />
<glyph unicode="&#x12e;" horiz-adv-x="797" vert-adv-y="2505" d="M84 0l19 93l18 1q115 7 127 26q16 19 29 71l25 99l180 901l15 98l7 34q-5 55 -124 64l-18 1l18 92h629l-18 -92l-19 -1q-118 -9 -127 -27q-16 -17 -29 -71l-25 -98l-180 -901l-15 -99l-6 -34q4 -55 123 -63l19 -1l-19 -93h-629zM204 -239q0 120 227 239h101 q-125 -97 -125 -194q0 -78 98 -78q54 0 121 22l-17 -87q-91 -33 -188 -33q-217 0 -217 131z" />
<glyph unicode="&#x12f;" horiz-adv-x="569" vert-adv-y="2505" d="M40 0l18 93l19 1q66 4 81 25q15 19 27 72l21 99l104 518l18 99q7 34 7 44q0 49 -76 53l-18 1l18 93h405l-162 -808l-17 -99q-7 -34 -7 -44q0 -49 75 -53l19 -1l-19 -93h-513zM405 1283l59 296h296l-59 -296h-296zM81 -239q0 120 227 239h101q-125 -97 -125 -194 q0 -78 98 -78q54 0 121 22l-17 -87q-91 -33 -188 -33q-217 0 -217 131z" />
<glyph unicode="&#x130;" horiz-adv-x="797" vert-adv-y="2505" d="M84 0l19 93l18 1q115 7 127 26q16 19 29 71l25 99l180 901l15 98l7 34q-5 55 -124 64l-18 1l18 92h629l-18 -92l-19 -1q-118 -9 -127 -27q-16 -18 -29 -71l-25 -98l-180 -901l-15 -99l-6 -34q4 -55 123 -63l19 -1l-19 -93h-629zM571 1604l60 296h296l-60 -296h-296z" />
<glyph unicode="&#x131;" horiz-adv-x="569" vert-adv-y="2505" d="M40 0l18 93l19 1q66 4 81 25q15 19 27 72l21 99l104 518l18 99q7 34 7 44q0 49 -76 53l-18 1l18 93h405l-162 -808l-17 -99q-7 -34 -7 -44q0 -49 75 -53l19 -1l-19 -93h-513z" />
<glyph unicode="&#x132;" horiz-adv-x="1685" vert-adv-y="2505" d="M84 0l19 93l18 1q115 7 127 26q16 19 29 71l25 99l180 901l15 98l7 34q-5 55 -124 64l-18 1l18 92h629l-18 -92l-19 -1q-118 -9 -127 -27q-16 -18 -29 -71l-25 -98l-180 -901l-15 -99l-6 -34q4 -55 123 -63l19 -1l-19 -93h-629zM606 -246l58 290h185l-8 -43l-8 -56 q-4 -29 -4 -50q0 -92 124 -92q116 0 165 97q38 74 69 228l212 1063l15 98l7 34q-5 55 -124 64l-18 1l18 92h629l-18 -92l-19 -1q-118 -9 -127 -27q-15 -17 -29 -71l-25 -98l-192 -960q-56 -280 -192 -403q-135 -124 -382 -124q-139 0 -336 50z" />
<glyph unicode="&#x133;" horiz-adv-x="1131" vert-adv-y="2505" d="M40 0l18 93l19 1q66 4 81 25q15 19 27 72l21 99l104 518l18 99q7 34 7 44q0 49 -76 53l-18 1l18 93h405l-162 -808l-17 -99q-7 -34 -7 -44q0 -49 75 -53l19 -1l-19 -93h-513zM405 1283l59 296h296l-59 -296h-296zM268 -379l54 268h161l-3 -19l-10 -69q-3 -19 -3 -44 q0 -85 81 -85q97 0 133 177l20 98l172 861l18 99q7 33 7 44q0 49 -76 53l-18 1l18 93h405l-215 -1076q-88 -442 -505 -442q-105 0 -239 41zM968 1283l59 296h296l-59 -296h-296z" />
<glyph unicode="&#x134;" vert-adv-y="2505" d="M-55 -246l58 290h185l-8 -43l-8 -56q-4 -29 -4 -50q0 -92 124 -92q116 0 165 97q38 74 69 228l212 1063l15 98l7 34q-5 55 -124 64l-18 1l18 92h629l-18 -92l-19 -1q-118 -9 -127 -27q-15 -17 -29 -71l-25 -98l-192 -960q-56 -280 -192 -403q-135 -124 -382 -124 q-139 0 -336 50zM611 1604l305 321h247l176 -321h-117l-208 194l-285 -194h-118z" />
<glyph unicode="&#x135;" horiz-adv-x="682" vert-adv-y="2505" d="M-180 -379l54 268h161l-3 -19l-10 -69q-3 -19 -3 -44q0 -85 81 -85q97 0 133 177l20 98l172 861l18 99q7 33 7 44q0 49 -76 53l-18 1l18 93h405l-215 -1076q-88 -442 -505 -442q-105 0 -239 41zM255 1283l304 321h247l177 -321h-118l-207 194l-286 -194h-117z" />
<glyph unicode="&#x136;" horiz-adv-x="1593" vert-adv-y="2505" d="M43 0l19 93l18 1q115 7 127 26q16 19 29 71l25 99l180 901l15 98l7 34q-4 55 -124 64l-18 1l18 92h592l-18 -92l-19 -1q-94 -7 -105 -27q-15 -19 -27 -71l-24 -98l-79 -394l570 394q199 137 199 173q0 20 -52 22l-44 2h-17l18 92h450l-18 -92l-19 -1l-40 -2 q-65 -1 -185 -92l-143 -104l-468 -322l445 -580l97 -119q55 -68 142 -74l18 -1l-18 -93h-716l18 93h19l46 1q89 2 89 43q0 42 -86 154l-322 421l-85 -422l-14 -99l-7 -36q7 -55 99 -61l19 -1l-19 -93h-592zM503 -414l18 90q62 -12 103 -12q113 0 113 75q0 61 -141 63l17 89 q168 -3 241 -35q80 -36 80 -108q0 -80 -78 -130t-206 -50q-71 0 -147 18z" />
<glyph unicode="&#x137;" horiz-adv-x="1139" vert-adv-y="2505" d="M31 0l18 93l19 1q66 4 81 25q15 19 27 72l21 99l200 999l18 99q7 34 7 44q0 45 -75 53l-19 2l19 92h404l-197 -987h16l260 227q59 51 80 72l57 58q21 21 21 34q0 20 -41 21l-42 1h-18l18 93h370l-18 -93l-19 -1q-79 -5 -189 -108q-67 -62 -99 -89l-140 -121l169 -399 q78 -187 130 -192l20 -1l18 -1l-18 -93h-351l-224 530h-12l-49 -240l-17 -99q-7 -34 -7 -44q0 -49 75 -53l19 -1l-19 -93h-513zM412 -414l18 90q62 -12 103 -12q112 0 112 75q0 61 -141 63l18 89q168 -3 241 -35q80 -36 80 -109q0 -79 -79 -129q-78 -50 -205 -50 q-71 0 -147 18z" />
<glyph unicode="&#x138;" horiz-adv-x="1139" vert-adv-y="2505" d="M31 0l18 93l19 1q66 4 81 25q15 19 27 72l21 99l104 518l18 99q7 34 7 44q0 49 -76 53l-18 1l18 93h405l-101 -506h16l260 227q59 51 80 72l57 58q21 21 21 34q0 20 -41 21l-42 1h-18l18 93h370l-18 -93l-19 -1q-79 -5 -189 -108q-67 -62 -99 -89l-140 -121l169 -399 q78 -187 130 -192l20 -1l18 -1l-18 -93h-351l-224 530h-12l-49 -240l-17 -99q-7 -34 -7 -44q0 -49 75 -53l19 -1l-19 -93h-513z" />
<glyph unicode="&#x139;" horiz-adv-x="1366" vert-adv-y="2505" d="M55 0l19 93l19 1q115 7 126 26q17 20 30 71l25 99l180 901l14 98l7 34q-4 55 -124 64l-18 1l18 92h630l-19 -92l-19 -1q-118 -9 -127 -27q-16 -18 -29 -71l-25 -98l-180 -901q-16 -80 -16 -135q0 -46 88 -48l89 -2h223l87 4q83 2 98 21q16 20 28 77l27 120l9 43h197 l-74 -370h-1283zM712 1604l305 321h299l-471 -321h-133z" />
<glyph unicode="&#x13a;" horiz-adv-x="569" vert-adv-y="2505" d="M40 0l18 93l19 1q66 4 81 25q15 19 27 72l21 99l200 999l18 99q7 34 7 44q0 45 -75 53l-19 2l19 92h404l-258 -1289l-17 -99q-7 -34 -7 -44q0 -49 75 -53l19 -1l-19 -93h-513zM499 1678l305 321h299l-471 -321h-133z" />
<glyph unicode="&#x13b;" horiz-adv-x="1366" vert-adv-y="2505" d="M55 0l19 93l19 1q114 7 126 26q17 20 30 71l25 99l180 901l14 98l7 34q-4 55 -124 64l-18 1l18 92h630l-19 -92l-19 -1q-118 -9 -127 -27q-16 -18 -29 -71l-25 -98l-180 -901q-16 -80 -16 -135q0 -46 88 -48l89 -2h223l87 4q83 2 98 21q16 20 28 77l27 120l9 43h197 l-74 -370h-1283zM454 -414l18 90q62 -12 103 -12q112 0 112 75q0 61 -141 63l18 89q168 -3 241 -35q80 -36 80 -109q0 -79 -79 -129q-78 -50 -205 -50q-70 0 -147 18z" />
<glyph unicode="&#x13c;" horiz-adv-x="569" vert-adv-y="2505" d="M40 0l18 93l19 1q66 4 81 25q15 19 27 72l21 99l200 999l18 99q7 34 7 44q0 45 -75 53l-19 2l19 92h404l-258 -1289l-17 -99q-7 -34 -7 -44q0 -49 75 -53l19 -1l-19 -93h-513zM29 -414l18 90q62 -12 103 -12q112 0 112 75q0 61 -141 63l18 89q168 -3 241 -35 q80 -36 80 -109q0 -79 -79 -129q-78 -50 -205 -50q-71 0 -147 18z" />
<glyph unicode="&#x13d;" horiz-adv-x="1366" vert-adv-y="2505" d="M55 0l19 93l19 1q115 7 126 26q17 20 30 71l25 99l180 901l14 98l7 34q-4 55 -124 64l-18 1l18 92h630l-19 -92l-19 -1q-118 -9 -127 -27q-16 -18 -29 -71l-25 -98l-180 -901q-16 -80 -16 -135q0 -46 88 -48l89 -2h223l87 4q83 2 98 21q16 20 28 77l27 120l9 43h197 l-74 -370h-1283zM1084 888l19 93q105 0 140 203h-100l60 296h259l-45 -223q-70 -340 -333 -369z" />
<glyph unicode="&#x13e;" horiz-adv-x="960" vert-adv-y="2505" d="M40 0l18 93l19 1q66 4 81 25q15 19 27 72l21 99l200 999l18 99q7 34 7 44q0 45 -75 53l-19 2l19 92h404l-258 -1289l-17 -99q-7 -34 -7 -44q0 -49 75 -53l19 -1l-19 -93h-513zM839 987l19 93q105 0 140 203h-100l60 296h259l-45 -223q-70 -340 -333 -369z" />
<glyph unicode="&#x13f;" horiz-adv-x="1366" vert-adv-y="2505" d="M55 0l19 93l19 1q115 7 126 26q17 20 30 71l25 99l180 901l14 98l7 34q-4 55 -124 64l-18 1l18 92h630l-19 -92l-19 -1q-118 -9 -127 -27q-16 -18 -29 -71l-25 -98l-180 -901q-16 -80 -16 -135q0 -46 88 -48l89 -2h223l87 4q83 2 98 21q16 20 28 77l27 120l9 43h197 l-74 -370h-1283zM926 654l59 296h296l-59 -296h-296z" />
<glyph unicode="&#x140;" horiz-adv-x="810" vert-adv-y="2505" d="M40 0l18 93l19 1q66 4 81 25q15 19 27 72l21 99l200 999l18 99q7 34 7 44q0 45 -75 53l-19 2l19 92h404l-258 -1289l-17 -99q-7 -34 -7 -44q0 -49 75 -53l19 -1l-19 -93h-513zM684 654l59 296h296l-59 -296h-296z" />
<glyph unicode="&#x141;" horiz-adv-x="1366" vert-adv-y="2505" d="M55 0l19 93l19 1q115 7 126 26q17 20 30 71l25 99l74 372l-179 -93l23 114l179 93l83 415l14 98l7 34q-4 55 -124 64l-18 1l18 92h630l-19 -92l-19 -1q-118 -9 -127 -27q-16 -18 -29 -71l-25 -98l-47 -237l303 156l-23 -113l-303 -157l-110 -550q-16 -80 -16 -135 q0 -46 88 -48l89 -2h223l87 4q83 2 98 21q16 20 28 77l27 120l9 43h197l-74 -370h-1283z" />
<glyph unicode="&#x142;" horiz-adv-x="569" vert-adv-y="2505" d="M40 0l18 93l19 1q66 4 81 25q15 19 27 72l21 99l82 407l-165 -85l23 114l165 85l95 478l18 99q7 34 7 44q0 45 -75 53l-19 2l19 92h404l-119 -597l165 86l-23 -114l-165 -86l-116 -578l-17 -99q-7 -34 -7 -44q0 -49 75 -53l19 -1l-19 -93h-513z" />
<glyph unicode="&#x143;" horiz-adv-x="1479" vert-adv-y="2505" d="M44 0l19 93l18 1q115 7 127 26q16 19 29 71l25 99l180 901l15 98l7 34q-5 55 -124 64l-18 1l18 92h385l448 -1099l162 810l15 98l7 35q-5 55 -124 63l-19 1l19 92h466l-18 -92l-19 -1q-117 -9 -126 -27q-16 -18 -29 -71l-25 -98l-242 -1212h-218l-455 1102l-158 -791 l-14 -99l-7 -34q4 -55 124 -63l18 -1l-19 -93h-467zM911 1604l304 321h300l-472 -321h-132z" />
<glyph unicode="&#x144;" horiz-adv-x="1139" vert-adv-y="2505" d="M31 0l19 93l19 1q69 5 83 28q14 20 24 69l22 99l104 518l18 99q7 34 7 44q0 49 -76 53l-18 1l18 93h405l-37 -182q68 93 135 139q98 68 217 68q224 0 224 -211q0 -60 -15 -135l-97 -487l-18 -99q-7 -34 -7 -44q0 -49 75 -53l19 -1l-19 -93h-501l19 93l19 1q75 5 95 97 l22 99l90 453q17 86 17 115q0 85 -91 85q-101 0 -206 -138l-103 -515l-18 -99q-7 -35 -7 -47q0 -47 63 -50l19 -1l-19 -93h-501zM634 1283l305 321h299l-471 -321h-133z" />
<glyph unicode="&#x145;" horiz-adv-x="1479" vert-adv-y="2505" d="M44 0l19 93l18 1q115 7 127 26q16 19 29 71l25 99l180 901l15 98l7 34q-4 55 -124 64l-18 1l18 92h385l448 -1099l162 810l15 98l7 35q-5 55 -124 63l-19 1l19 92h466l-18 -92l-19 -1q-116 -9 -126 -27q-16 -18 -29 -71l-25 -98l-242 -1212h-218l-455 1102l-158 -791 l-14 -99l-7 -34q4 -55 124 -63l18 -1l-19 -93h-467zM453 -414l18 90q63 -12 104 -12q112 0 112 75q0 35 -39 50q-32 12 -102 13l18 89q168 -3 241 -35q80 -36 80 -109q0 -79 -79 -129q-78 -50 -206 -50q-71 0 -147 18z" />
<glyph unicode="&#x146;" horiz-adv-x="1139" vert-adv-y="2505" d="M31 0l19 93l19 1q69 5 83 28q14 20 24 69l22 99l104 518l18 99q7 34 7 44q0 49 -76 53l-18 1l18 93h405l-37 -182q68 93 135 139q98 68 217 68q224 0 224 -211q0 -60 -15 -135l-97 -487l-18 -99q-7 -34 -7 -44q0 -49 75 -53l19 -1l-19 -93h-501l19 93l19 1q75 5 95 97 l22 99l90 453q17 86 17 115q0 85 -91 85q-101 0 -206 -138l-103 -515l-18 -99q-7 -35 -7 -47q0 -47 63 -50l19 -1l-19 -93h-501zM363 -414l18 90q62 -12 103 -12q112 0 112 75q0 61 -141 63l18 89q168 -3 241 -35q80 -36 80 -109q0 -79 -79 -129q-78 -50 -205 -50 q-71 0 -147 18z" />
<glyph unicode="&#x147;" horiz-adv-x="1479" vert-adv-y="2505" d="M44 0l19 93l18 1q115 7 127 26q16 19 29 71l25 99l180 901l15 98l7 34q-5 55 -124 64l-18 1l18 92h385l448 -1099l162 810l15 98l7 35q-5 55 -124 63l-19 1l19 92h466l-18 -92l-19 -1q-117 -9 -126 -27q-16 -18 -29 -71l-25 -98l-242 -1212h-218l-455 1102l-158 -791 l-14 -99l-7 -34q4 -55 124 -63l18 -1l-19 -93h-467zM745 1925h117l208 -195l285 195h118l-305 -321h-247z" />
<glyph unicode="&#x148;" horiz-adv-x="1139" vert-adv-y="2505" d="M31 0l19 93l19 1q69 5 83 28q14 20 24 69l22 99l104 518l18 99q7 34 7 44q0 49 -76 53l-18 1l18 93h405l-37 -182q68 93 135 139q98 68 217 68q224 0 224 -211q0 -60 -15 -135l-97 -487l-18 -99q-7 -34 -7 -44q0 -49 75 -53l19 -1l-19 -93h-501l19 93l19 1q75 5 95 97 l22 99l90 453q17 86 17 115q0 85 -91 85q-101 0 -206 -138l-103 -515l-18 -99q-7 -35 -7 -47q0 -47 63 -50l19 -1l-19 -93h-501zM516 1604h117l208 -194l285 194h118l-305 -321h-247z" />
<glyph unicode="&#x149;" horiz-adv-x="1493" vert-adv-y="2505" d="M259 987l18 93q105 0 141 203h-100l59 296h259l-44 -223q-71 -341 -333 -369zM384 0l19 93l19 1q65 4 81 25q14 19 26 72l22 99l104 518l18 99q7 33 7 44q0 49 -76 53l-18 1l18 93h405l-37 -182q68 93 135 139q98 68 217 68q224 0 224 -212q0 -59 -15 -134l-97 -487 l-18 -99q-7 -33 -7 -44q0 -49 75 -53l19 -1l-19 -93h-501l19 93l19 1q75 5 95 97l22 99l90 453q17 85 17 114q0 86 -91 86q-101 0 -206 -138l-103 -515l-18 -99q-7 -34 -7 -47q0 -47 63 -50l19 -1l-19 -93h-501z" />
<glyph unicode="&#x14a;" horiz-adv-x="1479" vert-adv-y="2505" d="M44 0l19 93l18 1q115 7 127 26q16 19 29 71l25 99l180 901l15 98l7 34q-4 55 -124 64l-18 1l18 92h385l448 -1099l162 810l15 98l7 35q-5 55 -124 63l-19 1l19 92h466l-18 -92l-19 -1q-116 -9 -126 -27q-16 -18 -29 -71l-25 -98l-238 -1191q-27 -136 -89 -242 q-105 -178 -327 -178q-75 0 -231 31l43 216h148q-6 -40 -6 -65q0 -83 91 -83q162 0 214 269l10 52h-84l-446 1081l-158 -791l-14 -99l-7 -34q4 -55 124 -63l18 -1l-19 -93h-467z" />
<glyph unicode="&#x14b;" horiz-adv-x="1139" vert-adv-y="2505" d="M31 0l19 93l19 1q69 5 83 28q14 20 24 69l22 99l104 518l18 99q7 35 7 44q0 49 -76 53l-18 1l18 93h405l-37 -182q68 93 135 139q98 68 217 68q224 0 224 -211q0 -60 -15 -135l-97 -487l-54 -268q-46 -229 -172 -336q-124 -106 -341 -106q-108 0 -242 41l41 206h136 q-9 -44 -9 -70q0 -85 99 -85q87 0 121 74q28 60 56 201l69 343l90 453q17 86 17 115q0 85 -91 85q-101 0 -206 -138l-103 -515l-18 -99q-7 -35 -7 -47q0 -46 63 -50l19 -1l-19 -93h-501z" />
<glyph unicode="&#x14c;" horiz-adv-x="1593" vert-adv-y="2505" d="M207 544q0 405 259 688q260 285 636 285q280 0 436 -151q157 -151 157 -431q0 -409 -262 -690q-263 -282 -650 -282q-240 0 -389 125q-187 155 -187 456zM524 465q0 -403 288 -403q214 0 363 226q98 148 151 344q51 183 51 381q0 406 -295 406q-233 0 -391 -283 q-167 -300 -167 -671zM778 1604l31 154h691l-31 -154h-691z" />
<glyph unicode="&#x14d;" vert-adv-y="2505" d="M141 387q0 309 174 522q175 214 433 214q366 0 366 -412q0 -311 -175 -523q-174 -213 -437 -213q-361 0 -361 412zM439 280q0 -200 97 -200q76 0 153 163q127 270 127 577q0 198 -94 198q-80 0 -157 -166q-126 -271 -126 -572zM429 1283l30 154h691l-30 -154h-691z" />
<glyph unicode="&#x14e;" horiz-adv-x="1593" vert-adv-y="2505" d="M207 544q0 405 259 688q260 285 636 285q280 0 436 -151q157 -151 157 -431q0 -409 -262 -690q-263 -282 -650 -282q-240 0 -389 125q-187 155 -187 456zM524 465q0 -403 288 -403q214 0 363 226q98 148 151 344q51 183 51 381q0 406 -295 406q-233 0 -391 -283 q-167 -300 -167 -671zM835 1884v9v10q1 13 1 22h93q22 -73 71 -107q58 -41 158 -41q181 0 289 148h92q-49 -136 -143 -216q-121 -105 -275 -105q-123 0 -204 80q-82 80 -82 200z" />
<glyph unicode="&#x14f;" vert-adv-y="2505" d="M141 387q0 309 174 522q175 214 433 214q366 0 366 -412q0 -311 -175 -523q-174 -213 -437 -213q-361 0 -361 412zM439 280q0 -200 97 -200q76 0 153 163q127 270 127 577q0 198 -94 198q-80 0 -157 -166q-126 -271 -126 -572zM486 1561v9v11q1 13 1 23h93 q21 -73 71 -107q59 -41 159 -41q181 0 288 148h92q-51 -136 -143 -216q-121 -105 -275 -105q-122 0 -204 80t-82 198z" />
<glyph unicode="&#x150;" horiz-adv-x="1593" vert-adv-y="2505" d="M207 544q0 405 259 688q260 285 636 285q280 0 436 -151q157 -151 157 -431q0 -409 -262 -690q-263 -282 -650 -282q-240 0 -389 125q-187 155 -187 456zM524 465q0 -403 288 -403q214 0 363 226q98 148 151 344q51 183 51 381q0 406 -295 406q-233 0 -391 -283 q-167 -300 -167 -671zM833 1604l278 321h202l-385 -321h-95zM1203 1604l278 321h202l-385 -321h-95z" />
<glyph unicode="&#x151;" vert-adv-y="2505" d="M141 387q0 309 174 522q175 214 433 214q366 0 366 -412q0 -311 -175 -523q-174 -213 -437 -213q-361 0 -361 412zM439 280q0 -200 97 -200q76 0 153 163q127 270 127 577q0 198 -94 198q-80 0 -157 -166q-126 -271 -126 -572zM457 1283l278 321h203l-385 -321h-96z M827 1283l278 321h203l-385 -321h-96z" />
<glyph unicode="&#x152;" horiz-adv-x="2048" vert-adv-y="2505" d="M202 527q0 409 246 700q246 290 593 290q143 0 288 -80l8 43h908l-53 -265h-148l2 19q1 6 4 26l5 34q1 5 2 6q2 8 3 9q1 6 2 7l3 6l-1 3q-8 25 -17 33q-34 24 -120 24h-301l-112 -562h201l98 2q45 1 53 14q9 12 14 39q2 10 11 44l5 19h135l-64 -321h-135l2 18q0 2 1 11 l2 10q1 6 2 15l1 4q3 16 3 31q0 22 -51 24l-94 4h-207l-89 -444q-17 -84 -17 -134q0 -30 30 -41q18 -7 60 -8l70 -2h124l115 3q70 1 87 56l20 77l5 18h148l-52 -259h-951l9 44q-176 -81 -323 -81q-239 0 -382 149t-143 415zM516 418q0 -356 235 -356q125 0 226 84 q66 54 107 162q38 97 72 268l65 322q39 193 39 285q0 107 -66 172q-66 64 -172 64q-234 0 -385 -379q-121 -305 -121 -622z" />
<glyph unicode="&#x153;" horiz-adv-x="1479" vert-adv-y="2505" d="M139 381q0 310 169 526t417 216q177 0 272 -120q148 120 309 120q265 0 265 -294q0 -129 -31 -268l-5 -22h-487q-24 -127 -24 -208q0 -207 183 -207q111 0 259 69l-30 -150q-174 -68 -323 -68q-194 0 -297 120q-146 -120 -327 -120q-350 0 -350 406zM424 276 q0 -196 91 -196q75 0 150 165q125 276 125 580q0 193 -87 193q-78 0 -155 -169q-124 -275 -124 -573zM1074 632h200q46 235 46 314q0 84 -51 84q-105 0 -195 -398z" />
<glyph unicode="&#x154;" horiz-adv-x="1479" vert-adv-y="2505" d="M43 0l19 93l18 1q115 7 127 26q16 19 29 71l25 99l180 901l15 98l7 34q-5 55 -124 64l-18 1l18 92h432l92 2l90 3l92 2q164 4 268 -56q124 -71 124 -238q0 -186 -138 -341q-93 -105 -240 -162l208 -403l59 -102q46 -82 103 -88l48 -3l18 -1l-18 -93h-441l-281 648h-126 l-72 -358l-15 -99q-4 -18 -8 -39q8 -26 11 -29q27 -26 90 -29l19 -1l-19 -93h-592zM649 747h54q181 0 300 125q120 126 120 309q0 201 -236 201h-111zM833 1604l304 321h300l-472 -321h-132z" />
<glyph unicode="&#x155;" horiz-adv-x="909" vert-adv-y="2505" d="M31 0l18 93l19 1q66 4 81 25q15 19 27 72l21 99l104 518l18 99q7 34 7 44q0 49 -76 53l-18 1l18 93h405l-41 -207q189 232 397 232q33 0 69 -8l-70 -350h-136l3 18l5 47q7 50 7 59q0 33 -52 33q-134 0 -244 -137l-100 -495q-16 -79 -16 -138q0 -47 77 -53l67 -5l18 -1 l-18 -93h-590zM510 1283l305 321h299l-471 -321h-133z" />
<glyph unicode="&#x156;" horiz-adv-x="1479" vert-adv-y="2505" d="M43 0l19 93l18 1q115 7 127 26q16 19 29 71l25 99l180 901l15 98l7 34q-4 55 -124 64l-18 1l18 92h432l92 2l90 3l92 2q164 3 268 -56q124 -71 124 -238q0 -185 -138 -341q-93 -105 -240 -162l208 -403l59 -102q47 -82 103 -88l48 -3l18 -1l-18 -93h-441l-281 648h-126 l-72 -358l-15 -99l-4 -17q-1 -11 -2 -12l-4 -6l2 -4q8 -26 16 -34q27 -20 85 -24l19 -1l-19 -93h-592zM503 -414l18 90q63 -12 103 -12q113 0 113 75q0 61 -141 63l18 89q168 -3 239 -35q81 -36 81 -108q0 -80 -78 -130t-206 -50q-71 0 -147 18zM649 747h54q181 0 300 125 q120 126 120 309q0 201 -236 201h-111z" />
<glyph unicode="&#x157;" horiz-adv-x="909" vert-adv-y="2505" d="M31 0l18 93l19 1q66 4 81 25q15 19 27 72l21 99l104 518l18 99q7 34 7 44q0 49 -76 53l-18 1l18 93h405l-41 -207q189 232 397 232q33 0 69 -8l-70 -350h-136l3 18l5 47q7 50 7 59q0 33 -52 33q-134 0 -244 -137l-100 -495q-16 -79 -16 -138q0 -47 77 -53l67 -5l18 -1 l-18 -93h-590zM81 -414l18 90q62 -12 103 -12q112 0 112 75q0 61 -141 63l18 89q168 -3 241 -35q80 -36 80 -109q0 -79 -79 -129q-78 -50 -205 -50q-71 0 -147 18z" />
<glyph unicode="&#x158;" horiz-adv-x="1479" vert-adv-y="2505" d="M43 0l19 93l18 1q115 7 127 26q16 19 29 71l25 99l180 901l15 98l7 34q-5 55 -124 64l-18 1l18 92h432l92 2l90 3l92 2q164 4 268 -56q124 -71 124 -238q0 -186 -138 -341q-93 -105 -240 -162l208 -403l59 -102q46 -82 103 -88l48 -3l18 -1l-18 -93h-441l-281 648h-126 l-72 -358l-15 -99q-4 -18 -8 -39q8 -26 11 -29q27 -26 90 -29l19 -1l-19 -93h-592zM644 1925h117l208 -195l285 195h118l-305 -321h-247zM649 747h54q181 0 300 125q120 126 120 309q0 201 -236 201h-111z" />
<glyph unicode="&#x159;" horiz-adv-x="909" vert-adv-y="2505" d="M31 0l18 93l19 1q66 4 81 25q15 19 27 72l21 99l104 518l18 99q7 34 7 44q0 49 -76 53l-18 1l18 93h405l-41 -207q189 232 397 232q33 0 69 -8l-70 -350h-136l3 18l5 47q7 50 7 59q0 33 -52 33q-134 0 -244 -137l-100 -495q-16 -79 -16 -138q0 -47 77 -53l67 -5l18 -1 l-18 -93h-590zM331 1604h117l208 -194l285 194h118l-305 -321h-247z" />
<glyph unicode="&#x15a;" horiz-adv-x="1139" vert-adv-y="2505" d="M104 18l62 309h160l-4 -24l-10 -65q-2 -12 -2 -35q0 -61 63 -101q63 -41 155 -41q136 0 230 97q95 96 95 227q0 116 -161 215l-88 54q-290 178 -290 384q0 196 169 337q169 142 414 142q166 0 383 -65l-60 -298h-160l2 18l11 67q0 4 1 19l1 10v7v5q0 139 -165 139 q-120 0 -206 -85q-86 -84 -86 -195q0 -101 163 -208l88 -58q173 -114 232 -192q64 -82 64 -196q0 -220 -187 -371t-468 -151q-175 0 -406 55zM764 1604l305 321h299l-471 -321h-133z" />
<glyph unicode="&#x15b;" horiz-adv-x="797" vert-adv-y="2505" d="M53 50l52 258h148l-2 -18q-16 -83 -16 -111q0 -111 119 -111q78 0 120 47q46 53 46 154q0 82 -91 150l-66 49q-167 124 -167 263q0 169 121 280q120 112 310 112q115 0 260 -44l-49 -246h-148l3 18l6 42q10 44 10 75q0 62 -69 62q-63 0 -105 -61t-42 -145q0 -80 86 -145 l50 -38q122 -93 159 -143q35 -48 35 -123q0 -168 -140 -284t-335 -116q-120 0 -295 75zM534 1283l305 321h299l-471 -321h-133z" />
<glyph unicode="&#x15c;" horiz-adv-x="1139" vert-adv-y="2505" d="M104 18l62 309h160l-4 -24l-10 -65q-2 -12 -2 -35q0 -61 63 -101q63 -41 155 -41q136 0 230 97q95 96 95 227q0 116 -161 215l-88 54q-290 178 -290 384q0 196 169 337q169 142 414 142q166 0 383 -65l-60 -298h-160l2 18l11 67q0 4 1 19l1 10v7v5q0 139 -165 139 q-120 0 -206 -85q-86 -84 -86 -195q0 -101 163 -208l88 -58q173 -114 232 -192q64 -82 64 -196q0 -220 -187 -371t-468 -151q-175 0 -406 55zM533 1604l304 321h247l176 -321h-117l-208 194l-285 -194h-117z" />
<glyph unicode="&#x15d;" horiz-adv-x="797" vert-adv-y="2505" d="M53 50l52 258h148l-2 -18q-16 -83 -16 -111q0 -111 119 -111q78 0 120 47q46 53 46 154q0 82 -91 150l-66 49q-167 124 -167 263q0 169 121 280q120 112 310 112q115 0 260 -44l-49 -246h-148l3 18l6 42q10 44 10 75q0 62 -69 62q-63 0 -105 -61t-42 -145q0 -80 86 -145 l50 -38q122 -93 159 -143q35 -48 35 -123q0 -168 -140 -284t-335 -116q-120 0 -295 75zM303 1283l305 321h247l176 -321h-117l-208 194l-286 -194h-117z" />
<glyph unicode="&#x15e;" horiz-adv-x="1139" vert-adv-y="2505" d="M104 18l62 309h160l-4 -24l-10 -65q-2 -12 -2 -35q0 -61 63 -101q63 -41 155 -41q136 0 230 97q95 97 95 227q0 116 -161 215l-88 54q-290 178 -290 384q0 196 169 337q168 142 414 142q166 0 383 -65l-60 -298h-160l2 18l11 67q0 4 1 19l1 10v7v5q0 139 -165 139 q-120 0 -206 -85q-86 -84 -86 -195q0 -101 163 -208l88 -58q173 -114 232 -191q64 -83 64 -197q0 -220 -187 -371t-468 -151q-175 0 -406 55zM290 -407l17 85q69 -21 111 -21q108 0 108 84q0 70 -165 72l131 187h108l-79 -114q90 -6 136 -28q67 -33 67 -106q0 -81 -75 -132 q-75 -52 -198 -52q-74 0 -161 25z" />
<glyph unicode="&#x15f;" horiz-adv-x="797" vert-adv-y="2505" d="M53 50l52 258h148l-2 -18q-16 -83 -16 -111q0 -111 119 -111q78 0 120 47q46 53 46 154q0 82 -91 150l-66 49q-167 124 -167 263q0 169 121 280q120 112 310 112q115 0 260 -44l-49 -246h-148l3 18l6 42q10 44 10 75q0 62 -69 62q-63 0 -105 -61t-42 -145q0 -80 86 -145 l50 -38q122 -93 159 -143q35 -48 35 -123q0 -168 -140 -284t-335 -116q-120 0 -295 75zM110 -407l17 85q69 -21 111 -21q107 0 107 83q0 71 -164 73l130 187h109l-79 -114q203 -13 203 -133q0 -82 -76 -133q-75 -52 -198 -52q-74 0 -160 25z" />
<glyph unicode="&#x160;" horiz-adv-x="1139" vert-adv-y="2505" d="M104 18l62 309h160l-4 -24l-10 -65q-2 -12 -2 -35q0 -61 63 -101q63 -41 155 -41q136 0 230 97q95 96 95 227q0 116 -161 215l-88 54q-290 178 -290 384q0 196 169 337q169 142 414 142q166 0 383 -65l-60 -298h-160l2 18l11 67q0 4 1 19l1 10v7v5q0 139 -165 139 q-120 0 -206 -85q-86 -84 -86 -195q0 -101 163 -208l88 -58q173 -114 232 -192q64 -82 64 -196q0 -220 -187 -371t-468 -151q-175 0 -406 55zM597 1925h117l208 -195l285 195h118l-305 -321h-247z" />
<glyph unicode="&#x161;" horiz-adv-x="797" vert-adv-y="2505" d="M53 50l52 258h148l-2 -18q-16 -83 -16 -111q0 -111 119 -111q78 0 120 47q46 53 46 154q0 82 -91 150l-66 49q-167 124 -167 263q0 169 121 280q120 112 310 112q115 0 260 -44l-49 -246h-148l3 18l6 42q10 44 10 75q0 62 -69 62q-63 0 -105 -61t-42 -145q0 -80 86 -145 l50 -38q122 -93 159 -143q35 -48 35 -123q0 -168 -140 -284t-335 -116q-120 0 -295 75zM367 1604h117l208 -194l285 194h118l-305 -321h-247z" />
<glyph unicode="&#x162;" horiz-adv-x="1366" vert-adv-y="2505" d="M275 1172l62 308h1286l-62 -308h-160l5 31l14 91q4 27 4 44q0 44 -129 44h-181l-218 -1092q-16 -80 -16 -137q0 -33 30 -45q15 -7 47 -9l66 -5l19 -1l-19 -93h-678l18 93l19 1l69 5q74 5 97 52q20 39 40 139l218 1092h-180q-106 0 -129 -20q-21 -18 -32 -67 q-14 -57 -17 -75q-6 -29 -7 -29l-5 -19h-161zM430 -407l17 85q69 -21 111 -21q107 0 107 83q0 71 -164 73l130 187h109l-79 -114q90 -6 136 -28q67 -33 67 -106q0 -81 -75 -132q-76 -52 -198 -52q-75 0 -161 25z" />
<glyph unicode="&#x163;" horiz-adv-x="682" vert-adv-y="2505" d="M159 -407l17 85q70 -21 112 -21q107 0 107 83q0 71 -165 73l131 187h109l-79 -114q89 -6 135 -28q67 -33 67 -105q0 -82 -75 -133q-76 -52 -198 -52q-75 0 -161 25zM198 187q0 59 19 154l132 658h-111l19 99h111l37 185l307 52l-48 -237h189l-20 -99h-188l-133 -665 l-17 -85q-8 -40 -8 -67q0 -89 79 -89q40 0 102 23l-21 -107q-101 -34 -183 -34q-117 0 -191 58q-75 58 -75 154z" />
<glyph unicode="&#x164;" horiz-adv-x="1366" vert-adv-y="2505" d="M275 1172l62 308h1286l-62 -308h-160l5 31l14 91q4 27 4 44q0 44 -129 44h-181l-218 -1092q-16 -80 -16 -137q0 -33 30 -45q15 -7 47 -9l66 -5l19 -1l-19 -93h-678l18 93l19 1l69 5q74 5 97 52q20 39 40 139l218 1092h-180q-106 0 -129 -20q-21 -18 -32 -67 q-14 -57 -17 -75q-6 -29 -7 -29l-5 -19h-161zM705 1925h117l208 -195l285 195h118l-305 -321h-247z" />
<glyph unicode="&#x165;" horiz-adv-x="1067" vert-adv-y="2505" d="M198 187q0 59 19 154l132 658h-111l19 99h111l37 185l307 52l-48 -237h189l-20 -99h-188l-133 -665l-17 -85q-8 -39 -8 -68q0 -88 79 -88q39 0 102 23l-21 -107q-101 -34 -183 -34q-117 0 -191 58q-75 58 -75 154zM968 1135l18 93q105 0 141 203h-100l59 296h259 l-44 -223q-69 -341 -333 -369z" />
<glyph unicode="&#x166;" horiz-adv-x="1366" vert-adv-y="2505" d="M275 1172l62 308h1286l-62 -308h-160l5 31l14 91q4 27 4 44q0 44 -129 44h-181l-113 -568h271l-19 -99h-272l-85 -425q-16 -80 -16 -137q0 -33 30 -45q15 -7 47 -9l66 -5l19 -1l-19 -93h-678l18 93l19 1l69 5q74 5 97 52q20 39 40 139l85 425h-272l20 99h272l113 568 h-180q-106 0 -129 -20q-21 -18 -32 -67q-14 -57 -17 -75q-6 -29 -7 -29l-5 -19h-161z" />
<glyph unicode="&#x167;" horiz-adv-x="682" vert-adv-y="2505" d="M158 605l19 98h111l60 296h-111l19 99h111l37 185l307 52l-48 -237h189l-20 -99h-188l-60 -296h189l-20 -98h-188l-54 -271l-17 -85q-8 -40 -8 -67q0 -89 79 -89q40 0 102 23l-21 -107q-101 -34 -183 -34q-117 0 -191 58q-75 58 -75 154q0 60 19 154l53 264h-111z" />
<glyph unicode="&#x168;" horiz-adv-x="1479" vert-adv-y="2505" d="M267 349q0 89 25 214l124 621l14 99l7 34q-4 56 -124 64l-18 1l20 98h629l-18 -92l-19 -1q-116 -9 -126 -27q-16 -19 -29 -71l-25 -98l-128 -640q-34 -170 -34 -254q0 -237 249 -237q182 0 290 120q109 120 161 379l126 632l15 98l7 35q-5 54 -124 63l-18 1l18 92h466 l-19 -92l-19 -1q-113 -8 -124 -26q-16 -19 -29 -72l-25 -98l-121 -608q-63 -318 -225 -469t-442 -151q-223 0 -353 103q-131 102 -131 283zM742 1604q26 106 64 163q69 102 189 102q64 0 126 -33l67 -36q66 -35 104 -35q80 0 107 104h93q-26 -106 -64 -163 q-68 -102 -188 -102q-65 0 -127 33l-67 36q-65 35 -104 35q-80 0 -108 -104h-92z" />
<glyph unicode="&#x169;" horiz-adv-x="1139" vert-adv-y="2505" d="M165 189q0 62 14 132l98 487l18 99q7 33 7 44q0 49 -76 53l-18 1l18 93h405l-149 -743q-17 -85 -17 -115q0 -85 91 -85q101 0 206 138l103 515l18 99q7 34 7 47q0 47 -63 50l-19 1l19 93h392l-161 -808l-18 -99q-7 -35 -7 -44q0 -49 75 -53l19 -1l-19 -93h-404l36 182 q-152 -207 -352 -207q-223 0 -223 214zM477 1283q26 107 64 164q69 102 187 102q65 0 128 -34l67 -36q66 -35 103 -35q81 0 108 105h93q-26 -107 -64 -164q-68 -102 -187 -102q-63 0 -128 34l-67 35q-69 36 -104 36q-81 0 -108 -105h-92z" />
<glyph unicode="&#x16a;" horiz-adv-x="1479" vert-adv-y="2505" d="M267 349q0 89 25 214l124 621l14 99l7 34q-4 56 -124 64l-18 1l20 98h629l-18 -92l-19 -1q-116 -9 -126 -27q-16 -19 -29 -71l-25 -98l-128 -640q-34 -170 -34 -254q0 -237 249 -237q182 0 290 120q109 120 161 379l126 632l15 98l7 35q-5 54 -124 63l-18 1l18 92h466 l-19 -92l-19 -1q-113 -8 -124 -26q-16 -19 -29 -72l-25 -98l-121 -608q-63 -318 -225 -469t-442 -151q-223 0 -353 103q-131 102 -131 283zM783 1604l31 154h691l-31 -154h-691z" />
<glyph unicode="&#x16b;" horiz-adv-x="1139" vert-adv-y="2505" d="M165 189q0 62 14 132l98 487l18 99q7 33 7 44q0 49 -76 53l-18 1l18 93h405l-149 -743q-17 -85 -17 -115q0 -85 91 -85q101 0 206 138l103 515l18 99q7 34 7 47q0 47 -63 50l-19 1l19 93h392l-161 -808l-18 -99q-7 -35 -7 -44q0 -49 75 -53l19 -1l-19 -93h-404l36 182 q-152 -207 -352 -207q-223 0 -223 214zM467 1283l30 154h691l-30 -154h-691z" />
<glyph unicode="&#x16c;" horiz-adv-x="1479" vert-adv-y="2505" d="M267 349q0 89 25 214l124 621l14 99l7 34q-4 56 -124 64l-18 1l20 98h629l-18 -92l-19 -1q-116 -9 -126 -27q-16 -19 -29 -71l-25 -98l-128 -640q-34 -170 -34 -254q0 -237 249 -237q182 0 290 120q109 120 161 379l126 632l15 98l7 35q-5 54 -124 63l-18 1l18 92h466 l-19 -92l-19 -1q-113 -8 -124 -26q-16 -19 -29 -72l-25 -98l-121 -608q-63 -318 -225 -469t-442 -151q-223 0 -353 103q-131 102 -131 283zM828 1884v9v10q0 13 1 22h93q21 -73 71 -107q59 -41 159 -41q181 0 288 148h93q-51 -136 -143 -216q-121 -105 -275 -105 q-124 0 -205 80q-82 80 -82 200z" />
<glyph unicode="&#x16d;" horiz-adv-x="1139" vert-adv-y="2505" d="M165 189q0 62 14 132l98 487l18 99q7 33 7 44q0 49 -76 53l-18 1l18 93h405l-149 -743q-17 -85 -17 -115q0 -85 91 -85q101 0 206 138l103 515l18 99q7 34 7 47q0 47 -63 50l-19 1l19 93h392l-161 -808l-18 -99q-7 -35 -7 -44q0 -49 75 -53l19 -1l-19 -93h-404l36 182 q-152 -207 -352 -207q-223 0 -223 214zM503 1561v9v11q1 13 1 23h92q44 -148 230 -148q181 0 288 148h93q-51 -137 -143 -216q-121 -105 -275 -105q-123 0 -204 80q-82 80 -82 198z" />
<glyph unicode="&#x16e;" horiz-adv-x="1479" vert-adv-y="2505" d="M267 349q0 89 25 214l124 621l14 99l7 34q-4 56 -124 64l-18 1l20 98h629l-18 -92l-19 -1q-116 -9 -126 -27q-16 -19 -29 -71l-25 -98l-128 -640q-34 -170 -34 -254q0 -237 249 -237q182 0 290 120q109 120 161 379l126 632l15 98l7 35q-5 54 -124 63l-18 1l18 92h466 l-19 -92l-19 -1q-113 -8 -124 -26q-16 -19 -29 -72l-25 -98l-121 -608q-63 -318 -225 -469t-442 -151q-223 0 -353 103q-131 102 -131 283zM924 1792q0 109 88 195t199 86q83 0 137 -53q55 -54 55 -135q0 -110 -88 -195q-87 -86 -200 -86q-75 0 -126 43q-65 55 -65 145z M1019 1809q0 -113 114 -113q61 0 111 42q64 55 64 130q0 112 -114 112q-70 0 -123 -52q-52 -52 -52 -119z" />
<glyph unicode="&#x16f;" horiz-adv-x="1139" vert-adv-y="2505" d="M165 189q0 62 14 132l98 487l18 99q7 33 7 44q0 49 -76 53l-18 1l18 93h405l-149 -743q-17 -85 -17 -115q0 -85 91 -85q101 0 206 138l103 515l18 99q7 34 7 47q0 47 -63 50l-19 1l19 93h392l-161 -808l-18 -99q-7 -35 -7 -44q0 -49 75 -53l19 -1l-19 -93h-404l36 182 q-152 -207 -352 -207q-223 0 -223 214zM599 1471q0 110 87 195q88 86 199 86q84 0 138 -53t54 -135q0 -110 -88 -195q-87 -86 -200 -86q-75 0 -125 43q-65 55 -65 145zM693 1488q0 -112 114 -112q63 0 112 42q64 54 64 129q0 112 -115 112q-69 0 -122 -52q-53 -51 -53 -119z " />
<glyph unicode="&#x170;" horiz-adv-x="1479" vert-adv-y="2505" d="M267 349q0 89 25 214l124 621l14 99l7 34q-4 56 -124 64l-18 1l20 98h629l-18 -92l-19 -1q-116 -9 -126 -27q-16 -19 -29 -71l-25 -98l-128 -640q-34 -170 -34 -254q0 -237 249 -237q182 0 290 120q109 120 161 379l126 632l15 98l7 35q-5 54 -124 63l-18 1l18 92h466 l-19 -92l-19 -1q-113 -8 -124 -26q-16 -19 -29 -72l-25 -98l-121 -608q-63 -318 -225 -469t-442 -151q-223 0 -353 103q-131 102 -131 283zM834 1604l279 321h202l-385 -321h-96zM1205 1604l278 321h202l-385 -321h-95z" />
<glyph unicode="&#x171;" horiz-adv-x="1139" vert-adv-y="2505" d="M165 189q0 62 14 132l98 487l18 99q7 33 7 44q0 49 -76 53l-18 1l18 93h405l-149 -743q-17 -85 -17 -115q0 -85 91 -85q101 0 206 138l103 515l18 99q7 34 7 47q0 47 -63 50l-19 1l19 93h392l-161 -808l-18 -99q-7 -35 -7 -44q0 -49 75 -53l19 -1l-19 -93h-404l36 182 q-152 -207 -352 -207q-223 0 -223 214zM498 1283l278 321h203l-385 -321h-96zM868 1283l278 321h203l-385 -321h-96z" />
<glyph unicode="&#x172;" horiz-adv-x="1479" vert-adv-y="2505" d="M267 349q0 89 25 214l124 621l14 99l7 34q-4 56 -124 64l-18 1l20 98h629l-18 -92l-19 -1q-117 -9 -126 -27q-16 -18 -29 -71l-25 -98l-128 -640q-34 -170 -34 -254q0 -237 249 -237q182 0 290 120q109 120 161 379l126 632l15 98l7 35q-5 54 -124 63l-18 1l18 92h466 l-19 -92l-19 -1q-113 -8 -124 -26q-16 -19 -29 -72l-25 -98l-121 -608q-63 -318 -225 -469t-442 -151q-223 0 -353 103q-131 102 -131 283zM583 -239q0 120 227 239h101q-125 -96 -125 -194q0 -78 98 -78q54 0 121 22l-17 -87q-92 -33 -189 -33q-216 0 -216 131z" />
<glyph unicode="&#x173;" horiz-adv-x="1139" vert-adv-y="2505" d="M165 189q0 62 14 132l98 487l18 99q7 33 7 44q0 49 -76 53l-18 1l18 93h405l-149 -743q-17 -85 -17 -115q0 -85 91 -85q101 0 206 138l103 515l18 99q7 34 7 47q0 47 -63 50l-19 1l19 93h392l-161 -808l-18 -99q-7 -35 -7 -44q0 -49 75 -53l19 -1l-19 -93h-404l36 182 q-152 -207 -352 -207q-223 0 -223 214zM528 -239q0 120 227 239h101q-125 -97 -125 -194q0 -78 98 -78q54 0 121 22l-17 -87q-91 -33 -188 -33q-217 0 -217 131z" />
<glyph unicode="&#x174;" horiz-adv-x="2048" vert-adv-y="2505" d="M290 1388l19 92h592l-19 -92h-18l-54 -1q-59 -1 -69 -23q-10 -20 -10 -67q0 -52 6 -108l72 -675l504 948h126l154 -980l359 703l32 67l7 15l9 20q14 31 16 36q10 19 10 33q0 30 -56 31l-46 1h-18l18 92h407l-18 -92l-19 -1l-16 -1q-19 -2 -30 -2q-47 -1 -64 -16 q-16 -14 -38 -58l-65 -125l-622 -1204h-96l-165 1027l-546 -1027h-98l-122 1208l-13 112q-7 64 -27 71q-20 10 -84 15zM1040 1604l305 321h247l176 -321h-117l-208 194l-285 -194h-118z" />
<glyph unicode="&#x175;" horiz-adv-x="1479" vert-adv-y="2505" d="M213 1005l18 93h525l-19 -93h-18q-77 -1 -89 -41q-12 -38 -12 -136v-17l14 -355l351 636h106l79 -635l158 347l29 63l27 61q14 31 14 46q0 31 -69 31h-18l18 93h358l-18 -93l-19 -1q-98 -6 -119 -39q-27 -36 -81 -156l-370 -821h-91l-96 772l-427 -772h-96l-30 819l-2 97 q-4 94 -105 100zM710 1283l305 321h247l176 -321h-117l-208 194l-286 -194h-117z" />
<glyph unicode="&#x176;" horiz-adv-x="1479" vert-adv-y="2505" d="M280 1388l18 92h642l-19 -92h-16l-50 -1q-75 -1 -75 -40q0 -41 51 -166l169 -412l339 412q120 146 120 177q0 30 -90 30h-22l18 92h407l-18 -92l-19 -1l-44 -4q-59 -6 -108 -66l-114 -135l-452 -540l-70 -352l-14 -99l-7 -34q4 -55 124 -63l18 -1l-19 -93h-629l19 93 l19 1q115 7 126 26q17 20 30 71l25 99l70 350l-227 542l-19 44l-14 34q-12 28 -15 38q-28 82 -82 86l-53 3zM803 1604l305 321h247l176 -321h-117l-208 194l-285 -194h-118z" />
<glyph unicode="&#x177;" vert-adv-y="2505" d="M71 -395l406 401l-158 798l-20 104q-18 92 -79 96l-19 1l19 93h523l-19 -93l-19 -1h-10q-13 -1 -16 -1l-10 1l-7 -2q-28 -9 -33.5 -12.5t-11.5 -15.5q-11 -21 -11 -38q0 -2 2 -15l1 -11q5 -46 17 -106l79 -410l229 410l10 19l10 17l14 27l31 63q13 26 13 46q0 23 -44 26 l-27 2l-19 1l19 93h303l-19 -93l-18 -1l-29 -1q-49 -3 -94 -94q-4 -7 -11 -21l-45 -81l-670 -1202h-287zM506 1283l305 321h247l176 -321h-117l-208 194l-285 -194h-118z" />
<glyph unicode="&#x178;" horiz-adv-x="1479" vert-adv-y="2505" d="M280 1388l18 92h642l-19 -92h-16l-50 -1q-75 -1 -75 -40q0 -41 51 -166l169 -412l339 412q120 146 120 177q0 30 -90 30h-22l18 92h407l-18 -92l-19 -1l-44 -4q-59 -6 -108 -66l-114 -135l-452 -540l-70 -352l-14 -99l-7 -34q4 -55 124 -63l18 -1l-19 -93h-629l19 93 l19 1q115 7 126 26q17 20 30 71l25 99l70 350l-227 542l-19 44l-14 34q-12 28 -15 38q-28 82 -82 86l-53 3zM859 1604l42 210h210l-42 -210h-210zM1266 1604l42 210h210l-42 -210h-210z" />
<glyph unicode="&#x179;" horiz-adv-x="1366" vert-adv-y="2505" d="M90 0l22 111l1067 1258h-433q-91 0 -117 -14t-39 -70l-21 -98l-9 -40h-185l67 333h1097l-22 -111l-1060 -1258h432q137 0 164 11q26 12 42 76l21 83l11 46h185l-66 -327h-1156zM856 1604l305 321h299l-471 -321h-133z" />
<glyph unicode="&#x17a;" horiz-adv-x="909" vert-adv-y="2505" d="M52 0l21 105l656 900h-143q-95 0 -126 -13q-32 -13 -44 -58l-20 -83l-5 -18h-135l53 265h742l-18 -93l-654 -900h190q125 0 147 21q22 19 31 62l4 15l12 44l5 18h135l-53 -265h-798zM567 1283l305 321h299l-471 -321h-133z" />
<glyph unicode="&#x17b;" horiz-adv-x="1366" vert-adv-y="2505" d="M90 0l22 111l1067 1258h-433q-91 0 -117 -14t-39 -70l-21 -98l-9 -40h-185l67 333h1097l-22 -111l-1060 -1258h432q137 0 164 11q26 12 42 76l21 83l11 46h185l-66 -327h-1156zM855 1604l59 296h296l-59 -296h-296z" />
<glyph unicode="&#x17c;" horiz-adv-x="909" vert-adv-y="2505" d="M52 0l21 105l656 900h-143q-95 0 -126 -13q-32 -13 -44 -58l-20 -83l-5 -18h-135l53 265h742l-18 -93l-654 -900h190q125 0 147 21q22 19 31 62l4 15l12 44l5 18h135l-53 -265h-798zM583 1283l59 296h296l-59 -296h-296z" />
<glyph unicode="&#x17d;" horiz-adv-x="1366" vert-adv-y="2505" d="M90 0l22 111l1067 1258h-433q-91 0 -117 -14t-39 -70l-21 -98l-9 -40h-185l67 333h1097l-22 -111l-1060 -1258h432q137 0 164 11q26 12 42 76l21 83l11 46h185l-66 -327h-1156zM722 1925h117l208 -195l285 195h118l-305 -321h-247z" />
<glyph unicode="&#x17e;" horiz-adv-x="909" vert-adv-y="2505" d="M52 0l21 105l656 900h-143q-95 0 -126 -13q-32 -13 -44 -58l-20 -83l-5 -18h-135l53 265h742l-18 -93l-654 -900h190q125 0 147 21q22 19 31 62l4 15l12 44l5 18h135l-53 -265h-798zM431 1604h117l208 -194l285 194h118l-305 -321h-247z" />
<glyph unicode="&#x17f;" horiz-adv-x="569" vert-adv-y="2505" d="M49 0l18 93l19 1q66 4 81 25q15 19 27 72l21 99l142 709h-121l20 99h121l9 44q95 462 453 462q125 0 221 -63l-47 -233h-129l2 18l8 61q4 30 4 52q0 69 -60 69q-58 0 -86 -75q-23 -59 -50 -192l-191 -951l-17 -99q-7 -34 -7 -44q0 -51 100 -53l43 -1l-19 -93h-562z" />
<glyph unicode="&#x192;" vert-adv-y="2505" d="M-59 -296l412 1030h-158l18 93h177l45 115q102 260 282 418q179 157 376 157q88 0 190 -36l-54 -272h-161q16 87 16 130q0 78 -53 78q-110 0 -206 -241l-58 -145l-82 -204h224l-18 -93h-242l-412 -1030h-296z" />
<glyph unicode="&#x218;" horiz-adv-x="1139" vert-adv-y="2505" d="M104 18l62 309h160l-4 -24l-10 -65q-2 -12 -2 -35q0 -61 63 -101q63 -41 155 -41q136 0 230 97q95 97 95 227q0 116 -161 215l-88 54q-290 178 -290 384q0 196 169 337q168 142 414 142q166 0 383 -65l-60 -298h-160l2 18l11 67q0 4 1 19l1 10v7v5q0 139 -165 139 q-120 0 -206 -85q-86 -84 -86 -195q0 -101 163 -208l88 -58q173 -114 232 -191q64 -83 64 -197q0 -220 -187 -371t-468 -151q-175 0 -406 55zM313 -414l18 90q63 -12 104 -12q112 0 112 75q0 61 -141 63l18 89q168 -3 241 -35q80 -36 80 -109q0 -79 -79 -129 q-78 -50 -205 -50q-71 0 -148 18z" />
<glyph unicode="&#x219;" horiz-adv-x="797" vert-adv-y="2505" d="M53 50l52 258h148l-2 -18q-16 -83 -16 -111q0 -111 119 -111q78 0 120 47q46 53 46 154q0 82 -91 150l-66 49q-167 124 -167 263q0 169 121 280q120 112 310 112q115 0 260 -44l-49 -246h-148l3 18l6 42q10 44 10 75q0 62 -69 62q-63 0 -105 -61t-42 -145q0 -80 86 -145 l50 -38q122 -93 159 -143q35 -48 35 -123q0 -168 -140 -284t-335 -116q-120 0 -295 75zM125 -414l18 90q62 -12 103 -12q112 0 112 75q0 61 -141 63l18 89q168 -3 241 -35q80 -36 80 -109q0 -79 -79 -129q-78 -50 -205 -50q-71 0 -147 18z" />
<glyph unicode="&#x21a;" horiz-adv-x="1366" vert-adv-y="2505" d="M275 1172l62 308h1286l-62 -308h-160l5 31l14 91q4 27 4 44q0 44 -129 44h-181l-218 -1092q-16 -80 -16 -137q0 -33 30 -45q15 -7 47 -9l66 -5l19 -1l-19 -93h-678l18 93l19 1l69 5q74 5 97 52q20 39 40 139l218 1092h-180q-106 0 -129 -20q-21 -18 -32 -67 q-14 -57 -17 -75q-6 -29 -7 -29l-5 -19h-161zM447 -414l18 90q62 -12 103 -12q112 0 112 75q0 35 -39 50q-32 12 -101 13l17 89q168 -3 241 -35q80 -36 80 -108q0 -80 -78 -130q-79 -50 -206 -50q-71 0 -147 18z" />
<glyph unicode="&#x21b;" horiz-adv-x="682" vert-adv-y="2505" d="M197 187q0 59 19 154l132 658h-111l19 99h111l37 185l307 52l-48 -237h189l-20 -99h-188l-133 -665l-17 -85q-8 -39 -8 -68q0 -88 79 -88q39 0 102 23l-21 -107q-101 -34 -183 -34q-117 0 -191 58q-75 58 -75 154zM139 -414l18 90q62 -12 103 -12q112 0 112 75 q0 61 -141 63l18 89q168 -3 241 -35q80 -36 80 -109q0 -79 -79 -129q-78 -50 -205 -50q-71 0 -147 18z" />
<glyph unicode="&#x2c6;" horiz-adv-x="682" vert-adv-y="2505" d="M234 1283l304 321h247l177 -321h-118l-207 194l-286 -194h-117z" />
<glyph unicode="&#x2c7;" horiz-adv-x="682" vert-adv-y="2505" d="M298 1604h117l208 -194l285 194h118l-305 -321h-247z" />
<glyph unicode="&#x2c9;" horiz-adv-x="682" vert-adv-y="2505" d="M252 1283l30 154h691l-30 -154h-691z" />
<glyph unicode="&#x2d8;" horiz-adv-x="682" vert-adv-y="2505" d="M309 1561q0 14 2 43h92q44 -148 230 -148q181 0 288 148h93q-51 -136 -143 -216q-121 -105 -275 -105q-123 0 -205 80t-82 198z" />
<glyph unicode="&#x2d9;" horiz-adv-x="682" vert-adv-y="2505" d="M450 1283l59 296h296l-59 -296h-296z" />
<glyph unicode="&#x2da;" horiz-adv-x="682" vert-adv-y="2505" d="M410 1471q0 110 87 195q88 86 199 86q84 0 138 -53t54 -135q0 -110 -88 -195q-87 -86 -200 -86q-75 0 -125 43q-65 55 -65 145zM504 1488q0 -112 114 -112q63 0 112 42q64 54 64 129q0 112 -115 112q-69 0 -122 -52q-53 -51 -53 -119z" />
<glyph unicode="&#x2db;" horiz-adv-x="682" vert-adv-y="2505" d="M85 -239q0 120 227 239h101q-125 -97 -125 -194q0 -78 98 -78q54 0 121 22l-17 -87q-91 -33 -188 -33q-217 0 -217 131z" />
<glyph unicode="&#x2dc;" horiz-adv-x="682" vert-adv-y="2505" d="M249 1283q26 107 64 164q69 102 187 102q65 0 128 -34l67 -36q66 -35 103 -35q81 0 108 105h93q-26 -107 -64 -164q-68 -102 -187 -102q-63 0 -128 34l-67 35q-69 36 -104 36q-81 0 -108 -105h-92z" />
<glyph unicode="&#x2dd;" horiz-adv-x="682" vert-adv-y="2505" d="M204 1283l278 321h203l-385 -321h-96zM574 1283l278 321h203l-385 -321h-96z" />
<glyph unicode="&#x326;" horiz-adv-x="682" vert-adv-y="2505" d="M58 -414l18 90q62 -12 103 -12q112 0 112 75q0 61 -141 63l18 89q168 -3 241 -35q80 -36 80 -109q0 -79 -79 -129q-78 -50 -205 -50q-71 0 -147 18z" />
<glyph unicode="&#x37e;" horiz-adv-x="682" vert-adv-y="2505" d="M134 -296l18 92q138 20 152 204h-111l59 296h296l-43 -218q-68 -332 -371 -374zM353 802l60 296h296l-60 -296h-296z" />
<glyph unicode="&#x387;" horiz-adv-x="512" vert-adv-y="2505" d="M202 469l59 296h296l-59 -296h-296z" />
<glyph unicode="&#x2010;" horiz-adv-x="682" vert-adv-y="2505" d="M153 518l29 148h584l-30 -148h-583z" />
<glyph unicode="&#x2011;" horiz-adv-x="682" vert-adv-y="2505" d="M153 518l29 148h584l-30 -148h-583z" />
<glyph unicode="&#x2012;" vert-adv-y="2505" d="M181 537l32 160h876l-32 -160h-876z" />
<glyph unicode="&#x2013;" vert-adv-y="2505" d="M181 537l32 160h876l-32 -160h-876z" />
<glyph unicode="&#x2014;" horiz-adv-x="2048" vert-adv-y="2505" d="M206 537l25 123h1851l-25 -123h-1851z" />
<glyph unicode="&#x2015;" horiz-adv-x="2048" vert-adv-y="2505" d="M206 537l25 123h1851l-25 -123h-1851z" />
<glyph unicode="&#x2018;" horiz-adv-x="682" vert-adv-y="2505" d="M361 962l50 248q70 339 395 369l-19 -93q-131 -15 -164 -203h123l-64 -321h-321z" />
<glyph unicode="&#x2019;" horiz-adv-x="682" vert-adv-y="2505" d="M385 962l19 93q132 16 164 203h-123l64 321h321l-50 -248q-70 -340 -395 -369z" />
<glyph unicode="&#x201a;" horiz-adv-x="682" vert-adv-y="2505" d="M134 -296l18 93q132 16 164 203h-123l64 321h321l-50 -248q-70 -341 -394 -369z" />
<glyph unicode="&#x201b;" horiz-adv-x="512" vert-adv-y="2505" />
<glyph unicode="&#x201c;" vert-adv-y="2505" d="M315 987l44 218q68 331 371 374l-19 -92q-136 -21 -151 -204h111l-60 -296h-296zM784 987l44 218q68 331 371 374l-19 -92q-136 -21 -152 -204h112l-60 -296h-296z" />
<glyph unicode="&#x201d;" vert-adv-y="2505" d="M339 987l19 93q137 20 152 203h-111l59 296h296l-44 -218q-68 -331 -371 -374zM808 987l19 93q136 19 151 203h-111l60 296h296l-44 -218q-68 -331 -371 -374z" />
<glyph unicode="&#x201e;" vert-adv-y="2505" d="M83 -296l18 92q138 20 152 204h-111l59 296h296l-43 -218q-68 -332 -371 -374zM552 -296l18 92q136 20 152 204h-111l59 296h296l-43 -218q-68 -332 -371 -374z" />
<glyph unicode="&#x2020;" vert-adv-y="2505" d="M205 777l45 222l343 -74l86 555h259l-135 -555l372 74l-44 -222l-347 56l-201 -1129h-259l250 1129z" />
<glyph unicode="&#x2021;" vert-adv-y="2505" d="M86 185l44 222l345 -68l98 494l-369 -56l45 222l343 -74l86 555h259l-135 -555l372 74l-44 -222l-347 56l-99 -494l372 68l-45 -222l-345 62l-84 -543h-259l133 543z" />
<glyph unicode="&#x2022;" horiz-adv-x="717" vert-adv-y="2505" d="M250 792q0 129 105 230q104 101 236 101q98 0 162 -64q63 -63 63 -161q0 -129 -104 -229q-104 -101 -236 -101q-88 0 -149 52q-77 65 -77 172z" />
<glyph unicode="&#x2026;" horiz-adv-x="2048" vert-adv-y="2505" d="M230 0l44 222h222l-44 -222h-222zM913 0l44 222h222l-44 -222h-222zM1595 0l45 222h222l-45 -222h-222z" />
<glyph unicode="&#x2030;" horiz-adv-x="2048" vert-adv-y="2505" d="M51 -37l1418 1554h124l-1419 -1554h-123zM232 988q0 213 111 352q111 140 290 140q252 0 252 -252q0 -216 -111 -353q-112 -138 -296 -138q-246 0 -246 251zM422 956q0 -124 80 -124q66 0 121 105q72 140 72 323q0 125 -82 125q-69 0 -125 -117q-66 -140 -66 -312z M757 250q0 214 111 353t290 139q252 0 252 -251q0 -216 -112 -353q-112 -138 -296 -138q-245 0 -245 250zM947 221q0 -126 80 -126q66 0 121 105q72 140 72 323q0 125 -82 125q-70 0 -125 -118q-66 -142 -66 -309zM1457 251q0 213 111 352t291 139q252 0 252 -251 q0 -216 -112 -353q-112 -138 -296 -138q-246 0 -246 251zM1647 219q0 -124 80 -124q66 0 121 105q73 140 73 322q0 126 -82 126q-69 0 -125 -118q-67 -142 -67 -311z" />
<glyph unicode="&#x2039;" horiz-adv-x="682" vert-adv-y="2505" d="M178 549l533 438l63 -62l-296 -376l145 -376l-88 -62z" />
<glyph unicode="&#x203a;" horiz-adv-x="682" vert-adv-y="2505" d="M128 173l295 376l-144 376l88 62l357 -438l-533 -438z" />
<glyph unicode="&#x203e;" vert-adv-y="2505" d="M378 1456l30 148h851l-30 -148h-851z" />
<glyph unicode="&#x2044;" horiz-adv-x="342" vert-adv-y="2505" d="M-452 -37l1419 1554h123l-1418 -1554h-124z" />
<glyph unicode="&#x20ac;" vert-adv-y="2505" d="M111 555l40 99h75q11 97 38 185h-96l40 99h86q65 160 121 248q208 331 533 331q116 0 317 -65l-56 -280h-148l4 19q11 53 11 109q0 121 -129 121q-141 0 -241 -158q-68 -108 -126 -325h435l-52 -99h-406l-10 -40q-2 -8 -12 -55q-10 -51 -12 -65l-4 -25h345l-52 -99h-309 q-14 -104 -14 -156q0 -312 244 -312q110 0 261 79l-26 -131q-165 -72 -300 -72q-204 0 -329 134q-126 134 -126 361q0 39 3 97h-105z" />
<glyph unicode="&#x2122;" horiz-adv-x="2048" vert-adv-y="2505" d="M286 1246l47 234h839l-47 -234h-105l27 136h-203l-111 -555h117l-20 -99h-456l20 99h117l111 555h-204l-27 -136h-105zM1120 728l20 99h111l111 555h-111l20 98h370l82 -410l239 410h357l-19 -98h-118l-111 -555h118l-20 -99h-346l98 489l-262 -427h-92l-85 390l-90 -452 h-272z" />
<glyph unicode="&#x212e;" horiz-adv-x="909" vert-adv-y="2505" d="M140 377q0 310 169 528q168 218 414 218q279 0 279 -302q0 -130 -30 -260l-5 -22h-507q-23 -131 -23 -203q0 -212 192 -212q116 0 269 69l-30 -150q-181 -68 -338 -68q-390 0 -390 402zM486 632h208q46 231 46 311q0 87 -54 87q-109 0 -200 -398z" />
<glyph unicode="&#x2212;" horiz-adv-x="1628" vert-adv-y="2505" d="M326 518l29 148h1185l-30 -148h-1184z" />
<glyph unicode="&#x2215;" horiz-adv-x="342" vert-adv-y="2505" d="M-452 -37l1419 1554h123l-1418 -1554h-124z" />
<glyph unicode="&#x2219;" horiz-adv-x="512" vert-adv-y="2505" d="M202 469l59 296h296l-59 -296h-296z" />
<glyph unicode="&#x22c5;" horiz-adv-x="512" vert-adv-y="2505" d="M202 469l59 296h296l-59 -296h-296z" />
<glyph unicode="&#xe000;" horiz-adv-x="1100" vert-adv-y="2200" d="M0 1100h1100v-1100h-1100v1100z" />
<glyph unicode="&#xea01;" horiz-adv-x="1139" vert-adv-y="2505" d="M46 0l19 93l18 1q70 5 84 28q14 20 24 69l22 99l141 709h-108l20 99h108l11 53q95 453 478 453q119 0 216 -47l-50 -249h-123l2 18l12 74q4 25 4 45q0 61 -56 61q-116 0 -161 -225l-37 -183h555l-161 -808l-18 -99q-7 -33 -7 -44q0 -49 76 -53l18 -1l-19 -93h-503l19 93 q63 3 83 20q20 19 33 78l22 99l142 709h-259l-142 -709l-18 -99q-8 -33 -8 -45q0 -51 85 -53l-19 -93h-503z" />
<glyph unicode="&#xea02;" horiz-adv-x="1139" vert-adv-y="2505" d="M46 0l18 93l19 1q66 4 81 25q15 19 27 72l21 99l142 709h-108l19 99h109l11 53q95 453 477 453q108 0 160 -22l7 -3h292l-257 -1289l-18 -99q-7 -33 -7 -44q0 -49 75 -53l19 -1l-19 -93h-503l18 93q63 3 84 20q20 19 33 78l22 99l228 1143q-50 72 -117 72 q-127 0 -172 -224l-37 -183h109l-20 -99h-109l-142 -709l-17 -99q-8 -33 -8 -45q0 -51 85 -53l-19 -93h-503z" />
<glyph unicode="&#xf001;" horiz-adv-x="1139" vert-adv-y="2505" d="M46 0l19 93l18 1q70 5 84 28q14 20 24 69l22 99l141 709h-108l20 99h108l11 53q95 453 478 453q119 0 216 -47l-50 -249h-123l2 18l12 74q4 25 4 45q0 61 -56 61q-116 0 -161 -225l-37 -183h555l-161 -808l-18 -99q-7 -33 -7 -44q0 -49 76 -53l18 -1l-19 -93h-503l19 93 q63 3 83 20q20 19 33 78l22 99l142 709h-259l-142 -709l-18 -99q-8 -33 -8 -45q0 -51 85 -53l-19 -93h-503z" />
<glyph unicode="&#xfb01;" horiz-adv-x="1139" vert-adv-y="2505" d="M46 0l19 93l18 1q70 5 84 28q14 20 24 69l22 99l141 709h-108l20 99h108l11 53q95 453 478 453q119 0 216 -47l-50 -249h-123l2 18l12 74q4 25 4 45q0 61 -56 61q-116 0 -161 -225l-37 -183h555l-161 -808l-18 -99q-7 -33 -7 -44q0 -49 76 -53l18 -1l-19 -93h-503l19 93 q63 3 83 20q20 19 33 78l22 99l142 709h-259l-142 -709l-18 -99q-8 -33 -8 -45q0 -51 85 -53l-19 -93h-503z" />
<glyph unicode="&#xf002;" horiz-adv-x="1139" vert-adv-y="2505" d="M46 0l18 93l19 1q66 4 81 25q15 19 27 72l21 99l142 709h-108l19 99h109l11 53q95 453 477 453q108 0 160 -22l7 -3h292l-257 -1289l-18 -99q-7 -33 -7 -44q0 -49 75 -53l19 -1l-19 -93h-503l18 93q63 3 84 20q20 19 33 78l22 99l228 1143q-50 72 -117 72 q-127 0 -172 -224l-37 -183h109l-20 -99h-109l-142 -709l-17 -99q-8 -33 -8 -45q0 -51 85 -53l-19 -93h-503z" />
<glyph unicode="&#xfb02;" horiz-adv-x="1139" vert-adv-y="2505" d="M46 0l18 93l19 1q66 4 81 25q15 19 27 72l21 99l142 709h-108l19 99h109l11 53q95 453 477 453q108 0 160 -22l7 -3h292l-257 -1289l-18 -99q-7 -33 -7 -44q0 -49 75 -53l19 -1l-19 -93h-503l18 93q63 3 84 20q20 19 33 78l22 99l228 1143q-50 72 -117 72 q-127 0 -172 -224l-37 -183h109l-20 -99h-109l-142 -709l-17 -99q-8 -33 -8 -45q0 -51 85 -53l-19 -93h-503z" />
<glyph unicode="&#xf004;" horiz-adv-x="614" vert-adv-y="2505" d="M166 830l25 125l442 537h171l-103 -514h99l-30 -148h-98l-11 -56q-10 -50 -10 -78q0 -31 44 -33l17 -1h11l-14 -70h-355l14 70h11q57 0 71 28q14 25 26 84l11 56h-321zM297 978h219l71 352z" />
<glyph unicode="&#xf6be;" horiz-adv-x="682" vert-adv-y="2505" d="M-180 -379l54 268h161l-3 -19l-10 -69q-3 -19 -3 -44q0 -85 81 -85q97 0 133 177l20 98l172 861l18 99q7 33 7 44q0 49 -76 53l-18 1l18 93h405l-215 -1076q-88 -442 -505 -442q-105 0 -239 41zM520 1283l59 296h296l-59 -296h-296z" />
<glyph horiz-adv-x="512" vert-adv-y="2505" />
<glyph horiz-adv-x="512" vert-adv-y="2505" />
<glyph horiz-adv-x="512" vert-adv-y="2505" />
<glyph horiz-adv-x="512" vert-adv-y="2505" />
<glyph horiz-adv-x="512" vert-adv-y="2505" />
<glyph horiz-adv-x="512" vert-adv-y="2505" />
<glyph horiz-adv-x="512" vert-adv-y="2505" />
<glyph horiz-adv-x="512" vert-adv-y="2505" />
<glyph horiz-adv-x="512" vert-adv-y="2505" />
<glyph horiz-adv-x="512" vert-adv-y="2505" />
<glyph horiz-adv-x="512" vert-adv-y="2505" />
<glyph horiz-adv-x="512" vert-adv-y="2505" />
<glyph horiz-adv-x="512" vert-adv-y="2505" />
<glyph vert-adv-y="1024" />
<glyph horiz-adv-x="512" vert-adv-y="2505" />
<glyph horiz-adv-x="512" vert-adv-y="2505" />
</font>
</defs>
</svg>
